<svg xmlns="http://www.w3.org/2000/svg" width="944" height="152.4" preserveAspectRatio="none"><g fill="#fff"><path d="M471.1 1.3s0 .1 0 .1l.9-.1.9.1c0-.1 0-.1 0-.1h.1c0-.6 0-1.3 0-1.3h-2.1s0 .7 0 1.3h.2zM626.6 55.4h2v2h-2zM718.6 55.4h2v2h-2zM630.6 55.4h2v2h-2zM618.6 55.4h2v2h-2zM646.6 55.4h2v2h-2zM642.6 55.4h2v2h-2zM614.6 55.4h2v2h-2zM638.6 55.4h2v2h-2zM634.6 55.4h2v2h-2zM578.6 55.4h2v2h-2zM594.6 55.4h2v2h-2zM586.6 55.4h2v2h-2zM582.6 55.4h2v2h-2zM598.6 55.4h2v2h-2zM610.6 55.4h2v2h-2zM606.6 55.4h2v2h-2zM602.6 55.4h2v2h-2zM590.6 55.4h2v2h-2zM686.6 55.4h2v2h-2zM702.6 55.4h2v2h-2zM698.6 55.4h2v2h-2zM690.6 55.4h2v2h-2zM694.6 55.4h2v2h-2zM706.6 55.4h2v2h-2zM714.6 55.4h2v2h-2zM710.6 55.4h2v2h-2zM670.6 55.4h2v2h-2zM662.6 55.4h2v2h-2zM666.6 55.4h2v2h-2zM658.6 55.4h2v2h-2zM654.6 55.4h2v2h-2zM650.6 55.4h2v2h-2zM678.6 55.4h2v2h-2zM682.6 55.4h2v2h-2zM674.6 55.4h2v2h-2zM622.6 55.4h2v2h-2zM492.5 46c.5.4 1.1.8 1.6 1.2l1.2-1.6c-.5-.4-1-.8-1.5-1.2l-1.3 1.6zM489.5 43.3c.5.5 1 .9 1.5 1.4l1.3-1.5c-.5-.4-1-.9-1.4-1.3l-1.4 1.4zM486.6 40.4c.4.5.9 1 1.4 1.5l1.4-1.4c-.5-.5-.9-1-1.3-1.4l-1.5 1.3zM485.6 36l-1.6 1.2c.4.5.8 1.1 1.3 1.6l1.5-1.3c-.4-.4-.8-.9-1.2-1.5zM502.9 52.4c.6.3 1.2.5 1.9.8l.8-1.9c-.6-.2-1.2-.5-1.8-.8l-.9 1.9zM483.4 32.8l-1.7 1.1c.4.6.7 1.1 1.1 1.7l1.6-1.1c-.3-.6-.7-1.1-1-1.7zM499.3 50.6c.6.3 1.2.6 1.8 1l.9-1.8c-.6-.3-1.2-.6-1.7-.9l-1 1.7zM495.8 48.5c.6.4 1.1.7 1.7 1.1l1-1.7c-.6-.3-1.1-.7-1.6-1.1l-1.1 1.7zM478 22.3l-1.9.7c.2.6.5 1.2.8 1.9l1.8-.8c-.2-.5-.4-1.2-.7-1.8zM472 8.5c.1.3.1.6.2 1l2-.4c-.1-.7-.3-1.3-.4-1.9l-1.6.3c0-.1 0-.1 0-.2l-2-.3c-.1.6-.2 1.3-.3 1.9l2 .4c0-.3.1-.6.1-.8zM474.5 11l-2 .4c.1.6.3 1.3.5 2l2-.4c-.2-.7-.3-1.3-.5-2zM471.5 5.5l2-.3c-.1-.7-.2-1.4-.2-2l-.5.1s0-.1 0-.1l-2-.2c-.1.6-.1 1.2-.2 2l.9.1c0 .1 0 .2 0 .4zM475.5 14.9l-1.9.5c.2.6.4 1.3.6 1.9l1.9-.6c-.2-.6-.4-1.2-.6-1.8zM479.6 26l-1.8.9c.3.6.6 1.2.9 1.8l1.8-.9c-.3-.7-.6-1.3-.9-1.8zM476.7 18.6l-1.9.6c.2.6.4 1.3.7 1.9l1.9-.7c-.3-.5-.5-1.1-.7-1.8zM481.4 29.5l-1.8 1c.3.6.7 1.2 1 1.8l1.7-1c-.3-.7-.6-1.3-.9-1.8zM506.7 54c.6.2 1.3.4 1.9.7l.6-1.9c-.6-.2-1.2-.4-1.9-.6l-.6 1.8zM558.6 55.4h2v2h-2zM554.6 55.4h2v2h-2zM574.6 55.4h2v2h-2zM550.6 55.4h2v2h-2zM546.6 55.4h2v2h-2zM542.6 55.4h2v2h-2zM570.6 55.4h2v2h-2zM510.5 55.2c.6.2 1.3.3 2 .5l.5-1.9c-.6-.2-1.3-.3-1.9-.5l-.6 1.9zM562.6 55.4h2v2h-2zM566.6 55.4h2v2h-2zM522.5 57.2c.7 0 1.3.1 2 .1l.1-2c-.7 0-1.3-.1-2-.1l-.1 2zM518.5 56.8c.7.1 1.3.2 2 .2l.2-2c-.7-.1-1.3-.1-2-.2l-.2 2zM514.5 56.1c.7.1 1.3.3 2 .4l.3-2c-.7-.1-1.3-.2-1.9-.4l-.4 2zM534.6 55.4h2v2h-2zM538.6 55.4h2v2h-2zM526.6 55.4v2c.5 0 1 0 1.4 0h.6v-2h-.6c-.5 0-.9 0-1.4 0zM530.6 55.4h2v2h-2zM943.2 135.5l-2 .2c.1.7.1 1.3.2 2l2-.2c-.1-.7-.2-1.3-.2-2zM910.4 73.9c.5.4 1 .8 1.5 1.2l1.3-1.6c-.5-.4-1.1-.8-1.6-1.3l-1.2 1.7zM907.3 71.6c.5.4 1.1.7 1.6 1.1l1.2-1.6c-.6-.4-1.1-.8-1.7-1.2l-1.1 1.7zM897 65.7c.6.3 1.2.6 1.8.9l.9-1.8c-.6-.3-1.2-.6-1.8-.9l-.9 1.8zM900.5 67.5c.6.3 1.2.6 1.7 1l1-1.7c-.6-.3-1.2-.7-1.8-1l-.9 1.7zM903.9 69.4c.6.3 1.1.7 1.7 1l1.1-1.7c-.6-.4-1.1-.7-1.7-1.1l-1.1 1.8zM920.6 80.4l-1.5 1.4c.4.5.9 1 1.3 1.5l1.5-1.3c-.3-.6-.8-1.1-1.3-1.6zM913.5 76.3c.5.4 1 .9 1.5 1.3l1.3-1.5c-.5-.5-1-.9-1.5-1.3l-1.3 1.5zM923.3 83.5l-1.5 1.3c.4.5.8 1 1.2 1.5l1.6-1.2c-.4-.6-.8-1.1-1.3-1.6zM917.8 77.6l-1.4 1.4c.5.5.9.9 1.4 1.4l1.4-1.4c-.4-.5-.9-1-1.4-1.4zM870.5 58c.6.1 1.3.2 2 .3l.3-2c-.7-.1-1.3-.2-2-.3l-.3 2zM893.4 64.1c.6.3 1.2.5 1.8.8l.8-1.9c-.6-.3-1.2-.5-1.9-.8l-.7 1.9zM874.4 58.6c.6.1 1.3.2 1.9.4l.4-2c-.7-.1-1.3-.3-2-.4l-.3 2zM866.6 57.5c.6.1 1.3.1 2 .2l.2-2c-.7-.1-1.3-.2-2-.2l-.2 2zM878.3 59.4c.6.1 1.3.3 1.9.4l.5-1.9c-.7-.2-1.3-.3-2-.5l-.4 2zM889.7 62.7c.6.2 1.2.5 1.9.7l.7-1.9c-.6-.2-1.3-.5-1.9-.7l-.7 1.9zM882.1 60.3c.6.2 1.3.3 1.9.5l.6-1.9c-.7-.2-1.3-.4-1.9-.5l-.6 1.9zM885.9 61.4c.6.2 1.3.4 1.9.6l.6-1.9c-.6-.2-1.3-.4-1.9-.6l-.6 1.9zM930.3 93.4l-1.7 1c.3.6.7 1.1 1 1.7l1.7-1c-.3-.5-.7-1.1-1-1.7zM925.8 86.7l-1.6 1.2c.4.5.8 1.1 1.2 1.6l1.6-1.2c-.4-.6-.8-1.1-1.2-1.6zM941.4 123.6l-2 .4c.1.6.3 1.3.4 1.9l2-.4c-.2-.6-.3-1.3-.4-1.9zM942.1 127.5l-2 .3c.1.6.2 1.3.3 2l2-.3c-.1-.6-.2-1.3-.3-2zM940.5 119.6l-1.9.5c.1.6.3 1.3.4 1.9l2-.4c-.2-.7-.3-1.3-.5-2zM943.9 147.6l-2 .1c0 .7 0 1.3 0 2h2c.1-.8.1-1.5 0-2.1zM939.5 115.7l-1.9.5c.2.6.3 1.3.5 1.9l1.9-.5c-.1-.6-.3-1.2-.5-1.9zM943.5 139.5l-2 .2c.1.7.1 1.3.1 2l2-.1c0-.7 0-1.4-.1-2.1zM943.8 143.5l-2 .1c0 .7.1 1.3.1 2l2-.1c-.1-.6-.1-1.3-.1-2zM942.7 131.5l-2 .3c.1.7.2 1.3.2 2l2-.2c0-.8-.1-1.4-.2-2.1zM932.3 96.9l-1.8.9c.3.6.6 1.2.9 1.8l1.8-.9c-.3-.6-.6-1.2-.9-1.8zM862.6 57.2c.6 0 1.3.1 2 .1l.2-2c-.7-.1-1.4-.1-2-.1l-.2 2zM928.1 90l-1.7 1.1c.4.5.7 1.1 1.1 1.7l1.7-1.1c-.3-.6-.7-1.2-1.1-1.7zM937.1 108l-1.9.7c.2.6.4 1.2.6 1.9l1.9-.6c-.1-.7-.4-1.3-.6-2zM934.1 100.6l-1.8.8c.3.6.5 1.2.8 1.8l1.8-.8c-.3-.6-.6-1.2-.8-1.8zM938.4 111.9l-1.9.6c.2.6.4 1.3.6 1.9l1.9-.6c-.2-.7-.4-1.3-.6-1.9zM935.7 104.3l-1.8.8c.2.6.5 1.2.7 1.8l1.9-.7c-.3-.7-.6-1.3-.8-1.9zM858.6 57c.6 0 1.3 0 2 .1l.1-2c-.7 0-1.4-.1-2-.1l-.1 2zM770.6 55.4h2v2h-2zM762.6 55.4h2v2h-2zM766.6 55.4h2v2h-2zM758.6 55.4h2v2h-2zM782.6 55.4h2v2h-2zM754.6 55.4h2v2h-2zM778.6 55.4h2v2h-2zM774.6 55.4h2v2h-2zM722.6 55.4h2v2h-2zM726.6 55.4h2v2h-2zM730.6 55.4h2v2h-2zM786.6 55.4h2v2h-2zM734.6 55.4h2v2h-2zM742.6 55.4h2v2h-2zM746.6 55.4h2v2h-2zM750.6 55.4h2v2h-2zM738.6 55.4h2v2h-2zM802.6 55.4h2v2h-2zM834.6 55.4h2v2h-2zM842.6 55.4h2v2h-2zM838.6 55.4h2v2h-2zM830.6 55.4h2v2h-2zM854.7 55v2c.4 0 .9 0 1.3 0h.7v-2h-.7c-.5 0-.9 0-1.3 0zM826.6 55.4h2v2h-2zM847.1 55.4h-.4v2h.6s.5-.1 1.5-.1l-.2-2c-.8.1-1.3.1-1.5.1zM850.6 55.1l.1 2c.6 0 1.3-.1 2-.1l-.1-2c-.7.1-1.4.1-2 .1zM810.6 55.4h2v2h-2zM794.6 55.4h2v2h-2zM798.6 55.4h2v2h-2zM806.6 55.4h2v2h-2zM790.6 55.4h2v2h-2zM814.6 55.4h2v2h-2zM818.6 55.4h2v2h-2zM822.6 55.4h2v2h-2zM944 151.4h-2v1h2zM0 152.4h2v-1H0zM115.6 55.4h2v2h-2zM119.6 55.4h2v2h-2zM111.6 55.4h2v2h-2zM131.6 55.4h2v2h-2zM127.6 55.4h2v2h-2zM123.6 55.4h2v2h-2zM83.5 55.1l.1 2c.7 0 1.3 0 2-.1v-2c-.7 0-1.4.1-2.1.1zM87.5 55v2h.4c.5 0 1.1 0 1.5 0v-2c-.5 0-1 0-1.6 0h-.3zM135.6 55.4h2v2h-2zM79.5 55.3l.2 2c.7-.1 1.3-.1 2-.1l-.1-2c-.8 0-1.4.1-2.1.1zM91.5 57.1c.7 0 1.4.1 2 .1l.1-2c-.6 0-1.3-.1-2-.1l-.1 2zM103.6 55.4h2v2h-2zM107.6 55.4h2v2h-2zM95.6 55.3l-.2 2c.8.1 1.2.1 1.3.1h.8v-2h-.7c-.1 0-.5 0-1.2-.1zM99.6 55.4h2v2h-2zM199.6 55.4h2v2h-2zM183.6 55.4h2v2h-2zM187.6 55.4h2v2h-2zM175.6 55.4h2v2h-2zM179.6 55.4h2v2h-2zM191.6 55.4h2v2h-2zM203.6 55.4h2v2h-2zM195.6 55.4h2v2h-2zM75.5 55.7l.2 2c.7-.1 1.3-.1 2-.2l-.2-2c-.7.1-1.4.1-2 .2zM151.6 55.4h2v2h-2zM155.6 55.4h2v2h-2zM147.6 55.4h2v2h-2zM139.6 55.4h2v2h-2zM143.6 55.4h2v2h-2zM171.6 55.4h2v2h-2zM159.6 55.4h2v2h-2zM167.6 55.4h2v2h-2zM163.6 55.4h2v2h-2zM27.8 76l1.3 1.5c.5-.4 1-.9 1.5-1.3l-1.3-1.5c-.5.4-1 .9-1.5 1.3zM4 117.5l1.9.5c.2-.6.3-1.3.5-1.9l-1.9-.5c-.2.6-.3 1.2-.5 1.9zM5.1 113.6l1.9.6c.2-.6.4-1.3.6-1.9l-1.9-.6c-.2.6-.4 1.2-.6 1.9zM71.5 56.3l.3 2c.7-.1 1.3-.2 2-.3l-.3-2c-.7.1-1.4.2-2 .3zM6.3 109.7l1.9.6c.2-.6.4-1.3.7-1.9l-1.9-.6c-.3.7-.5 1.3-.7 1.9zM2.3 125.3l2 .4c.1-.7.2-1.3.4-1.9l-2-.4c-.2.6-.3 1.3-.4 1.9zM7.7 105.9l1.9.7c.2-.6.5-1.2.7-1.8l-1.8-.8c-.3.7-.6 1.3-.8 1.9zM10.9 98.5l1.8.9c.3-.6.6-1.2.9-1.8l-1.8-.9c-.3.6-.6 1.2-.9 1.8zM9.2 102.2l1.8.8c.3-.6.5-1.2.8-1.8l-1.8-.8c-.2.6-.5 1.2-.8 1.8zM1.1 133.3l2 .2c.1-.7.2-1.3.3-2l-2-.3c-.2.8-.2 1.4-.3 2.1zM1.6 129.3l2 .3c.1-.7.2-1.3.3-2l-2-.3c-.1.7-.2 1.3-.3 2zM.1 145.3l2 .1c0-.7.1-1.3.1-2l-2-.1c0 .7 0 1.4-.1 2zM207.6 55.4h2v2h-2zM0 149.3h2c0-.7 0-1.3 0-2l-2-.1c0 .8 0 1.5 0 2.1zM12.8 95l1.7 1c.3-.6.7-1.1 1-1.7l-1.7-1c-.3.5-.7 1.1-1 1.7zM.7 137.3l2 .2c.1-.7.1-1.3.2-2l-2-.2c-.1.7-.2 1.3-.2 2zM.3 141.3l2 .1c0-.7.1-1.3.1-2l-2-.2c0 .8 0 1.4-.1 2.1zM3.1 121.4l2 .4c.1-.7.3-1.3.4-1.9l-1.9-.5c-.2.7-.4 1.3-.5 2zM51.9 61.4l.7 1.9c.6-.2 1.2-.5 1.9-.7l-.7-1.9c-.6.2-1.2.5-1.9.7zM41 66.6l1 1.7c.6-.3 1.2-.6 1.7-1l-.9-1.8c-.7.4-1.2.7-1.8 1.1zM48.2 63l.8 1.8c.6-.3 1.2-.5 1.8-.8l-.8-1.8c-.6.2-1.2.5-1.8.8zM44.5 64.7l.9 1.8c.6-.3 1.2-.6 1.8-.9l-.8-1.8c-.6.3-1.3.6-1.9.9zM55.8 60l.6 1.9c.6-.2 1.3-.4 1.9-.6l-.6-1.9c-.7.2-1.3.4-1.9.6zM67.5 57l.4 2c.7-.1 1.3-.2 1.9-.4l-.3-2c-.7.1-1.4.2-2 .4zM63.5 57.8l.5 1.9c.6-.2 1.3-.3 1.9-.4l-.4-2c-.7.2-1.3.4-2 .5zM59.6 58.9l.5 1.9c.6-.2 1.3-.4 1.9-.5l-.5-1.9c-.6.1-1.2.3-1.9.5zM24.9 78.8l1.4 1.4c.5-.5.9-.9 1.4-1.4l-1.4-1.4c-.4.5-.9.9-1.4 1.4zM22.1 81.8l1.5 1.3c.4-.5.9-1 1.3-1.5l-1.5-1.4c-.4.6-.8 1.1-1.3 1.6zM19.5 84.9l1.6 1.2c.4-.5.8-1 1.2-1.5l-1.5-1.3c-.4.5-.8 1.1-1.3 1.6zM17.1 88.1l1.6 1.2c.4-.5.8-1.1 1.2-1.6l-1.6-1.2c-.4.5-.8 1.1-1.2 1.6zM30.9 73.4l1.3 1.6c.5-.4 1-.8 1.6-1.2l-1.2-1.6c-.6.4-1.2.8-1.7 1.2zM34.1 70.9l1.2 1.6c.5-.4 1.1-.8 1.6-1.1l-1.1-1.7c-.6.5-1.1.8-1.7 1.2zM37.5 68.7l1.1 1.7c.6-.4 1.1-.7 1.7-1l-1-1.7c-.7.2-1.2.6-1.8 1zM14.9 91.5l1.7 1.1c.4-.6.7-1.1 1.1-1.7L16 89.8c-.4.6-.8 1.1-1.1 1.7zM307.6 55.4h2v2h-2zM391.6 55.4h2v2h-2zM407.6 55.4h2v2h-2zM423.5 55l.2 2c.7-.1 1.4-.2 2-.2l-.3-2c-.6.1-1.2.2-1.9.2zM395.6 55.4h2v2h-2zM399.6 55.4h2v2h-2zM419.6 55.3l.1 2c.7 0 1.4-.1 2-.1l-.2-2c-.6.1-1.3.1-1.9.1zM355.6 55.4h2v2h-2zM411.6 55.4h2v2h-2zM403.6 55.4h2v2h-2zM363.6 55.4h2v2h-2zM387.6 55.4h2v2h-2zM367.6 55.4h2v2h-2zM359.6 55.4h2v2h-2zM371.6 55.4h2v2h-2zM375.6 55.4h2v2h-2zM383.6 55.4h2v2h-2zM379.6 55.4h2v2h-2zM416 55.4h-.3v2h.3c.6 0 1.1 0 1.7 0v-2c-.6 0-1.2 0-1.7 0zM457.3 37.4l1.6 1.3c.4-.5.8-1.1 1.3-1.6l-1.6-1.2c-.5.5-.9 1-1.3 1.5zM461.8 31l1.7 1c.3-.6.7-1.2 1-1.8l-1.8-1c-.3.6-.6 1.2-.9 1.8zM465.3 23.9l1.8.8c.3-.6.5-1.3.8-1.9l-1.9-.7c-.2.6-.4 1.2-.7 1.8zM459.6 34.3l1.6 1.1c.4-.6.8-1.1 1.1-1.7l-1.7-1.1c-.2.6-.6 1.1-1 1.7zM463.6 27.5l1.8.9c.3-.6.6-1.2.9-1.8l-1.8-.8c-.3.5-.6 1.1-.9 1.7zM469.5 10.8c-.1.6-.3 1.3-.4 1.9l1.9.5c.2-.7.3-1.3.5-2l-2-.4zM468 16.5l1.9.6c.2-.7.4-1.3.6-1.9l-1.9-.5c-.2.6-.4 1.2-.6 1.8zM427.4 54.5l.3 2c.7-.1 1.3-.2 2-.4l-.4-2c-.6.2-1.3.3-1.9.4zM466.8 20.3l1.9.7c.2-.6.5-1.3.7-1.9l-1.9-.6c-.3.5-.5 1.2-.7 1.8zM438.7 51.3l.8 1.8c.6-.3 1.3-.5 1.9-.8l-.8-1.8c-.7.3-1.3.6-1.9.8zM435 52.7l.6 1.9c.7-.2 1.3-.4 1.9-.7l-.7-1.9c-.5.2-1.2.4-1.8.7zM431.2 53.7l.5 1.9c.7-.2 1.3-.3 2-.5l-.5-1.9c-.7.2-1.3.4-2 .5zM442.2 49.7l.9 1.8c.6-.3 1.2-.6 1.8-1l-1-1.7c-.5.3-1.1.6-1.7.9zM448.9 45.5l1.2 1.6c.5-.4 1.1-.8 1.6-1.3l-1.3-1.5c-.5.5-1 .9-1.5 1.2zM451.9 43.1l1.3 1.5c.5-.5 1-.9 1.5-1.4l-1.4-1.4c-.4.4-.9.8-1.4 1.3zM454.7 40.4l1.4 1.4c.5-.5.9-1 1.4-1.5L456 39c-.4.4-.8.9-1.3 1.4zM445.6 47.8l1.1 1.7c.6-.4 1.2-.7 1.7-1.1l-1.1-1.7c-.6.3-1.1.7-1.7 1.1zM351.6 55.4h2v2h-2zM263.6 55.4h2v2h-2zM255.6 55.4h2v2h-2zM247.6 55.4h2v2h-2zM251.6 55.4h2v2h-2zM259.6 55.4h2v2h-2zM275.6 55.4h2v2h-2zM267.6 55.4h2v2h-2zM271.6 55.4h2v2h-2zM211.6 55.4h2v2h-2zM223.6 55.4h2v2h-2zM219.6 55.4h2v2h-2zM227.6 55.4h2v2h-2zM215.6 55.4h2v2h-2zM239.6 55.4h2v2h-2zM243.6 55.4h2v2h-2zM279.6 55.4h2v2h-2zM231.6 55.4h2v2h-2zM235.6 55.4h2v2h-2zM327.6 55.4h2v2h-2zM335.6 55.4h2v2h-2zM331.6 55.4h2v2h-2zM323.6 55.4h2v2h-2zM347.6 55.4h2v2h-2zM319.6 55.4h2v2h-2zM339.6 55.4h2v2h-2zM343.6 55.4h2v2h-2zM303.6 55.4h2v2h-2zM291.6 55.4h2v2h-2zM295.6 55.4h2v2h-2zM287.6 55.4h2v2h-2zM315.6 55.4h2v2h-2zM311.6 55.4h2v2h-2zM299.6 55.4h2v2h-2zM283.6 55.4h2v2h-2z"/></g></svg>