<svg xmlns="http://www.w3.org/2000/svg" width="1243" height="450" preserveAspectRatio="none"><title>Rectangle 4</title><desc>Created with Sketch.</desc><g fill="#2E3756"><path d="M337 1c0-.6-.4-1-1-1h-3c-.6 0-1 .4-1 1s.4 1 1 1h3c.6 0 1-.4 1-1zM301 1c0-.6-.4-1-1-1h-3c-.6 0-1 .4-1 1s.4 1 1 1h3c.6 0 1-.4 1-1zM331.9 448h-3c-.6 0-1 .4-1 1s.4 1 1 1h3c.6 0 1-.4 1-1s-.5-1-1-1zM325.9 448h-3c-.6 0-1 .4-1 1s.4 1 1 1h3c.6 0 1-.4 1-1s-.5-1-1-1zM343.9 448h-3c-.6 0-1 .4-1 1s.4 1 1 1h3c.6 0 1-.4 1-1s-.5-1-1-1zM325 1c0-.6-.4-1-1-1h-3c-.6 0-1 .4-1 1s.4 1 1 1h3c.6 0 1-.4 1-1zM337.9 448h-3c-.6 0-1 .4-1 1s.4 1 1 1h3c.6 0 1-.4 1-1s-.5-1-1-1zM343 1c0-.6-.4-1-1-1h-3c-.6 0-1 .4-1 1s.4 1 1 1h3c.6 0 1-.4 1-1zM331 1c0-.6-.4-1-1-1h-3c-.6 0-1 .4-1 1s.4 1 1 1h3c.6 0 1-.4 1-1zM319.9 448h-3c-.6 0-1 .4-1 1s.4 1 1 1h3c.6 0 1-.4 1-1s-.5-1-1-1zM307 1c0-.6-.4-1-1-1h-3c-.6 0-1 .4-1 1s.4 1 1 1h3c.6 0 1-.4 1-1zM403 1c0-.6-.4-1-1-1h-3c-.6 0-1 .4-1 1s.4 1 1 1h3c.6 0 1-.4 1-1zM307.9 448h-3c-.6 0-1 .4-1 1s.4 1 1 1h3c.6 0 1-.4 1-1s-.5-1-1-1zM313 1c0-.6-.4-1-1-1h-3c-.6 0-1 .4-1 1s.4 1 1 1h3c.6 0 1-.4 1-1zM349 1c0-.6-.4-1-1-1h-3c-.6 0-1 .4-1 1s.4 1 1 1h3c.6 0 1-.4 1-1zM313.9 448h-3c-.6 0-1 .4-1 1s.4 1 1 1h3c.6 0 1-.4 1-1s-.5-1-1-1zM319 1c0-.6-.4-1-1-1h-3c-.6 0-1 .4-1 1s.4 1 1 1h3c.6 0 1-.4 1-1zM385 1c0-.6-.4-1-1-1h-3c-.6 0-1 .4-1 1s.4 1 1 1h3c.6 0 1-.4 1-1zM391 1c0-.6-.4-1-1-1h-3c-.6 0-1 .4-1 1s.4 1 1 1h3c.6 0 1-.4 1-1zM385.9 448h-3c-.6 0-1 .4-1 1s.4 1 1 1h3c.6 0 1-.4 1-1s-.5-1-1-1zM379.9 448h-3c-.6 0-1 .4-1 1s.4 1 1 1h3c.6 0 1-.4 1-1s-.5-1-1-1zM397 1c0-.6-.4-1-1-1h-3c-.6 0-1 .4-1 1s.4 1 1 1h3c.6 0 1-.4 1-1zM391.9 448h-3c-.6 0-1 .4-1 1s.4 1 1 1h3c.6 0 1-.4 1-1s-.5-1-1-1zM397.9 448h-3c-.6 0-1 .4-1 1s.4 1 1 1h3c.6 0 1-.4 1-1s-.5-1-1-1zM379 1c0-.6-.4-1-1-1h-3c-.6 0-1 .4-1 1s.4 1 1 1h3c.6 0 1-.4 1-1zM367.9 448h-3c-.6 0-1 .4-1 1s.4 1 1 1h3c.6 0 1-.4 1-1s-.5-1-1-1zM361.9 448h-3c-.6 0-1 .4-1 1s.4 1 1 1h3c.6 0 1-.4 1-1s-.5-1-1-1zM355.9 448h-3c-.6 0-1 .4-1 1s.4 1 1 1h3c.6 0 1-.4 1-1s-.5-1-1-1zM361 1c0-.6-.4-1-1-1h-3c-.6 0-1 .4-1 1s.4 1 1 1h3c.6 0 1-.4 1-1zM355 1c0-.6-.4-1-1-1h-3c-.6 0-1 .4-1 1s.4 1 1 1h3c.6 0 1-.4 1-1zM373 1c0-.6-.4-1-1-1h-3c-.6 0-1 .4-1 1s.4 1 1 1h3c.6 0 1-.4 1-1zM373.9 448h-3c-.6 0-1 .4-1 1s.4 1 1 1h3c.6 0 1-.4 1-1s-.5-1-1-1zM367 1c0-.6-.4-1-1-1h-3c-.6 0-1 .4-1 1s.4 1 1 1h3c.6 0 1-.4 1-1zM349.9 448h-3c-.6 0-1 .4-1 1s.4 1 1 1h3c.6 0 1-.4 1-1s-.5-1-1-1zM301.9 448h-3c-.6 0-1 .4-1 1s.4 1 1 1h3c.6 0 1-.4 1-1s-.5-1-1-1zM247 1c0-.6-.4-1-1-1h-3c-.6 0-1 .4-1 1s.4 1 1 1h3c.6 0 1-.4 1-1zM229.9 448h-3c-.6 0-1 .4-1 1s.4 1 1 1h3c.6 0 1-.4 1-1s-.5-1-1-1zM235 1c0-.6-.4-1-1-1h-3c-.6 0-1 .4-1 1s.4 1 1 1h3c.6 0 1-.4 1-1zM295.9 448h-3c-.6 0-1 .4-1 1s.4 1 1 1h3c.6 0 1-.4 1-1s-.5-1-1-1zM241 1c0-.6-.4-1-1-1h-3c-.6 0-1 .4-1 1s.4 1 1 1h3c.6 0 1-.4 1-1zM241.9 448h-3c-.6 0-1 .4-1 1s.4 1 1 1h3c.6 0 1-.4 1-1s-.5-1-1-1zM235.9 448h-3c-.6 0-1 .4-1 1s.4 1 1 1h3c.6 0 1-.4 1-1s-.5-1-1-1zM223 1c0-.6-.4-1-1-1h-3c-.6 0-1 .4-1 1s.4 1 1 1h3c.6 0 1-.4 1-1zM229 1c0-.6-.4-1-1-1h-3c-.6 0-1 .4-1 1s.4 1 1 1h3c.6 0 1-.4 1-1zM205 1c0-.6-.4-1-1-1h-3c-.6 0-1 .4-1 1s.4 1 1 1h3c.6 0 1-.4 1-1zM217.9 448h-3c-.6 0-1 .4-1 1s.4 1 1 1h3c.6 0 1-.4 1-1s-.5-1-1-1zM199 1c0-.6-.4-1-1-1h-3c-.6 0-1 .4-1 1s.4 1 1 1h3c.6 0 1-.4 1-1zM205.9 448h-3c-.6 0-1 .4-1 1s.4 1 1 1h3c.6 0 1-.4 1-1s-.5-1-1-1zM199.9 448h-3c-.6 0-1 .4-1 1s.4 1 1 1h3c.6 0 1-.4 1-1s-.5-1-1-1zM217 1c0-.6-.4-1-1-1h-3c-.6 0-1 .4-1 1s.4 1 1 1h3c.6 0 1-.4 1-1zM211 1c0-.6-.4-1-1-1h-3c-.6 0-1 .4-1 1s.4 1 1 1h3c.6 0 1-.4 1-1zM211.9 448h-3c-.6 0-1 .4-1 1s.4 1 1 1h3c.6 0 1-.4 1-1s-.5-1-1-1zM223.9 448h-3c-.6 0-1 .4-1 1s.4 1 1 1h3c.6 0 1-.4 1-1s-.5-1-1-1zM283 1c0-.6-.4-1-1-1h-3c-.6 0-1 .4-1 1s.4 1 1 1h3c.6 0 1-.4 1-1zM277.9 448h-3c-.6 0-1 .4-1 1s.4 1 1 1h3c.6 0 1-.4 1-1s-.5-1-1-1zM283.9 448h-3c-.6 0-1 .4-1 1s.4 1 1 1h3c.6 0 1-.4 1-1s-.5-1-1-1zM277 1c0-.6-.4-1-1-1h-3c-.6 0-1 .4-1 1s.4 1 1 1h3c.6 0 1-.4 1-1zM247.9 448h-3c-.6 0-1 .4-1 1s.4 1 1 1h3c.6 0 1-.4 1-1s-.5-1-1-1zM295 1c0-.6-.4-1-1-1h-3c-.6 0-1 .4-1 1s.4 1 1 1h3c.6 0 1-.4 1-1zM289.9 448h-3c-.6 0-1 .4-1 1s.4 1 1 1h3c.6 0 1-.4 1-1s-.5-1-1-1zM271.9 448h-3c-.6 0-1 .4-1 1s.4 1 1 1h3c.6 0 1-.4 1-1s-.5-1-1-1zM289 1c0-.6-.4-1-1-1h-3c-.6 0-1 .4-1 1s.4 1 1 1h3c.6 0 1-.4 1-1zM253.9 448h-3c-.6 0-1 .4-1 1s.4 1 1 1h3c.6 0 1-.4 1-1s-.5-1-1-1zM271 1c0-.6-.4-1-1-1h-3c-.6 0-1 .4-1 1s.4 1 1 1h3c.6 0 1-.4 1-1zM259 1c0-.6-.4-1-1-1h-3c-.6 0-1 .4-1 1s.4 1 1 1h3c.6 0 1-.4 1-1zM253 1c0-.6-.4-1-1-1h-3c-.6 0-1 .4-1 1s.4 1 1 1h3c.6 0 1-.4 1-1zM259.9 448h-3c-.6 0-1 .4-1 1s.4 1 1 1h3c.6 0 1-.4 1-1s-.5-1-1-1zM265.9 448h-3c-.6 0-1 .4-1 1s.4 1 1 1h3c.6 0 1-.4 1-1s-.5-1-1-1zM265 1c0-.6-.4-1-1-1h-3c-.6 0-1 .4-1 1s.4 1 1 1h3c.6 0 1-.4 1-1zM523.9 448h-3c-.6 0-1 .4-1 1s.4 1 1 1h3c.6 0 1-.4 1-1s-.5-1-1-1zM547 1c0-.6-.4-1-1-1h-3c-.6 0-1 .4-1 1s.4 1 1 1h3c.6 0 1-.4 1-1zM511 1c0-.6-.4-1-1-1h-3c-.6 0-1 .4-1 1s.4 1 1 1h3c.6 0 1-.4 1-1zM541.9 448h-3c-.6 0-1 .4-1 1s.4 1 1 1h3c.6 0 1-.4 1-1s-.5-1-1-1zM541 1c0-.6-.4-1-1-1h-3c-.6 0-1 .4-1 1s.4 1 1 1h3c.6 0 1-.4 1-1zM535.9 448h-3c-.6 0-1 .4-1 1s.4 1 1 1h3c.6 0 1-.4 1-1s-.5-1-1-1zM553 1c0-.6-.4-1-1-1h-3c-.6 0-1 .4-1 1s.4 1 1 1h3c.6 0 1-.4 1-1zM559 1c0-.6-.4-1-1-1h-3c-.6 0-1 .4-1 1s.4 1 1 1h3c.6 0 1-.4 1-1zM553.9 448h-3c-.6 0-1 .4-1 1s.4 1 1 1h3c.6 0 1-.4 1-1s-.5-1-1-1zM535 1c0-.6-.4-1-1-1h-3c-.6 0-1 .4-1 1s.4 1 1 1h3c.6 0 1-.4 1-1zM523 1c0-.6-.4-1-1-1h-3c-.6 0-1 .4-1 1s.4 1 1 1h3c.6 0 1-.4 1-1zM517.9 448h-3c-.6 0-1 .4-1 1s.4 1 1 1h3c.6 0 1-.4 1-1s-.5-1-1-1zM613 1c0-.6-.4-1-1-1h-3c-.6 0-1 .4-1 1s.4 1 1 1h3c.6 0 1-.4 1-1zM511.9 448h-3c-.6 0-1 .4-1 1s.4 1 1 1h3c.6 0 1-.4 1-1s-.5-1-1-1zM193.9 448h-3c-.6 0-1 .4-1 1s.4 1 1 1h3c.6 0 1-.4 1-1s-.5-1-1-1zM559.9 448h-3c-.6 0-1 .4-1 1s.4 1 1 1h3c.6 0 1-.4 1-1s-.5-1-1-1zM529.9 448h-3c-.6 0-1 .4-1 1s.4 1 1 1h3c.6 0 1-.4 1-1s-.5-1-1-1zM529 1c0-.6-.4-1-1-1h-3c-.6 0-1 .4-1 1s.4 1 1 1h3c.6 0 1-.4 1-1zM547.9 448h-3c-.6 0-1 .4-1 1s.4 1 1 1h3c.6 0 1-.4 1-1s-.5-1-1-1zM595.9 448h-3c-.6 0-1 .4-1 1s.4 1 1 1h3c.6 0 1-.4 1-1s-.5-1-1-1zM595 1c0-.6-.4-1-1-1h-3c-.6 0-1 .4-1 1s.4 1 1 1h3c.6 0 1-.4 1-1zM601 1c0-.6-.4-1-1-1h-3c-.6 0-1 .4-1 1s.4 1 1 1h3c.6 0 1-.4 1-1zM589.9 448h-3c-.6 0-1 .4-1 1s.4 1 1 1h3c.6 0 1-.4 1-1s-.5-1-1-1zM601.9 448h-3c-.6 0-1 .4-1 1s.4 1 1 1h3c.6 0 1-.4 1-1s-.5-1-1-1zM607.9 448h-3c-.6 0-1 .4-1 1s.4 1 1 1h3c.6 0 1-.4 1-1s-.5-1-1-1zM607 1c0-.6-.4-1-1-1h-3c-.6 0-1 .4-1 1s.4 1 1 1h3c.6 0 1-.4 1-1zM589 1c0-.6-.4-1-1-1h-3c-.6 0-1 .4-1 1s.4 1 1 1h3c.6 0 1-.4 1-1zM565.9 448h-3c-.6 0-1 .4-1 1s.4 1 1 1h3c.6 0 1-.4 1-1s-.5-1-1-1zM571 1c0-.6-.4-1-1-1h-3c-.6 0-1 .4-1 1s.4 1 1 1h3c.6 0 1-.4 1-1zM565 1c0-.6-.4-1-1-1h-3c-.6 0-1 .4-1 1s.4 1 1 1h3c.6 0 1-.4 1-1zM571.9 448h-3c-.6 0-1 .4-1 1s.4 1 1 1h3c.6 0 1-.4 1-1s-.5-1-1-1zM577.9 448h-3c-.6 0-1 .4-1 1s.4 1 1 1h3c.6 0 1-.4 1-1s-.5-1-1-1zM583 1c0-.6-.4-1-1-1h-3c-.6 0-1 .4-1 1s.4 1 1 1h3c.6 0 1-.4 1-1zM583.9 448h-3c-.6 0-1 .4-1 1s.4 1 1 1h3c.6 0 1-.4 1-1s-.5-1-1-1zM577 1c0-.6-.4-1-1-1h-3c-.6 0-1 .4-1 1s.4 1 1 1h3c.6 0 1-.4 1-1zM469.9 448h-3c-.6 0-1 .4-1 1s.4 1 1 1h3c.6 0 1-.4 1-1s-.5-1-1-1zM439 1c0-.6-.4-1-1-1h-3c-.6 0-1 .4-1 1s.4 1 1 1h3c.6 0 1-.4 1-1zM445 1c0-.6-.4-1-1-1h-3c-.6 0-1 .4-1 1s.4 1 1 1h3c.6 0 1-.4 1-1zM439.9 448h-3c-.6 0-1 .4-1 1s.4 1 1 1h3c.6 0 1-.4 1-1s-.5-1-1-1zM433.9 448h-3c-.6 0-1 .4-1 1s.4 1 1 1h3c.6 0 1-.4 1-1s-.5-1-1-1zM445.9 448h-3c-.6 0-1 .4-1 1s.4 1 1 1h3c.6 0 1-.4 1-1s-.5-1-1-1zM451.9 448h-3c-.6 0-1 .4-1 1s.4 1 1 1h3c.6 0 1-.4 1-1s-.5-1-1-1zM433 1c0-.6-.4-1-1-1h-3c-.6 0-1 .4-1 1s.4 1 1 1h3c.6 0 1-.4 1-1zM451 1c0-.6-.4-1-1-1h-3c-.6 0-1 .4-1 1s.4 1 1 1h3c.6 0 1-.4 1-1zM427 1c0-.6-.4-1-1-1h-3c-.6 0-1 .4-1 1s.4 1 1 1h3c.6 0 1-.4 1-1zM409.9 448h-3c-.6 0-1 .4-1 1s.4 1 1 1h3c.6 0 1-.4 1-1s-.5-1-1-1zM427.9 448h-3c-.6 0-1 .4-1 1s.4 1 1 1h3c.6 0 1-.4 1-1s-.5-1-1-1zM409 1c0-.6-.4-1-1-1h-3c-.6 0-1 .4-1 1s.4 1 1 1h3c.6 0 1-.4 1-1zM415.9 448h-3c-.6 0-1 .4-1 1s.4 1 1 1h3c.6 0 1-.4 1-1s-.5-1-1-1zM415 1c0-.6-.4-1-1-1h-3c-.6 0-1 .4-1 1s.4 1 1 1h3c.6 0 1-.4 1-1zM421 1c0-.6-.4-1-1-1h-3c-.6 0-1 .4-1 1s.4 1 1 1h3c.6 0 1-.4 1-1zM457 1c0-.6-.4-1-1-1h-3c-.6 0-1 .4-1 1s.4 1 1 1h3c.6 0 1-.4 1-1zM421.9 448h-3c-.6 0-1 .4-1 1s.4 1 1 1h3c.6 0 1-.4 1-1s-.5-1-1-1zM487 1c0-.6-.4-1-1-1h-3c-.6 0-1 .4-1 1s.4 1 1 1h3c.6 0 1-.4 1-1zM481.9 448h-3c-.6 0-1 .4-1 1s.4 1 1 1h3c.6 0 1-.4 1-1s-.5-1-1-1zM493 1c0-.6-.4-1-1-1h-3c-.6 0-1 .4-1 1s.4 1 1 1h3c.6 0 1-.4 1-1zM493.9 448h-3c-.6 0-1 .4-1 1s.4 1 1 1h3c.6 0 1-.4 1-1s-.5-1-1-1zM505.9 448h-3c-.6 0-1 .4-1 1s.4 1 1 1h3c.6 0 1-.4 1-1s-.5-1-1-1zM487.9 448h-3c-.6 0-1 .4-1 1s.4 1 1 1h3c.6 0 1-.4 1-1s-.5-1-1-1zM505 1c0-.6-.4-1-1-1h-3c-.6 0-1 .4-1 1s.4 1 1 1h3c.6 0 1-.4 1-1zM499.9 448h-3c-.6 0-1 .4-1 1s.4 1 1 1h3c.6 0 1-.4 1-1s-.5-1-1-1zM499 1c0-.6-.4-1-1-1h-3c-.6 0-1 .4-1 1s.4 1 1 1h3c.6 0 1-.4 1-1zM463 1c0-.6-.4-1-1-1h-3c-.6 0-1 .4-1 1s.4 1 1 1h3c.6 0 1-.4 1-1zM469 1c0-.6-.4-1-1-1h-3c-.6 0-1 .4-1 1s.4 1 1 1h3c.6 0 1-.4 1-1zM463.9 448h-3c-.6 0-1 .4-1 1s.4 1 1 1h3c.6 0 1-.4 1-1s-.5-1-1-1zM457.9 448h-3c-.6 0-1 .4-1 1s.4 1 1 1h3c.6 0 1-.4 1-1s-.5-1-1-1zM475.9 448h-3c-.6 0-1 .4-1 1s.4 1 1 1h3c.6 0 1-.4 1-1s-.5-1-1-1zM481 1c0-.6-.4-1-1-1h-3c-.6 0-1 .4-1 1s.4 1 1 1h3c.6 0 1-.4 1-1zM475 1c0-.6-.4-1-1-1h-3c-.6 0-1 .4-1 1s.4 1 1 1h3c.6 0 1-.4 1-1zM403.9 448h-3c-.6 0-1 .4-1 1s.4 1 1 1h3c.6 0 1-.4 1-1s-.5-1-1-1zM517 1c0-.6-.4-1-1-1h-3c-.6 0-1 .4-1 1s.4 1 1 1h3c.6 0 1-.4 1-1zM1 238.3c.6 0 1-.4 1-1v-3c0-.6-.4-1-1-1s-1 .4-1 1v3c0 .5.4 1 1 1zM1 250.3c.6 0 1-.4 1-1v-3c0-.6-.4-1-1-1s-1 .4-1 1v3c0 .5.4 1 1 1zM1 184.3c.6 0 1-.4 1-1v-3c0-.6-.4-1-1-1s-1 .4-1 1v3c0 .5.4 1 1 1zM1 286.3c.6 0 1-.4 1-1v-3c0-.6-.4-1-1-1s-1 .4-1 1v3c0 .5.4 1 1 1zM1 256.3c.6 0 1-.4 1-1v-3c0-.6-.4-1-1-1s-1 .4-1 1v3c0 .5.4 1 1 1zM1 280.3c.6 0 1-.4 1-1v-3c0-.6-.4-1-1-1s-1 .4-1 1v3c0 .5.4 1 1 1zM1 268.3c.6 0 1-.4 1-1v-3c0-.6-.4-1-1-1s-1 .4-1 1v3c0 .5.4 1 1 1zM1 274.3c.6 0 1-.4 1-1v-3c0-.6-.4-1-1-1s-1 .4-1 1v3c0 .5.4 1 1 1zM1 244.3c.6 0 1-.4 1-1v-3c0-.6-.4-1-1-1s-1 .4-1 1v3c0 .5.4 1 1 1zM1 196.3c.6 0 1-.4 1-1v-3c0-.6-.4-1-1-1s-1 .4-1 1v3c0 .5.4 1 1 1zM1 202.3c.6 0 1-.4 1-1v-3c0-.6-.4-1-1-1s-1 .4-1 1v3c0 .5.4 1 1 1zM1 232.3c.6 0 1-.4 1-1v-3c0-.6-.4-1-1-1s-1 .4-1 1v3c0 .5.4 1 1 1zM1 190.3c.6 0 1-.4 1-1v-3c0-.6-.4-1-1-1s-1 .4-1 1v3c0 .5.4 1 1 1zM1 208.3c.6 0 1-.4 1-1v-3c0-.6-.4-1-1-1s-1 .4-1 1v3c0 .5.4 1 1 1zM1 226.3c.6 0 1-.4 1-1v-3c0-.6-.4-1-1-1s-1 .4-1 1v3c0 .5.4 1 1 1zM1 214.3c.6 0 1-.4 1-1v-3c0-.6-.4-1-1-1s-1 .4-1 1v3c0 .5.4 1 1 1zM1 220.3c.6 0 1-.4 1-1v-3c0-.6-.4-1-1-1s-1 .4-1 1v3c0 .5.4 1 1 1zM1 262.3c.6 0 1-.4 1-1v-3c0-.6-.4-1-1-1s-1 .4-1 1v3c0 .5.4 1 1 1zM1 358.3c.6 0 1-.4 1-1v-3c0-.6-.4-1-1-1s-1 .4-1 1v3c0 .5.4 1 1 1zM1 364.3c.6 0 1-.4 1-1v-3c0-.6-.4-1-1-1s-1 .4-1 1v3c0 .5.4 1 1 1zM1 292.3c.6 0 1-.4 1-1v-3c0-.6-.4-1-1-1s-1 .4-1 1v3c0 .5.4 1 1 1zM1 340.3c.6 0 1-.4 1-1v-3c0-.6-.4-1-1-1s-1 .4-1 1v3c0 .5.4 1 1 1zM1 346.3c.6 0 1-.4 1-1v-3c0-.6-.4-1-1-1s-1 .4-1 1v3c0 .5.4 1 1 1zM1 370.3c.6 0 1-.4 1-1v-3c0-.6-.4-1-1-1s-1 .4-1 1v3c0 .5.4 1 1 1zM1 382.3c.6 0 1-.4 1-1v-3c0-.6-.4-1-1-1s-1 .4-1 1v3c0 .5.4 1 1 1zM1 376.3c.6 0 1-.4 1-1v-3c0-.6-.4-1-1-1s-1 .4-1 1v3c0 .5.4 1 1 1zM1 352.3c.6 0 1-.4 1-1v-3c0-.6-.4-1-1-1s-1 .4-1 1v3c0 .5.4 1 1 1zM1 388.3c.6 0 1-.4 1-1v-3c0-.6-.4-1-1-1s-1 .4-1 1v3c0 .5.4 1 1 1zM1 334.3c.6 0 1-.4 1-1v-3c0-.6-.4-1-1-1s-1 .4-1 1v3c0 .5.4 1 1 1zM1 298.3c.6 0 1-.4 1-1v-3c0-.6-.4-1-1-1s-1 .4-1 1v3c0 .5.4 1 1 1zM1 310.3c.6 0 1-.4 1-1v-3c0-.6-.4-1-1-1s-1 .4-1 1v3c0 .5.4 1 1 1zM1 328.3c.6 0 1-.4 1-1v-3c0-.6-.4-1-1-1s-1 .4-1 1v3c0 .5.4 1 1 1zM1 316.3c.6 0 1-.4 1-1v-3c0-.6-.4-1-1-1s-1 .4-1 1v3c0 .5.4 1 1 1zM1 322.3c.6 0 1-.4 1-1v-3c0-.6-.4-1-1-1s-1 .4-1 1v3c0 .5.4 1 1 1zM1 304.3c.6 0 1-.4 1-1v-3c0-.6-.4-1-1-1s-1 .4-1 1v3c0 .5.4 1 1 1zM1 34.3c.6 0 1-.4 1-1v-3c0-.6-.4-1-1-1s-1 .4-1 1v3c0 .5.4 1 1 1zM1 40.3c.6 0 1-.4 1-1v-3c0-.6-.4-1-1-1s-1 .4-1 1v3c0 .5.4 1 1 1zM1 70.3c.6 0 1-.4 1-1v-3c0-.6-.4-1-1-1s-1 .4-1 1v3c0 .5.4 1 1 1zM1 22.3c.6 0 1-.4 1-1V21c0-.9.1-1.7.2-2.6.1-.5-.3-1.1-.9-1.1-.5-.1-1.1.3-1.1.9-.1.9-.2 1.9-.2 2.8v.3c0 .5.4 1 1 1zM1 28.3c.6 0 1-.4 1-1v-3c0-.6-.4-1-1-1s-1 .4-1 1v3c0 .5.4 1 1 1zM1 52.3c.6 0 1-.4 1-1v-3c0-.6-.4-1-1-1s-1 .4-1 1v3c0 .5.4 1 1 1zM1 64.3c.6 0 1-.4 1-1v-3c0-.6-.4-1-1-1s-1 .4-1 1v3c0 .5.4 1 1 1zM1 58.3c.6 0 1-.4 1-1v-3c0-.6-.4-1-1-1s-1 .4-1 1v3c0 .5.4 1 1 1zM1 46.3c.6 0 1-.4 1-1v-3c0-.6-.4-1-1-1s-1 .4-1 1v3c0 .5.4 1 1 1zM1.5 16.3c.1 0 .2 0 .3 0 .4 0 .8-.3 1-.7.3-.9.6-1.8 1-2.7.2-.5 0-1.1-.5-1.3-.5-.2-1.1 0-1.3.5-.4 1-.8 1.9-1.1 2.9-.2.6.1 1.2.6 1.3zM1231.9 4.8c.8.5 1.6 1.1 2.3 1.7.2.2.4.2.6.2.3 0 .6-.1.8-.4.4-.4.3-1.1-.1-1.4-.8-.7-1.7-1.3-2.6-1.8-.5-.3-1.1-.1-1.4.3-.2.5 0 1.1.4 1.4zM1226.7 2.6c.9.2 1.8.5 2.7.9.1.1.3.1.4.1.4 0 .8-.2.9-.6.2-.5 0-1.1-.5-1.3-1-.4-2-.7-3-1-.5-.1-1.1.2-1.2.7-.2.5.2 1 .7 1.2zM1239.3 13.2c.4.9.7 1.8 1 2.7.1.4.5.7 1 .7.1 0 .2 0 .3 0 .5-.1.8-.7.7-1.2-.3-1-.6-2-1.1-3-.2-.5-.8-.7-1.3-.5-.6.2-.8.8-.6 1.3zM1238 10.7c.2.3.5.5.8.5.2 0 .4-.1.5-.2.5-.3.6-.9.3-1.4-.6-.9-1.2-1.7-1.9-2.5-.4-.4-1-.5-1.4-.1s-.5 1-.1 1.4c.7.8 1.3 1.5 1.8 2.3zM13.5 3.5c.1 0 .3 0 .4-.1.9-.4 1.8-.6 2.7-.9.5-.1.9-.7.7-1.2s-.7-.9-1.2-.7c-1 .2-2 .6-3 1-.5.2-.8.8-.5 1.3.1.3.5.6.9.6zM3.8 10.8c.2.1.4.2.6.2.3 0 .6-.2.8-.4.5-.9 1.1-1.6 1.7-2.3.4-.4.3-1-.1-1.4-.4-.4-1-.3-1.4.1-.7.7-1.3 1.5-1.9 2.4-.3.5-.2 1.1.3 1.4zM8.3 6.5c.2 0 .4-.1.6-.2.7-.6 1.5-1.1 2.3-1.6.5-.3.6-.9.3-1.4-.3-.5-.9-.6-1.4-.3-.7.5-1.6 1.1-2.4 1.7-.4.3-.5 1-.1 1.4.2.3.4.4.7.4zM1 106.3c.6 0 1-.4 1-1v-3c0-.6-.4-1-1-1s-1 .4-1 1v3c0 .5.4 1 1 1zM193 1c0-.6-.4-1-1-1h-3c-.6 0-1 .4-1 1s.4 1 1 1h3c.6 0 1-.4 1-1zM1 136.3c.6 0 1-.4 1-1v-3c0-.6-.4-1-1-1s-1 .4-1 1v3c0 .5.4 1 1 1zM1 130.3c.6 0 1-.4 1-1v-3c0-.6-.4-1-1-1s-1 .4-1 1v3c0 .5.4 1 1 1zM1 148.3c.6 0 1-.4 1-1v-3c0-.6-.4-1-1-1s-1 .4-1 1v3c0 .5.4 1 1 1zM1 124.3c.6 0 1-.4 1-1v-3c0-.6-.4-1-1-1s-1 .4-1 1v3c0 .5.4 1 1 1zM1 154.3c.6 0 1-.4 1-1v-3c0-.6-.4-1-1-1s-1 .4-1 1v3c0 .5.4 1 1 1zM1 166.3c.6 0 1-.4 1-1v-3c0-.6-.4-1-1-1s-1 .4-1 1v3c0 .5.4 1 1 1zM1 76.3c.6 0 1-.4 1-1v-3c0-.6-.4-1-1-1s-1 .4-1 1v3c0 .5.4 1 1 1zM1 160.3c.6 0 1-.4 1-1v-3c0-.6-.4-1-1-1s-1 .4-1 1v3c0 .5.4 1 1 1zM1 88.3c.6 0 1-.4 1-1v-3c0-.6-.4-1-1-1s-1 .4-1 1v3c0 .5.4 1 1 1zM1 82.3c.6 0 1-.4 1-1v-3c0-.6-.4-1-1-1s-1 .4-1 1v3c0 .5.4 1 1 1zM1 118.3c.6 0 1-.4 1-1v-3c0-.6-.4-1-1-1s-1 .4-1 1v3c0 .5.4 1 1 1zM1 94.3c.6 0 1-.4 1-1v-3c0-.6-.4-1-1-1s-1 .4-1 1v3c0 .5.4 1 1 1zM1 112.3c.6 0 1-.4 1-1v-3c0-.6-.4-1-1-1s-1 .4-1 1v3c0 .5.4 1 1 1zM1 172.3c.6 0 1-.4 1-1v-3c0-.6-.4-1-1-1s-1 .4-1 1v3c0 .5.4 1 1 1zM1 100.3c.6 0 1-.4 1-1v-3c0-.6-.4-1-1-1s-1 .4-1 1v3c0 .5.4 1 1 1zM1 142.3c.6 0 1-.4 1-1v-3c0-.6-.4-1-1-1s-1 .4-1 1v3c0 .5.4 1 1 1zM121.9 448h-3c-.6 0-1 .4-1 1s.4 1 1 1h3c.6 0 1-.4 1-1s-.5-1-1-1zM127 1c0-.6-.4-1-1-1h-3c-.6 0-1 .4-1 1s.4 1 1 1h3c.6 0 1-.4 1-1zM139.9 448h-3c-.6 0-1 .4-1 1s.4 1 1 1h3c.6 0 1-.4 1-1s-.5-1-1-1zM127.9 448h-3c-.6 0-1 .4-1 1s.4 1 1 1h3c.6 0 1-.4 1-1s-.5-1-1-1zM133.9 448h-3c-.6 0-1 .4-1 1s.4 1 1 1h3c.6 0 1-.4 1-1s-.5-1-1-1zM139 1c0-.6-.4-1-1-1h-3c-.6 0-1 .4-1 1s.4 1 1 1h3c.6 0 1-.4 1-1zM115.9 448h-3c-.6 0-1 .4-1 1s.4 1 1 1h3c.6 0 1-.4 1-1s-.5-1-1-1zM133 1c0-.6-.4-1-1-1h-3c-.6 0-1 .4-1 1s.4 1 1 1h3c.6 0 1-.4 1-1zM121 1c0-.6-.4-1-1-1h-3c-.6 0-1 .4-1 1s.4 1 1 1h3c.6 0 1-.4 1-1zM97.9 448h-3c-.6 0-1 .4-1 1s.4 1 1 1h3c.6 0 1-.4 1-1s-.5-1-1-1zM103 1c0-.6-.4-1-1-1h-3c-.6 0-1 .4-1 1s.4 1 1 1h3c.6 0 1-.4 1-1zM97 1c0-.6-.4-1-1-1h-3c-.6 0-1 .4-1 1s.4 1 1 1h3c.6 0 1-.4 1-1zM91.9 448h-3c-.6 0-1 .4-1 1s.4 1 1 1h3c.6 0 1-.4 1-1s-.5-1-1-1zM109 1c0-.6-.4-1-1-1h-3c-.6 0-1 .4-1 1s.4 1 1 1h3c.6 0 1-.4 1-1zM109.9 448h-3c-.6 0-1 .4-1 1s.4 1 1 1h3c.6 0 1-.4 1-1s-.5-1-1-1zM103.9 448h-3c-.6 0-1 .4-1 1s.4 1 1 1h3c.6 0 1-.4 1-1s-.5-1-1-1zM115 1c0-.6-.4-1-1-1h-3c-.6 0-1 .4-1 1s.4 1 1 1h3c.6 0 1-.4 1-1zM145 1c0-.6-.4-1-1-1h-3c-.6 0-1 .4-1 1s.4 1 1 1h3c.6 0 1-.4 1-1zM1 394.3c.6 0 1-.4 1-1v-3c0-.6-.4-1-1-1s-1 .4-1 1v3c0 .5.4 1 1 1zM175.9 448h-3c-.6 0-1 .4-1 1s.4 1 1 1h3c.6 0 1-.4 1-1s-.5-1-1-1zM181 1c0-.6-.4-1-1-1h-3c-.6 0-1 .4-1 1s.4 1 1 1h3c.6 0 1-.4 1-1zM169.9 448h-3c-.6 0-1 .4-1 1s.4 1 1 1h3c.6 0 1-.4 1-1s-.5-1-1-1zM175 1c0-.6-.4-1-1-1h-3c-.6 0-1 .4-1 1s.4 1 1 1h3c.6 0 1-.4 1-1zM181.9 448h-3c-.6 0-1 .4-1 1s.4 1 1 1h3c.6 0 1-.4 1-1s-.5-1-1-1zM187.9 448h-3c-.6 0-1 .4-1 1s.4 1 1 1h3c.6 0 1-.4 1-1s-.5-1-1-1zM187 1c0-.6-.4-1-1-1h-3c-.6 0-1 .4-1 1s.4 1 1 1h3c.6 0 1-.4 1-1zM151 1c0-.6-.4-1-1-1h-3c-.6 0-1 .4-1 1s.4 1 1 1h3c.6 0 1-.4 1-1zM91 1c0-.6-.4-1-1-1h-3c-.6 0-1 .4-1 1s.4 1 1 1h3c.6 0 1-.4 1-1zM145.9 448h-3c-.6 0-1 .4-1 1s.4 1 1 1h3c.6 0 1-.4 1-1s-.5-1-1-1zM163.9 448h-3c-.6 0-1 .4-1 1s.4 1 1 1h3c.6 0 1-.4 1-1s-.5-1-1-1zM151.9 448h-3c-.6 0-1 .4-1 1s.4 1 1 1h3c.6 0 1-.4 1-1s-.5-1-1-1zM163 1c0-.6-.4-1-1-1h-3c-.6 0-1 .4-1 1s.4 1 1 1h3c.6 0 1-.4 1-1zM157 1c0-.6-.4-1-1-1h-3c-.6 0-1 .4-1 1s.4 1 1 1h3c.6 0 1-.4 1-1zM157.9 448h-3c-.6 0-1 .4-1 1s.4 1 1 1h3c.6 0 1-.4 1-1s-.5-1-1-1zM169 1c0-.6-.4-1-1-1h-3c-.6 0-1 .4-1 1s.4 1 1 1h3c.6 0 1-.4 1-1zM14.4 446.8c-.9-.3-1.8-.7-2.6-1.2-.5-.3-1.1-.1-1.4.4-.3.5-.1 1.1.4 1.4.9.5 1.9 1 2.9 1.3.1 0 .2.1.3.1.4 0 .8-.2.9-.7.2-.5 0-1.1-.5-1.3zM19.9 448c-.9-.1-1.9-.2-2.8-.4-.5-.1-1.1.2-1.2.8-.1.5.2 1.1.8 1.2 1 .2 2.1.4 3.1.4 0 0 0 0 .1 0 .5 0 1-.4 1-.9 0-.6-.4-1.1-1-1.1zM7.3 442.1c-.4-.4-1-.4-1.4 0-.4.4-.4 1 0 1.4.7.8 1.5 1.5 2.3 2.1.2.1.4.2.6.2.3 0 .6-.1.8-.4.3-.4.3-1.1-.2-1.4-.7-.5-1.5-1.2-2.1-1.9zM25 1c0-.6-.4-1-1-1h-3c-.6 0-1.2 0-1.8.1-.6 0-1 .5-.9 1.1 0 .5.5.9 1 .9 0 0 .1 0 .1 0C19.9 2 20.5 2 21 2h3c.6 0 1-.4 1-1zM31 1c0-.6-.4-1-1-1h-3c-.6 0-1 .4-1 1s.4 1 1 1h3c.6 0 1-.4 1-1zM25.9 448h-3c-.6 0-1 .4-1 1s.4 1 1 1h3c.6 0 1-.4 1-1s-.5-1-1-1zM31.9 448h-3c-.6 0-1 .4-1 1s.4 1 1 1h3c.6 0 1-.4 1-1s-.5-1-1-1zM5.5 439.9c-.5-.8-1-1.6-1.5-2.4-.2-.5-.8-.7-1.3-.4-.5.2-.7.8-.4 1.3.5.9 1 1.8 1.6 2.7.2.3.5.4.8.4.2 0 .4-.1.6-.2.4-.3.5-.9.2-1.4zM1 406.3c.6 0 1-.4 1-1v-3c0-.6-.4-1-1-1s-1 .4-1 1v3c0 .5.4 1 1 1zM2.9 434.9c-.3-.9-.5-1.8-.7-2.8-.1-.5-.6-.9-1.1-.8-.5.1-.9.6-.8 1.1.2 1 .4 2.1.7 3.1.1.4.5.7 1 .7.1 0 .2 0 .3 0 .5-.2.8-.8.6-1.3zM1 400.3c.6 0 1-.4 1-1v-3c0-.6-.4-1-1-1s-1 .4-1 1v3c0 .5.4 1 1 1zM1 412.3c.6 0 1-.4 1-1v-3c0-.6-.4-1-1-1s-1 .4-1 1v3c0 .5.4 1 1 1zM85.9 448h-3c-.6 0-1 .4-1 1s.4 1 1 1h3c.6 0 1-.4 1-1s-.5-1-1-1zM1 418.3c.6 0 1-.4 1-1v-3c0-.6-.4-1-1-1s-1 .4-1 1v3c0 .5.4 1 1 1zM1 430.3c.6 0 1-.5 1-1v-3c0-.6-.4-1-1-1s-1 .4-1 1v3c0 .6.5 1 1 1zM1 424.3c.6 0 1-.4 1-1v-3c0-.6-.4-1-1-1s-1 .4-1 1v3c0 .5.4 1 1 1zM37 1c0-.6-.4-1-1-1h-3c-.6 0-1 .4-1 1s.4 1 1 1h3c.6 0 1-.4 1-1zM73 1c0-.6-.4-1-1-1h-3c-.6 0-1 .4-1 1s.4 1 1 1h3c.6 0 1-.4 1-1zM73.9 448h-3c-.6 0-1 .4-1 1s.4 1 1 1h3c.6 0 1-.4 1-1s-.5-1-1-1zM61.9 448h-3c-.6 0-1 .4-1 1s.4 1 1 1h3c.6 0 1-.4 1-1s-.5-1-1-1zM67 1c0-.6-.4-1-1-1h-3c-.6 0-1 .4-1 1s.4 1 1 1h3c.6 0 1-.4 1-1zM67.9 448h-3c-.6 0-1 .4-1 1s.4 1 1 1h3c.6 0 1-.4 1-1s-.5-1-1-1zM85 1c0-.6-.4-1-1-1h-3c-.6 0-1 .4-1 1s.4 1 1 1h3c.6 0 1-.4 1-1zM79.9 448h-3c-.6 0-1 .4-1 1s.4 1 1 1h3c.6 0 1-.4 1-1s-.5-1-1-1zM79 1c0-.6-.4-1-1-1h-3c-.6 0-1 .4-1 1s.4 1 1 1h3c.6 0 1-.4 1-1zM55 1c0-.6-.4-1-1-1h-3c-.6 0-1 .4-1 1s.4 1 1 1h3c.6 0 1-.4 1-1zM43.9 448h-3c-.6 0-1 .4-1 1s.4 1 1 1h3c.6 0 1-.4 1-1s-.5-1-1-1zM61 1c0-.6-.4-1-1-1h-3c-.6 0-1 .4-1 1s.4 1 1 1h3c.6 0 1-.4 1-1zM49 1c0-.6-.4-1-1-1h-3c-.6 0-1 .4-1 1s.4 1 1 1h3c.6 0 1-.4 1-1zM43 1c0-.6-.4-1-1-1h-3c-.6 0-1 .4-1 1s.4 1 1 1h3c.6 0 1-.4 1-1zM55.9 448h-3c-.6 0-1 .4-1 1s.4 1 1 1h3c.6 0 1-.4 1-1s-.5-1-1-1zM49.9 448h-3c-.6 0-1 .4-1 1s.4 1 1 1h3c.6 0 1-.4 1-1s-.5-1-1-1zM37.9 448h-3c-.6 0-1 .4-1 1s.4 1 1 1h3c.6 0 1-.4 1-1s-.5-1-1-1zM1 178.3c.6 0 1-.4 1-1v-3c0-.6-.4-1-1-1s-1 .4-1 1v3c0 .5.4 1 1 1zM1177 1c0-.6-.4-1-1-1h-3c-.6 0-1 .4-1 1s.4 1 1 1h3c.5 0 1-.4 1-1zM1171.9 448h-3c-.6 0-1 .4-1 1s.4 1 1 1h3c.6 0 1-.4 1-1s-.5-1-1-1zM1171 1c0-.6-.4-1-1-1h-3c-.6 0-1 .4-1 1s.4 1 1 1h3c.5 0 1-.4 1-1zM1165 1c0-.6-.4-1-1-1h-3c-.6 0-1 .4-1 1s.4 1 1 1h3c.5 0 1-.4 1-1zM1165.9 448h-3c-.6 0-1 .4-1 1s.4 1 1 1h3c.6 0 1-.4 1-1s-.5-1-1-1zM1183.9 448h-3c-.6 0-1 .4-1 1s.4 1 1 1h3c.6 0 1-.4 1-1s-.5-1-1-1zM1183 1c0-.6-.4-1-1-1h-3c-.6 0-1 .4-1 1s.4 1 1 1h3c.5 0 1-.4 1-1zM1189 1c0-.6-.4-1-1-1h-3c-.6 0-1 .4-1 1s.4 1 1 1h3c.5 0 1-.4 1-1zM1177.9 448h-3c-.6 0-1 .4-1 1s.4 1 1 1h3c.6 0 1-.4 1-1s-.5-1-1-1zM1147 1c0-.6-.4-1-1-1h-3c-.6 0-1 .4-1 1s.4 1 1 1h3c.5 0 1-.4 1-1zM1141.9 448h-3c-.6 0-1 .4-1 1s.4 1 1 1h3c.6 0 1-.4 1-1s-.5-1-1-1zM1147.9 448h-3c-.6 0-1 .4-1 1s.4 1 1 1h3c.6 0 1-.4 1-1s-.5-1-1-1zM1141 1c0-.6-.4-1-1-1h-3c-.6 0-1 .4-1 1s.4 1 1 1h3c.5 0 1-.4 1-1zM1153.9 448h-3c-.6 0-1 .4-1 1s.4 1 1 1h3c.6 0 1-.4 1-1s-.5-1-1-1zM1159 1c0-.6-.4-1-1-1h-3c-.6 0-1 .4-1 1s.4 1 1 1h3c.5 0 1-.4 1-1zM1159.9 448h-3c-.6 0-1 .4-1 1s.4 1 1 1h3c.6 0 1-.4 1-1s-.5-1-1-1zM1153 1c0-.6-.4-1-1-1h-3c-.6 0-1 .4-1 1s.4 1 1 1h3c.5 0 1-.4 1-1zM1223.9 2.1s.1 0 0 0c.6 0 1-.4 1.1-.9.1-.5-.3-1-.9-1.1-.7-.1-1.4-.1-2.1-.1h-1c-.6 0-1 .4-1 1s.4 1 1 1h1c.6 0 1.3 0 1.9.1zM1225.6 447.7c-.9.2-1.9.3-2.8.3-.6 0-1 .5-1 1s.5 1 1 1c1 0 2.1-.2 3.1-.4.5-.1.9-.6.8-1.2 0-.5-.5-.9-1.1-.7zM1213.9 448h-3c-.6 0-1 .4-1 1s.4 1 1 1h3c.6 0 1-.4 1-1s-.5-1-1-1zM1219.9 448h-3c-.6 0-1 .4-1 1s.4 1 1 1h3c.6 0 1-.4 1-1s-.5-1-1-1zM1219 1c0-.6-.4-1-1-1h-3c-.6 0-1 .4-1 1s.4 1 1 1h3c.5 0 1-.4 1-1zM1135.9 448h-3c-.6 0-1 .4-1 1s.4 1 1 1h3c.6 0 1-.4 1-1s-.5-1-1-1zM1033 1c0-.6-.4-1-1-1h-3c-.6 0-1 .4-1 1s.4 1 1 1h3c.6 0 1-.4 1-1zM1231 445.7c-.8.4-1.7.8-2.6 1.2-.5.2-.8.8-.6 1.3.1.4.5.7.9.7.1 0 .2 0 .3-.1 1-.4 2-.8 2.9-1.3.5-.3.7-.9.4-1.4s-.8-.6-1.3-.4zM1235.5 442.3c-.7.7-1.4 1.3-2.1 1.9-.4.3-.5 1-.2 1.4.2.3.5.4.8.4.2 0 .4-.1.6-.2.8-.6 1.6-1.3 2.4-2.1.4-.4.4-1 0-1.4-.4-.4-1.1-.4-1.5 0zM1195 1c0-.6-.4-1-1-1h-3c-.6 0-1 .4-1 1s.4 1 1 1h3c.5 0 1-.4 1-1zM1195.9 448h-3c-.6 0-1 .4-1 1s.4 1 1 1h3c.6 0 1-.4 1-1s-.5-1-1-1zM1201 1c0-.6-.4-1-1-1h-3c-.6 0-1 .4-1 1s.4 1 1 1h3c.5 0 1-.4 1-1zM1189.9 448h-3c-.6 0-1 .4-1 1s.4 1 1 1h3c.6 0 1-.4 1-1s-.5-1-1-1zM1213 1c0-.6-.4-1-1-1h-3c-.6 0-1 .4-1 1s.4 1 1 1h3c.5 0 1-.4 1-1zM1207.9 448h-3c-.6 0-1 .4-1 1s.4 1 1 1h3c.6 0 1-.4 1-1s-.5-1-1-1zM1207 1c0-.6-.4-1-1-1h-3c-.6 0-1 .4-1 1s.4 1 1 1h3c.5 0 1-.4 1-1zM1201.9 448h-3c-.6 0-1 .4-1 1s.4 1 1 1h3c.6 0 1-.4 1-1s-.5-1-1-1zM1063.9 448h-3c-.6 0-1 .4-1 1s.4 1 1 1h3c.6 0 1-.4 1-1s-.5-1-1-1zM1069 1c0-.6-.4-1-1-1h-3c-.6 0-1 .4-1 1s.4 1 1 1h3c.6 0 1-.4 1-1zM1241.9 431.6c-.5-.1-1.1.3-1.2.8-.2.9-.4 1.9-.7 2.8-.2.5.1 1.1.6 1.3.1 0 .2.1.3.1.4 0 .8-.3.9-.7.3-1 .6-2 .8-3 .2-.7-.2-1.2-.7-1.3zM1057.9 448h-3c-.6 0-1 .4-1 1s.4 1 1 1h3c.6 0 1-.4 1-1s-.5-1-1-1zM1069.9 448h-3c-.6 0-1 .4-1 1s.4 1 1 1h3c.6 0 1-.4 1-1s-.5-1-1-1zM1063 1c0-.6-.4-1-1-1h-3c-.6 0-1 .4-1 1s.4 1 1 1h3c.6 0 1-.4 1-1zM1081 1c0-.6-.4-1-1-1h-3c-.6 0-1 .4-1 1s.4 1 1 1h3c.6 0 1-.4 1-1zM1075 1c0-.6-.4-1-1-1h-3c-.6 0-1 .4-1 1s.4 1 1 1h3c.6 0 1-.4 1-1zM1075.9 448h-3c-.6 0-1 .4-1 1s.4 1 1 1h3c.6 0 1-.4 1-1s-.5-1-1-1zM1057 1c0-.6-.4-1-1-1h-3c-.6 0-1 .4-1 1s.4 1 1 1h3c.6 0 1-.4 1-1zM1081.9 448h-3c-.6 0-1 .4-1 1s.4 1 1 1h3c.6 0 1-.4 1-1s-.5-1-1-1zM1039.9 448h-3c-.6 0-1 .4-1 1s.4 1 1 1h3c.6 0 1-.4 1-1s-.5-1-1-1zM1045 1c0-.6-.4-1-1-1h-3c-.6 0-1 .4-1 1s.4 1 1 1h3c.6 0 1-.4 1-1zM1033.9 448h-3c-.6 0-1 .4-1 1s.4 1 1 1h3c.6 0 1-.4 1-1s-.5-1-1-1zM1039 1c0-.6-.4-1-1-1h-3c-.6 0-1 .4-1 1s.4 1 1 1h3c.6 0 1-.4 1-1zM1051.9 448h-3c-.6 0-1 .4-1 1s.4 1 1 1h3c.6 0 1-.4 1-1s-.5-1-1-1zM1051 1c0-.6-.4-1-1-1h-3c-.6 0-1 .4-1 1s.4 1 1 1h3c.6 0 1-.4 1-1zM1045.9 448h-3c-.6 0-1 .4-1 1s.4 1 1 1h3c.6 0 1-.4 1-1s-.5-1-1-1zM1099.9 448h-3c-.6 0-1 .4-1 1s.4 1 1 1h3c.6 0 1-.4 1-1s-.5-1-1-1zM1117 1c0-.6-.4-1-1-1h-3c-.6 0-1 .4-1 1s.4 1 1 1h3c.5 0 1-.4 1-1zM1117.9 448h-3c-.6 0-1 .4-1 1s.4 1 1 1h3c.6 0 1-.4 1-1s-.5-1-1-1zM1123 1c0-.6-.4-1-1-1h-3c-.6 0-1 .4-1 1s.4 1 1 1h3c.5 0 1-.4 1-1zM1111 1c0-.6-.4-1-1-1h-3c-.6 0-1 .4-1 1s.4 1 1 1h3c.5 0 1-.4 1-1zM1111.9 448h-3c-.6 0-1 .4-1 1s.4 1 1 1h3c.6 0 1-.4 1-1s-.5-1-1-1zM1129.9 448h-3c-.6 0-1 .4-1 1s.4 1 1 1h3c.6 0 1-.4 1-1s-.5-1-1-1zM1129 1c0-.6-.4-1-1-1h-3c-.6 0-1 .4-1 1s.4 1 1 1h3c.5 0 1-.4 1-1zM1123.9 448h-3c-.6 0-1 .4-1 1s.4 1 1 1h3c.6 0 1-.4 1-1s-.5-1-1-1zM1135 1c0-.6-.4-1-1-1h-3c-.6 0-1 .4-1 1s.4 1 1 1h3c.5 0 1-.4 1-1zM1093 1c0-.6-.4-1-1-1h-3c-.6 0-1 .4-1 1s.4 1 1 1h3c.6 0 1-.4 1-1zM1087.9 448h-3c-.6 0-1 .4-1 1s.4 1 1 1h3c.6 0 1-.4 1-1s-.5-1-1-1zM1093.9 448h-3c-.6 0-1 .4-1 1s.4 1 1 1h3c.6 0 1-.4 1-1s-.5-1-1-1zM1099 1c0-.6-.4-1-1-1h-3c-.6 0-1 .4-1 1s.4 1 1 1h3c.6 0 1-.4 1-1zM1105 1c0-.6-.4-1-1-1h-3c-.6 0-1 .4-1 1s.4 1 1 1h3c.5 0 1-.4 1-1zM1105.9 448h-3c-.6 0-1 .4-1 1s.4 1 1 1h3c.6 0 1-.4 1-1s-.5-1-1-1zM1087 1c0-.6-.4-1-1-1h-3c-.6 0-1 .4-1 1s.4 1 1 1h3c.6 0 1-.4 1-1zM1240.2 437.3c-.5-.3-1.1-.1-1.3.4-.4.8-.9 1.7-1.5 2.4-.3.4-.2 1.1.2 1.4.2.1.4.2.6.2.3 0 .6-.1.8-.4.6-.8 1.2-1.7 1.7-2.7.2-.4 0-1-.5-1.3zM1242 143.6c-.6 0-1 .4-1 1v3c0 .6.4 1 1 1s1-.4 1-1v-3c0-.6-.4-1-1-1zM1242 137.6c-.6 0-1 .4-1 1v3c0 .6.4 1 1 1s1-.4 1-1v-3c0-.6-.4-1-1-1zM1242 149.6c-.6 0-1 .4-1 1v3c0 .6.4 1 1 1s1-.4 1-1v-3c0-.6-.4-1-1-1zM1242 155.6c-.6 0-1 .4-1 1v3c0 .6.4 1 1 1s1-.4 1-1v-3c0-.6-.4-1-1-1zM1242 119.6c-.6 0-1 .4-1 1v3c0 .6.4 1 1 1s1-.4 1-1v-3c0-.6-.4-1-1-1zM1242 161.6c-.6 0-1 .4-1 1v3c0 .6.4 1 1 1s1-.4 1-1v-3c0-.6-.4-1-1-1zM1242 131.6c-.6 0-1 .4-1 1v3c0 .6.4 1 1 1s1-.4 1-1v-3c0-.6-.4-1-1-1zM1242 113.6c-.6 0-1 .4-1 1v3c0 .6.4 1 1 1s1-.4 1-1v-3c0-.6-.4-1-1-1zM1242 125.6c-.6 0-1 .4-1 1v3c0 .6.4 1 1 1s1-.4 1-1v-3c0-.6-.4-1-1-1zM1242 203.6c-.6 0-1 .4-1 1v3c0 .6.4 1 1 1s1-.4 1-1v-3c0-.6-.4-1-1-1zM1242 197.6c-.6 0-1 .4-1 1v3c0 .6.4 1 1 1s1-.4 1-1v-3c0-.6-.4-1-1-1zM1242 191.6c-.6 0-1 .4-1 1v3c0 .6.4 1 1 1s1-.4 1-1v-3c0-.6-.4-1-1-1zM1242 425.6c-.6 0-1 .4-1 1v2.4c0 .2 0 .4 0 .5 0 .6.4 1 1 1 .5 0 1-.4 1-1 0-.2 0-.4 0-.6v-2.4c0-.5-.4-.9-1-.9zM1242 179.6c-.6 0-1 .4-1 1v3c0 .6.4 1 1 1s1-.4 1-1v-3c0-.6-.4-1-1-1zM1242 173.6c-.6 0-1 .4-1 1v3c0 .6.4 1 1 1s1-.4 1-1v-3c0-.6-.4-1-1-1zM1242 167.6c-.6 0-1 .4-1 1v3c0 .6.4 1 1 1s1-.4 1-1v-3c0-.6-.4-1-1-1zM1242 185.6c-.6 0-1 .4-1 1v3c0 .6.4 1 1 1s1-.4 1-1v-3c0-.6-.4-1-1-1zM1242 95.6c-.6 0-1 .4-1 1v3c0 .6.4 1 1 1s1-.4 1-1v-3c0-.6-.4-1-1-1zM1242 59.6c-.6 0-1 .4-1 1v3c0 .6.4 1 1 1s1-.4 1-1v-3c0-.6-.4-1-1-1zM1242 41.6c-.6 0-1 .4-1 1v3c0 .6.4 1 1 1s1-.4 1-1v-3c0-.6-.4-1-1-1zM1242 47.6c-.6 0-1 .4-1 1v3c0 .6.4 1 1 1s1-.4 1-1v-3c0-.6-.4-1-1-1zM1242 53.6c-.6 0-1 .4-1 1v3c0 .6.4 1 1 1s1-.4 1-1v-3c0-.6-.4-1-1-1zM1242 35.6c-.6 0-1 .4-1 1v3c0 .6.4 1 1 1s1-.4 1-1v-3c0-.6-.4-1-1-1zM1242.8 18.5c-.1-.5-.6-.9-1.1-.9-.5.1-.9.6-.9 1.1.1.8.1 1.5.1 2.3v.6c0 .6.4 1 1 1s1-.4 1-1V21c.1-.8 0-1.7-.1-2.5zM1242 29.6c-.6 0-1 .4-1 1v3c0 .6.4 1 1 1s1-.4 1-1v-3c0-.6-.4-1-1-1zM1242 23.6c-.6 0-1 .4-1 1v3c0 .6.4 1 1 1s1-.4 1-1v-3c0-.6-.4-1-1-1zM1242 89.6c-.6 0-1 .4-1 1v3c0 .6.4 1 1 1s1-.4 1-1v-3c0-.6-.4-1-1-1zM1242 215.6c-.6 0-1 .4-1 1v3c0 .6.4 1 1 1s1-.4 1-1v-3c0-.6-.4-1-1-1zM1242 101.6c-.6 0-1 .4-1 1v3c0 .6.4 1 1 1s1-.4 1-1v-3c0-.6-.4-1-1-1zM1242 107.6c-.6 0-1 .4-1 1v3c0 .6.4 1 1 1s1-.4 1-1v-3c0-.6-.4-1-1-1zM1242 77.6c-.6 0-1 .4-1 1v3c0 .6.4 1 1 1s1-.4 1-1v-3c0-.6-.4-1-1-1zM1242 71.6c-.6 0-1 .4-1 1v3c0 .6.4 1 1 1s1-.4 1-1v-3c0-.6-.4-1-1-1zM1242 65.6c-.6 0-1 .4-1 1v3c0 .6.4 1 1 1s1-.4 1-1v-3c0-.6-.4-1-1-1zM1242 83.6c-.6 0-1 .4-1 1v3c0 .6.4 1 1 1s1-.4 1-1v-3c0-.6-.4-1-1-1zM1242 209.6c-.6 0-1 .4-1 1v3c0 .6.4 1 1 1s1-.4 1-1v-3c0-.6-.4-1-1-1zM1242 353.6c-.6 0-1 .4-1 1v3c0 .6.4 1 1 1s1-.4 1-1v-3c0-.6-.4-1-1-1zM1242 359.6c-.6 0-1 .4-1 1v3c0 .6.4 1 1 1s1-.4 1-1v-3c0-.6-.4-1-1-1zM1242 347.6c-.6 0-1 .4-1 1v3c0 .6.4 1 1 1s1-.4 1-1v-3c0-.6-.4-1-1-1zM1242 365.6c-.6 0-1 .4-1 1v3c0 .6.4 1 1 1s1-.4 1-1v-3c0-.6-.4-1-1-1zM1242 341.6c-.6 0-1 .4-1 1v3c0 .6.4 1 1 1s1-.4 1-1v-3c0-.6-.4-1-1-1zM1242 371.6c-.6 0-1 .4-1 1v3c0 .6.4 1 1 1s1-.4 1-1v-3c0-.6-.4-1-1-1zM1242 329.6c-.6 0-1 .4-1 1v3c0 .6.4 1 1 1s1-.4 1-1v-3c0-.6-.4-1-1-1zM1242 335.6c-.6 0-1 .4-1 1v3c0 .6.4 1 1 1s1-.4 1-1v-3c0-.6-.4-1-1-1zM1242 383.6c-.6 0-1 .4-1 1v3c0 .6.4 1 1 1s1-.4 1-1v-3c0-.6-.4-1-1-1zM1242 401.6c-.6 0-1 .4-1 1v3c0 .6.4 1 1 1s1-.4 1-1v-3c0-.6-.4-1-1-1zM1242 413.6c-.6 0-1 .4-1 1v3c0 .6.4 1 1 1s1-.4 1-1v-3c0-.6-.4-1-1-1zM1242 407.6c-.6 0-1 .4-1 1v3c0 .6.4 1 1 1s1-.4 1-1v-3c0-.6-.4-1-1-1zM1242 377.6c-.6 0-1 .4-1 1v3c0 .6.4 1 1 1s1-.4 1-1v-3c0-.6-.4-1-1-1zM1242 419.6c-.6 0-1 .4-1 1v3c0 .6.4 1 1 1s1-.4 1-1v-3c0-.6-.4-1-1-1zM1242 323.6c-.6 0-1 .4-1 1v3c0 .6.4 1 1 1s1-.4 1-1v-3c0-.6-.4-1-1-1zM1242 389.6c-.6 0-1 .4-1 1v3c0 .6.4 1 1 1s1-.4 1-1v-3c0-.6-.4-1-1-1zM1242 395.6c-.6 0-1 .4-1 1v3c0 .6.4 1 1 1s1-.4 1-1v-3c0-.6-.4-1-1-1zM1242 263.6c-.6 0-1 .4-1 1v3c0 .6.4 1 1 1s1-.4 1-1v-3c0-.6-.4-1-1-1zM1242 245.6c-.6 0-1 .4-1 1v3c0 .6.4 1 1 1s1-.4 1-1v-3c0-.6-.4-1-1-1zM1242 257.6c-.6 0-1 .4-1 1v3c0 .6.4 1 1 1s1-.4 1-1v-3c0-.6-.4-1-1-1zM1242 251.6c-.6 0-1 .4-1 1v3c0 .6.4 1 1 1s1-.4 1-1v-3c0-.6-.4-1-1-1zM1242 317.6c-.6 0-1 .4-1 1v3c0 .6.4 1 1 1s1-.4 1-1v-3c0-.6-.4-1-1-1zM1242 269.6c-.6 0-1 .4-1 1v3c0 .6.4 1 1 1s1-.4 1-1v-3c0-.6-.4-1-1-1zM1242 239.6c-.6 0-1 .4-1 1v3c0 .6.4 1 1 1s1-.4 1-1v-3c0-.6-.4-1-1-1zM1242 227.6c-.6 0-1 .4-1 1v3c0 .6.4 1 1 1s1-.4 1-1v-3c0-.6-.4-1-1-1zM1242 233.6c-.6 0-1 .4-1 1v3c0 .6.4 1 1 1s1-.4 1-1v-3c0-.6-.4-1-1-1zM1242 221.6c-.6 0-1 .4-1 1v3c0 .6.4 1 1 1s1-.4 1-1v-3c0-.6-.4-1-1-1zM1242 305.6c-.6 0-1 .4-1 1v3c0 .6.4 1 1 1s1-.4 1-1v-3c0-.6-.4-1-1-1zM1242 299.6c-.6 0-1 .4-1 1v3c0 .6.4 1 1 1s1-.4 1-1v-3c0-.6-.4-1-1-1zM1242 311.6c-.6 0-1 .4-1 1v3c0 .6.4 1 1 1s1-.4 1-1v-3c0-.6-.4-1-1-1zM1242 281.6c-.6 0-1 .4-1 1v3c0 .6.4 1 1 1s1-.4 1-1v-3c0-.6-.4-1-1-1zM1242 275.6c-.6 0-1 .4-1 1v3c0 .6.4 1 1 1s1-.4 1-1v-3c0-.6-.4-1-1-1zM1242 287.6c-.6 0-1 .4-1 1v3c0 .6.4 1 1 1s1-.4 1-1v-3c0-.6-.4-1-1-1zM1242 293.6c-.6 0-1 .4-1 1v3c0 .6.4 1 1 1s1-.4 1-1v-3c0-.6-.4-1-1-1zM955.9 448h-3c-.6 0-1 .4-1 1s.4 1 1 1h3c.6 0 1-.4 1-1s-.5-1-1-1zM757.9 448h-3c-.6 0-1 .4-1 1s.4 1 1 1h3c.6 0 1-.4 1-1s-.5-1-1-1zM745.9 448h-3c-.6 0-1 .4-1 1s.4 1 1 1h3c.6 0 1-.4 1-1s-.5-1-1-1zM751.9 448h-3c-.6 0-1 .4-1 1s.4 1 1 1h3c.6 0 1-.4 1-1s-.5-1-1-1zM751 1c0-.6-.4-1-1-1h-3c-.6 0-1 .4-1 1s.4 1 1 1h3c.6 0 1-.4 1-1zM1027.9 448h-3c-.6 0-1 .4-1 1s.4 1 1 1h3c.6 0 1-.4 1-1s-.5-1-1-1zM763 1c0-.6-.4-1-1-1h-3c-.6 0-1 .4-1 1s.4 1 1 1h3c.6 0 1-.4 1-1zM769 1c0-.6-.4-1-1-1h-3c-.6 0-1 .4-1 1s.4 1 1 1h3c.6 0 1-.4 1-1zM763.9 448h-3c-.6 0-1 .4-1 1s.4 1 1 1h3c.6 0 1-.4 1-1s-.5-1-1-1zM727 1c0-.6-.4-1-1-1h-3c-.6 0-1 .4-1 1s.4 1 1 1h3c.6 0 1-.4 1-1zM727.9 448h-3c-.6 0-1 .4-1 1s.4 1 1 1h3c.6 0 1-.4 1-1s-.5-1-1-1zM721 1c0-.6-.4-1-1-1h-3c-.6 0-1 .4-1 1s.4 1 1 1h3c.6 0 1-.4 1-1zM721.9 448h-3c-.6 0-1 .4-1 1s.4 1 1 1h3c.6 0 1-.4 1-1s-.5-1-1-1zM733 1c0-.6-.4-1-1-1h-3c-.6 0-1 .4-1 1s.4 1 1 1h3c.6 0 1-.4 1-1zM739 1c0-.6-.4-1-1-1h-3c-.6 0-1 .4-1 1s.4 1 1 1h3c.6 0 1-.4 1-1zM739.9 448h-3c-.6 0-1 .4-1 1s.4 1 1 1h3c.6 0 1-.4 1-1s-.5-1-1-1zM745 1c0-.6-.4-1-1-1h-3c-.6 0-1 .4-1 1s.4 1 1 1h3c.6 0 1-.4 1-1zM733.9 448h-3c-.6 0-1 .4-1 1s.4 1 1 1h3c.6 0 1-.4 1-1s-.5-1-1-1zM769.9 448h-3c-.6 0-1 .4-1 1s.4 1 1 1h3c.6 0 1-.4 1-1s-.5-1-1-1zM799 1c0-.6-.4-1-1-1h-3c-.6 0-1 .4-1 1s.4 1 1 1h3c.6 0 1-.4 1-1zM805 1c0-.6-.4-1-1-1h-3c-.6 0-1 .4-1 1s.4 1 1 1h3c.6 0 1-.4 1-1zM799.9 448h-3c-.6 0-1 .4-1 1s.4 1 1 1h3c.6 0 1-.4 1-1s-.5-1-1-1zM811 1c0-.6-.4-1-1-1h-3c-.6 0-1 .4-1 1s.4 1 1 1h3c.6 0 1-.4 1-1zM805.9 448h-3c-.6 0-1 .4-1 1s.4 1 1 1h3c.6 0 1-.4 1-1s-.5-1-1-1zM775 1c0-.6-.4-1-1-1h-3c-.6 0-1 .4-1 1s.4 1 1 1h3c.6 0 1-.4 1-1zM811.9 448h-3c-.6 0-1 .4-1 1s.4 1 1 1h3c.6 0 1-.4 1-1s-.5-1-1-1zM817 1c0-.6-.4-1-1-1h-3c-.6 0-1 .4-1 1s.4 1 1 1h3c.6 0 1-.4 1-1zM817.9 448h-3c-.6 0-1 .4-1 1s.4 1 1 1h3c.6 0 1-.4 1-1s-.5-1-1-1zM781 1c0-.6-.4-1-1-1h-3c-.6 0-1 .4-1 1s.4 1 1 1h3c.6 0 1-.4 1-1zM775.9 448h-3c-.6 0-1 .4-1 1s.4 1 1 1h3c.6 0 1-.4 1-1s-.5-1-1-1zM781.9 448h-3c-.6 0-1 .4-1 1s.4 1 1 1h3c.6 0 1-.4 1-1s-.5-1-1-1zM787.9 448h-3c-.6 0-1 .4-1 1s.4 1 1 1h3c.6 0 1-.4 1-1s-.5-1-1-1zM787 1c0-.6-.4-1-1-1h-3c-.6 0-1 .4-1 1s.4 1 1 1h3c.6 0 1-.4 1-1zM793 1c0-.6-.4-1-1-1h-3c-.6 0-1 .4-1 1s.4 1 1 1h3c.6 0 1-.4 1-1zM793.9 448h-3c-.6 0-1 .4-1 1s.4 1 1 1h3c.6 0 1-.4 1-1s-.5-1-1-1zM637 1c0-.6-.4-1-1-1h-3c-.6 0-1 .4-1 1s.4 1 1 1h3c.6 0 1-.4 1-1zM649.9 448h-3c-.6 0-1 .4-1 1s.4 1 1 1h3c.6 0 1-.4 1-1s-.5-1-1-1zM667 1c0-.6-.4-1-1-1h-3c-.6 0-1 .4-1 1s.4 1 1 1h3c.6 0 1-.4 1-1zM715.9 448h-3c-.6 0-1 .4-1 1s.4 1 1 1h3c.6 0 1-.4 1-1s-.5-1-1-1zM655 1c0-.6-.4-1-1-1h-3c-.6 0-1 .4-1 1s.4 1 1 1h3c.6 0 1-.4 1-1zM655.9 448h-3c-.6 0-1 .4-1 1s.4 1 1 1h3c.6 0 1-.4 1-1s-.5-1-1-1zM661.9 448h-3c-.6 0-1 .4-1 1s.4 1 1 1h3c.6 0 1-.4 1-1s-.5-1-1-1zM661 1c0-.6-.4-1-1-1h-3c-.6 0-1 .4-1 1s.4 1 1 1h3c.6 0 1-.4 1-1zM643 1c0-.6-.4-1-1-1h-3c-.6 0-1 .4-1 1s.4 1 1 1h3c.6 0 1-.4 1-1zM649 1c0-.6-.4-1-1-1h-3c-.6 0-1 .4-1 1s.4 1 1 1h3c.6 0 1-.4 1-1zM619.9 448h-3c-.6 0-1 .4-1 1s.4 1 1 1h3c.6 0 1-.4 1-1s-.5-1-1-1zM625.9 448h-3c-.6 0-1 .4-1 1s.4 1 1 1h3c.6 0 1-.4 1-1s-.5-1-1-1zM625 1c0-.6-.4-1-1-1h-3c-.6 0-1 .4-1 1s.4 1 1 1h3c.6 0 1-.4 1-1zM619 1c0-.6-.4-1-1-1h-3c-.6 0-1 .4-1 1s.4 1 1 1h3c.6 0 1-.4 1-1zM631.9 448h-3c-.6 0-1 .4-1 1s.4 1 1 1h3c.6 0 1-.4 1-1s-.5-1-1-1zM823 1c0-.6-.4-1-1-1h-3c-.6 0-1 .4-1 1s.4 1 1 1h3c.6 0 1-.4 1-1zM631 1c0-.6-.4-1-1-1h-3c-.6 0-1 .4-1 1s.4 1 1 1h3c.6 0 1-.4 1-1zM637.9 448h-3c-.6 0-1 .4-1 1s.4 1 1 1h3c.6 0 1-.4 1-1s-.5-1-1-1zM643.9 448h-3c-.6 0-1 .4-1 1s.4 1 1 1h3c.6 0 1-.4 1-1s-.5-1-1-1zM697.9 448h-3c-.6 0-1 .4-1 1s.4 1 1 1h3c.6 0 1-.4 1-1s-.5-1-1-1zM667.9 448h-3c-.6 0-1 .4-1 1s.4 1 1 1h3c.6 0 1-.4 1-1s-.5-1-1-1zM691.9 448h-3c-.6 0-1 .4-1 1s.4 1 1 1h3c.6 0 1-.4 1-1s-.5-1-1-1zM697 1c0-.6-.4-1-1-1h-3c-.6 0-1 .4-1 1s.4 1 1 1h3c.6 0 1-.4 1-1zM703.9 448h-3c-.6 0-1 .4-1 1s.4 1 1 1h3c.6 0 1-.4 1-1s-.5-1-1-1zM715 1c0-.6-.4-1-1-1h-3c-.6 0-1 .4-1 1s.4 1 1 1h3c.6 0 1-.4 1-1zM709.9 448h-3c-.6 0-1 .4-1 1s.4 1 1 1h3c.6 0 1-.4 1-1s-.5-1-1-1zM709 1c0-.6-.4-1-1-1h-3c-.6 0-1 .4-1 1s.4 1 1 1h3c.6 0 1-.4 1-1zM703 1c0-.6-.4-1-1-1h-3c-.6 0-1 .4-1 1s.4 1 1 1h3c.6 0 1-.4 1-1zM673.9 448h-3c-.6 0-1 .4-1 1s.4 1 1 1h3c.6 0 1-.4 1-1s-.5-1-1-1zM679 1c0-.6-.4-1-1-1h-3c-.6 0-1 .4-1 1s.4 1 1 1h3c.6 0 1-.4 1-1zM673 1c0-.6-.4-1-1-1h-3c-.6 0-1 .4-1 1s.4 1 1 1h3c.6 0 1-.4 1-1zM685.9 448h-3c-.6 0-1 .4-1 1s.4 1 1 1h3c.6 0 1-.4 1-1s-.5-1-1-1zM691 1c0-.6-.4-1-1-1h-3c-.6 0-1 .4-1 1s.4 1 1 1h3c.6 0 1-.4 1-1zM685 1c0-.6-.4-1-1-1h-3c-.6 0-1 .4-1 1s.4 1 1 1h3c.6 0 1-.4 1-1zM679.9 448h-3c-.6 0-1 .4-1 1s.4 1 1 1h3c.6 0 1-.4 1-1s-.5-1-1-1zM757 1c0-.6-.4-1-1-1h-3c-.6 0-1 .4-1 1s.4 1 1 1h3c.6 0 1-.4 1-1zM979 1c0-.6-.4-1-1-1h-3c-.6 0-1 .4-1 1s.4 1 1 1h3c.6 0 1-.4 1-1zM955 1c0-.6-.4-1-1-1h-3c-.6 0-1 .4-1 1s.4 1 1 1h3c.6 0 1-.4 1-1zM961.9 448h-3c-.6 0-1 .4-1 1s.4 1 1 1h3c.6 0 1-.4 1-1s-.5-1-1-1zM613.9 448h-3c-.6 0-1 .4-1 1s.4 1 1 1h3c.6 0 1-.4 1-1s-.5-1-1-1zM967 1c0-.6-.4-1-1-1h-3c-.6 0-1 .4-1 1s.4 1 1 1h3c.6 0 1-.4 1-1zM973.9 448h-3c-.6 0-1 .4-1 1s.4 1 1 1h3c.6 0 1-.4 1-1s-.5-1-1-1zM967.9 448h-3c-.6 0-1 .4-1 1s.4 1 1 1h3c.6 0 1-.4 1-1s-.5-1-1-1zM973 1c0-.6-.4-1-1-1h-3c-.6 0-1 .4-1 1s.4 1 1 1h3c.6 0 1-.4 1-1zM961 1c0-.6-.4-1-1-1h-3c-.6 0-1 .4-1 1s.4 1 1 1h3c.6 0 1-.4 1-1zM937 1c0-.6-.4-1-1-1h-3c-.6 0-1 .4-1 1s.4 1 1 1h3c.6 0 1-.4 1-1zM931.9 448h-3c-.6 0-1 .4-1 1s.4 1 1 1h3c.6 0 1-.4 1-1s-.5-1-1-1zM931 1c0-.6-.4-1-1-1h-3c-.6 0-1 .4-1 1s.4 1 1 1h3c.6 0 1-.4 1-1zM949.9 448h-3c-.6 0-1 .4-1 1s.4 1 1 1h3c.6 0 1-.4 1-1s-.5-1-1-1zM937.9 448h-3c-.6 0-1 .4-1 1s.4 1 1 1h3c.6 0 1-.4 1-1s-.5-1-1-1zM949 1c0-.6-.4-1-1-1h-3c-.6 0-1 .4-1 1s.4 1 1 1h3c.6 0 1-.4 1-1zM943.9 448h-3c-.6 0-1 .4-1 1s.4 1 1 1h3c.6 0 1-.4 1-1s-.5-1-1-1zM943 1c0-.6-.4-1-1-1h-3c-.6 0-1 .4-1 1s.4 1 1 1h3c.6 0 1-.4 1-1zM1009 1c0-.6-.4-1-1-1h-3c-.6 0-1 .4-1 1s.4 1 1 1h3c.6 0 1-.4 1-1zM1015 1c0-.6-.4-1-1-1h-3c-.6 0-1 .4-1 1s.4 1 1 1h3c.6 0 1-.4 1-1zM1015.9 448h-3c-.6 0-1 .4-1 1s.4 1 1 1h3c.6 0 1-.4 1-1s-.5-1-1-1zM1009.9 448h-3c-.6 0-1 .4-1 1s.4 1 1 1h3c.6 0 1-.4 1-1s-.5-1-1-1zM1003.9 448h-3c-.6 0-1 .4-1 1s.4 1 1 1h3c.6 0 1-.4 1-1s-.5-1-1-1zM925.9 448h-3c-.6 0-1 .4-1 1s.4 1 1 1h3c.6 0 1-.4 1-1s-.5-1-1-1zM1027 1c0-.6-.4-1-1-1h-3c-.6 0-1 .4-1 1s.4 1 1 1h3c.6 0 1-.4 1-1zM1021.9 448h-3c-.6 0-1 .4-1 1s.4 1 1 1h3c.6 0 1-.4 1-1s-.5-1-1-1zM1021 1c0-.6-.4-1-1-1h-3c-.6 0-1 .4-1 1s.4 1 1 1h3c.6 0 1-.4 1-1zM979.9 448h-3c-.6 0-1 .4-1 1s.4 1 1 1h3c.6 0 1-.4 1-1s-.5-1-1-1zM985.9 448h-3c-.6 0-1 .4-1 1s.4 1 1 1h3c.6 0 1-.4 1-1s-.5-1-1-1zM985 1c0-.6-.4-1-1-1h-3c-.6 0-1 .4-1 1s.4 1 1 1h3c.6 0 1-.4 1-1zM991 1c0-.6-.4-1-1-1h-3c-.6 0-1 .4-1 1s.4 1 1 1h3c.6 0 1-.4 1-1zM997 1c0-.6-.4-1-1-1h-3c-.6 0-1 .4-1 1s.4 1 1 1h3c.6 0 1-.4 1-1zM997.9 448h-3c-.6 0-1 .4-1 1s.4 1 1 1h3c.6 0 1-.4 1-1s-.5-1-1-1zM1003 1c0-.6-.4-1-1-1h-3c-.6 0-1 .4-1 1s.4 1 1 1h3c.6 0 1-.4 1-1zM991.9 448h-3c-.6 0-1 .4-1 1s.4 1 1 1h3c.6 0 1-.4 1-1s-.5-1-1-1zM883 1c0-.6-.4-1-1-1h-3c-.6 0-1 .4-1 1s.4 1 1 1h3c.6 0 1-.4 1-1zM859.9 448h-3c-.6 0-1 .4-1 1s.4 1 1 1h3c.6 0 1-.4 1-1s-.5-1-1-1zM853.9 448h-3c-.6 0-1 .4-1 1s.4 1 1 1h3c.6 0 1-.4 1-1s-.5-1-1-1zM859 1c0-.6-.4-1-1-1h-3c-.6 0-1 .4-1 1s.4 1 1 1h3c.6 0 1-.4 1-1zM853 1c0-.6-.4-1-1-1h-3c-.6 0-1 .4-1 1s.4 1 1 1h3c.6 0 1-.4 1-1zM865.9 448h-3c-.6 0-1 .4-1 1s.4 1 1 1h3c.6 0 1-.4 1-1s-.5-1-1-1zM871 1c0-.6-.4-1-1-1h-3c-.6 0-1 .4-1 1s.4 1 1 1h3c.6 0 1-.4 1-1zM865 1c0-.6-.4-1-1-1h-3c-.6 0-1 .4-1 1s.4 1 1 1h3c.6 0 1-.4 1-1zM871.9 448h-3c-.6 0-1 .4-1 1s.4 1 1 1h3c.6 0 1-.4 1-1s-.5-1-1-1zM847.9 448h-3c-.6 0-1 .4-1 1s.4 1 1 1h3c.6 0 1-.4 1-1s-.5-1-1-1zM829.9 448h-3c-.6 0-1 .4-1 1s.4 1 1 1h3c.6 0 1-.4 1-1s-.5-1-1-1zM835 1c0-.6-.4-1-1-1h-3c-.6 0-1 .4-1 1s.4 1 1 1h3c.6 0 1-.4 1-1zM829 1c0-.6-.4-1-1-1h-3c-.6 0-1 .4-1 1s.4 1 1 1h3c.6 0 1-.4 1-1zM841 1c0-.6-.4-1-1-1h-3c-.6 0-1 .4-1 1s.4 1 1 1h3c.6 0 1-.4 1-1zM841.9 448h-3c-.6 0-1 .4-1 1s.4 1 1 1h3c.6 0 1-.4 1-1s-.5-1-1-1zM847 1c0-.6-.4-1-1-1h-3c-.6 0-1 .4-1 1s.4 1 1 1h3c.6 0 1-.4 1-1zM835.9 448h-3c-.6 0-1 .4-1 1s.4 1 1 1h3c.6 0 1-.4 1-1s-.5-1-1-1zM889 1c0-.6-.4-1-1-1h-3c-.6 0-1 .4-1 1s.4 1 1 1h3c.6 0 1-.4 1-1zM877 1c0-.6-.4-1-1-1h-3c-.6 0-1 .4-1 1s.4 1 1 1h3c.6 0 1-.4 1-1zM913 1c0-.6-.4-1-1-1h-3c-.6 0-1 .4-1 1s.4 1 1 1h3c.6 0 1-.4 1-1zM901 1c0-.6-.4-1-1-1h-3c-.6 0-1 .4-1 1s.4 1 1 1h3c.6 0 1-.4 1-1zM901.9 448h-3c-.6 0-1 .4-1 1s.4 1 1 1h3c.6 0 1-.4 1-1s-.5-1-1-1zM907.9 448h-3c-.6 0-1 .4-1 1s.4 1 1 1h3c.6 0 1-.4 1-1s-.5-1-1-1zM913.9 448h-3c-.6 0-1 .4-1 1s.4 1 1 1h3c.6 0 1-.4 1-1s-.5-1-1-1zM919.9 448h-3c-.6 0-1 .4-1 1s.4 1 1 1h3c.6 0 1-.4 1-1s-.5-1-1-1zM919 1c0-.6-.4-1-1-1h-3c-.6 0-1 .4-1 1s.4 1 1 1h3c.6 0 1-.4 1-1zM907 1c0-.6-.4-1-1-1h-3c-.6 0-1 .4-1 1s.4 1 1 1h3c.6 0 1-.4 1-1zM883.9 448h-3c-.6 0-1 .4-1 1s.4 1 1 1h3c.6 0 1-.4 1-1s-.5-1-1-1zM823.9 448h-3c-.6 0-1 .4-1 1s.4 1 1 1h3c.6 0 1-.4 1-1s-.5-1-1-1zM877.9 448h-3c-.6 0-1 .4-1 1s.4 1 1 1h3c.6 0 1-.4 1-1s-.5-1-1-1zM895.9 448h-3c-.6 0-1 .4-1 1s.4 1 1 1h3c.6 0 1-.4 1-1s-.5-1-1-1zM895 1c0-.6-.4-1-1-1h-3c-.6 0-1 .4-1 1s.4 1 1 1h3c.6 0 1-.4 1-1zM925 1c0-.6-.4-1-1-1h-3c-.6 0-1 .4-1 1s.4 1 1 1h3c.6 0 1-.4 1-1zM889.9 448h-3c-.6 0-1 .4-1 1s.4 1 1 1h3c.6 0 1-.4 1-1s-.5-1-1-1z"/></g></svg>