<svg xmlns="http://www.w3.org/2000/svg" width="129.7" height="26.3" preserveAspectRatio="none"><g fill="#fff"><path d="M34.1 5.4l-4.9 12.3-4.8-12.3h-2.5L28 20.2l-2.7 6.1h2.4l8.9-20.9zM9.7 9.9L2.6.5H0v19.9h2.3V3.9l7.4 9.5 7.4-9.5v16.5h2.2V.5h-2.6z"/></g><g fill="#3BB984"><path d="M56.9 0h-2.2v5.4h-3.1v2h3.1v13h2.2v-13h3.5v-2h-3.5zM47.6 12.6c-.7-.3-1.5-.5-2.4-.7-.9-.2-1.7-.4-2.4-.6-.7-.2-1.4-.5-1.8-.8-.5-.3-.7-.8-.7-1.4 0-1.4 1.2-2.2 3.5-2.2s3.6.8 3.8 2.3h2.3c-.1-1.2-.7-2.2-1.5-2.9-1.1-.9-2.5-1.3-4.3-1.3-1.9 0-3.4.4-4.4 1.1s-1.5 1.8-1.5 3.2c0 .9.2 1.6.7 2.2.5.5 1.1.9 1.8 1.2.7.3 1.5.5 2.4.7.9.2 1.7.4 2.4.6.7.2 1.4.5 1.8.8.5.3.7.8.7 1.4 0 .9-.5 1.6-1.4 2-.4.2-.9.3-1.3.3-.4.1-.9.1-1.4.1-.5 0-1-.1-1.5-.2-1.6-.4-2.4-1.4-2.5-2.7h-2.3c.1 1.4.7 2.6 1.7 3.5 1.2 1 2.8 1.5 4.8 1.5 1.9 0 3.4-.4 4.5-1.2 1.1-.8 1.7-1.9 1.7-3.3 0-.9-.2-1.7-.7-2.2-.6-.7-1.3-1.1-2-1.4zM68.2 5.6c-1.6.7-2.6 1.9-3.1 3.4V5.4h-2.3v15h2.3v-6.6c0-1.7.5-3.2 1.4-4.4 1-1.3 2.3-2 4-2h.3V5.1h-.1c-1 0-1.8.2-2.5.5zM128 6.8c-.5-.5-1.1-1-1.8-1.2-.7-.3-1.4-.4-2.1-.4-.7 0-1.4.1-2 .3-1.4.5-2.5 1.4-3.2 2.7-.5-1-1.1-1.7-2-2.2-.9-.5-1.8-.8-2.8-.8-2 0-3.6.8-4.6 2.5V5.4h-2.3v15h2.3v-9c0-1.3.4-2.4 1.2-3.1.8-.7 1.7-1.1 2.8-1.1 1.1 0 2 .4 2.7 1.1.7.8 1 1.8 1 3.1v9h2.3v-9c0-1.3.4-2.4 1.2-3.1.8-.7 1.7-1.1 2.8-1.1 1.1 0 2 .4 2.7 1.1.7.8 1.1 1.8 1.1 3.1v9h2.3v-9.1c.1-1.8-.5-3.3-1.6-4.5zM101.2 7.8C100 6 98.3 5.1 96 5.1c-2.3 0-4.1.8-5.4 2.3-1.3 1.5-2 3.3-2 5.5s.7 4 2 5.5c1.4 1.5 3.1 2.3 5.3 2.3 2.4 0 4.2-.9 5.4-2.6v2.4h2.3v-15h-2.3v2.3zm-1.2 9.1c-.9 1.1-2.2 1.7-3.8 1.7-1.6 0-2.9-.6-3.9-1.7-.9-1.1-1.4-2.4-1.4-4s.5-3 1.4-4c1-1.1 2.3-1.7 3.9-1.7s2.9.6 3.8 1.7c.9 1.1 1.3 2.4 1.3 4s-.4 2.9-1.3 4zM79.3 5.1c-2.2 0-4.1.8-5.5 2.3-1.3 1.4-2 3.3-2 5.5s.7 4 2.1 5.5c1.4 1.5 3.3 2.3 5.5 2.3 1.8 0 3.2-.4 4.4-1.3 1.1-.8 2-1.9 2.5-3.3h-2.5c-.9 1.7-2.3 2.5-4.3 2.5-1.5 0-2.7-.5-3.7-1.4-.9-.9-1.5-2-1.6-3.4h12.6v-.9c0-2.2-.7-4-2-5.5-1.4-1.5-3.2-2.3-5.5-2.3zm-5.1 6.6c.2-1.3.7-2.4 1.6-3.2.9-.9 2.1-1.3 3.5-1.3s2.5.4 3.5 1.3c.9.8 1.4 1.9 1.6 3.2H74.2z"/></g></svg>