<svg xmlns="http://www.w3.org/2000/svg" width="1011" height="498" preserveAspectRatio="none"><g fill="#2A3046"><path d="M179.4 42.2c1-1.2-4-5.2-4.2-3.4-.3 1.9 3.1 4.7 4.2 3.4zM195.6 25.9c.9-1.5-5.2-2.7-3.7-1.4.8.8 2.8 2.9 3.7 1.4zM147 47.6c-1.7.1-1.6 1.9.4 1.9s2.6.6-.2.5c-2.9-.1-4.1 2.4-2.1 1.9 2-.5 4.4-.5 2.9 0-1.5.5-5.6.8-5 1.6.4.5 2 .4 3.6 1s2.6 1 3.9-.4c1.2-1.4 2.9-2.7 2.2-.9-.6 1.9 2 .5 5.4.4 3.4-.1-.6 2-4.1 2.2-3.5.2-2.9 2-.1 2.6 2.7.6 8.6-1.7 10-3.1 1.4-1.4 2.6.7 4-.2 1.4-1 4 .1 6.3-.4 2.4-.5 2.7-5 1-5.7-1.7-.7-1.7.9-3.1 1.1-1.4.2-2.1-1.5-3.2-2.6s-.4-3.2-2-3c-1.6.2-5.1 2.9-3 3.1 2.1.2 1.4 1.4.2 1.9-1.1.5 2.6 1.4 2.1 2.1-.5.7-6.2.1-6.5-1.1-.2-1.2-4.7-3.5-6.6-3-1.9.5-1.1-1.5-3-1.6-1.9-.2-1.3 1.5-3.1 1.7zM178.5 31.8c1.5-1 4.2.6 3.7 1.7s-4.8-.2-4.5.7c.1.4.6 1.9 3.6 1 3-.9 5.5-.2 7.5 1.4 2 1.6 3.9 2.2 5.2.6 1.4-1.6-1.7-1.9-1.1-3.1.6-1.2-2-2-3.4-2s-1.9-2.5-3-2-1.9 1.4-1.9-.2c0-1.6-6.5-1.7-8.1-1.1-1.5.6.5 4 2 3zM153.5 38.6c.6-1.5-4.1-1.2-3.7-.7.9 1.1 3.1 2.2 3.7.7zM163.8 38c1.6-.2.9-1.5-1.7-1.1-2.6.4-7.1.4-7.1 2.2 0 1.5.9 2.2 3.7 2.5 2.9.2 5.4-2.5 4-2.5-1.3 0-.5-.9 1.1-1.1zM157.7 35.6c1.2.5 2.5-1.1 3.4-.4.9.7 4.7 1.4 4.7-.6s-4.9-2.2-6.1-1.5c-1.2.7-7 1-5.4 2.2 1.1.8 2.2-.2 3.4.3zM193.6 74.3c2.7 1.9 1.9-1.5 5-1.4 3.1.1 3.2-5 3.7-6.8.5-1.9-2.5-1.7-1.7-.4.7 1.4-.1 2.7-.4 1.1-.2-1.6-2.6-.1-3.5-1.4-.9-1.2 2.7-1.4 3.6-3 .9-1.6-2.9-1.4-2-2.6.9-1.2-5.5.1-3.6.9 1.9.7.1 1.7-1.6.5-1.7-1.2-6.6.8-4.9 2.2 1.4 1.1 5.5-.7 3.1 2.5s-3.4-.9-5.6-.5c-2.2.4-1.2 3.1 2.1 4.1 3.4 1.1 3.1 2.9 5.8 4.8zM220.2 39.7c-2.2-1.1-5.1 1.2-2.7 2.1 2 .8 5-.9 2.7-2.1zM209.5 56.9c2.2-.1 1.1-2.9-1.4-4.7-2.5-1.9-8.1 2-7.1 2.7 1.2.9 6.3 2.1 8.5 2zM210.9 38.7c-.2-.7-9.7.4-8.2 1.5 2.5 1.9 8.4-.7 8.2-1.5zM127.6 48.2c.9.4 0 2.1 1 1.6s1.2-.6 2-.4c1.3.4 1.6-.7 2.2-1.4.6-.6.4 2.2 2 2.2 1.4 0 1.1-3 2.4-2.1 1.2.9 1.6-.4 1.9-1.2.2-.9.2-2.4 1.6-2.6 1.4-.2.2 1.4.9 2.5.9 1.6 2.5.1 2.6-.6.1-.7 2.4-.2 2.2-1.1-.1-.9.6-1.1 0-2.1s1-.7 1.7-1.5c.7-.7-1-.1-2.2-1.2-1.2-1.1-1.7.4-1.7 1.1 0 .7-2.4.1-3.7-.4-1.4-.5-3.1 1.6-5.1 2.6-2 1-2.1 2.7-4 2.6-1.9-.1-4.6 1.6-3.8 2zM245.6 62c-.7 1.6 1.6 1.6 1.7 3.5.1 1.9 2.5 2.5 4.2 1.4 1.7-1.1 6.7.3 6.7-1.1 0-1.4-5.2-3.9-7.1-3.5-1.7.3-4.7-1.9-5.5-.3zM200.8 38.1c1.9 0 3.4-.2 5-.9 1.6-.6-.9-.6.2-2.1s-2.7-1.6-3-1.1c-.2.5-5.1-3-5.9-1.9-.6 1.2 1.8 6 3.7 6zM195.6 45.5c-.1 1.2-3-.2-5.2-1.1-2.2-.9-.9 1.7.9 3.2 1.7 1.5-.9.7-3.2-.9-2.4-1.6-2.1 1.1-1 2 1.1.9-.2 2.1-1.7.1s-2.2-4.1-4.6-4.2c-2.4-.1-1.3 2.3-.4 3.5 1.2 1.6 2.5 2 4.5 3.1s5.2-.5 6.7-.1-1.6 2.2-.6 3.5c1 1.2 3.7.4 5.9.2 2.1-.1 1.1-1.4 2.4-2.2 1.2-.9-1.2-.7-.2-2.9.7-2.1-3.4-5.5-3.5-4.2zM202.3 25.8c1.8.9.7 2.1 2.7 3 2 .9 7.7-1.1 8.2.2.5 1.4-5.9 1.5-5 2.4.9.9 4.5 2.2 4 3-.5.7 6 2.9 6.6 1.9.6-1 2.4-.7 4-.1s1.7-3.9 2.9-3.1c1.1.7 1-1.6 2.9-2.4 1.9-.7 4.6-.8 4.7-1.6.1-.6-.5-1.5-2.7-1.2-2.2.2-3.7-.6-2.7-1.9 1-1.2-2.5-1.6-1.2-2.6 1.2-1-2.4-2-2-.5.4 1.5-2.2.1-2.6-1.2-.4-1.4-5.5-1.9-8.8-4.8-3.4-3-6.8-1-4.9-.6 2 .4 1.9 1.4.2 1.2-1.6-.1-4.5.1-1.9 1.1s-.2 1.4-2.4 1.4c-2.1 0-2.2 2.7.5 3.1 2.7.4.7 2-1.5 1.4-2.2-.8-3 .3-1 1.3zM43.9 134.4c.1-.7-.9-.6-2.2.8-1.2 1.4-2.3 2.2-2.5 2.9-.2.7-1.6-.1-2.1.7-.4.9.3 2.8 1.2 2.2.9-.6.9 0 1.5 0s3.1-1.7 3.7-2.6c.6-.9-1-1.1-1.1-1.7-.1-.6 1.3-.6 2-.9.8-.4-.6-.7-.5-1.4zM305.5 480.9c-1.4-.2-4.7 2.5-3.2 3.2 1.5.8 4.6-2.9 3.2-3.2zM306 484.4c1 .5 5.1-1.2 4.6-2.1-1-1.9-5.6 1.6-4.6 2.1zM215.9 321.5c-1.2 1.9 1.2 3.7 1.7 2.9.6-1-.5-4.8-1.7-2.9zM367.1 492.1c.2 1.1 1.3.6 2.4 1.6 1.1 1 2.1 2.8 3.2 1.1 1.1-1.8-5.7-3.3-5.6-2.7zM98.9 152.4c-2.2 1.2 3.1 6.9 4.3 6.2.8-.5-1.3-2.9-1.3-4.3-.1-1.6-.8-3.1-3-1.9zM181.5 54.2c.9-1-1.9-3.1-2.6-1.4-.7 1.7 1.7 2.4 2.6 1.4zM1005.9 113c-.6.4-4.3.2-3.5 1.1.7.7 3.8.3 5.2 1.2 1.4.8 3.4.2 3.4-.5s-4.5-2.2-5.1-1.8zM786.7 58.3c-.3.7-2.1.7-1.7 1.3.8 1.1 5 .5 5.1-.8.1-1.4-3.1-1.2-3.4-.5zM4.3 127.1c-.1-1-2.8-.1-2.5.9.3.9 2.8 1.5 3.9 1.2.9-.3 1.2-1.3.6-1.9-.7-.7-1.9.8-2-.2zM1.8 154.6c1.5-.6 2.1-1.4 1.5-2.1-.7-.7-2.7 2.6-1.5 2.1zM138 51.7c2.2.2 4.5-1.7 4.4-2.9-.2-1.1-5.6 2.8-4.4 2.9zM12.4 149c-1.4-.5-5 1.7-3.7 1.9.9.1 1.2-.7 2.2-.7 1 0 2.8-.7 1.5-1.2zM123 72.1c2.2.5 2.5 4.5 4 4.5 1 0 .2-1.2 1.9-1.2 1.6 0 1.2-.9 2.7-.7 1.5.1 2.7-.4 2.7-2.1 0-1.7 1.1-2.4 2.6-2.7 1.5-.4.1-2.2 2.2-2.7s8-3 9-3.7c1-.7-1.2-1.7-3.5-3.1-2.2-1.4-4-1.7-5.7-.6-1.7 1.1-.4-1.2-1.7-.6-1.4.6-5.1-1-5.6-1.6-.5-.6-7.2 1.4-8.8 1.4-1.6 0 .1 1.7 1.2 2.6 1.1.9-2.7 3.6-2 4.2.7.6-.7 2.2-2.5 4.2-1.7 1.7 1.3 1.6 3.5 2.1zM22.8 258.8c.8.9 1.4.6 1.6-.1.3-.8-2.5-.8-1.6.1zM32.5 262c-.9.1-.3 1.8.3 1.4 1-.8.6-1.5-.3-1.4zM34.6 264.4c-1.6.2-.7 4.1.1 3.4.6-.5 1.7-.5 2-1.1.5-.8-.6-2.5-2.1-2.3zM27.2 260.7c.6.9 1.2 1.1 1.7.3.6-.8-2.4-1.4-1.7-.3zM857.9 54.6c1.2.6 1.6 1.2 2.2 1.8.7.7 3.2-.3 4.1-.7 1-.3 1.1 1.5 2.7.5s3.2-.5 5-.5c1.8 0-.3-2.2-.2-3.2.1-1 2.2-.3 1.5.5-.7.8 1 2.7 3.7 2.6 2.7-.2.7-1.8 2-2.4 1.3-.6 1.2-1.2-.7-2.4s-4.4-.4-6.1-1.2c-1.8-.8-3.9-.8-4 1-.1 1.8-3.6-2-5.4-2.6-1.9-.5-7.5 5.2-4.8 6.6zM672.3 65.9c1.1.2 4-.4 4.3-1 .3-.6-1.2-1.2-3.1-1.2-1.9 0-2.2 2-1.2 2.2zM656.2 19.8c3.1-.3 3.1-2.1 1.4-2.4-1.7-.3-1.9 1-2.7.9-.8-.1-4 .5-3.3 1.2.7.9 3.1.5 4.6.3zM625.3 22.9c0-1.3-4.3.1-3.5.4.8.2 3.5.9 3.5-.4zM696.5 67.1c1.3.7 2.3.4 2.2-.9-.2-1.3-3.3.4-2.2.9zM731.4 17.6c.3-1.2-5.2-.7-3.7.5.5.5 3.4.8 3.7-.5zM624.6 64.9c.1.8-.4 1.4-2 1.4s.7 1 .9 1.9c.2.9-1.6.2-1.7 1.7-.1 1.4-3.1 0-3.5 1.8-.4 1.8 1.5 1.6 2.8 1.7 1.3.1-.5 1.3.5 2.1 1 .7 1.7.5 1.1-.9-.7-1.4 3.5.5 2.2 1.6-1.2 1.1 2 1.9 3.6 2 1.6.1 7.2 1.3 7.3 0 .1-.8-2.1-1.6-3.8-3.4-1.7-1.8-3-4.8-1-6 2-1.2.2-1.8 2.2-3.2 2-1.4.8-2.7 2.5-2.9 1.7-.2-.2-1.7 1.5-1.9 1.7-.2 2-2.1 1.7-2.7-.2-.7 1.7.1 2.7-.9.9-1 3.1-.3 3.7-1.7.7-1.4 10.2-4.6 15.6-5.9 5.4-1.2 9.1-3.5 7.2-5-1.9-1.5-7.3.6-8.6 1.7-1.3 1.1-3.2.3-4.6 1.1-1.3.7-4.2 1.4-5.6.5-1.4-.9-3.1 1.1-4.1 1-1.1-.1-2.3 1.1-3.5 1-1.2-.1-3.5.9-3.7 1.6-.2.7-2.2.5-2.2 1.3s-1.6 1.6-2.4.8c-.8-.7-1.8.8-.7 1.9 1.2 1.1-2.2 1.2-1.6 1.8.6.7-1.2 1.1-.8 1.8.4.7-1.2 1-2.4 1.2-1.2.2-1.9 1.9-.3 2 1.6.1-.9.3-.7 1.6.4 1-2.4.2-2.3 1zM636 21.8c.2.7-.4.7-2.1.7-1.7 0-2.5.9-1.7 1.7 1 .8 5.4.5 6.1-.5.7-1 2.7-.2 3-1.2.4-1-5.6-1.4-5.3-.7zM637 18.9c.2-1.7-2.7-.3-4.8-1.2-2.2-.9-3.4-.8-2 .4.7.6-3.7 1-3 1.7 1.6 1.6 9.5.8 9.8-.9zM635.6 17.3c2 0 1.4-1.2 2.7-1.1 1.3.2 3.1.1 2.4-.7-.7-.8-5.5-.5-5 .2s-3.9.4-3.8.7c.2.4 1.7.9 3.7.9zM650.2 20.2c.6-.7-1.1-.7-1.2-1.5-.2-.7-4.8-.9-4.6-.1.2.8-3.2 1.7-2.2 2.6 2 1.6 7.4-.2 8-1zM733.6 23.5c1.6.7 1 1.1-.7 1.1s-3.1.6-2 1c.8.3.7 1.2 2.5 1.7 1.7.4 3.5-1 3.3-2-.2-1 6.1-1.9 7.7-2.3 1.7-.4-1.1-2.2.7-2.3 1.8-.2 1.1-1-1.2-1.3-2.2-.3-1.3-2.2-2.1-2.9-.7-.7-1.2.8-4.1 1.4-2.9.6-4.3 1.3-3.2 1.9 1.2.6 0 2-1.2 1.9-1-.2-1.3 1.2.3 1.8zM538.2 132c.3-.6-2.4-.3-1.8.2.4.4 1.4.4 1.8-.2zM975.7 77.7c1.7.8 2.7-1 4-.1 1.3.9 4.6-.4 5.9-.7 1.3-.2.7-1.9-3.1-2.4-3.8-.4-8.6 2.4-6.8 3.2zM875.2 65.2c1.5-.3-1.1-3.1-3.7-3.5-2.6-.4-5 1.7-4.6 2.2.8 1.1 6.9 1.7 8.3 1.3zM883 54.5c2 .2 3 2.1 6.8 2.3 3.8.2 6.6-.5 6.7-1.3.1-.8-3.5-2.1-4.6-1.4-1.1.7-1.9-1.1-3.2-.7-1.3.4-3.2.3-3.8-.8-.6-1.1-2.8 1.9-1.9 1.9zM868.6 59.8c0-1.2-4.5.5-2.7 1.1 1 .3 2.7.1 2.7-1.1zM738 25.9c0 .9-2.7 1.8-1.9 2.5.7.6 1.2.4 2.1.6.8.2 1.2 2.2 2.7 1.9 1.5-.3 5.6 1.7 8 1.7 2.4 0 2.7-2 1.9-2.1-.7-.1-.1-1.2 1.2-3.1 1.3-1.9-4.1-3.3-4.1-1.8 0 1.5-1.6-.3-2.1-1.2-.5-1.1-7.8.5-7.8 1.5zM750.9 37.5c1.2.7 4.9-.8 7.4-.7 2.5.1 9.5-1.9 9.7-3.2.2-1.3-2.6-1.2-3.7-2.4s-3.5-.2-4.1.8c-.6 1-1.2.1.3-1.5 1.6-1.6-1.6-2.8-1.7-1.8-.1 1-3 .2-3 1.1s-1.1 1.3-1 2.2c.1.9-2-.5-2.1 1.6.1 2-3.1 3.2-1.8 3.9zM217.4 13.5c1.7-1.1 3.1-.4 1.6.4-1.5.7-1 1.2 1.1 1.1 2.1-.1-.9.6-.9 1.9 0 1.2 2.5.5 2.6 1.7.1 1.2 5.5 1.7 7.1.2 1.6-1.5 1 .4.9 1.4-.1 1 7.6 1.9 8 .6.4-1.2 1.5-.7 3-.4 1.5.4 8.8-1.4 9-2.9.1-1.5 2.4.7 0 2.4-2.4 1.6-7.1 1.4-9.2 2-2.1.6 1.4 2.1 3.5 3.7s-2.7.7-4.7-1.4c-2-2.1-6.5-2.1-8.8-2-2.4.1-1.6 4.5.1 4.5 1.7 0 3.5.6 5.2 3.4 1.7 2.7 5.5 2.1 5.5 3.4 0 1.2-4.9-1-7.6-1.5-2.7-.5-7.1 1.2-7.2 3.2-.1 2 4 1.7 6.7.1 2.7-1.6.7.5-.6 1.7-1.4 1.2 3.2 2.2 3.2 3.7s-3.4 1-3.7-.4c-.4-1.4-1.6-2.7-4.9-2.5-3.2.2-2.4 2.5-.4 2.7 2 .2 2.1 1.7-.1 1.7s-7.3 1.4-5.7 2.9c1.7 1.6 8.1 0 9.2 1 1.1 1 4.2 1.4 5 .2.7-1.1 3.2-.6 5.7-.6s3.1.4 4.2 1.4c1.1 1 3.1.6 4.5-.4s1.4-1 3.1-1c1.7 0 2.1-1.1 1.2-2.5-.9-1.4-3.1 1-3.4 0-.3-1.2-2.4-1.6-5.9-1.1-3.5.5-2-2.2.1-1.6 2.1.6 5 .4 7.3-.2 2.4-.6.5-1.7.5-2.7 0-1 3-.4 5.2-.4s5.5-3.6 5.6-5.7c.1-2.1-5-1.6-7.5-1.6s1.6-1.9 6.3-1.6c4.7.2 2.6-1.9 3.5-2.6.9-.7 3.1.9 5.5.4s.7-2.5 2.4-2.5c1.1 0 3.7-1.7 8.8-4.6 5.1-2.9 9.1-2.4 9.3-4 .2-1.6-7.1 0-8.3-.5-1.2-.5 5.1-1.9 6.6-1.5 1.5.4 3.5 0 8.6-2.5s2.9-3.1.7-2.7c-2.1.4-4.5-.4-4.4-1.7.1-1.4-3.1-.1-3.2-.9-.1-.7-3.1-.4-6.3.9-3.2 1.2-.2-1.2 1.1-1.7 1.4-.5-8.2 0-9.8-1.1-1.6-1.1-3.5 1.9-5 .4s-5.4-.2-4.9.9-.6 1.1-2.1-.1c-1.5-1.2-4.4.1-7-.2-2.6-.4-1.5 2.1-4.4.9-2.9-1.2-6-.6-5.1-.2.9.4-.2 1.1-1.5.7-1.2-.4-2.4.1-1.7 1.4.6 1.2-4.6-.4-4.6 1s-1.9 2.1-3.4.9c-1.5-1.2-6.2-1.6-4.9-.5 1.4 1.1-4.2.5-2.7 1.6s-1.9 2-1.9 1.4c0-.6-3.1-1.7-4.4-.6-1.2 1.1-1.6 2.5-2.2 1.7-.6-.7-3.4-.5-6 .5-2.3.8.7 1.5 2.5.4zM270 76.5c1.2-.1 2.7-1.1 2.4-2.2-.4-1.1-3.6-1.2-4.2.1-.6 1.4-3.2-1.5-3.2-2.6s-4-.1-3.5-2-4.6-2.4-6-2.4c-1.4 0-3.4 1.1-3.1 2.4.2 1.2-1.5.7-1.7-.6-.2-1.4-3.6 1.5-4.6 1.5-1 0 .6-3.6.1-4.7s-1.2-1.5-2-3.4c-.7-1.9-4.5-1.1-5.5 0s-4.2.6-6 2.4c-1.7 1.7.1 3.5.9 4.1.7.6-2.6 1.6-1.5 2.6s2.9.5 3 2.1c.1 1.6-4.1-.5-4.7-1.9-.6-1.4.2-2.6-.6-3.6-.9-1-.1-2.2 1.5-4 1.6-1.7 2.9-1.5 2.9-2.5s-7-1-11.1 2.7-2.9 8.7-2.6 9.7c.2 1 3.9.5 6 1.1 2.1.6 1 1.5-.6 1.2-1.6-.2-4.4-.7-4.2.4.1 1.1 3.5 3.2 5.5 2.7s2-.5 2.9.6c.9 1.1 3.2.7 5.6.9 2.4.1 5.1 1 6.2 1.1 1.1.1 2.5-.6 2.9-1.2.4-.6 5 1 6.3.9 1.4-.1.5-1.4-.4-1.7-.9-.4-.5-2 .6-1.4 1.1.6 3 1 3.4 2.1.3 1 1.4.5 1.5 1.4.1.9 4.1 1.9 4.2 2.9.1 1-3.9 1.5-2.7 2.4 1.1.9 2.9-1.1 4.4-1.2 1.5-.1 1.5 3.2 2.6 2.7 1.5-.7 2.7.6 4.2 2.7s-.1 4.1 0 4.8c.1.7 3 .5 4.6-.4 1.6-.9 3.1 1 4.4 2.1 1.2 1.1-4.6 3-4.1 2s-3.5-4-7.1-2.6c-3.6 1.4-1.1 3.5-.7 4.7.4 1.2-3.2 2.5-6.6 1.4-3.4-1.1-2.4.7-3.7.7-1.4 0-2.9 2.1-1.6 3.5 1.2 1.4 4 .1 6.2.2s2.5.7 2.7-.5c.2-1.2 2.6-.6 4.2-.2 1.6.4 1.2 2.6 3.2 2.9 2 .2.4 2.2 1.6 3.6 1.2 1.4 5.2.6 6.7 2.1s7.8 4.5 8.7 3.4c1-1.2-5.5-7-7.3-7.5-1.9-.5 1.9-1.1 4.2.7 2.4 1.9 5.9 2.7 7.6.5 1.7-2.2-1.5-1.6-1.5-3.2s-1.1-3.9-2.9-3.9c-1.7 0-6.2-3.5-4.6-4.2 1.6-.7-.5-1.7.7-3.1 1.2-1.4 2.5 1.2 4 1.4 1.5.1 1.7 2 4.1 4 2.4 2 2.6.6 3-.7.4-1.4 3-.2 2.9-1.6-.1-1.4 2.1-3 3.6-3.6 1.5-.6-1.2-2.1-3.2-2-2 .1-2.4-1.2-2.4-2.1 0-.9-3.7-3-5-2.6-1.2.4-3.4-1.6-5-1.7-1.6-.1-4-1.4-3.7-3.1.2-1.7 3.2.5 3.9-.9.6-1.4-3.1-.6-3.2-1.6-.1-1 .9-.6 1.6-1.2.7-.6-.6-1.9-1.5-2.4s-1.1 1-2 1c-.9 0-.1-1.4.5-2.2.6-.9-2.9-1.9-4.4-1.4-1.5.5-2-.4-2-1.4 0-1-2.6 0-3.6.7-1.2.8-2.4-.7-1.2-.9zM261.2 94.3c1.5-.2 1.2-2.6.4-3.7-.6-.9-2.2-1-3.6-.9-1.4.1-3.7 2.2-2.5 4.4 1.2 2.1 4.2.5 5.7.2zM248.7 120.8c.9-.1 2.6-3.2.4-3.1-2.2.1-1.7 3.3-.4 3.1zM185.3 82.3c.7-.9 3.9 1.7 4-.1.1-1.9-3.5-2.7-5-3.7s-2.1-.5-4.5-2.2c-2.4-1.7.6-2.6-1.1-4-1.7-1.4-2.4-5.1-1.1-6.3 1.2-1.2 2.6-3.1.4-4-2.2-.9-5.9.7-5.5 1.2.4.5 3.5 2.2 3.5 3 0 .7-2.9-2.1-3.9-1.5-1 .6-2.1-1.2-3 0-.9 1.2 1.1 5.6 1.9 6.8.7 1.2-.7 1.2-1.7 1.5-1 .2-1.1-3.5-2.1-4.8-1-1.4-5-3-5.2-2-.2 1 2.5 1 2.1 2.4-.4 1.4-1.9-.9-3.2.2-1.4 1.1-1.1.4-.9-.7.2-1.1-2-2.4-4.5-2.1-2.5.2-1.1 2-1.9 2.6-.7.6-4.5-.4-2.1-.9s1.4-1.9.5-3.2c-.9-1.4-3.2.2-7.1 1.6-3.9 1.4-5.6 2.9-5.1 3 .5.1.6.7-.9 2-1.5 1.2 0 2.4 1.4 2.4s.2 1.1 1.1 1.4c.9.2 5.4-1.7 6.6-.9 1.2.9-7.3 1.4-7.3 2.9s4.7 2.4 8.2 1.7c3.5-.6 9.6.5 9.6 1.4 0 .9-4.1.6-7.2.5-3.1-.1-8.5.9-8.2 1.9.3 1.1.6 1.1 3.9 2.6 3.2 1.5 6.6-.7 6.5 1.4-.1 2.1 1.7 2.6 6.1 2.7 4.4.1 6.3-2 8.5-1.9 2.1.1 3.1-.2 4.1-1.7 1-1.5 1.9-.6 2.1.1.2.7 3 .6 3.6 1.2 1.6 1.6 6.8 1.1 8.8.1 2-1-.9-3.7-1.9-2.5-1 1.2-1.9.5-2.1-.1-.4-.8 1.8-1.2 2.6-2zM613.6 20.1c1.2.8-3.2.6-3.8 1.4-.6.8-3.1.5-2.7 1.5.5 1 4.6 1.1 4.6.2 0-.8 2.2-.1 2.2-.8.1-.7 1-1.6 3.3-1.7 2.3-.2 2.3-1 .2-2-2.1-1-5 .6-3.8 1.4zM213.9 54.4c.9 2.5 1.9.7 3.2 1.7 1.4 1 3.5 1.6 4.6.6 1.1-1 1.6-1.7 2-.9.6 1.4 3.4 1.6 9.3 1.7 6 .1 4.5-2.5 6.2-1.5 1.7 1 5.7 1 7.5.6 1.7-.4 2.6-3.1 2.5-4.5-.1-1.4-13.4-2.5-15.8-1.1-2.4 1.4-6.1-.6-8 .4-1.9 1-1.2-1.2-4.6-1.4-3.4-.1.2-1.9.9-2.6.6-.7-5.1-2.7-7.5-2.2-2.4.5-3.7-.7-6-1.7-2.2-1-8.3-.8-7.1 1 .9 1.2 8.1 3.9 8.8 2.6.7-1.2 2.6 1.5 3.7 2.9 1.3 1.4-.6 1.9.3 4.4zM246.7 111.2c.2-1.2-4.1-1.7-3.9-3.1.2-1.4-4.1-2.5-5.5-3.2-1.4-.7-3.5-1.1-3.5-2.6s-3-.4-3.1 1.9c-.1 2.2-1.4 1.7-.7 3.9.6 2.1-2.7 2.6-2.4 3.7.4 1.1 2-.1 3.5-.1s-.4 2.1 1.5 2.2c1.5.1 4.1-1.6 4.7-2.6.6-1 1.9-1.4 3.6-.1 1.9 1.2 5.6 1.3 5.8 0zM448.2 161.4c1 0 3.4-.7 4.9-2 1.4-1.3 2.2 0 3.4-.7 1.3-.7.5-5.5 0-6.5-.1-.2-.1-.3 0-.4.2-.6 1.5-.7 2.2-1.3.8-.8-.4-2-1.6-3.1-1-1-2.4.6-3.5.6-.1 0-.2 0-.3-.1-1.2-.5-2.8-.5-2.8.6 0 1 1.3.7 1.3 1.3 0 .7-1.3.5-2.3 1.2-1 .7-2-.5-3 0s1.1 1.1.3 2.1c-.7 1 0 1 1.3 2 1.2 1-.7 1.2-.7 2.4 0 1.1-1.5 1.1-1.9 1.8-.4.6 1.3 2.1 2.7 2.1zM237.8 118.1c2 1.2 5-2.1 4.7-3.1-.2-1-7.1 1.6-4.7 3.1zM526 24.1c.6.4-.9.4-.3 1.1 1.9 1.9 9.2-.2 10.2.3 1 .6-6.2 1.2-5.9 2 .3.7 6.2 1.4 6.6.9.4-.5 1.4 1 3.4 1.1 1.9.1 1.7-.7 3.2-.8 1.4-.1 3.5-.7 3.6-1.6.1-.8 4.2-1.8 3.9-3.2-.4-1.4-4.4-.4-5.5-1-1.1-.6-3.7-1.3-4.2-.4-.4.9-1.2 1.1-1.6.7-.4-.4.2-2.4-1.6-1.8-1.8.6-.1 2.5-.5 2.7-.4.2-2.1-.4-2.2-1.2-.1-.9-2.1.9-2.3-.1-.2-1.1-2.6-1.8-3.1-1.7-.5.1.5.7.2 1.2s-1.6-.5-2.1-.6c-.5-.1.3 1.1.1 1.6-.2.5-1.2-1.5-2.1-1.5-.9 0-.6 1-1.2 1.1-.7.1.8.8 1.4 1.2zM605.8 20.9c1.9-1.7 4.4-.1 4.7-.9.3-.8-3.6-1.1-5-.3-1.4.7-4.7.1-4.3 1.1.3.5 2.7 1.8 4.6.1zM610 87.1c2.2 2.1 4.2-.9 5.2-1.1 1.1-.2-.7-1.3-2.5-1.8s-4.4 1.3-2.7 2.9zM508.7 29.2c1.2.2-1.2 1.6-1.6 2.7-.4 1.2 1.9 2.2 2.8 3.1.9.9 3.2.7 4 .2.8-.5.6-2.2 1.6-2.2 1.1.1.5-.9 1.4-1.2.9-.3 1 .8.2 1.7-.7.9 1.3.8 2.4-.2 1.1-1.1 1.4-.1 1.1.9s-2.6.4-3.4 1.6c-.8 1.1-3.3.2-4.4 1.5-1.1 1.2 1 1.3 2.6 1 1.6-.3 4.5-.5 5.6-.2 1.1.2-.7.6-2.6.6-1.9 0-2.5.6-2.4 1.1.1.5-2.6-.6-2.7.6-.1 1.1 2.5 1.6 2.8 2.2.3.7 2.1.1 2.7.3.7.2-1.1.7-1.4 1.1-.2.3 1.9.7 2.3 1.4.4.6 1.9.3 1.9-.6-.1-1.1 1.4-4.4 3.2-5 1.9-.7.8-1.3 1.1-2.4.2-1.1 1.7-.2 1.3-1.1-.4-.9-.2-1.2 1-2.4 1.2-1.1 1.9-.3 3.4-1 1.4-.7 2.1.5.6.6-1.4.1-.7 1.7.4 2.1 1.1.4.1.8 1 1 .9.2.6 1.5-.5 2.7-1.1 1.2.3 1.4 2.7.6 2.4-.9.9.7 1.6 1.4.7.7 2.6-.5 3.5-1.7 1-1.2 2.5-1 2.4-1.6-.1-.7-1.1-.9-2-.5-.9.4-3 .1-2.3-.6.7-.7.6-1.2-.5-1.1-1.1.1-3.1-.4-2.2-.8.9-.4-.7-1.6-1.6-1.6-.9.1-.6-.9-.6-1.6.1-.7-2.5-1-2-1.2.5-.2-1.1-.8-1.4-.3-.4.5-1.1.4-1.1-.4 0-.7-1.9-.6-2.6-.5-.7.1-.4-1.6-1.1-2.2-.7-.6-1.7 1.1-2.3 1-.6-.1.4-1.2.7-2 .3-.7-2.6-1.7-2.9-1-.3.7-.9-1.1-1.5-1.3-.6-.2-.1 1.2-.7 1.4-.6.1-1.3.7-.4 1.3.9.6 1.9 3.7 1.7 4.2-.1.5-3-2.2-3.1-3.5-.1-1.3-1.6-2.4-1.9-1.4-.4.9-1.4 1.3-1.1 2.2.3.9-.7 1.2-.7.5s-1.6-1.6-2.1-1.7c-.6-.1 1.4-.4 2.4-.9.9-.4-.8-1.1-1.6-.6-.8.5-1.9-.3-2.4.4s-1.1 0-2-.2c-.9-.2-1.6 1.2-2.2 1-.6-.2-1 1.2 0 2.8 1 1.6 1.7-.5 2.9-.2zM470.9 127.7c.7-.7 1.5-3.4.5-3.1-1.1.3-.8 3.4-.5 3.1zM456 138c-.8.7 1 1.5 2 1.7 1.1.1-.8.9-1 2.1-.2 1.2 1.4.7 1.5 1.5.1.8-2.3 1-2.3 1.7 0 .8 1.4-.4 2-.7.6-.3-.3 1.9 1.2 1.7 1.5-.2 1.1-2.3 1.6-2.2.5.1-.2 1.1.2 1.9.5.9-1.1 2.2-1 2.8.1.6 3.1.6 4-.4 1-1 1.4.1.7.8-.7.7-.4 1.5.5 1.7.8.3 1.1.4.7 1-.4.7 0 1.9-.2 2.5-.2.6-2.8.5-2.9.1-.1-.4-1.2-.1-.9.5.3.6-.9 1.2-.8 1.7.1.5 1.6.4 1.7 1.1 0 .7-1.1 1.4-2.7 1.9s.3 1.7 1.1 1.2c.7-.5.6.4 1.7.4s1.7.9 2.9.4 1.2 0 .2.7c-.9.7-2.3 0-3.1.4-.8.5-4.2 3.6-3.6 4.4.4.5.9-.7 2.1-1.2 1.2-.5 1.4.3 2.1.4.7.1.7-1.4 1.2-1.2.5.1 1-.5 2-.3s1.7-.2 2.2-.6c.5-.4 1.8.8 2.2.5.4-.3 2.2-.6 3.2-.6.9 0 3.3-1 3.9-1.6.6-.6-.4-.7-1.2-.6-.8.1-.7-.8.2-1.7.9-.8 2.2-1.5 2.3-2.7.1-1.2-2.7-2.1-2.9-1.5-.3.7-.9.6-1.4-.2-.5-.7.4-1.5 0-1.5-.5-.1-1-1.1-.9-1.5.1-.4-.7-3.1-2.1-3.4-1.4-.3-1.6-2.3-1.9-3.4-.2-1.1-1.2-.5-1.9-1.4-.7-.9-1.9-.5-2.5-.4-.6 0 0-1.2 1-1.8 1-.7 2.2-4.2 2.2-4.9 0-.7-4.4-.7-5.2-.2-.8.4-1.7-.6-1-.9.7-.3 2.2-1.7 2.1-2.3-.1-.6 1-1.1.4-1.7-.6-.5-.7.7-1.2 1.1-.5.4-1.7.3-3 0-1.3-.2-1.8 1.6-1.7 2.4 0 .8-1.5 1.2-1.2 1.9.2.7-.3 1.2-.7.8-.5-.2-1-1.1-1.8-.4zM506.2 34.2c.7.2 1.3 1.4 2 1.4.3 0-1.1-1.6-1.9-2.4-.8-.9-.7-1.7-1.9-1.4-1.1.2 1 2.2 1.8 2.4zM454.8 136.7c1.1 0 2.4-1.9 1.9-2.5-.5-.5-2.7 2.6-1.9 2.5zM743.6 318.1c-.2.8.7 3.2 1.7 2.2 1.1-.9-1.5-3-1.7-2.2zM882.3 445.9c-1.7.2-4.2-1.5-4.8-1.4-.7.2 2.2 4.5 1.3 5.6-.9 1.1 2.6 4.2 3.7 4.4 1.2.2.7-1.2 1.6-1.1.8.1.5-.8.6-1.4.1-.6.9.7 1.6.3.7-.4-.2-3 .8-3s.2-3.2-.1-4.3c-.2-1.1-3 .7-4.7.9zM836.6 355.9c.6.5 3.7-.1 3.6-.9-.1-.7-4.5.1-3.6.9zM871.4 163.2c.7 1.5-.9 9.5-.2 10.8.7 1.3-1.1 7.2-.5 7.9 1 1.2.3-1.6 1.8-1.8 1.5-.2 1.5 1.7 2.4 2.1.9.4.3-2.7-.5-2.5-.8.2-1.5-2-1.9-3.3-.4-1.3.8-2.9.8-4.6 0-1.7 2.1-1.6 3.3-.3 1.2 1.2 1.4.4.9-.5-.5-.9-2.1-7.5-3-9.9-.9-2.4 1.3-4.7-.3-6-1.7-1.2-1-3.8-1.8-3.3s0 2.7-1.3 2.9c-1.3.2-.1 1.4-.6 3.1-.5 1.5.3 3.9.9 5.4zM902.6 403.7c.5-.4-.2-2.4-.7-2.1-.4.3-.4-3.1-.1-4.7.3-1.6.1-1.4-.7-.6-.8.8-1.7-1.6-1.9-2.2-.2-.6-1.1-2.4-2.2-2.1-1.1.3-.4-1.5-1.4-1.3-1 .2-1.2-1.4-1-2.9.2-1.5-.7-.3-1.1-.9-.4-.6-.9-.1-1.6.1-.7.3-.9-1.3-.7-1.9.2-.6-.1-1.4-1.1-2.1-.9-.7-1-1.2-.9-2.1.1-.8-5.3-3.5-6.5-3.8-1.2-.2-.2-1.5-.7-1.9-.5-.4-.7-2.1-.7-3.4 0-1.4-1.7-1.8-1.7-2.9.1-1.1-.5-2.2-.4-3.4.1-1.2-1.8-1.6-1.9-2.2-.1-.7-1.1-.1-2.2.1-1.1.1-1-1.4-.9-2.8.1-1.4-.4-3.8-1.3-4.5-.9-.7-.9-3-1.4-3.4-.4-.4-1.9 1.2-1.8 2.1.1.8-.1 1.7-.7 2.2-.6.5.4 2.4-.4 3.1-.7.7-.1 3.4-.2 5-.2 1.6-.1 3.2-.9 4.3-.7 1.1-.9 2.7-2.4 3.3-1.5.6-3.5-.6-3.4-1.4.1-.8-1.6-1.3-2.5-1.2-.9.1-1.4-1.1-2.7-2.2-1.4-1.1-2.4.2-2.9-1-.4-1.2-.9-1.4-1.9-2.1-1-.7-.7-.7.2-1.4.9-.7.7-1.6.2-2.4-.5-.8.6-.6 1.8-1.3 1.2-.7 0-1.5.9-1.9.9-.4.4-1.2-.6-1.4-1-.2-.7 1-1.1 1.1-.4.1-.7-1.6-1.1-1.5-.3.1-1.5 1.7-2.1.9-.6-.8-4.1-1.5-5.5-1.7-1.4-.2-1.8-1.9-2.6-1.6-.8.3.1.9 1.1 1.9.9 1-3.1 1.7-4.3 1.3-1.2-.4.2.9-.8.8-1-.1-1.2 1.7-2 2.5-.8.9-.2 1.5-1.1 2.1-.9.6-.9 1.2.1 2.4 1.1 1.2-.5 1.2-1.4.3-.9-.9-1.9-.9-1.8.1.1 1.1-1.1.6-.9-.6.2-1.2-1.3-.6-1.6-1.3-.3-.7-1.6-1.8-2.4-1.7-.8.1-.8.9-1.6.9s-1 .4-.9 1.3c.1.9-1.2-.1-2.2.1-.9.1 0 1.2-.5 1.2-.5.1-.5.9-1.3.9s-.7 1.8-.6 2.7c.1.9-1.2-.4-2.1-.2-.8.2.2 1.1.4 2.1.2 1.1-.4 1-.9 1.4-.4.4-1.1-1.2-1.1-2.1 0-.9-1.1-.1-2.2 1.1-1.1 1.2.4 3-.1 3.3-.5.3-2.7 2.4-4 4-1.3 1.6-4.1.6-5 1.4-.9.7-1.8.2-2.7.9-.9.7-2.5 2-2.7 1.2-.2-.8-2.4-.2-3.4.8-.9 1-2.4 1.9-3.5 1.9-1.1.1-1.1 1.7-1.5 2.1-.4.4-.3-1.3-.3-1.7 0-.4-1 .7-1.4 2.1-.4 1.3 1.1 1.8.1 3.2-.9 1.4-1.8 2.7-.5 4.5 1.3 1.7 2.1 2.9 1.6 3.7-.4.9-1.4-1.7-1.7-1.4-.3.3 1.2 1.4.8 2-.4.6-1.7-2.1-2-1.5-.2.6 2.8 4.8 2.9 6.3.1 1.6 2.5 3 2.4 5.3-.1 2.2 2.1 5.8 2.5 6.4.4.6-.9 2.1-.6 3.7.3 1.7-.6 2.3-1.6 2.3-1.1 0-.4 1.7.7 1.9 1.2.1.7.9 2.1 1.8 1.3.9 4.4.6 5.5.6 1.1 0 1.4-1.6 2.8-1.7 1.4-.1 1.3-.5 2-1.4.7-.9 3.9-.6 7.2-.4 3.3.2 4.7-.8 5.2-2.2.4-1.2 2.8-1.2 3.7-2.1.9-.9 1.7-.9 4.2-.8 2.4.1 4.7-1.2 6.2-1.8 1.6-.6 4.4-.4 5.9-.7 1.5-.4 1.7 1.9 3.4 1.7 1.7-.2 2.4.5 3.3.4.9-.1.7.6 1.6.8.9.2.7.9.2 1.7-.6.8 1.3.7 2.5 2.4 1.2 1.6.1 1.9.7 3.1.6 1.2 1.1.9 2.3-.8 1.2-1.7 2.6-.6 2.8-2.1.2-1.5 1.5-3.2 2.4-2.5.9.7-.6 1.1-1.2 4s-1.6 1.4-1.7 2.2c-.2.8 2.6 1.2 2.6-.2 0-1.5.5-2.2 1.6-.8 1.1 1.4-.6 2.5-.4 3.1.2.6 1.4-.2 2.1-.1 1.1.1 2.6 2.5 2.4 3.9-.2 1.3-.6 2.5 1.5 3.6s1.3 1.2 2.9 1.2 4.8 1.2 5.7 2c.9.7 3.1-.6 3.5-2.1.4-1.5 2.1-.1 1.2.4-.9.5.4 1.7.5.9.1-.8.4-1.5.7-.6.3.9 1.4.9 1.9 1.7.4.7.9 1.3.9.7 0-.6.2-1.2 1.2-1.6 1-.4 1.6-1.1 2.7-1.9 1.1-.9 5.4-1.1 5.9-1.1.4 0 .7-3.7.9-5.7.3-1.9 1.9-2.2 2.1-4.3.3-2.1 2.4-5.8 3-6 .6-.2 1.6-.7 1.7-1.9.1-1.2 1.5-2.5 1.5-3.9s.8-3.1.7-3.5c-.1-.4-.6-1.8.3-2.8 1.5-1.2.2-2.3.7-2.7zM851.8 216.9c.1-.7-1.5-.3-3.4.4s-3.1-.8-4.1.2c-1.1 1.1-2.9 3-4.3 3.2-1.4.2-.6 2 0 1.7 1-.5 2.6 0 3.1-.7s4.6-1.7 7.1-1.7c2.5-.1 1 1.2 1.2 2.5.2 1.3 2.2 1.1 3.3-.2 1.1-1.2 1.9-1.2 1-1.9-.9-.7.2-1.4.8-.4.7 1 2.7 1.1 3.6-.2.8-1.3 1.1.2 2.1.2 1-.1 1.6-2.6 1.7-1.7.1.9 1.7.7 2.7-.4 1-1.1.1-3 .7-4 .7-1 1.3-3.1.7-4.3-.7-1.2 1.5-2.1 2.6-3.1s-1.2-6-1.3-7.5c-.1-1.5-2.7.6-3.6 1-.8.4-1.4 3-.5 3.7.9.7-1.5 2.2-1.4 3.7.1 1.6-1.5 1.6-1.7 2.7-.2 1.2-1.2.9-2.6 2-1.4 1.1-2.2-.2-1.8-.9.3-.7-2.2.4-2.1 2.2.1 1.8-2.3 2-1.7 2.8.3 1-2.1 1.5-2.1.7zM899.6 333.1c1.7 1.6.8 2.9 1.7 2.7 1.6-.4.4-2-.9-2.8-1.3-.9-2.4-1.5-.8.1zM885.5 341.5c1.5.1 1.7-.7.6-1.8-1.2-1.1-5.4-1.5-5.6-3.1-.2-1.6-7.7-5.3-11-6.1-.6-.1-1.3-.3-2.1-.6-3.6-1.2-8.6-3.4-9.6-3.4-1.2.1-1.4 2.2-2.5 2.2s-2.6 2.2-4.6 2.9c-2 .7-2.1-5.7-3-7-.9-1.2-5.9-2.2-6.4-.8-.5 1.4-2.2.7-2.4 1.8-.2 1.1.4.7 1.5.7s1.1.8 1.6 1.9c.5 1.1 3.5.3 4.5.3 1-.1 1.2 1.3-.2.8s-1.4.7-2.4.4c-1-.2-2.3-.2-1.7.4.7.6 1.7 1.2 1.7 2.5s1.9 1.1 1.9 0 1 .3 2.9.8.6 1.2 2.5 1.3c1.9.1 6.2 1.5 7.9 2.7 1.7 1.2.5 2.1 1.6 3.2 1.1 1.2 1.4 2.5-.1 2.5s-3.1 1.5-2.7 2.2c.4.7 5.3-.3 6.5-.3.8 0 1.5 1.3 3 2.3.8.5 1.7.9 3 1 3.7.2 2.7-1.9 3.4-1.9.7 0 .9-1.2 1.7-2.1.7-.9 4-.2 5.9 1.3 1.9 1.5 4.1 5.9 6.1 5.5 2-.4 4.1 1.2 5.9 1.1 1.8-.1.2-1.5-.4-1.7-.6-.2-2.1-1.2-2-1.9.1-.7-1.7-.6-2.8-1.3-1.2-.7-.7-3.1-2-3.7-1.3-.3-2.2-2.2-.7-2.1zM818.2 351.5c1.1.6 2.6-.9 3.5-2 .1-.2.3-.3.4-.5.1-.1.2-.2.3-.3.1-.1.2-.1.3-.2 1.6-1 5.7-2.1 5.9-2.7.2-.7-2.5.2-4.2.1-1.1-.1-1.6.9-2.4 1.5-.1.1-.2.1-.2.2-.3.2-.6.3-.9.4-.1 0-.2.1-.4.1 0 0 0 0-.1 0-.3 0-.6.1-.9.2-1.5.7-2.4 2.6-1.3 3.2zM866.6 192.1c-1 .2.1 1.2-1.1 1.7-1.2.5-1.1 1.3-.5 1.7.6.3.2 1.4 0 2.2-.2.7.7.2 1.4-.6.7-.7 1.4.4 1.5-.3.2-.8-1.7-1.2-1.7-2.1.1-.8 1.3.2 2.3-.2 1-.5 3-.1 4.2 1 1.2 1.1 1.6.7 1.8-.7.2-1.3 2.2-1.9 4.1-1.9 1.9 0 2.1-.9 1.5-1.3-.6-.4 3.2-2.8 3.1-3.5-.1-.7-2 1.5-2.6.7-.6-.7-1.6.4-2.8.7-1.2.2-5.1-3-6.1-4.5s-2.7-.2-1.8.8c.8 1.1-.2 1.4-.2 2.9s-1 1.5-.8 2.5c.2.9-1.3.7-2.3.9zM823.8 295.5c.7 1.2-1.4.2-1.6 1.5-.2 1.2-1.7.2-1.7 1.2.1 1-1.7 0-2.5-.6s-2 1.6-3.2 1.9c-1.2.3-1.9 3-1.1 2.9 1-.1 1.5-1.4 2.5-1.3 1 .1.7-1 2.1-.7 1.4.2.4 4.5 2.3 4.8 1.9.3 2 1.5 2.9 1.5.9 0-.2-2.7-.1-3.6.1-.9 2-.1 3-1.2 1-1.2-.7-4.2-.7-6.2.1-2-2.7-1.4-1.9-.2zM821.1 294.1c-.7-.8-2.3.7-2.1 1.3.3.9 2.7-.5 2.1-1.3zM813.8 288.4c-1.2.3-.8 4 .2 3.8.4-.1 1.4 0 1.5-.8.1-.8 1 1.5.2 2.2-.7.7-.7 2.8.4 3.1 1.2.2 3.3-3.7 3-4.5-.3-.7-1.3.5-1.1-.5.3-1-2.9-3.6-4.2-3.3zM825 331.6c.3 1.3 2.7 2.1 3.4.9.6-1.2-3.8-2.5-3.4-.9zM809.4 284.2c.2 1.2.8 3.6 2.7 3 1.7-.6-2.9-3.9-2.7-3zM804.2 293.8c-1.2 1.5-3.9 4-3.6 4.6.5.9 3.6-3.6 5.1-4.7 1.5-1.1 1.2-2 .7-3-.4-1-1 1.6-2.2 3.1zM806.8 324.1c-.7.4-.7 3-2.2 5.4-1.5 2.4.5 2.7 1.7 2.8 1.2.1 1.1 1.9.8 3-.3 1.1-.8 3.6.3 3.2 1.3-.5 2.2-2.2 1.4-2.7-.7-.6-.7-4.2-.3-5.1.3-.9 2.6-.2 1.8 1.2-.7 1.4 1.4 1.2 1.4 2.8 0 1.6 1.2.7 2.6.3 1.3-.4 1.1-1.2.2-2.2-.9-1 .7-2.4-.6-3.2-1.2-.8-2.1-2.1-.9-2.3 1.2-.2 4.6-2.2 4.2-3.1-.4-.8-5.3.2-5.7 1.7-.4 1.5-3.9-.2-3.5-2.7.4-2.6 7.3-3 9.3-2.1 2 .9 4.1-1.5 4.9-2.9.7-1.4-1.6.2-3 1.2-1.4.9-5.1-.1-7.1-.7-1.9-.7-1.8 1.2-3.4 1.4-1.5.1-1.2 3.6-1.9 4zM854.2 428.6c.7.6 3 .4 3.4-.4.3-.9-4-.1-3.4.4zM897.7 336c0 .7-1.3 1.2-3.4 2-2.1.8-5.8-.9-6 .2-.1.7 2.3 2.1 4.6 2.1 2.2 0 5.8-2.2 5.8-2.9 0-.7 1.4-1.8.8-2.5-.6-.6-1.8.4-1.8 1.1zM960.6 445.3c-.9-.6-1.3.2-2.2.7-.9.4-1.6-2.1-2.7-1.1-1.2.9-.1 1.3-1.4 2.4-1.3 1.1-.7 1.5-2.3 3.9-1.6 2.4-6.9 3.8-7.7 5.1-.8 1.3-3.5 2.4-3.5 3.4-.1 1-1.7 1.7-.7 3 .7 1.1 1.7.3 2.6 1.1.8.8 1.6.1 2 .8.4.7 3.1.7 5.2-1.2s1.1-2.7 1.9-3.2c.8-.5.9-2 1.4-2.9.5-.9.9-1.9 3.1-1.9s1.1-.4.9-1.5c-.1-1.1 1.9-1.2 1.9-2.6 0-1.4 2.7-2.6 2.2-3.7-.9-1 .1-1.6-.7-2.3zM942.6 466.8c.4.1 1.9-.2 1.1-1.2-.9-1-2.1.9-1.1 1.2zM925.5 351.9c.1.3 1.7 1.8 2.6 1.2.8-.5-2.8-1.7-2.6-1.2zM941.1 386.7c1-.7-8.3-6.7-8.1-5.6.1 1 7.1 6.3 8.1 5.6zM970.7 435.3c-.6.9-1.7-.2-2.7-.2-1.1 0-1.7-.7-1.7-1.7 0-.9-.2-2.3-1.2-2.2-1 .1.3 1.1-.1 1.6s-.6-.6-1.1-.6c-.5 0-1.1-.7-1.1-1.9s-1.1-1.1-1.1-2.5-2.2-2.5-3.5-2.5c-1.2 0 .2 2.2.9 3 .6.7 2 1.4 1.9 2-.1.6.9 2 1.7 2.2.7.3-.4 2.4-.4 4.2 0 1.7-1.4 1.4-2.3 2.6-.9 1.1 2.4 2.2 3.7 3.4 1.4 1.1-1.2 3.9-.8 4.5.2.3 1.1.7 2.6.4 1.4-.4 2.1-3.5 3.1-4.4 1-.9.4-2.2.9-2.9.5-.7 1.2-.6 1.9-.6s.3-1.7 1.2-1.7c.9 0 .4-1.2.9-2.5.5-1.6-2.2-1.1-2.8-.2zM970.5 374.3c1.1 1 3.2.9 3.2-.9.1-1.7-4.1.1-3.2.9zM1001.1 103.7c1 .7 2.4.7 3.2.7.7 0 0-.7-.7-.8-.7-.1.1-.7.6-.2.5.5 1.5.7 1.5.2.1-.5.6-1.6 1.5-1.5s1.2-.5.3-.7c-.8-.3-3.5-2-4.1-2.9-.7-1-3.9-1.4-3.9-.9 0 .5-1-.1-1.3-.7-.2-.5-3.6-.6-3.7 0 0 .6.8.6 1.3 1.3.5.7-.7 1-.4 1.8.2.7-1.2-.4-1.8-.8-.5-.4-.3-2-.1-2.9.2-.8-1-.7-1.1-1.5-.1-.8-3.9-2.5-5.4-3.2-1.6-.7-3.6-1.2-4.2-2.1-.5-.8-3.4-.9-4.4-2-1.1-1.1-5.8-3.1-7.8-3.2-2-.1-1.6-1.2-2.6-1.1-1 .2-5.3 0-6.6-.2-1.3-.2-1.6.8-2.6.4s-5.9-2.2-6.5-1.5c-.6.7-.3 1.6-.9 1.8-.6.2 0 1 1.4 2.2 1.4 1.2.5 2.2-.7 2.7s-3.2-.5-3.9-1.5c-.6-1-2.3-.5-2.7-1.8-.4-1.2.5-1.5 1.3-.7.8.7 2 .1 2.1-.8.1-.9-2.2-1.5-3.5-1.5-1.3.1-2 1.9-3.3 2.6-1.3.7-6.5-.3-7-.8s-7.7 0-8.5.5c-.7.5-.2 2.4-.6 2.6-.4.2-.7-2.2-.7-2.7s-.9-.8-2.2-.8c-1.3 0-2 0-1.5-.6.5-.5-.5-1.1.5-1.8s-1.8-2.9-4.6-4c-2.7-1.1-9-.5-10.6 0-1.7.5-5 .3-6.6.4-1.6 0-.3-.6-.7-1.4-.5-.7-3.2-1.7-3.5-1-.4.6-1.1 0-1.1-.5s-2.5-1.4-3.5-1.2c-1 .2-1.5-.9-.3-.9s3.2.2 2.3-1.1c-.9-1.3-8.3-1.7-9-1.5-.7.2 0 1.2-1.7 2.7-1.6 1.5-3.2.5-3-.2.2-.7 2.2-.6 2.2-1.4 0-.7-2.7-.3-3.2-1-.4-.6.6-1 1.6-.7 1 .3 2.7.5 2.8 0 .1-.5-1-.5-2.7-.8-1.7-.3-5.7-1.2-7.8-1-2.1.2-3.1-.8-4.2-.9-1.2-.1-1.2.6-.6 1.3.5.7-1.1 1.1-2.5.9-1.4-.2-3.4.7-2.6 1.7.8 1 1.6-.3 2.2 0 .7.3-1.7 1-.7 1.5s.8 1.4.9 1.9c0 .5-1.7.7-2.3 0-.6-.7-1.5-.1-2.7-.2-1.2-.1-2 .5-.8.6 1.2.2 1.7 1 0 1.1-1.7.2-1.2-1.5-2.2-1.3-1 .2-3.2-.8-4.3-.7-1.2 0-1.7 1-3.2 1.1-1.5.1-3.6-.8-4.2-1.6-.6-.8-.8-1.1-1.6-.1-.7 1-.8 2.8-1.5 2.9-.7.1-1 1.7-1.8 2.2-.7.4-.8-.6-1.7-.5-1 .1-4-2.9-4.2-3.8-.2-.9-2.1-2.5-2.6-2.9-.5-.3.5-.5 1.1 0 .6.5 1.4.5 2 .2.6-.3.5-1.9-.5-1.9-1.1 0-.7-1-.1-1.1.5-.2-1.2-1.8-.6-1.9.7-.2.4-.9-.5-1-.9-.1-1.9-.9-1.9-1.3 0-.5-3.9-.6-3.7 0 .2.7-1.2.5-1-.1.2-.5-1.4-.4-3.2-.9-1.8-.5-1.9-1.8-2.5-1.9-.6-.1-.4 1.8-1.3 1.4-.9-.4-1.9.4-1.4 1.4.5 1.1 0 1.2 0 2.1-.1.9-.6.5-1.7.1s-1.1.9-3.4.3c-2.3-.6-3.4 0-3.8-.7-.4-.7-1.1-.8-1.2-.2-.1.6-3.7.4-3.9-.5-.3-.9.6-1.1 1.2-1.3.5-.2-.6-.6-2.5-.5-2 .1-3.2-1-5.2-.8-2 .2-6.4.6-7.1.9-.6.3.6 1.4-.4 1.5-1 .1-.3-1.8-.5-2.7-.2-.9-1.6-1-1.4-.3.2.7-2.3 1-2.9.4-.6-.5-1.6-1.2-3.2-1.7-1.6-.4-3.6 1.3-3.2 1.8.5.5 1.7.1 1.7.5.1.7-3.4.4-3.4 1s-3.3 1.4-4.3 1.5c-2.7.3-3.3.3-4.6 1.4-1.3 1.1-.3-1 .7-1.9 1-1 2-.6 2.6-1.4.6-.8 1.5-.7 3.1-1 1.6-.2 1.5-1.2 2.2-1.5.7-.3 2.6-1 2.9-1.8.3-.7 4.1-2 4.8-1.9.7 0 .9-1.5 1.3-1.5s2.6-1 3.4-1.3c.8-.4 1.2-1.2 1.3-1.7 0-.5-1.1-.5-1.2-1-.1-.5.5-.2 1.4-.5.9-.3 0-1.5-.7-1.3-.7.2.4-.6-.2-1.4-.6-.7-1.9.5-1.8-.3 0-.8-.1-1.8-.6-2.3-.5-.5-1.4.9-2.4.1s-4.1-1.3-4.1-1c0 .3-1.5-.5-1.7-.2-.3.3-2.7.3-3.4.1-.7-.2-1.8.3-1.8 1s-3 .5-3.5.3c-.5-.1 2-2.2 2-2.6 0-.4-4.4.1-4.6-.3-.2-.4-2.4-.5-3.3-.5-1 0 0-.2.8-.3.9-.1 1.7-.8 2.6-1 1-.2.7-.5.3-1.1-.4-.6-1.4-.3-2.4-.6s-2.1-.7-2.9-.7c-.8 0-1.7.4-3.7.8s-2.1 1.9-3.1 2.3c-1 .5-2.7 2.3-1.9 2.4.8.2.4.7.5 1.2.1.5-.6.7-1.6.5-1-.2-4.3-.1-4.3.6s2 1 1.8 1.4c-.1.4-1.5 0-2.1-.4-.7-.4-2.2-.2-2.4.5-.3.7-1.5.5-1.8.4-.4-.2-1.2.3-1.8.1-.6-.2 1.2-1.1.8-1.6-.5-.5-2.4 0-2.7.7-.2.7-1.4-.5-1.9-.3s-1 .5-1.8.9c-.9.4-2.4-.4-2.7.2-.3.7 1.7.9 1.7 1.2 0 .3-4.5.2-4.6.7-.1.5-1.7.5-3.5.5-1.9 0-1.1 1-2.6 1.2-1.5.3-2.2.3-2.7 1.1-.5.7-1.7.9-2.2.3-.5-.6-1.9.3-1.1.4.7.1 0 .8-.4.7-.5-.2-1.8.8-1 .7.7-.1 1.1.5.7 1-.4.5-2-.5-2.4-.1-.4.4.8 1 1.5.9.7-.1 1.2.4 1.2 1 .1.5-1.7-.3-2.1.1-.4.5.3.7 1.1.7.8.1.2.4.9 1 .1 0 .1.1.1.1.4.5-.4.7-.3 1.2.1.5-.8.7-.8.2s-2.2-.7-2.7-.1c-.5.5-.8 1-1.3.5s-2.1.1-4.1.2c-2 .1-6.2.2-7.3.6-1 .4-1.9 1.8-1 2.8 1 1 0 1.4 0 2s2.5 1.9 3.8 2c1.3.1 2.4 1.7 1.6 2.7-.8 1-3.2-.3-4.8-1.5-1.6-1.2-5.2-1.7-6.4-1.7-1.2.1-.5-1.1-2-1-1.5 0-2.8 1.4-1.8 1.4 1 0 1.7-.1 1.2.4s.3.4 1.5.9-1 1.3-2.3.4c-1.3-.9-2.7 0-3 .6-.4.7 1.5 2.6 3.7 2.9 2.2.3 1.5 1 2.5 1.4 1 .4.3.8-.4.8s-2.1-1.1-3.2-1.7c-1.1-.6-4.1.2-4.8-.4-.6-.7.4-1.3-.2-1.8-.6-.5-.1-1.6.7-2.8.7-1.2-.1-3.1-1.2-3.5-1.1-.3-1 .8-.7 1.1.2.3.1 1.9-.7 2.9-.8 1-3.4 1-3.4 1.7s-1.7 1.2-1.1 1.7c.6.5 2.9 3.1 3.2 3.9.3.8-2 3.3-1.7 4.7.4 1.5-.3 2.1.1 2.8.5.7 1.5.1 2.2.4.7.3 1.7-.4 3.3-.7 1.5-.3 4.4 1.3 5.4 1.8s.5 1.3 1 2.2c.5.8-1.2.8-1.3 2.1 0 1.2 3.1 1.8 3.2 2.2.1.4-2.2.1-3.2-.2-.9-.3-1-1.5-1.3-1.8-.3-.2.6-1.2.7-2 .1-.8-1-1.2-1.4-1.8-.4-.5-1-1.3-1.8-1.2-.7.2-3.5.4-4.3 1.2-.8.7.1 2.9.6 3.9s-2.4 2.5-2.3 3.3c.1.8-.9 1.2-2.1 1.9-1.2.7-2.6 1.2-2.6 2.2 0 1.1-1.7.5-2.5 0-.9-.5-2 .3-3.2.2-1.2 0-1.2-1.1-2.2-.7-1 .4-1.7-.5-1.4-1.2.3-.7 1.4-.2 1.5.4.1.5.8.3 1.6-.2s.4.6 1.6.7c1.2.1.5-.6 1.5-.5.9.1 1-.2.7-.7-.3-.5.7-.8 1.2-1 .7-.3.3-1.2.9-1.5.5-.3.2-.9.7-.9.6 0 .8-.9 1.4-.9.5 0 .8-.9.5-1.3-.3-.5.2-1.7.7-1.9.5-.2.6-.7.1-1-.5-.4-2.3-1.6-2.2-2.4.1-.8-.3-2.2-.1-2.9.2-.6 0-1.9 0-2.7-.1-.7.5-1.6.7-2.9.2-1.4-1.5-2.8-2.3-3.2-.8-.4-.3-1.1.9-2.1s1.3-4.1 1.2-4.8c-.1-.7-2.5-1.2-3.5-1.2-1 .1-4.5-.1-5.4-.2-.9-.2-1.2.7-1.6 1.6-.4.8-1.3 2.1-1.9 4-.5 1.9-2.7 2.4-3.7 2.9-1 .4-1.6 1.8-1.2 2.4.5.7 1.1.1 1.6.4.5.2 0 2-.3 2.2-.3.2.5.9-.2 1.3-.7.5-1.4 1.4-1 1.9.4.5 2.4.7 3.3 1.2.9.5.5 1.4 1.2 2.3.7.9 1.4.3 1.7.9.3.5-1.2 2.7-1.7 2.8-.5.1-2.7-2.2-3.4-2.7-.7-.5-3.2-1.3-4.5-1.9-1.3-.7-2.3-.6-3.7-1.5-1.4-1-2.6-1.4-5.2-1.4s-4.2-.6-5.1-.5c-.9.1-.5-.9-2.1-1.5-1.5-.7-2.5-1.6-3.4-1.1-.9.5-.5 2.1.8 2.3 1.3.2.7.9 2.1.8 1.4-.1 1.8.4 1.8 1.3s.7 1.7 1.3 2.3c.6.6.2 1.5-.9 1.5s-2.4.2-1.9 1-.3 1-1.5.6c-1.1-.4-.5-1.2 0-1.7s-1-1-1.7-1.3c-.7-.2-3.5 1.8-4.3 2.2-.8.3-2.7-.5-4.7 0s-1.9 2.1-2.6 1.9c-.7-.2-2.9.2-3.8-.3-.8-.5-.2-.8.7-.7.9 0 1.2-.2.7-.8-.5-.6.7-1.5.6-1.9 0-.4-3.3.7-3.8 1.1-.5.5 0 1.3-.5 1.6-.6.3-.6-.5-1.2-.7-.7-.2-5.5.9-6.4 1.9-.9 1-2.7 1.1-2.7 1.7 0 .6-2.2.5-3.1 1-.9.4-.3 2.1-.6 2.9-.3.8-3.7.6-4.8.6-1 0-1.4-2-2.2-2.1-.8-.1-.3-1.3-.1-1.8.2-.5.9-.1 1.9-.7 1-.7 2.1.3 2.5-.1.4-.5-1.6-1.7-1.7-2.7-.1-1-2.3-1.3-3.6-1-1.2.3-2.6 0-3.5-.4-.9-.4-.8.7.5 1.1 1.3.3.6 1.3.8 1.9.2.6-.3 2-1.1 3.1-.7 1.1-.2 1 .9 1s1 1.4 1 2.5-.9 1.4-.9 2.2c0 .8-.9-.4-1.2 0-.3.3-.7-.2-.8-.8-.2-.7-1.9-.3-2.8-.5-1-.2-1.3.2-1.8.9s-1.8 1-2.5 1.1c-.8.1-2 1.5-2.7 1.9-.7.5-.9 1.5.2 2.4 1 1 1.2 1.7 1.2 2.2-.1.5-2.9.4-3.4-.2-.5-.6-2.3-.8-2.9-.7-.6.1-2.3-1.9-3.2-1.9-.9 0-1.4 1-1.7 1.6-.3.5.4.7.8 1.6.4.9 1.9 1 2.7 1 .8 0 .5 1.2.2 1.7-.2.5-1.7.9-2.1.3-.4-.5-2.2 0-2.2-.7s-1.3-1.7-2.6-1.5c-1.3.2-1.5-.6-1.5-1.6.1-1-.7-1.6-.7-2 0-.5-.6-1.4.1-1.8.7-.5.2-1.2.2-1.8 0-.6-1.1-1.6-2.2-1.6-1 0-.8-1-1.7-1.2-.9-.2-2.6-1.7-2.7-2.3-.1-.6-1.5-.7-1-.9.5-.2 1.5.1 2.2.8.7.7 1.9 1.4 3.9 1.7 2 .2 2.7 1.2 4.9 1.5 2.2.4 3.4.6 6.6 1.1 3.1.5 7.3-2.7 8.1-3.6.9-.9-.2-2.7-.2-3.3 0-.7-1.4-.7-1.6-1.2-.2-.5-1.1-1.4-2.3-1.4-1.2 0-1.4-1.4-2.3-1.3-1 .1-1.6-.4-4.1-2.1-2.5-1.7-5.9-2.9-6.6-2.6-.6.3-1 .5-1.5-.2-.4-.6-1.4-.5-2 0-.7.5-1.3-.5-2.6-.2-1.2.3-1.9-.5-1.6-.9.3-.4 2.2 0 2.1-.7-.1-.6-.7 0-1.9-.7-1.1-.7-1.7-.2-2 .4-.2.6-1.1.5-1.7-.1-.1-.1-.1-.1-.2-.1-.7-.4-1.9-.5-2.1.1-.2.6-1.3.5-1.2-.1 0-.6-1.7-1.1-1.8-1.4-.1-.3.7-.2 1.4.1.7.4 1.1.1 1.9-.6.7-.7 1.8-.1 1.9-.7.1-.6-1.2-1-1.5-1.4-.2-.4-1.2-.9-2.1-.7-.9.2-1-.2-1.5-.7-.5-.5-2.2.3-2.2 1.5s-1 .9-.7.2c.4-.6-.5-1.4.3-1.6.8-.2.4-1.4-1.2-1.6-1.5-.1-2.1 1.2-1.7 1.6.4.4-1 2.2-1.7 2.2-.6 0 .1-1.5 0-2.4 0-.8-.6-.4-1.8 1-1.2 1.3-2 2.5-2.7 2.7-.7.1-.6-1.2.5-1.8 1.1-.6 1.1-2.2 1.8-2.2s.7-.8-.3-1.1c-1-.2-1.2.9-1.5 1.2-.3.3-2-.6-2-.2 0 .3-.9.5-.5 1.1.4.6-.2 1.2-.6.4-.4-.7-1.5-.2-1.9.7-.5.8-1.2.8-.7 1.1.5.3.5 1.4-.3 1.6-.7.2-.5-2-1-1.8-.6.2-.2-1.1.6-1.1s1.6-1.2 1.5-1.4c-.1-.5-1-.4-1 .2 0 .6-1.2.5-2.3.5-1 0-1 1.2.2 1.9s-.2 1.1-.8.6c-.6-.5-1.5-.2-2.1 0-.6.3 1.5 1 1.6 1.4.1.4-1.1-.5-1.3-.2-.2.3-1.4-.2-1.5-.9-.1-.7-2 .3-.9.5 1 .2.7.9.7 1.8s-1.2.2-1-.6c.2-.8-.7-.6-1.6-.1-.8.5.1-.9-.2-1.6-.3-.7-1.1 0-2 .2-.9.2-1.3.2-.8.8.5.6.5 1.4-.3 1.3-.7-.1-1 0-.9.7.1.7-.9.7-1 .1-.1-.6-1.5-.4-1.9.2-.4.7-1.6 1.2-1.5 1.9.1.7 1-.4 1.8-.1.7.2 0 .6.4 1s.3 1.3-.3.7c-.6-.5-1.3-.7-1.5.2-.1.9-.7-.1-1.2-.7s-1 1.2-1.5.7c-.5-.4 1.1-1.7.7-2.3-.4-.6-.7.4-1.7 1.3-1 1-2.2.9-1.8 1.4.5.5-1 .7-1.2 1.5-.2.8-2.2 1.1-3.4 1.9-1.2.8.2.9 1 .1.7-.8 1-.3 2.1-1s2.3-1.3 2.7-1c.4.3 1.1.5 1.7-.2.5-.7 1.2-.6 1.7-.1s-.9.8-.2 1.5-.8 1-.8.5c0-.6-.8-1.1-1.1-.5-.3.5-.8 1.1-1.3 1.2-.5 0-1.1 1-1.1 2s-1 0-1 .9c-.1.9-1.4 2.4-2.6 3.5-1.2 1.1-.1 1.4-.5 2.1-.4.7-1.7.1-2.2.4-.5.3.2 2-.4 2.6-.6.5 0 1.3 0 1.9 0 .6-1.6-.4-1.7.2-.1.6-1.5.5-2 .6-.4.2.8 1.2 1.6 1.7.7.6-.7 1-.9.4-.2-.7-1.2.4-2.5 1s-.7 1.7-1.7 1.8c-1 0-.7 1.6-1.4 2.1s-.5-1.2-1.5-1.2-1 .7-.3 1.6c.6.9-1 .2-1.5 1-.6.7-2.2.4-2.7 1s1.2.6 1.5 1.1c.2.5-1.5.2-2.4 0-.9-.2-.7 1.2-1.5 1-.8-.2-1.9.7-1.3 1.3.6.6-.5.7-1 .3-.6-.4-1.1.5-1.3 1.2-.2.7 1.1 1.1 1.1 1.4 0 .3-1.1.9-.3 1 .7.2.2.8-.3 1-.5.2-.5.7 0 1.3.5.6-.9.7-.2 1.7s1.2-.3 1.5.5c.3.7 1.1.1 2-.7.9-.8 1.2.9.5.9s-1.6.4-1.5 1.2c.2.7-1.2.6-1.1-.3 0-.9-1.5.2-1 .8.6.7-.2 1-.2 1.7 0 .6 1.1.5 1.6-.2s1.2-.5 1.5.2c.3.7-.7.2-.7 1.1 0 1-.6.1-1.2.9-.5.7 2.1 2.1 2.9 2.3.8.2 1.6 1.1 3.3.9 1.7-.2 4.8-3.3 5.2-3.9.4-.5 1.3.1 2-.4.6-.5.2-1.8.7-2 .5-.3.7 1.4 1.1 1.5.4.1.6.4.7 1.3 0 .1 0 .2 0 .3 0 1 .3 2.1 1.2 2.8.9.7.2 1.9 1 2.9s.5 1.8 1.4 2.5c.9.7 1 1.2.6 2.1-.4 1 .7.7.8 1.3 0 .6-.2 1.8 0 2.4.3.6.9 0 2.2 0 1.3 0 1-.9 1-1.7 0-.8.7-.4.9-.9.2-.5 1.4-.6 2.3-.2 1 .4 1.5-.3 1.6-1.3.2-1 .7.2 1 .4.3.2 1.2-1.5 1.6-2.7.4-1.1 0-.9-1 .2s-.4-1.1 0-1.9c.4-.9.3-3.4.5-4 .1-.6.4-1.5 1.6-1.7 1.2-.2 2.8-1.7 2.5-2.4-.2-.6 1.7-1.7 1.7-2.3 0-.6-2-2.5-2.7-2.9-.7-.4-2.1-.1-2-.5.1-.5-.2-2.2-.3-3.2-.2-.9 1-1.9 1-2.7 0-.9 0-1.9.7-2.2.8-.3.3-1 1.3-1.3 1-.2.8-1.7 2-2.2 1.1-.5 1.2-.8 2.7-1.5 1.5-.7 3.9-2.4 4.3-3.2.4-.9-1.5-1.8-.3-2.7 1.2-.9.2-1.9 1.1-2.3.9-.3 1.2-.8 1.8-1.5.6-.7 1.5 0 2.9-.3.5-.1 1 0 1.5.1.8.2 1.5.6 2.3.9 1.1.5 1 1.3 1 2.2 0 .9.1 1.4-.5 1-.6-.4-1.2 0-1.5 1.2-.3 1.2-1.9 2.7-2.9 2.8-1 .1-.9 1.1-1.7 1.3-.8.2-1.5.7-1.5 1.5 0 .9-1.2 1-2 1s-.6 1.4-1.2 1.8c-.6.4-.5.9.1 1.6.6.7.1 1.4.3 1.9.2.5 1.1 1.8.5 3.1-.6 1.4-1.3 3.1-.7 2.9.5-.2 1.8 1.1 2.6 1 .8-.1.9 1.2 1.7.9.8-.2.8.7 3.1.7 2.3-.1 6.9-2 8.7-2 1 0 1.9-.1 2.5-.3.4-.6.9-1.2 1.3-1.7-.5.5-.9 1.1-1.3 1.7.5-.1.9-.3 1.2-.4.7-.3 1.1 1.3 1.8 1.8s2 0 2.4.5c.5.5-.4.5-1.3.4-1-.2-1.2.4-2.7.9-1.1.4-1 .8-1.4 1.1-.1.1-.3.2-.6.3-1.2.3-3.8-.8-5.3-.5-1.5.3-4.5.3-5.2 1-.7.7-2.5 1-1.7 1.6.8.7 0 1 .6 1.8s.9 1.1 1.7 1c.8-.2 1.4.2.6 1.1-.8.8-.2 1.5-.3 2.8 0 1.3-1.5 1.1-2.3 1.1-.8 0-2.1-2.4-2.5-2.9-.4-.5-1.7.7-2.7 1.2-1 .6-.5 1.7-1.1 2.2-.7.5-1.1 1.5-.4 2.7 0 0 0 .1.1.1.6 1.2.4 2.3-.3 3-.5.5-.2.6.1.8.2.1.3.2.4.4.4.7-1.5.7-.9 1.5s-1.3.8-1.3 0-2-.4-1.9.1c0 .2 0 .4-.2.7-.2.4-.8.8-1.5.8-1.2 0-1.3-1.2-1.3-1.7s-4.9.5-6.1 1.7c-1.3 1.3-4.3.8-4.4 1.5-.1.5-.5.8-.8.6-.1-.1-.2-.2-.2-.3-.1-.7-.6-.9-1.7-.9s.7-1.1.2-1.6c-.4-.5-1.5 1-2.5.7-1-.3-2.3 1.2-3.2 1.8-.9.7-2.1-.1-1.5-1.1.7-1 0-.9-1-.5s-2.2-.1-2.1-1c0-.2 0-.4-.2-.6-.4-.6-1.2-1.1-1.1-1.5.1-.6.9-.2 1.5.3s1.9.6 2 0c.1-.4-.2-2.2-1-1.7-.8.4-1 .2-1.3-.2-.3-.4.6-1.1.8-1.7.2-.7 1.6-.4 1.8-1 .2-.5-.9-1.1-1.3-1.3-.4-.2-.6-1.5-.1-1.9.5-.4.7-2 .3-2.4-.4-.4-1.9 0-2 1.1-.1 1.1-1.3.6-1.7.9-.3.2.7.7.1 1.2-.5.5-.7-.7-1.6-.8-.9-.1-1 1.3-1.4 2-.5.7-.2 2.2 0 3.2s1.4 1.6 1.1 2.4c-.1.4.1.8.4 1.2.3.5.7 1 .5 1.3-.4.7.2 1.4.7 2.4.5 1-1.2.5-1.2 1.1 0 .7-1.6 0-2.1-.3-.5-.2-2.2-.1-2.1.3 0 .2 0 .4-.1.6-.1.3-.3.5-.7.3-.6-.4-1.6-.2-2.8.1-1.2.2-1.6 1.5-1.2 1.9.5.5-1.2.7-1.3.1-.1-.7-1.4-.2-1.3.7.1.9-1.4 1.2-1.3 2.3.1 1.1-1.3 2.1-2.2 2.6-.1.1-.3.2-.4.3-.6.3-1.2.7-1.9.8-.2 0-.4.1-.6.1-1 0-1.9.7-1.7 2.4.2 1.7-1.2 1.8-2.9 1.9-1.7.1-1.1 1.5-1.8 2s-3.2-.3-3.5-1.2c-.3-.9-2.6 0-1.6 1.1s.9 2.6.4 3c-.5.4-1.7-.7-2.4-.1-.7.5-.8-.5-1.7-.8-.9-.3-1.3.4-2.7.3-1.5-.1-2.3.7-1.7 1.3.5.6-.1 1.2.3 1.7s2.3.5 3.7 1.2c1.4.7 1.7.1 2.4.7.7.5.9.2.9 1.2s.8 2 2.2 2.4c1.4.4.3 1.3.7 2.2.4.9-.6 2.2-.4 3.4.2 1.1-.7 4.7-1.3 5.1 0 0-.1 0-.2 0-.8.2-3.3-.7-4.9-.5-1.7.2-7.1-.2-9.3-.1-2.1.2-2.2-.9-3.4-.9-1.2 0-.7 1.4-2.3 1.4-1.7 0-1.8 1.1-.6 2 .7.5.6 1.7.5 2.7-.1.8-.2 1.5.1 1.9.5.9-.7 5.5-1.7 6.7-1.1 1.2 0 1.6 1.1 2.4 1.1.9.4 4 .4 4.8 0 .7 1 .5 2.2.5.7 0 1.5-.3 2.2-.4.5-.1 1-.1 1.5.1 1.2.5 1.8 3.4 3.4 3.2.7-.1.3-.6.7-.9.3-.3 1-.1 1.6-.1.7 0 1-1 2.6-1s2.6-.2 3.6-.1c1 0 1.8-.3 2-1 .2-.7 1.1-1.3 2.2-1.5 1.1-.2 1-1.3 1-2 .1-.7 2-1.7 2.1-2.2.1-.5-1.1-2.4 0-4.1 1.1-1.7 2.3-1.8 2.3-2.7 0-.9 1.2-1.2 2.6-1.4 1.4-.2 1.9-1.1 3.1-1.6 1-.4 1.4-1.2 1.2-2.3 0-.2-.1-.5-.2-.7-.5-1.6 1-2.6 2.3-2.8 1.4-.2 4.4.6 5.1 1.1.8.5 1.9.4 3.2-1.1.7-.7 1.3-1 1.8-1.1.5-.1.9-.2 1.4-.4.9-.5.5-1.2 1.9-1.7 1.5-.4 3.4.8 3.9 1.7.6.9.7 1 .9 1.7.1.7.7 2.1 2.7 3.4 2 1.3 2.8 2.7 3.8 3.3 1 .5 2.1.4 2.7 1.2.6.7 1.5 1.2 2.4 1.6 1 .5 1 1.5 2 1.7 1 .1.3 1 .9 1.7.6.7.7 2.2.1 3-.6.8-.3 2.2.1 2.2s1.3-1.5 1.4-2.3c.1-.8 1-.8 1.6-1.7.7-.9-1-1.1-1.3-2.2-.3-1.1 1.2-2.1 2.7-1.2 1.5.9 2 1.5 2.1.1.1-1.4-4.5-3.3-5.6-3.9-1.1-.7-.4-1.7-2.1-1.7-1.7.1-3.7-2-4.4-4.5-.6-2.4-3.3-2.6-3.9-4-.7-1.5.6-1.6 0-2.8-.3-.7.4-1.3 1.2-1.6.7-.3 1.4-.4 1.8-.2.3.1.4.5.5.8.1.6.1 1.2.5 1.2.7 0 2.1-.1 2.2.9 0 1 1.8 3.2 2.5 3.9.7.7 2.2.6 2.2 1.2.1.6 1.2 1.2 2.4 1.3.3 0 .7.2 1.2.5s1 .7 1.4 1.1c.7.6 1.5 1.2 2 1.5.1 0 .1.1.1.1 1.1.6 1.5 1 .8 1.7-.8.8-1 3.4-.1 4.1.8.7 1.1 2 1.9 2.4 0 0 .1 0 .1.1.9.3 1.6 1.4 1.5 2.4-.1 1 1.3 1.4 2 .7s2.5.4 2.5.9-1.9-.5-3 .2c-1.1.8.8 1.5.6 2.4-.3.8.5 2 1.5 1.9 1 0 2 1.5 2.6 1.2.6-.3-.7-2.5-.5-2.8.2-.3 1.4.6 1.9-.1.6-.7-.4-1.2-1.3-1.1-.9 0 0-1.2 1-.5 1 .6 1.5-.2 2-.2.5-.1.6-1.9-.9-2.3-1.5-.4-1.3 1.1-2.3.1-1-1 .9-.6.9-1.5s-1.5-2.1-2.3-3.1c-.7-1 1-1.5 1.5-.8.4.7 1.5.6 2.2.3.7-.3-.7-1.6.5-2.1 1.3-.5 1.3.4 1.7.5.4.2.8-1 2.1-1 .7 0 1.3.5 1.9.9.5.4 1.1.8 1.6.8 1.2 0 1.6-1.2 2.6-1.6 1-.4 3.2.1 3.8-.4.5-.5-1.4-1.1-2.1-1.7-.4-.3-.6-1-.7-1.5-.1-.3-.2-.6-.4-.7-.5-.1-1.2-2-.6-2.1.6-.1 1.3-2.1 2.2-2.4.4-.1.5-.3.6-.6.1-.4 0-.9 0-1.5 0-.9.5-2.2 1.4-2.3.9-.1 1.6-.1 1.5-1.5 0-.1 0-.1 0-.1-.1-1.3.2-1.2 1.3-2.1 1.2-.9 1.3-2.6 2.4-2.8 1.1-.2 1.5-.7 3.1-.5 1.6.2-.8 1.2.3 1.8 1.1.6 4.4-.2 4.6.7.2.8-3.8 1.7-3.7 2.1.1.4 2.1.8 2.8 1.3.7.5-.2 1.7.1 2.2.3.4 1.4.1 2.3-.5.9-.6 1.6-.4 2.7-1.2 1.1-.7 3.4-.1 3.7-.5.3-.5-.7-.9-2.8-.7-2.2.2-2.3-1.9-2.3-2.3 0-.4 2.2-2.1 3.5-2.2 1.3-.1 2.3-.5 3.6-1.1.5-.2 1.4-.5 2.3-.6 1.3-.3 2.7-.4 2.9-.1.2.5-2.9 1.8-3.5 2-.6.2 1.1 1.1 1.1 1.6s-1.8.6-1.7 1.6c.2 1-.6 1.2-1.5 1.2-1 0-1.2.6-.7.7.5.1.4 1.3 2.2 1.8 1.8.5 3.7 2.1 5.2 3.8.2.2.5.4.7.6 1.6.9 4 .7 4.3 2.4.4 2 1.5 1.2 1.1 2.9-.1.3-.3.7-.6 1-1.3 1.2-4.3 2.1-5.2 1.7-1.1-.4-3.3.1-4.9.1-1.6 0-2.1-1.2-3.3-1.1-1.2.1-1.2-1.1-2.5-1.1-1.2 0-.3-.6-4.2-1.1-3.9-.5-7.3 1.5-8.5 2.6-1.2 1.1-5.7 0-6.1.3-.4.3.1 1.6-1.4 2.2-1.5.6-4.8 0-5.9.5-1.1.5-1.5 2.2-.6 2.1 1-.1 1.5.4 1.2.8-.3.4.8 1.6.2 2.1-.5.5-.6 1.4.1 1.9s.8 1.4 0 1.5c-.8.1 1.4 1 1.4 1.5 0 .4 1.8.6 1.8 1.1 0 .5.5.7 1.4.4.9-.2 1.2 1 1.7 1.8s3.6.2 3.6-.7c0-.9.9-1.2 2.3-1 1.4.1 3.2 2 3.8 2.2.7.2 2-.5 2.9-.5.9 0 2.1-1.4 2.6-1.7.5-.3 1.4 1 2.2.5.8-.4 1.7-.9 2.2-.6.5.3-1.2 1.6-.7 2.2.2.3.1.6.1 1-.1.5-.3 1 0 1.4.4.5-.1 1.2-.2 2.1 0 .1 0 .2 0 .4 0 .8-1.3 2.6-2.1 4.2l1.3.6.1.1h-.1l-1.4-.6c-.2.5-.4.9-.4 1.3-.2 1.5-1.6 4-2.2 5-.1.2-.3.4-.3.4-.3.3-1.7-.5-3-.2s-2.3-.1-3.5-.7c-1.2-.6-5.3.2-5.9 1-.5.8-1.9.8-3.2.3-1.2-.5-2.9-1.2-5.1-1.5-2.1-.2-3.8-.5-4.2-1 0 0-.1-.1-.1-.1-.2-.6-1.3-.6-3.8-1-2.4-.4-1.5-2-4.3-2.2-2.7-.2-6.2 2-6.3 3.2 0 1.2 1.3 2.4.4 3.6-.9 1.2-2.9 1.3-4.3 0s-3.5-1.9-5.2-1.9c-1.7 0-2.9-1.1-2.8-2 .1-.9-.4-1.3-1.8-1.6-1.4-.3-2.6-1.5-5.1-1-1.3.2-2.5-.2-3.2-.7-.7-.4-1.1-.9-1.1-1.2 0-.5-.7-1.5-1.2-1-.4.5-2 .1-2.2-1-.2-1 1-1 2.2-1.9 1.2-1 1.3-2.8.1-3.8s-.4-1.5.5-2.4c.9-.9.1-1.4-.4-1-.5.4-1.2.5-1.3-.5-.1-1-2.8-1.2-3.9-.2-.4.3-.9.4-1.5.4-1.1 0-2.3-.4-2.6-.5-.5-.2-1.9.2-2.9.3-.9 0-3.2 1.5-3.9.8-.7-.7-8.4.5-10.5.6-2.2.1-3.1 2.3-4.4 2.3-1.3 0-3.3 1.1-4.4 2.3-.3.3-.7.5-1.1.5-1 0-2.2-.7-3.3-.8-1.5 0-3.7.7-4.8-.5-1.1-1.2-1.8-1.6-2.6-1.2-.8.4-2.2 4.5-3.1 5.7-.8 1.2-3.2 2-4.3 2s-1.2 1.7-2.1 2.4c-.9.7-.5 1.8-1.6 2.7-1 .8-.5 3.4 0 4.3.5.9-1.9 3.8-3.3 4.6-1.4.8-1.9 2.4-4.1 2.8-.9.1-1.5.5-2 1-.8.7-1.2 1.8-1.5 2.6-.5 1.3-3.6 3.3-3.7 5.1-.1 1.9-3 4.8-4.9 8.7-.5 1.1-.8 2-.8 2.6-.2 1.8.9 2.4 1.6 3.2.9 1-.7 2.7.6 4.5 1.3 1.8-.3 4.5-.9 5.5-.3.5-.4 1.5-.5 2.4-.1.8-.2 1.6-.6 2.2-.9 1.4.4 3.4 1 4 .1.1.2.3.2.5 0 .5-.3 1.1-.4 1.7-.1.5 0 .9.3 1.3.1.1.2.2.3.3.7.9.8 1.3 2.3 1.7 1.6.5-.1 1.3 1.2 2.1.1.1.2.2.3.2 1 .8.9 1.6 2 2.5 1 .8 2.4 1.8 3.2 3.4.2.3.3.7.4 1 .7 2.3 1.3 2.7 2.2 3.5.4.4 1.3.9 2.2 1.5 1.2.7 2.5 1.6 3.6 2.4 2 1.5 5.1 3.6 6.6 4.1.2.1.4.1.7.1 1.7 0 4.7-1.2 8.3-1.8 2.2-.4 4.1-.1 5.4.3 1.1.3 1.9.7 2.1.8.5.1 4-1.5 5.4-2.2 1.1-.6 2.4-.9 3.2-1.4.2-.1.4-.2.6-.4.4-.3 1-.5 1.6-.6.7-.1 1.4-.2 1.9-.2.9 0 1.4-1.2 1.9-.6.5.7 2.9.8 4.2 1.1 1.3.3 2.7 2.2 2.7 2.9 0 .7.9 2.1 1.5 2.4.6.3 2.2-.6 2.9-.6.7 0 3.2 0 3.7-.4.1-.1.3-.1.4 0 .4.2.8 1 1.2 1.6.6.8 1.7.2 2.2.5.5.2 1 2.2.8 2.7-.2.5-.8 1.8-.5 2.5 0 0 0 .1 0 .1.4.6.2 1.5-.7 1.8-.9.3-.8 1.1-.1 1.1.4 0 .3.4.1.7-.1.2-.3.4-.5.6-.4.4.9.9 1.1 1.4.2.5-1.6.4-1.5 1.2 0 .8-.6 1.4-1.1 1.8-.5.4 1.3 2 1.4 2.5 0 .5.5 1 2 2.6 1.5 1.5.8 1.8 2.8 3.5.1.1.2.2.3.2 1.2.9 1.9 1.9 2.4 3s.8 2.1 1 3.1c0 .1 0 .2.1.3.5 1.9 2.1 5.1 2.5 5.9.4.8-.5 1.5-.5 2.9 0 1.5 1.6 4.1 1.7 5.9.2 1.8-1 2.9-2 4.1-1 1.2-2 3.8-2 5.4 0 1.6-1.5 3.2-1.5 3.9 0 .7-.2 2.9-.4 3.8 0 0 0 .1 0 .1-.1.9.7 2.4 1.6 3.7 1 1.3 2.1 3.7 2.7 5.7.6 2 2.4 4.3 2.9 5.8s-.3 3.7.1 4.7c.5 1 .7 2.7 1 4.4.2 1.7.4 5.3 1.9 6.8.6.6 1.2 1.4 1.7 2.2.9 1.4 1.7 3.1 2.1 4.5.7 2.2 2.3 4.3 2.7 5.6.4 1.3.9 2.5 0 2.6-.9.1-.9.9 0 2.3s.1 2.2.9 2.4c.8.2.5.7 1.2.7.6 0 1.1.7 1.5 1.2.4.5 1.4.5 1.8-.1.5-.7 1.9-.9 3.3-.9 1.5 0 1.2-.6 2.6-1 1.4-.4 3.1-.5 4.3 0 1.2.4 2.1 0 2.7-.3.6-.4 1.7.6 1.8-.4.1-1 1.2-.8 2.3-.8s3.7-1.7 5.8-3.6c2.1-1.9 5.5-6.2 6.7-8.2 1.2-1.9 3.1-3.6 4-4.5.7-.7 1.1-2.9 1.3-4.6.1-.6.1-1.1.1-1.4.1-1.3-.8-.2-1.1-1.1-.3-.8 2-2.4 4.4-3.2 2.4-.9 3.3-1.4 3.5-2.2.2-.8 0-3.1.3-4.1.3-.9-.2-1.4-.5-3.5s-1-2.4-1.4-3.6c-.3-1.2-.2-2.1.5-2.1s.7-.4 1.3-1.5c.6-1.1 1.2-.7 2.4-1.5 1.1-.8 1.2-1.9 2.9-3.2 1.8-1.4 3.7-1.3 5.5-2.4 1.7-1 4.7-5.1 4.4-5.8-.3-.7-.9-4.1-.7-5.5.2-1.4-.2-5-.2-6.7 0 0 0-.1 0-.1-.1-1.6-1.9-.9-2-2.5-.1-1.7-1.1-1.7-1-2.9 0-1.2.1-2.2-.3-2.3-.4-.1-.2-1.1.5-2.1s-1.2-1.1-1.5-2.4c-.1-.5.5-2.3 1.2-4.3 1-2.6 2.4-5.6 2.7-6.1.6-1 1.2-.8 1.8-1.5.5-.7.7.3 1.5-1 .1-.1.1-.2.2-.3 1.1-1.5 4.1-4.3 6.2-6.6 2.4-2.5 3.6-3.1 4.9-3.7 1.3-.7 4.7-3.9 7-6.8 1.4-1.8 3-3.9 3.2-5.2.2-1.3 1.5-3.1 2.5-4.4 1-1.3 2.7-4.6 2.6-5.6 0-1 .8-3.1 1-4.9.1-1.8-1.4-1.9-1.8-1-.5 1-4 1.7-6.3 1.7s-3.7.3-4.5 1c-.8.8-2.9-.2-3.7.7-.7.9-3.7 1.6-4.6-.4-.4-.8-.9-1.3-1.4-1.6 0 0-.1.1-.1.1s.1-.1.1-.1c-.7-.4-1.3-.5-1.5-.6-.3-.3.8-1.1 1.6-1.3.8-.2.4-1.1-.2-1.7-.1-.1-.2-.2-.4-.3-.7-.6-1.7-1.7-3-3.3-1.6-2-3.4-3.1-4.4-3.1-1 0-1.2-1.7-1.8-1.8-.6-.1-2-2.5-2.1-4.1 0-.9-.8-2.1-1.6-3.1-.6-.8-1.3-1.4-1.7-1.6-1-.5-1.7-2.2-1.7-4.4s-.5-3.9-.6-4.6c-.1-.7-1.2-2.2-2.4-2.9-.9-.5-1.4-1.2-1.6-2.1-.1-.4-.1-.7 0-1.1.2-1.3-.7-1.2-1.3-3.1-.6-1.9-2.9-4.6-3-5.7-.1-1.1-1.4-1.7-1.3-2.9 0-1.2-.6-1.3-1.9-3.1-1.3-1.8-1.7-5-1.3-5.1.4-.1 1.5 2.7 1.9 3.6.4.9 1.8 3.7 2.8 3.7 1 0 1.4-4.2 1.7-4 0 0 .1.1.1.1.2.6-.1 3 .5 3.2.6.2 1 1.3 2.3 2.8 1.3 1.4 4 5.3 4.1 6.3 0 1 .5 2 2.2 3.1 1.7 1.1 1.7 2.5 2.5 3.2.9.7.7 1.4.7 3.1 0 1.7.8 3.8 2.3 4.7 1.5.9 2.5 1.9 3.2 3.7.7 1.8 1.6 3.3 2.6 4.3s.4 1.4 1 2.2c.3.4.7 1 .9 1.6.3.6.4 1.3.2 1.7-.3 1 0 3.2.8 4.5.9 1.3.5 3.6 1 4.1.4.5 3.7.4 5.1-.6 1.5-1 2.4-1.1 3.6-1.1 1.2 0 2.7-1 3.1-1.5.4-.5 2.1-.5 2.8-.5.7.1 1.4-.7 2.2-1.5.8-.8 3.3-1.1 5.9-1.9 2.7-.8 2.1-2.1 2.7-2.8.5-.6 1.3-.4 2.4-.9.2-.1.5-.2.7-.3 1.6-.9 3.4-.5 4.6-.8 1.2-.3 0-1.3 1.1-2.2 1-.9 2.5-.2 3.1-.5.5-.3.9-2.2 1.8-2.6.9-.4 1.9-.1 1.8-.9-.1-.8.1-3.6 1-3.8.9-.2 2.2-1.1 2.3-1.6 0-.5 1.8-2.4 2.3-3.3.5-.9.6-1.4-.2-1.5-.8-.1-2-2.3-2.4-2.9-.3-.6-2.7-.2-4.7-1.7-.8-.6-1.2-1.8-1.5-3-.4-1.7-.5-3.5-.8-3.5-.5 0-2.5 2.2-3.4 3.8-.8 1.6-3.2 2.9-5.3 2.5-2.1-.4-2.8.5-3.3.9-.1.1-.4 0-.6-.2-.5-.4-1-1.1-1.2-1.8-.1-.3-.1-.6.1-.8.5-.9.9-3.3-.3-3.6-1.2-.3-1.9 2.1-1.9 2.7 0 .1-.1.1-.2 0-.6-.4-2-2.4-1.5-3 .6-.7-.3-2.2-1.2-3-.9-.8-2.8-2.4-2.9-3.3 0-.3-.2-.7-.4-1.2-.5-1.3-1.3-3.1-1.3-3.5 0-.2.1-.3.2-.5.3-.3.8-.5 1.2-.7.2-.1.5-.1.7-.1.7 0 .7-.8 1.3-.3.6.5 1.4 0 2-.1.6 0 2.2 2.9 2.9 4.4.7 1.5.7 2 1.6 2.6 1 .6 2 .3 3.4 1.7s4.9 2.4 6.4 2.4c1.5.1 2.6-1.6 4.5-1.2 1.9.4 1.5 2.8 2.2 3.7.7.9 8.5 1.5 9.8 1.8.5.1 1.6.2 2.9.3 0-.3-.1-.5-.1-.7 0 .2 0 .4.1.7 2.3.1 4.9-.1 5.2-.4.5-.5 1.5-.7 2.2-.3.6.4 3.4.6 4.5 0 1.4-.8 2.2 0 2.2.7s.7 1 1.3 1.5c.6.6.2 1.2.6 1.9.4.7 1.2.5 2.4 1.1.2.1.3.2.4.3.8.7 1.2 1.8 2.6 2.4 1.6.6 3.1-1 3.1.2s-3.8 1-3.9 1.3c-.1.4 3.9 5.2 6 4.8 2-.4 3.5-2.6 2.9-2.9-.6-.3.3-1.7.9-1.5.5.2.1 2.4.7 2.9s.4 1.4 0 2.6c-.4 1.2.4 3.4.5 4.7.1 1.3 1 3.1 1.3 5.1.3 1.9 1.5 5.4 2.6 7.5 1.1 2.1 2 6.3 2.7 7.3.7 1 2.7 4 2.7 5.9 0 1.9 2 4.5 2.7 5 .7.5 2.2-.6 2.6-1.7.4-1.2 2.5-1.6 2.6-2.6.1-1 .3-1.8 1.1-1.9.7-.1.7-.9.7-2s.1-2.6.8-3.6c.7-1 .9-3.5.4-4.6-.5-1-.2-2.5.2-3.5s.2-2.2 1-2.3c.8-.1 1.9-.8 2.8-1.9.8-1.1 3.4-2.7 4.3-3.4.9-.7 3.7-3.2 4.5-4.6.8-1.4 3.2-1.8 4.3-2.9 1.1-1.1.7-1.7.9-2.9.2-1.2 3.7-1.7 5-1.7.3 0 .5 0 .7-.1.8-.1 1.1-.5 1.9-.5.9 0 2.2-.1 2.2-1.1.1-1 1.1-1.7 1.7-1.4.6.3 1.5 2.6 1.5 3.8 0 .4.2.9.4 1.4.5 1.1 1.5 2.3 2.6 2.8 1.6.7 2.7 3.9 3.2 5.7.5 1.7.2 3.5-.4 4.5-.6 1 .2 1 1.2 1.5s2 .7 2.7-.3c.7-1 2.2-1.7 2.4-2.8.2-1.1.9.5 1.5 1.1.6.6 1 1.7 1.1 3.1.1 1.4.2 4.9 1.5 6.1 1.2 1.1 1.4 3.6 1.1 4.4-.3.9.6 2.4.4 3.3-.1.2-.1.5-.2.8-.2 1.2-.5 3.1-.8 4.1-.3 1.3-.6 2.4.2 2.5.7.1 2.2 1.8 3.7 3.6.4.4.6.9.8 1.4.7 1.5.7 3 .8 4.3 0 1.7 2.5 4.3 2.9 5.4.4 1.1 1.1 1.4 2.7 2.6 1.6 1.2 4.8 3 5.4 2.7.6-.3-1-3-1.9-4-.9-1-.1-3.5 0-5.4 0-1.9-1.7-1.7-2.2-2.9-.4-1.3-1.1-.5-1.4-1.4 0-.1-.1-.3-.2-.4-.6-.8-2-1.8-3.2-1.9-1.4-.1-2.1-2.2-1.9-3.2.1-1-1-1.8-1-2.6s-.8-.9-1.8-1.3c-1-.5.2-3.3.3-4.5.1-1.2 2.1-4.6 1.5-5.7-.6-1.1 2-1.9 2.4-.7.3 1.2.5 1.8 2.1 1.7 1.7-.1 1.7 1.2 3 1.6.1 0 .1.1.2.1 1.1.5.6 1.8.8 2.5.1.8 1.2.3 1.7.3.6 0-.4.9.1 1.5s2-.5 2.2.2c.1.2.2.3.3.4.3.4.7.6 1.2.9.7.4-.8 1.1-.8 2.4 0 1.3 1 1.7 1.4 1.1.4-.5 1.9-1.7 2.5-1.9.6-.2 0-1.1.7-1.1s.5-1 .7-1.5c.3-.5.7-.3 1.7-.3s2.4-.9 3.8-1.8 1.7-1.1 2.2-3.7c.5-2.6-.6-5.7-.7-6.5 0-.8-2-4.4-2.7-4.4-.7 0-3.9-3.3-4.5-3.8-.6-.5-.4-1.5-1.2-2.2-.8-.7-.9-2.5-.7-3.8.2-1.3 2-1.6 2-2.4 0-.9.2-1.6 1.1-1.7.9 0 1.8-.8 2.2-1.5.1-.1.1-.2.2-.2.5-.3 1.5.2 1.7-.5.2-.7 1.2-.5 1.5.1.4.6.8.7 1.6 0s1.2.7.7 1.2c-.5.4-.2 1.7.6 2.4s.9-.5.7-1.2c-.2-.7 1.3-1.5 3.9-2.4 2.6-.9 5.4-2.8 5.5-3.2 0-.4 1.9.7 2.7.1.9-.7 4-.7 4.9-.8.8 0 .8-.7 1.7-1.4.9-.7.7-1 1.7-1.3 1-.3 1.6-1.2 1.6-1.7s1.9-.7 1.9-1.2 1.4-.7 1.4-1.4.8-.5 1.2-1c.4-.5-.3-1.9.4-2.2.7-.2-.3-1-.4-1.4-.1-.4 1.2-.5 1.9-.9.7-.5 1.2-1.2 1.3-1.9.1-.8 1.3-1.5 1.8-1.7.5-.2.7-1.3.6-2.3-.2-1 1-.7.5-1.1-.5-.4.2-1.4 1.2-1.7 1-.3-.6-.7-1.2-.3-.5.4-1.1-1.2-1.6-.6s-1.9-.4-1-.6c.9-.2 2.3-1.2 2.9-1.5.6-.2-.9-1.6-1.7-1.5-.8 0-1.7-1.8-2.5-1.8s.6-.6 1.6-.1 2.1.9 2.5.5c.4-.4-1.6-2.1-2.4-2.7-.7-.6 0-1.4-.5-1.7-.5-.3-1.5-2.4-1.8-3.4-.3-1-2.1-1.1-2.5-1.7-.4-.6 0-2.1 1.3-2.6s.7-1.6 1.3-1.5c.6.1 1.1-.1 1.5-1.1.5-1 1.2-.4 1.7-.9s2.5-.5 3.2-1c.7-.5-.7-2-1.6-1.8-1 .2-2.1-.1-2.7-1.1-.7-1-2.4 1.8-3.7 2.4-1.3.6-2.2-1.1-1.7-2.2.5-1.1-1-1.1-2.9-1-1.9.1-1.2-3.3 0-3.5 1.1-.2 2.8 1 3.5-1 .7-2.1 1.7-.5 3.3-2.3 1.6-1.8 3.4-2.9 4.8-1.9 1.4 1.1-1.5 2.8-1.9 3.8-.5 1 .4 1.4-.4 2.2-.8.8.3 1 1.9 0 1.6-1 3.6-2.3 5.2-2.9.4-.2.9-.2 1.4-.2 1.3.1 2.6.8 3.2 1.6.8 1-.9 2.1-1.7 3-.7.9.5 1 .5 1.7s1 1.4 1.4.7c.4-.7 1-.4 2.2-.4.3 0 .5.2.7.4.3.5.3 1.4.9 1.5.9.1.8 1.4-.2 1.2-1-.2-1 1.3-.1 2.6.8 1.3-1.6 2.7-.9 3.4.7.7.1 1.4.4 1.9.3.4 3.8-.2 5.4-1.7 1.5-1.6 1.9-1.4 2.7-1.2.8.2 1.6-.6 1.2-1.2-.4-.6-.9-2.2-.7-4.1.1-1.1-1.4-3.1-2.9-4.7-1.1-1.2-2.1-2.1-2.5-2.3-1-.6-.4-2.2.8-2.5 1.2-.3 4-2.5 4.9-3 .9-.5.3-2.1 1-3.4.4-.7 1.7-2 3.1-3 .2-.2.5-.4.7-.5 1-.7 1.9-1.3 2.3-1.3 1 0 2.1 1.8 3.2 1.8 1.2 0 6.4-3.5 6.5-4.1 0-.6 3.1-3.5 4.6-5.1 1.5-1.5 3.4-3.8 4.1-5.5.5-1.1 2.5-3.2 3-4 .5-.8.8-.9 1.7-2.9.9-1.9.9-7 1.2-7.4.3-.3.1-1.2.5-1.7s.2-1.3 1-2 .7-1.3.5-1.9c-.2-.5 0-1.7-.2-2.1-.2-.4-.2-.5.3-.8.5-.3-.3-1-1-1.4-.7-.3-1.6-.6-1.7-1.4-.1-.8-1.3-1.7-2.2-1.7-.9.1-2.6-.5-2.4.1.2.6-.1 1.1-.5 1-.5-.1-.7.2-1.2 1.1-.5.8-2.4.9-1.6.1.9-.8-.3-.8-.1-1.7.2-.8.9-1.7-.1-1.1-1 .5-1 1.8-1.7 2-.8.2-.5-2.2-.3-2.9.2-.6-1.5 0-3.2-.1-1.7-.1-1.3-1.3.1-2.1 1.4-.7 1.2-1.5 1.9-1.7.7-.3 2.5-1.5 3.6-2.1 1.1-.6 1.3-1.3 1.5-2 .2-.7 2.2-1.6 4-3 1.8-1.5 2.7-2.3 3.1-3.2.4-.9 3.1-1.9 3.1-2.6 0-.7 3.2-2.3 5.3-2.7 2.1-.4 5.5.1 6.1.7.6.6 1.1.4 1.5 0 .4-.4 1.2-.2 2.6 0 1.4.2 1.7-.7 2.7-.4 1 .3 1.7.5 2.3-.7.6-1.1 3.3-.9 3.9-.5.6.5 1.1 1.1 2.1.4 1-.7 1 .9 1.9 1 1 .1.3 1-.5.9-.8-.1-1.9.4-.9 1 1 .5 2.1-.5 2.8-.4.7.1 1.9.2 2.9-.5s1.3.5 2 0c.7-.6 2.2-.7 2.9-.7.7 0 .1-.9-1.1-.9-1.2 0-1.2-.7-.2-2.4s2.9-2.6 4.1-3.6c1.2-1 2.1-.5 2.1-1.2s.6-2.5 1.5-2.6c.9 0 3.2.4 4.6-.4 1.4-.8 1.3.6 1.9.8.6.2 1.4-1.2 2-.8.7.4-1 1.4-1.4 2.6-.4 1.2.9.7 1.6 1.1.7.3-.9.8-.7 1.2.2.3 1.6.3 3.4-1.5 1.8-1.8 3.5-2.3 4.6-2.2 1.2.1.5-1 .6-2.7.1-1.7 3.7-2.2 4.8-1.7 1.2.5 1.1 1 0 .7-1.1-.3-2.2.7-2.1 2.1 0 1.4-1 1.9-.5 2.4s-.8.7-.8 1.2c0 .6 0 1-.8 1.3-.8.2-3.6.5-3.7 1.6-.1 1.1-1.6 1.2-2.3 2.5-.7 1.3-3.4 2.1-5.2 4.8-1.8 2.7-4.6 2.7-4.6 3.1 0 .5-2 .5-2.6.5-.7.1.6 1.7-1 3.4s-2.6 4.1-2.6 6.4c0 2.4.8 9.2 1.5 10.4.7 1.2.3 4.1.9 4.8.6.6.4 1.7.7 2 .4.4 1.9-1.7 2.9-2.5 1-.9.7-1.2 1.4-1.6.7-.5.4-2.4.6-2.9.2-.5 1.5-.7 1.9-1.3.4-.5 1.5-.2 2.1-.4.6-.2 0-1.6-.2-2.4-.2-.8 1.7-1.9 2.7-2.6 1-.7 2.2.5 3.4-.6 1.1-1-.1-2.2-.5-2.8-.4-.5 1.1-3.2 2-3.4.9-.2 1.3.6 2.2-.1.8-.7-.7-1.9-1.3-1.9-.6.1-.8-2.1.6-3.1s.8-1.2-.1-1.5c-.9-.2-1.1.1-1.8.1s-1.4-1.5-.3-2.9c1.1-1.5 2.1-1.3 2.4-2.5.2-1.2 1.7-2.9 2.1-3.5.4-.6 1.9 0 2.4-.1.6-.1.4 1.1 1.1.5.7-.6 1.9-2.7 2.8-2.7 1 0 .3 1.5.6 2.4.2.9.8-.2 2.6-1.5 1.8-1.2 5.8-1.1 7-.5 1.2.6 1.4 1.9 2.1 1.8 1-.3.2-1.4 1.2-1.7 1-.3 2.7-1.3 4.1-2.3 1.3-1 1-.2 1.7-1.1.7-.9 1.4-.5 1.6-1.1.2-.6 2.1-1.5 4.7-2.1 2.6-.6 6-2.3 5.8-2.9-.2-.5 1-.8 1.1-.2.1.5 1.1.3 2.5.6s2 .8 3.1-.2c1.1-1.1-.1-1.5-.1-2.3 0-.8-1.9-1.7-1.6-2.6.2-.9-1.4-3.2-1.9-2.7s-1.7-.4-1.7-1c0-.7-.1-1.5-.9-1s-2.1.3-2.4-.5c-.3-.7 1.5-1.3 2.8-.8 1.2.5.9 1 1.5 1.4.6.4 2.3.2 3.2-.2.9-.4 3.3-1.2 3.7-1.9.4-.7 0-1 .8-1.5.8-.4.2-1.3-.5-1.7-.7-.4-.5-1.4.2-1.4s.5-.9 1-.9.6.4 1.5-.1 0 .7-.4 1.5.9 1.4 1 1.9c.1.5 1.9.6 2.9.1s4.2.7 4.4 1.5c.2.8.7 1.7 2 2.4s2.5.4 2.8 1c.2.6.7 1 1.5.8.7-.2 1.2.7 1.7.2.5-.5.8.3 1.5-.3s-1.5-1-1.2-1.5c.3-.5.7.4 1.4.3.6 0-.2-1.2.3-1.4.5-.1.1-2.6-.4-2.8.2 0 .6-.9 1.5-.2zM532.5 86.2c.1.1.2.1.3.2-.1-.1-.2-.2-.3-.2zm23.4-1.3c.1 0 .1 0 0 0 .1 0 .1 0 0 0 .1 0 .1 0 0 0zm-64.9 84c.1 0 .1 0 0 0 .1 0 0 0 0 0zm1-2.4zm2.5 15.5c-.2.8 0 1.2.3 1.4-.3-.2-.5-.7-.3-1.4zm1.5-6.3c0 .1 0 .1-.1.2.1-.1.1-.1.1-.2zm24.3 3.7c-.1 0-.2.1-.3.2.2-.1.4-.2.3-.2.1 0 0 0 0 0zm11.2 15.1c-.1-.1-.4-.3-.6-.4.5.3.8.6.8.6s-.1-.2-.2-.2zm1.5 4.6zm3.9-11.4c0 .1 0 .1 0 0 0 .1 0 .1 0 0zm.3-19.2c0 .3.1.7.1 1 0-.4 0-.8-.1-1zm.5 5.4zm2.2-22.2zM436.1 285.8c0-.1 0-.2 0-.2s0 .1 0 .2zm3.7-6zm2.7 7.2s0-.1 0-.3c0 .2 0 .3 0 .3zm8.6 13.6zm7.9-8.6zm7.7 2zm7.1-3.2c0-.1.1-.2.2-.3-.1.1-.1.3-.2.3zm11-3zm22.2 27.4l-.7.2 1.2-.3-.5.1zm1.5-61.2c.1 0 .1 0 0 0zm4.1 28.6zm-.9 32.6s-.1 0-.1 0c.4 0 .9 0 1.2 0-.3 0-.7 0-1.1 0zm5-59.8l-2.2 1.2 4.7-2.6-2.5 1.4zm3 58.7c.1-.1.1-.2.2-.3-.1.1-.2.2-.2.3zm39.7 10.2c-.2 0-.4.1-.7.2.3-.1.5-.2.7-.2zm-1.3 3.9zm-9.2-23.2l.6 1.6v.1l-.6-1.7zm5.3 79.7c0-.5-.2-1.3-2-1.2 1.8-.1 2 .7 2 1.2zm3.6-40.5c-.6-1-1.3-2.4-2-2.9-1.4-.7-1.9-10.1-1.2-10.4.1 0 .2.1.3.3.2.5.4 1.6.7 2.9.4 2.1.9 4.6 1.7 5.3 1.4 1.3 1.2 2.8 1.5 3.7.3.9 1.6 1.9.7 2.2-.7.3-1.2-.3-1.7-1.1zm13.4 17c0 .2 0 .4-.1.5-.7 1.1-2.8-2.2-3-4.3-.3-2.1 1.2-3 .3-5-.7-1.6-1.2-3.2-.7-3.6.1-.1.2-.2.4-.2.9 0 2.1 3.6 2 5.7 0 .4-.1.7-.2 1-.4 1.4 1.2 4.5 1.3 5.9zm-7.1-40.2c1.1-.3 2.6-.2 3.7.1 1.1.3 1.9.7 1.9 1-.1.7-2 .4-2 1.8 0 .1 0 .2 0 .3-.1 1.3-.6 2.3-1.4 2.6-.8.4 1.1 1.6.2 1.7-.9.2-3-.9-4.5-.2-1 .4-.8-2.1 0-4.3.5-1.4 1.3-2.7 2.1-3zm8.2-90.3c.1-.2.1-.5.1-.8 0 .3 0 .6-.1.8zm18.9-19.5l1.1.3h.1l-1.2-.3zm7.1-8.7c.1 0 .2 0 .3 0-.2 0-.3 0-.3 0zm21.5 64.5c-.3.1-.5.2-.8.2-.1 0-.3.1-.4.1.4 0 .8-.2 1.2-.3zm7.7-67.4c-1-.1-1.8.9-2.8.6-1-.3-2.2-1.2-2.6 0-.3 1.2-.7 2.4.6 2.3 1.3-.1 1.1.8.2 1.7-.9.9 1.4-.2 1.6.7.2.8.9.9.6 2.2-.2.8-.1 2.5 0 3.8 0 .7 0 1.3-.1 1.5-.4.7-3.7 1.2-6.1 1.3-2.4.1-2.6-3.1-5.1-3.1-1.9 0-3.3-1.7-3.4-3.3 0-.6.1-1.2.5-1.7 1.4-1.7 2.5-4.5 1.7-6-.3-.6-1.4-1.9-2.5-3.2-1.6-1.9-3.3-4.1-3.2-4.9.1-1.4.7-2.3-1.1-3.8-1.7-1.5.2-2.5 1.4-4.1 1.1-1.4 3.5-2 5-3 .2-.1.4-.2.5-.4 1.4-1.2 4-2.4 5.9-1.9 1.9.5 3.5-.3 4.3.8.8 1.2 0 3.3.3 4.1.3.8-1.5.9-2.7.7-1.2-.2-3.8.5-3.5 1.2.3.7 1.2 2.5-.4 1.6-1.7-.9-2.3.9-1.4.9.9 0 2.2 1.1 2.2 1.8s.1 2.4.9 2.2c.8-.2.8 1.2 2 1.2 1.2-.1 2.2.3 1.3 1.4-.9 1.1.6 4.1.9 3.4.2-.4 0-1.3.4-1.9.2-.3.6-.6 1.3-.5 2 .2 1.1 2.5 2.2 2.6.8.2 2 1.9 1.1 1.8zm17-12.8c-.1.5-.4.9-.8 1.2-2.1 1.5-4.1 1.2-3.4-.6.7-1.8.7-4-.3-4-1.1 0-.3 3.8-1.2 4.1-.7.2-1-2.8-.4-4.3.1-.2.1-.3.2-.5.9-1.3 2.1-.2 2.6.1.4.3.2-1.4 1.2-1.3 1 .1-.1 1.7.7 1.7.5-.1 1.9 2 1.4 3.6zm2.2-5.9c-.3.5-3.6-.4-3.9-1.1-.3-.7 4.6.1 3.9 1.1zm13 29.6c.6.2 1.1.6 1.8.4-.8.1-1.3-.2-1.8-.4zm12.5-13.7c0 .1 0 .1 0 0 0 .1 0 .1 0 0 0 .1 0 .1 0 0zm2.4 4.8c.3-.1.5-.1.6-.2-.2.1-.4.2-.6.2zm2.5 11.8c.1 0 .1 0 .2-.1 0 .1-.1.1-.2.1zm2.3-1.2c.8-.7 1.6-1.3 2-1.3-.4.1-1.2.7-2 1.3zm1.9-7.9c.3 0 .5-.1.5-.1s-.1 0-.5.1zm3.4 8c.2 0 .3-.1.5-.1-.2.1-.3.1-.5.1zm7 5.2c.1-.1.1-.2.1-.2s0 .1-.1.2zm1.8.2s.1 0 0 0c.1 0 .1 0 0 0 .1 0 0 0 0 0zm.3-37.1c-2.3 0-7.5-1.2-9.5 1.1-2.1 2.2-.6 3.4-1.5 3.6-1 .2-1.5-3.4-.3-4.6 1.2-1.2 4.9-1.7 7.2-1.1 2.3.6 6.5-.5 7.1-.3.5.2-.6 1.3-3 1.3zm7.4 53.8c0-.1.1-.1.1-.2-.1.1-.1.1-.1.2zm17.1-64.6c.1 0 0 0 0 0zm2.3 71.5zm10 .4c.1-.1.1-.1 0 0 .1-.1.1-.1.2-.1 0 0-.1 0-.2.1zm13.3-1.9c.1 0 .1 0 .1 0s.1 0 .1 0 0 0-.2 0zm28.8 40.8zm-5.9 1c.3.2.7.3.9.4-.2-.1-.6-.2-.9-.4zm9.4-126c-2.4 2.1-7.1 2.6-7.1 4.4 0 1.7-5.7 2.6-6.2 1.9-.4-.7 4.2-.9 5.4-3.4 1.1-2.5 5.4-3.8 7.5-7.1 1.5-2.4 2.7-6 3.6-5.7.7.2-.9 7.8-3.2 9.9zm21.8 12.1c.4 0 .8.1 1.1.3-.3-.2-.7-.3-1.1-.3zM974.4 371c.7.2 2.9-.5 2.9-1.6 0-1-3.9 1.3-2.9 1.6zM837 224c-1.2.9-1.7 1.1-1.2 2 .5.9 1.2.1 1.6-.8.3-.9 1.2 1.3.4 2.8-.7 1.5.1 3.6 1.1 3.4.8-.2 1.9-3.1 3.2-4.7 1.2-1.6-.6-1-.6-1.8s-1.8-.7-1.9-1.4c-.1-.9-1.4-.4-2.6.5zM906.3 338c-.2.7 2.5 4.7 3.5 4.1 1.8-1.2-3.3-4.8-3.5-4.1zM831.1 318.4c0-.6-.6-2.9-1.9-1.1-1.3 1.8.4 6.3 1.5 6.1.9-.2-.7-2.4 1.1-2.2 1.8.2 1-.9 1-2.1 0-1.1-1.7-.1-1.7-.7zM830.7 331.4c.3 1 2.1.6 3.8.6 1.7 0 2.7 1.2 3.6 1.2.9 0 .2-2.2-1.9-2.8-2.2-.7-5.9-.1-5.5 1zM845.7 225.3c.2-1 1.6-1.3 2.4-.9.8.4 1.9-1.2 1.9-2.5 0-1.2-2.5-1.2-2.8-.3-.3.9-1.3.5-2.7.7-1.3.2-1.4 3.4-.4 3.7.8.3 1.4.3 1.6-.7zM920.4 349.2c.2 1.2 2.1 2 2.9 1.6.7-.5-3.1-2.9-2.9-1.6zM923.4 346.4c-.6 1.4 1.9 3.7 2.2 3.8.4 0-1.8-4.9-2.2-3.8zM920.9 346.5c.7-.4-3.9-2.9-3.9-2.1-.1.7 3.2 2.5 3.9 2.1zM911.6 341.5c-.1.3 1.9 2.2 2.4 1.9.4-.3-2.3-2.4-2.4-1.9zM316.8 162.5c1.2-.7-.1-1.4-1.3-.9-1.2.5-4.6 5.1-4.6 6.3 0 1.2-.1 2.7-1.2 2.7-1.2-.1-2.5 1-1.6 1.7.9.7-2.4 2.5-.8 3.4 1.1.6 2.8-.3 4.3-.1 1.5.2 2.7.2 4-.7 1.2-.9 1.2.8 2.6.7 1.3-.2-.7 1.1-.7 2 .1.9 1.4-.5 2.4-1s2.2 0 1.7.8c-.5.8 2.7 1.7 3.5.3.7-1.3-.7-3.4-1.2-2.5-.5.9-1.2-.7-.2-1.5 1.1-.8-.2-1.2-1.2-.7s-.7-2.2.2-2.7c.9-.5-2.2-1.5-2.2-.6s-2.2.3-2.5-.5c-.2-.8-1.8-1.1-1.2-1.7.6-.6-1.9-.9-2.2.1-.2 1-1-.7.2-2 1.3-1.2.9-2.4 2-3.1zM327.6 83.9c.1-1.3-1.4-.5-2.2-2.1-.8-1.6-5.1-2.2-5.5-1-.2.5-1.5 1.2-.4 2.4s1.8.7 3.1 1.8c1.2 1.2 4.9.2 5-1.1zM292.3 167.8c.2 1 7.5 4 7.7 2.6.3-1.3-7.9-3.4-7.7-2.6zM299.7 293.3c.3.3 1.6 0 2.1-.3.6-.2.5-1.1-.1-1.6s-2.7.3-2.1.6c.7.2-.3.9.1 1.3zM535.8 135.6c.7 0 2.4-1.5 2.9-1.9.5-.5-.3-1-1.8-.5-1.5.4-1.7 2.5-1.1 2.4zM264.1 263.9c.5-.6-3.4-3.1-5.2-3.1-1.9 0-8-4.2-13.6-5.5-5.6-1.2-10.5 2.8-10 3.5.7 1 3.5-1.2 4.9-2.2 1.4-1 2.6.5 2.7 1.1.1.6 1.9 1 4.7 1.1 2.9.1 3.2 2.5 6 3.1 2.7.6 0 1.7 1.4 2.2 1.3.6 8.6.5 9.1-.2zM252.5 269.4c.5.9 5.2 2.1 5.7 1s-6.3-2.1-5.7-1zM372.7 336.3c-1.2.1-3.6-.2-6.7-3.6s-6.2-3.1-8.2-2.5c-2.1.6-4.2-1-5.5-1.3-1.4-.3-2.7 1.4-3.7 1.8-1 .4.5-1.5.6-2.7.1-1.2-3.7-2.9-6.6-4-2.9-1.1-4.1-.6-4.1 1.2 0 1.8-1.1-.6-2 1.4-.9 1.9-2.5.7-1.4.1s2.1-2.1 2.4-3.2c.4-1.2-4.1-2.1-5.7-1.5-1.6.6-.6 2.9-1.8 2.2-1.2-.7-.2-2.4.7-2.3 1 .1 2.1-2 2.8-3.5.7-1.5-1.2-1.7-2.3-3-1.1-1.2-.9-4.8-2-5.4-1.2-.5-3-3.4-4.8-3.7-.8-.2-1.6-.5-2.4-.8-1-.4-2-.7-2.8-.6-1.5.2-3 .9-3.6.1-.6-.8-1.4-.7-2.1-.1-.1.1-.2.1-.3.1-.8-.1-1.9-2.3-2.6-2.3-.7 0-1.6-.6-1.4-1.7.2-1.1-1.7-1.2-2.8-2.4-.3-.3-.6-.5-1-.6-1.3-.5-3.3-.5-4.1-.4-1.1.1.7-1.2.7-2.3.1-1.1-3-1.3-4.2-1.6-1.2-.2-.9-1.5.4-1.6 1.2-.1-.7-.9-2.4-.7-1.7.2-4 1.2-5.4 1.9-1.4.7-3.7-2.2-5.3-1.6-1.6.6-3.7.6-3.7-.6.1-1.2-.6-2.3-2.2-2.2-1.6.1-1.2-1.6-2.4-1.6s0 1.4-.8 1.8c-.8.4-3.6 1.1-3.8 2.2-.2 1.1 1.5 3 .9 4.1-.6 1.1-2.4.2-3-1-.6-1.2 1.6-3 1.2-3.7-.3-.5-.6-1.4-.4-1.9.1-.3.3-.5.7-.5 1.2-.2 1.9-1.1.7-1.7-1.2-.7-1.9 1.3-3.2 1.5-1.3.2-1.6 1-2.4 1.4-.9.4-2.5.1-2.6.8-.1.8-.6 0-1.3-.2-.7-.2-2.7 1.5-2.6 2.4.1.9.4 1.8-1 2.7-1.4.9-2.2 2.5-2.8 3.2-.2.2-.4.2-.6.1-.5-.2-1.1-1.2-1.8-2.2-1-1.5-2.8-1.4-3.9-1.9s-2.6.2-4 1.5-3.2.6-4.5-.1c-.4-.2-.9-.7-1.4-1.3-1-1.1-2.2-2.6-2.8-3.5-.2-.3-.3-.5-.4-.6-.4-.8.3-2.4.7-3.6.4-1.2-.3-4 .4-4.8.7-.7.3-1.2.6-2.9 0-.1 0-.2 0-.3 0-1.4-1.8-.9-3.1-2.2-1.4-1.4-4.4-.7-6-.1-1.6.6-3.5-.7-5.2.3 0 0 0 0-.1 0-1 .5-1.3 0-1.1-.7.1-.5.4-1.1.9-1.4 1.1-.9-.6-4.4.7-4.7.2-.1.4-.2.6-.4.8-.7 1.1-2.4 1.2-3.8.2-1.7-.4-2.2.5-3.2.9-.9 1.8-1 1.6-2.3-.2-1.3-1.4 0-2.4-.6s-1.9-.2-4.4.2c-2.6.4-3.7 1.4-3.6 3.2.1 1.8-.9 1-.8 2.5.1 1.6-2 1.6-1.9 2.6.1.9-1.6 0-2.1-.3s-5.9 1.3-6.6 1.4c-.7.1-2.1-1.6-3.2-1.5-1.1.1-1.5-1.6-1.6-2.9-.1-1.3-2.1-2.5-3-3.7-.9-1.2-1-3.8-1.1-5.5-.1-1.7-.2-4.5.9-7.8.2-.4.2-.8.3-1.2-.3-.2-.6-.3-.8-.4.3.1.5.2.8.4.1-2.2-2.2-2.6-.8-3.6 1.6-1.2-.1-2.2.7-2.7.7-.5 2.1-1 2.1-1.7s.7-.7 1.7-.6c1 .1 2.9-1.6 2.7-2.3-.1-.7.2-.8 1.4-.6 1.2.2 1-1.4 1.7-1.1.7.2 1.4.7 1.4.1.1-.6.8-.4 1.4.3.6.7 2.2.9 2.3.1.1-.9 1.1 0 1.9.9.8.9 1.2.6 2.4.7 1.2.1 1.2-.2 1.2-1 .1-.7 1.3 1.6 2.5 1.7 1.2.1.2-.7-.6-1.4-.9-.7.2-1-.6-1.6-.7-.6.9-1.3 2.4-1.2 1.5.1 1.4.4 2-.4.6-.9 1.1 0 1.1.7s2.4-.4 3.7-.4c1.3 0 2.5 1.1 2.6 1.9.1.7 1 1.1 1.9.3.9-.8 1.7-1.7 2.6-.9.9.9 1.7 2.1 2.8 3.1 1.1 1.1-.5 2.4.1 3.2.6.8-.1 1.9 1.2 2.8 1.2.9.1 2.7 1.1 2.9 1 .2 1.8 1.8 1.9 2.4.1.6 2 1.4 2.1.4.1-1.1 1.1-2.3 1.2-3.3.1-1-.7-4.5-1.6-5.7-.8-1.1.2-1.4-.8-2.7-1-1.3-1.6-3.6-1.6-5.5.1-1.9 2.2-4.9 3.3-5.8 1.1-.9 2.2-.4 2.5-1.4.2-1 1.6-2.2 2.3-2.2.7 0 1.6.2 1.7-.6.1-.8 1.4-1.8 3-2.1 1.6-.2.7-1.1.2-1.9-.4-.7.4-1.5.7-1 .3.5 1.3.6 1.9.1.6-.4 2.1-1.6.7-1.7-1.4-.1-1.7-.6-.9-.9.8-.3.1-1.8-1-1.9-1.1-.1-.7-.7-.1-1.4.7-.7-1-1.8-1.8-2.4-.8-.6.5-.9 1.1-1 .6-.1.1-3 .4-3.7.3-.7 1.4-.7.9 0-.4.7-1.1 1.8-.2 2.7.8.9 1.1 1.9.7 3.4-.3 1.4.3 1.1 1.2-.8.9-1.9 1.1-3.5.4-3.7-.6-.2-.6-2.1.1-1.2.7.9.9 1 2-.1s2.2-3 1.5-3.5c-.7-.4.3-.9 1.6-.8 1.2.1 3.9-.7 4.1-1.1.6-1.2-4.3.6-4.3-.1s3.1-1.4 4.5-1.4c1.4-.1.7-2 1.4-1.2.6.8 1.6.7 2.4.2.8-.5.2-1.9-.7-2.2-.9-.3.7-.9.4-1.4-.3-.6.6-2.8 1.8-3 1.2-.2.6-1 1.6-1s1.2-1.2 2.1-2.1c.9-.9 2.1 1.4 3.5.1.6-.5 1.3-1.1 2.1-1.6 1.1-.7 2.3-1.3 2.9-1.2 1.1.1 2.8-1.4 3.3-2.4.5-.9 1.2.9.2 1.2-1 .3.8 1.1 2.6 1 1.7-.1-.8.6-2.1.6-1.3-.1-1.9.1-3.6 1.9-1.7 1.7-1.3 2.2-.3 3.1 1 .9 2.3.5 3.7-.7 1.4-1.2 1.3-2.4 2.7-2.3 1.4.1 4.9-1.2 6.5-1.7 1.6-.5.6-.7.6-1.4s2.7-.7 3.7-1.4-.2-1.2-1.1-1.1c-.9.1-.2-1.2-.1-1.9s-1.9.3-1.9 1.1c-.1.8-1.4 1.1-1.4 1.6 0 1.5-.2.7-1.2 1.2s-4.9 0-5-.9c-.1-.9-2.9-1.3-3-2.5-.1-1.2-1.5-1.6-.4-2.9 1.1-1.3-.2-1.9-1.2-.9-1.1 1-1.7-.6-.2-1.1 1.4-.6 4.1-1.1 2.7-3.6-1.4-2.5-10 .7-12.1 2-2.2 1.2-4.9 5.2-6.1 5.2-1.2 0 2.1-2.1 2.6-2.9.5-.8-.1-1.6.6-1.3.7.3 2.6-2.7 3.9-3.7 1.3-1 2.7-.1 2.9-.9.2-.8.8-1.4 2.1-2.5 1.2-1.1 16.1-.9 17.6-.9 1.4.1 4.2-1.9 5-3.1.8-1.2 1.9-1.2 3.9-1.1 2 .1 2.9-1.7 3.9-2.4s.6-1-.2-1.2c-.9-.2-1.7-.7-.8-.8.9-.1 1.3-.6 1.7-1.7.4-1.1-.3-.6-1.5-2.2s-1.8.5-3 .4c-1.2-.1.8-1.6-.2-2.2-1-.6-2.9-.2-4.4 1.1-1.5 1.2-1.4-.1-2.7 1.2-1.3 1.2-1.3-.6-.7-1.1.6-.5 1.1.1 1.6-.7.6-.7 1.1 0 2.6-.9 1.4-.9 2.7-.5 3.1-1.2.4-.7-.7-1.6-2.1-1.3-1.4.3-2.3-1.9-3.2-1.2-.9.6-.7-.9-1.7-.3-1 .6-1.6-.2-2-1.4-.4-1.2-3.1-3.1-4.7-3.6s-.6-1.4.3-.7c.9.6 1.9-.6 2.2-1.2.4-.6-.6-1.2-1.1-1.2-.5-.1-.5-.9-.4-1.5.1-.6-1.7-1.4-1.8-2.1-.1-.6-1.1-1.1-1.1-1.6.1-.6-1.1-1.4-1.1-2.1 0-.7-1.9-2.2-1.9-3.1-.1-.9-1.1-1.5-1.4-2.6-.4-1.1-.9-.6-1.2.9-.4 1.5-1.7 1.4-1.3 1.9.8 1 .2 1.1-.4 1.7-.6.6.4 1.6-.6 1.6-.9 0-.5 1.9-1 1.1-.5-.9-1.7-.6-1.7.2 0 .9-2 1.7-2.8 1.6-.8-.1-.8-1.7-1.5-1.2s-.6-1.4-1.6-1.4c-1.1.1-1.8-.1-1.5-1 .3-.9-1.8-1.4-1.1-1.9.7-.6-.2-1.6-.3-3.2-.1-1.6.9-1.7.9-2.4 0-.6-.7-.6-1.5-.1-.7.5-.7-.7-1.6-.6-.8.1-3.2-.1-3.4-1.2-.1-1.1-.9-.6-1.3-1.6-.4-1.1-1.4-.3-1.4-1s-.4-1.1-1.2-1.1c-.7-.1-1-.9-2-1-1-.1-2.2.7-2.8.9-.6.2-2-.9-2.6-.4-.6.4-.7-.3-2.2-.7-1.6-.4-3.6-.6-3.7 0-.1.6-1.4.7-1.2 2.1.2 1.3 1.5 1.1 1.8 1.9.3.9-.6.6-.7 1.4-.1.8-.9.7-.9 1.3 0 .6.6.4.9 1.6.3 1.1.9 1.1 1.1 2.5.2 1.5-.5 1.2-1.1 1.4-.6.2.1.9-.8 1.9-.9 1-1.6 2.1-.9 2.7.7.6 3.2 1.7 4.2 3.4s.9 4.3.6 6.2c-.3 1.9-2.4 2.3-4 3.9s-3.2 1.4-3.9 1.4c-.7.1-.3 1.6.7 2.7 1.1 1.2.2 1.6.7 2.8.6 1.2 0 2.2.8 3.4.8 1.1.3 1.6-.6 2.4-.9.8.4.4.4 1.4.1 1.1-.4.4-1.2-.1-.8-.6-1.6 1.1-1.6 1.7 0 .7-1.9-.9-2.4-.9-.4.1.1-1.1-1-1.9-1.1-.9-2-1.1-2-1.9 0-.9-1.9-1.5-1.9-2.5s.2-3.5-.2-4.3c-.4-.7-.1-1.6.3-2.2.4-.7-.4-1.7-1.6-1.7-1.1 0-2.7-.4-4.2-.2-1.6.1-2.4-.1-2.9-.6-.5-.4-1.9-1.4-3.9-1.9-1.9-.5-2.8-1.5-3-2-.2-.6-2.1-1-2.6-1.6-.4-.6-2.3-.9-3-.7-.7.1-2.6-1.6-3.7-1.5-1.1.1-3.7 1.2-4.2 1.2-.4.1.1-.9.4-1.4.3-.4-.9-2.3-1.2-3.5-.3-1.2-.7-2.6-2.1-2.4-1.3.2-2.7-.5-3.1-.7-.4-.3-.4-3.8-.1-5.3.3-1.5 1.9-3.7 1.9-4.7 0-.9 1.1-1.4 2-1.6.9-.2.2-2.1 1.1-2.2.9-.1 1-.5 1.2-1.2.2-.7 1.3-.2.7-.9-.6-.6-.1-.8 1.3-.8 1.4 0 3.5-.5 3.2-1.9-.3-1.4-4-.4-4-1.6 0-1.2-4.7-1.2-4.4-1.9.3-.7 4.7.5 6.3 1.1 1.6.6 2.1.6 3.4.5 1.3-.1.4-1.7.7-2.4.2-.7 2.7 1.1 4.2.7 1.4-.4 2.8-3.3 4-4.1 1.2-.8.1-1.6-2.2-1.4-2.3.2-3.6-.7-4.9-1.6-1.2-.9-1.1-1.7.2-1.6 1.3.1 4.4 2.7 5.6 2.7 1.2.1 3.2-2.3 4.2-3 1-.7-.9-1.1-1.6-1.6-.7-.6 1.2-.9 2.2-.9 1 0 1.4.9 1.8 1.3.4.4 2.1-.3 3-.3.9 0-.1-1.4-1.6-2-1.4-.6.1-1.6.5-.7.4.9 1.4.7 1.9 1.7.7 1.5 1.2.5 2.4.1s1.9-1.2 2.6-1.9c.7-.7.8.1 1.6-1.1.8-1.2-.4-2.3-1.4-3-1-.7.1-1.5-.9-2s-1.2-1.4.1-1.2c1.2.2 2.2-.1 2.8-1 .6-.9-1.9-1.1-.7-1.7 1.1-.6.2-1.2-.9-1.2s-2.1-.6-2.1-1.5c-.1-.9-2-.3-3.2-.9-1.2-.6-3.8-.4-4.4-.4-.6.1-.7 2.6.2 2.7.9.1 1.7 1.1.9 1.4-.8.3.1 1.3-.5 1.2-.6-.1-1.6-.4-1.8 1.2-.2 1.6-.3 2.2-1.4 2.8-1.1.6-.2-1.8-1.2-1.7-1 .1-1.1 2-.4 2.2.7.2.9.8 1.1 1.7.2.9-1.4.2-2 1.4-.6 1.1-.7-.5-1.6-1.2-.9-.7-1.9-2-1.9-2.9.1-.8.5-1.1 1.2-1.2.7-.1 0-.7-.1-1.9-.1-1.1-.9-.7-1.9-1.9-1-1.2-2.1-1.2-2.6-.6-.6.6-.2 1.6-1.1 2-.9.4-.5 2.1-1.2 2.2-.7.1-.3-3-.9-3.4-.6-.3-.6-1.1.4-1.2.9-.1 1.5-1.1.7-1.1s-2.2-.9-2.8-1.1c-.6-.2-1.5 1.1-2.1.6-.6-.5.1-1.7.1-2.4.1-.7 1 .3 1.6-.6.6-.9-1.7-.9-1.7-1.8s-1.9-1.2-2.5-1.5c-.6-.3.4-1.9.1-2.5-.3-.6-2.6-2.7-3.6-2.5-1 .2-1.2-1.3-.7-1.2.6.1 1-.3 2.1-1.5s1.2-1.6.4-1.8c-.7-.2-1.1-1 .2-.9 1.3.1 3.6.9 4.4.4.7-.6 3.1-4.2 4-5.5.9-1.3-.7-1.4-2.9-1.2-2.2.2-2.7-.9-4.6-1-1.9-.1-5.4.4-5.9.9-.5.6.9 1.1.7 1.7-.2.6-1.3-.4-1.8-.2s.2 1.1 0 3.2c-.2 2.2.4 2.3 1.1 3.1.6.8.5 1.9.5 3.2 0 1.4-1.3 1.3-1.7 1.6-.4.3 1.1.8.9 1.7-.2.9-1.6-.5-2.3-.2-.7.2-1.4 2.4-.6 3 .8.7 1.1.6.5 1.4-.6.8-1.3 2 .2 3.2 1.5 1.2 4.2 1.1 5.7 2 1.4.9-.6.4-.1 1.4.6 1.1-.9 1.4-.9 2.2.1.8.6.4 1.4-1 .7-1.4 1.3.4 1.2 1.6-.1 1.2-1.1.5-1.9 1.7-.8 1.2-1.6 1.4-2.7 1.1-1.2-.2-.5 1.7 0 2.7.5 1.1-.1 1.4-1.5 1.1-1.4-.4-2.2-1.2-1.5-2.3.7-1.1 1.2-2.3.4-2.2-.8.1-2.7-.1-3.2-.9-.6-.9.4-.5 2.1-.3 1.7.2.2-1.1 1.5-1.1 1.2 0 2.2.7 3.2-.2 1.1-.9-.7-2.7-1.6-2.4-.9.3-2.2.7-2.2-.2 0-.9 1.5-.2 2.3-.4.8-.2-.4-1.3-1.7-1-1.2.3-2.1.4-3.1-.7s-2.8-1.7-3.2.7c-.4 2.4-2.2 1.1-2.9 1.9-.7.8.8 1.4 2.5 1.4 1.7.1 2.9 1.6 2.1 1.6-.8 0-.4 1.2-1.3.7-.9-.4-1.7 0-1.1.7.6.7-.2 1.1-.2 1.8.1.7-1.3.1-2.6-.1-1.3-.1-3.7.3-5.5.7-1.7.4-3.7-.2-4.4-1.1-.7-.8-1.7-.7-3-.7-1.2 0-.9-1.2-2.5-1.2-1.6-.1-1.2-1.4-1.4-2.2-.2-.8-3.4-.6-4.6.2-1.2.7-3.5.4-4.1 1.8-.6 1.4.6 1.2 1.2 1.2 1 0 .9-1.1 2.6-.9 1.7.2 3-1.8 3.7-1.1.7.7-3 2.2-4.6 2.4-1.6.2-1.2 1.6.3 3.9 1.6 2.3-.7 1-.7 2.1s-2.9-.4-1.7-.7c1.2-.4.6-1.6-.3-2.3-.9-.7-1.6 0-1.4-.8.1-.8-1 .1-1.9-.6-.9-.7-1.3-1.2-2.5-.6s-2.6.4-5.2.9c-2.6.4-7.4.3-8.3-.6-.9-.9 2.2-2.4 3.2-2.2.9.2.4-1-1.1-2.1-1.4-1.1-4.6-1.8-4.5-1.1.1.7-1.8.1-4.1-.4-2.3-.4-2.6-1.2-4.1-1.3-1.4-.1-3.7-.5-5.5-1.9-1.7-1.4-5.9-1-6.3.2-.5 1.2-1.9 1.2-3.2 1.2-1.4 0 .6-1.5.1-1.8-.7-.4.1-2.1-.9-2.2-1-.1-1.9 4.1-3.8 4-1.9-.1-2.7-4.5-4.2-5.6-1.6-1.1-3-1.2-1.7.5s-1.1.5-1 1.6c.1 1.1-2.1 2.4-2.1 1.8.1-.6-1.2-1.3-2.7.4-1.5 1.7-2.6 1.5-2.7.9-.1-.6-4.5 1.6-4.4 2.4.2.7-.7 1.3-1.9 1.2-1.2-.1-.2-1.1.7-1.6 1-.6 3.9-2.9 5.4-3.1 1.5-.2 4.4-1.4 4.4-2.1.1-.7-1.4-.1-2.4-.3-1-.2-2.7.9-4.4 1.7-1.7.7-3.6.5-3.1 1.5s-1.6-.1-2 .6c-.4.7-1.2-.1-.6-.4.6-.4-1.5-1.1-1.5-.6 0 .4-.4 1-1.9 1s-3 1.1-2 1.8 1.6 1.1 1.1 1.6-2.1-1.3-4.2-1.1c-2.2.2-6.5-2.4-6.5-3 0-.5-3.1-.2-5.2-.4-.5-.1-.9-.1-1.3-.3-1.8-.7-4.5-1.9-5.9-1.6-1.4.3-4.3.7-5.3.2-1-.5-2.4-.9-4.4-.6-2.1.3-3.4-1.1-6-1.7-2.6-.6-6.3.2-7.2.5-.9.3-.7-.9-1.8-.8-1.1.1-.2-.5-.9-1.4-.6-.9-3.7-.1-4.9.1-1.1.1-1.4-.6-1.4-1.1.1-.6-1-.4-1.4.4-.4.7-1.7.9-2.2.4-.5-.5 1.1-.7 1.1-1.2.1-.6-1.6-.9-2.2-1.1-.6-.2-1.6.6-2.9 1.8-1.3 1.2-3.2 1.1-4.4.9-1.2-.1-2.7.1-2.6.8.1.7 1.5.6.6 1.5s-1.2-1.2-2.1-.2c-.9.9-3.5.9-4.1.7-.6-.1-2.7 2.1-3.3 2.7-.6.6.5 1.2-1.2 3s-6.2 1.4-7.1 1.4c-.9 0-.2 1.1-.7 1.7-.5.7.6 1.3 3.1 2 2.6.7 4.3 4 4.6 4.8.3.8 3.5-.1 4.7.1 1.2.2-.1 1.9.9 2.4 1.1.5 2.7-.3 3 .6.3.9-2.1 0-3.4.9-1.2.9-1.9 1.4-2.4.7s-2.6-.2-3.6-.1c-1.1.1-.1-1.3 0-1.9.1-.6-1.4-1.1-3.5.1-2.1 1.2-1.3.7-1.6 1.7-.2.9-1.1-.6-2.4.2-1.3.8-3.4 1.4-3.8 2.2-.4.8 2.8 1.4 4 1.6 1.2.2-1.5 1.1-.5 1.4 1 .3.6 1.2 2.1 2.1 1.6.8 5 0 6 0 .9 0 1.8 1.1 2.6.3.7-.8 3.5-3 5-1.7 1.4 1.3-1.6 1.1-.8 1.9.7.8 1.7 2.7.3 3.7s-2.7.3-3.4.2c-.7-.1-.3 1.4-1.5 2.3-1.2.9-2.1-1-3.5-1-1.5 0-1.2 1.9-1.1 2.9.1.9-2.2-.2-2.8 2.1-.6 2.2-2.9.3-1.4 2.5 1.6 2.2 1.3.8 2.6 1.7 1.2.9-1.4 2.4-.1 2.7 1.2.2 2.6 2.5 3.5 3.3.9.8 2-.4 3.3-.5 1.3-.1.7-1.9 1.4-1.2s1.8 2.7 1.1 3.2-.1 2.1-.2 2.8c-.1.7 2.9.5 3-.4.2-.9 2.6-1.1 3.9.3 1.3 1.4 1.7 1.7 1.7.6s1.1-2.4 1.2-1.4c.1.9 1.1 1.2 3 .3 1.9-.9 1.1.1.1 1.3-1.4 1.7 0 4.2-1 4.5-1 .2-1.8 2.8-3.4 3-1.6.2-4.4 3.2-4.7 3.7-.4.5-3.9-1-4.4.4-.5 1.4-2.6 2.5-2.1 3 .4.4 3.2-1.1 3.4-1.8.1-.7.5-.6 1-.1.5.6 1.7-.2 2.3-.7.6-.5 1.5-.3 2.1-.2.6.1.8-.7 2.5-1 1.7-.3 1.3-.8 1.7-1.7.4-.9 4.4-2.7 5.1-2.9.7-.2.3-1.4 1.1-1.5.8-.1 2.1-1.1 3.1-1.9 1.1-.9 1.3-.5 2.1-.8.8-.3.2-1.9 1-2.1.8-.1 1.4-.7 1.4-1.4s-2.1-.7-2.2-1.1c-.2-.4 1.6-2.1 2.3-2 .7.1 1.8-.7 1.9-1.7.1-1 1.1-1.2 1.9-2.1.8-.9.6-1.6 1.4-1.7.8-.1 1.6-1.2 2.4-1.7.9-.5 0 .6 1.7.7 1.7.1 1.3 1.6.1 1.1-1.2-.6-1.8-.5-2.9.6-1.1 1.1-.2 1.4-1.1 2.6-.9 1.2-.9 1.9.2 2.1 1.1.1.1.9-1 1.2-1.1.3-.3.9 1.1.9 1.4 0 3.5-2.1 5.5-3 2-1 3.5 0 4-.2.6-.2-.6-1.1.1-1.4.7-.3-.8-.5-1.2-1.7-.4-1.2.7-.4.9-1.4.2-.9.9-.6 1.6-.1.6.4 1.5-.4 2.1.7.6 1.2 1.2-.3 2.2.5 1 .8-.2.7-1.2.9-1.1.2-.5 1.7.3 1s1.5-1.1 2.2-.4c.7.7 1.1.4 1.7-.3.6-.6.6.1.6.6s1.3.7 3.2 1c1.9.3 5.2-.1 6.1-.2.9-.1.6 1.3 2.5 1.7 1.9.4 2.4-1.9 3.4-1.1 1 .8 0 1.1-.6 1.7-.6.6.6.7 1.4 1 .7.3 2.5.8 3.3 1.6.8.8 1.3 1.7 3.3 2.7 2 1 .1-2.5 1.6-1.4 1.6 1.1 1 .1 2.2 1.2 1.2 1.1.8-.5.2-2.4-.6-1.9.6-.6 1.1.2.6.9.6 2.5.2 3.7-.4 1.1-2.2.2-2.1-.4.2-.6-1.9-.4-1.9.5-.1.9 1.3 2.6 2.3 2.7 1 .2.2 1.7.9 1.9.9.3.8 1.9 1.3 1.6.5-.2.3-2.2-.2-3-.6-.9-.3-2.1.4-1.9.7.2 0 1.6.4 2 .4.4.8-.4 1.7-.9.9-.5-.4-1.9-.1-2.7.3-.7 1.3.6 1.7 1.9.4 1.3-.9 1.2-.9 1.9s-1.2.4-1.6.7c-.4.4-.2 2.9.3 2.9.5.1.8-2.1 1.1-1 .3 1.1 1.5-1.4 1.8-.4.3 1 1.8 2.1 2.4 1.9.6-.2-.2-1.3-1.1-1.4-.9-.1-.7-1.5.1-1.6.8-.1 2.2 2.1 2.2 2.8-.1.7-.7.7-1.4 1.4s-1.6-1.2-2.4-1.2c-.8.1 0 1.3.4 2.2.4.9-1 2.1.1 2.7 1.1.7.7-.4.9-.9.2-.5 1 .1 1.6.6.5.4.6-1 .6-1.6 0-.6.9-.2 1.4.5.5.7.6-.8 1.3-.7.7.1.2 1.3.2 2s1.3-.6 1.2.2c0 .1 0 .2 0 .3.1.5.6.9 1.2 1.4.7.6-1.4.6-.7 1.2.6.6-.1 1.4.5 2.1.6.7 1.7.4 2.4-.1.7-.6 1.2.7.6 1.6-.6.9.6 1.6 1.2.9.6-.7 1.7 1.1 2.3 1.4.6.3 1.1 1.2.2 1.2s-.8 1.6-.1 1.7c.7.1.6.9.6 1.5s2.2 1.4 3 1.1c.8-.2 1.6.5 1.9 1.2.4.7 1.9 1.2 2.4.7.6-.4.9.8 1.1 1.7.1.9 1.4.4 2.1.3.7-.1 1.2 1 1.7.8 1.1-.4 1.4 1.5 2.2 2.6.1.1.2.3.3.4.9 1 .2 1.7.5 2.9s.1 2.9-.9 2.9c-.9 0-1.1-1.1-.4-1.4.7-.4.3-1.7-.4-1.7-.4 0-.6-.5-.5-1 0-.4.1-.8.3-1.2.4-.8-.9-.2-1.7-1.1-.8-.9-2.9-.7-3.2-1.5-.3-.8-2.2-3.7-3.3-3.7-1.1.1-2.4.1-3.7-.8-1.2-.9-2.1-1-2.9-.4-.9.6.9.7.9 1.3-.1.6.6 1 1.3.9.7-.1 1.2 1.4 1.9 1.5.7.1 1 1.2 1.9 1.2s1.1 1 1.5 1.6c.4.6 1.4.1 1.4.6s1 1 1.2 1.6c0 .1.1.1.1.2.1.7.4 2.4 1.4 3.7 1 1.3.3 2.1 1.2 2.6.9.5.9 1.1 0 .9-.9-.1-.2.7-.6 2.6-.3 1.9-.2 5.7-.4 6.9-.2 1.2-1.6 3.1-.7 4.4.8 1.2 1.4 3 .9 4.5-.4 1.6-.4 2.5.3 3.7.7 1.2.1 3.2.9 3.7.7.4 1.4 1.3 2.1 2.4.7 1.1 1.3.4 1.4 1.6.1 1.1.1 1.3 1.1 1.7 1 .4.4 1.6.4 2.2 0 .6 1.3 1.7 2.9 3.2 1.6 1.4.2 2.6 1.4 2.6s2.3.7 3.5 1.4c1.2.7 1.6.3 2.4.5.8.2 2.3 1.9 2.6 3.1.1.6.3 1.1.6 1.8s.8 1.5 1.5 2.3c1.3 1.6 2.2 4.5 2.4 5.5.1 1 1.9 1.8 3.5 2.8 1.6 1 1.6 3.2 1.4 3.7-.2.6-2.1-.4-2.2.2-.1.6 2.5 2.7 3.5 2.6 1-.1 1.5.5 3 1.9 1.6 1.4 1.4 3 .8 3.5-.6.5 1.2 1.6 3.2 2.9 2 1.3 2.8 2.9 3 3.6.2.7 1.1.1 1.4-.9.3-.9-.6-1.2-.6-2.2 0-1.1-1.6-.9-2.4-1-.7-.1.1-1.7-.7-2.5-.7-.7-1.4-2.6-1.8-4-.4-1.4-2.3-2.7-3.1-4.2-.8-1.5-1.7-2.7-2.2-3-.6-.4.8-.9.3-1.5s-1.2-.5-2.2-.9c-.9-.4-1.6-1.2-1.6-2.2 0-1-.6-3.4-.9-4.2-.3-.8.7-.7 1-.3.3.4.6.7 1 .5.4-.2 1.2-.1 1.5.6.3.7 1.4.1 1.9.4.5.3-1.1.7.5 3.5 1.6 2.9.5 1.2.5 3.2 0 1.9 1 1.1 1.3.7.3-.3 1.2.6 2 1.6s2.4 1.1 2.4 1.6c0 .6.3 1.7 1.4 1.9 1.1.2 1.2 1.4 1.9 1.5.7.1.8.9.4 1.7-.4.8 0 1.5 1.7 2.2 1.7.7.9.8 2.3 2.1s5.2 5.5 6 6.7c.8 1.2 1.1 2.2 1.4 3 .3.9-.6 1.3-.1 2.1.5.7-.9.4-.9 1 .1.6.9 3.4 2.2 3.5 1.4.1 2.9 1.8 4 2.7 1.1.9 2.8.7 4.5 1.4 1.7.6 3.1 2.1 5.5 2.8 2.4.7 4.8 1.7 6.3 2.7 1.6 1 3.5.6 5.7-.3 2.2-.9 3.9.2 5.1.7.6.2 1.8 1.3 3 2.3 1.2 1.1 2.5 2.2 3.1 2.6 1.2.7 3.1-.1 3.9.7 0 0 .1 0 .1.1.9.7 4.5 1.9 5.5 1.9.5 0 .7-.2.9-.4.2-.2.4-.3.8 0s.3.7.3 1.1c0 .4-.1.8.4 1.1 1 .6 2.4 2.7 3.4 3.3.5.3.8.7 1 1.1.1.5.1.9-.2 1.1-.6.4-.6 1.9.7 2.4 1.4.6.9-.3 1.6-.3.7 0 .6 1.1 1.2 1.1s2.1.7 2 1.7c-.1 1 .5 1.4 1.6 1.4.2 0 .4 0 .7.1 1.2.2 2.8.7 3.6 1.6.9 1.1 1.5.4 2.1 1.4.6 1 1.9.1 2.2-.6.3-.6-.7-.9-.8-1.6-.1-.7 1.2-.4 1.5-1.4.2-.9 2.2-1.4 3.1-1 .9.4 1.6 1 .8 1.9-.6.7.6 1.9 1.7 2.9.4.3.7.6.9.9.9.9.3 1.7.6 2.2.2.5.5 1.2 0 1.6-.5.3-.1 3.7.5 4.4.6.6 0 1.2-.6 2.4s-1.2 1.8-2.3 1.9c-1.1.1-1.1 1.8-1.4 1.8-.3 0-.5.6-.6 1.2 0 .1 0 .3 0 .4.1.6-.9.9-1.9 1-1.1.1-.9 1.2-.9 2.1 0 .8-.9.8-1.2 1.7-.4.9.1 1.1-.7 1.5-.9.4-1.1 1.2-.6 1.9.5.7-.1 1.4-.2 1.9-.1.4.7.6 1.6 1.4.9.8 1-.3 1.4.3.4.6-.2 1.7-1.2 1.7-.1 0-.2 0-.2 0-.9.2-1.9 1.5-2.3 2.4-.5 1.1.9 3.1 1.1 3.9.2.7-.7.1-.9.7-.1.7 2.1 1.7 3 2.4 1 .7 1.9 2.9 2.8 3.9.9 1 1 1.9 2 4.3s3 6.5 4.4 8.3c1.4 1.7 2 3.1 1.7 3.6-.3.5.1 1.9 1.1 2.5 1 .7 1.8 1.8 4.4 3.1 2.6 1.3 7.4 3.8 8.1 5 .7 1.2 2.9 2.3 3.4 2.5.1.1.2.3.2.5 0 .7-.2 1.8 0 2.5.4.9.6 5.5.2 7.2-.4 1.7-.7 3.2-1.1 4.2-.4 1.1.9 1.1.4 1.6s-.3 1.7-.3 3.7-1.2 5.3-1.2 6.4c-.1 1.1-.9 1.7-.7 2.9.1 1.2-.6 1.9-1.2 2.4-.7.6 1.1 2.4 1.1 3.4-.1 1-1.4 1.4-1.1 3 .4 2 0 5.5 0 6.2 0 .7-.8.6-.6 1.9.2 1.3-.8 1.6-1 3.5-.2 1.9-1.6 4.5-2.2 6-.6 1.4-.6 2.2-1.3 2.2-.7 0-.9.8-.4 2.1.6 1.2-.4 2.3.4 3.5.7 1.2.5 1.7.1 2.9s-.9 1.2-.9 2.4c0 1.1-.9 2.1-.4 3.3.5 1.2.4 1.7-.2 1.7-.6 0-.9 1-1.2 3-.2 2.1-.2 2 1.3 1.9 1.5-.1.3-5 1.2-5 .9 0 .1-.8 1.1-1.1.9-.2.1.9.7 1.1.6.2 1.1.7.2 1.2-.9.6.2 1.7-.2 2.4s-1.1 1.4-.7 2.2c.4.8-.4.7-.5 1.8-.1 1.1.6 1.1.1 1.4-.4.2.6 1.1-.1 1.2-.6.1-.2.9.1 1.7.4.7-.8.3-1.4.8-.6.5.6 1.2.2 1.9-.4.7-1.4-.4-1.8-.7-.4-.4.7-1.1 1.2-1.9.6-.7-.6-2.4-1.5-2.1-.9.4.9 1.4.9 2.2 0 .8-1.6-.2-1.5.7.1.9-1.1.6-1.6 1.2-.6.6.7 1.2.1 1.4-.6.2-1.7 1.1-1.7 1.7-.1.6.7.7.7.1s1-.8 1.3 0c.3.8.7 0 1.6.2.9.2.7 1.5.2 1.4-.5-.1-1 .8-.9 1.7.1.9 1.9 0 2.6.3.7.2.5 1.6.1 1.1-.4-.4-1.4-1.2-1.9-.4-.4.7-1.1.4-1.7.1-.6-.2-2.6 1.1-1.9 1.6.7.5.6 1.3 1.1 1.2.4-.1 1.1-.4 1.4-.9.2-.5 1.1-1 1.2.1.1 1.1-1.2.6-1.4 1.2-.2.6-.7 1.1-1.5 1.7-.7.6 0 1.5.6 1.2.6-.3-.2.7.7.9.8.1 1.1-.5.9-1.1-.2-.6.4-2 1.2-1.3.7.7-.4 1.4-.4 2 0 .6-.4 1.4-.4 2.1 0 .7-.8.3-.7 1.1.1.7-1.7.2-.9.7.8.5-.5 1.2-.1 1.7s.8-.7 1.5-.4c.7.2.6.4 1.4.1.9-.4 1.4.7.6.9-.8.2-1.7 1.2-1.3 1.3.4.1 1.4-.6 1.7.2.2.8.9.6.9-.3.1-.9 1.6-.1 1.8.6.2.7-1.6 1.2-2.5 1-.9-.2-1.4.9-.8 1.7.6.8 1.4 0 2.1-.7.7-.7 4-.5 4.3.2.2.7-1.6.1-1.7.6-.2.4-1.6.8-1.7.3-.2-.5-1.5.2-1.6 1-.1.8-1.1.8.1 1.1 1.1.3.8-1.2 2.6-1.1 1.7.1 2.7-1.6 3.2-.6s-1.4 1.8-2.1 1.2c-.7-.6-1.5.4-1.4 1.4.1.9-2-.2-3-.4-1-.1-.6.9.3 1.9.9.9 1.4-.1 2.4.6 1.1.7 1.1 1.4 1.8.7s0-.6-.5-.9c-.5-.3-.1-1.4 1.1-.8 1.2.6 2.6-.5 2.2-2-.4-1.5 1.1-2.2 2.5-2.7s.7.9-.4 1.4c-1.1.4-1.2.7-.4 1.6.8.9 1.9-.6 2.6.1.7.7-1.2.6-1.6 1.2-.3.7 1.2 1.5.1 2-1.1.5-.6-2.1-1.2-2.3-.6-.2-1.2.3-.6 1.7s-.7.2-1.4-.5c-.6-.7-1.5.3-.7 1.1.7.7-1.4-.1-1.4 1.1 0 1.2.9.2 2.1.4 1.1.2.6 1.9 1.4 2.5.8.6.1-2 1-2.2.9-.2.1 2 2 2.6 1.9.6.1-.4 1-1s2 1.9 2.9 2.1c.9.2.3-1.1-.4-1.9-.7-.7.7-.3 1.6 0 .9.3 1.7.4 1.9-.2.1-.3.2-.3.5-.2.4.1.9.4 1.3 0 .6-.7 2.5-.3 3.5-.9 1-.6-.3-.8-1.9-.9-1.6-.1-4.6-2.9-5.5-3.7-.9-.7-.2-1.5-1.4-1.3-1.1.2-.4-.9.2-1.2.6-.3-.2-1.3-1-1.5-.1 0-.1 0-.2 0-.8 0-2.6.2-2.3-1.1.1-.2.2-.3.3-.4.7-.3 2.3.7 2.7.4.4-.4-1.6-2.1-1.5-2.6.1-.6-.3-1.5-.3-2.1 0-.6-.3-2 .6-2.6.9-.6.9-1.2 1.5-1.1.6.1 1.7-.5 1.7-2 .1-1.5.7-2.1 2-3.1 1.4-1.2 3.6-2.2 3.3-2.7-.3-.5.5-2.1.5-2.7 0-.6-2.1-.5-2.8-.7-.7-.2-3.2-2-1.9-4.3 1.2-2.3 3.9-2.6 4.6-2.6.7-.1.1-1.1.7-1.5.6-.4.7-1 .7-1.9 0-1.1 0-2.7 1.1-2.9 1.1-.1 1.4-.7.7-.9-.7-.2-1-1 .1-1.1 1.1-.1.7.9 1.6.9.8 0 2.2-1.4 1.1-2.2-1.1-.8-1.4.4-1.9.5-.6.1-1-.7-1.6-.7-.6 0-.2-1.6-.4-2.1-.2-.6-.6-1.9-.1-2.6.5-.7 2.6 1.1 4.5 1.2 1.9.1 3.2-.9 3.2-1.6 0-.7-.9-1.9.2-2.7 1.1-.7.2-1-.1-2-.3-1 .5-1.6 1-1.1s4.2.2 7.2-.4c3-.6 5.2-1.7 5.4-2.6.2-.9 2.1-2.9 2.6-3.7.4-.7.1-1.7-1.2-1.9-1.2-.2-1.2-1.6-.5-2.4.7-.8-.4-1.6-1.6-1.7-1.2-.1-3-.9-2-1.9.5-.5.8-.4 1-.2.3.2.5.6 1.1.5 1.1-.1 2.2.3 3.6.9 1.4.6.9-.2 2.2 0 1.3.2 2.8.3 4.2-.6 1-.6 1.5-1.6 2.2-2.6.4-.5.8-.9 1.3-1.3 1.7-1.2 1.3-2 2.1-3.5s.1-2.1 1.5-3.4c1.4-1.3-.2-2.2 1.5-3 1.7-.8 1.5.7.1 2.5s-1.7 2.3.2.9 2.6-3.3 3.6-5.5c1.1-2.2 1.9-2.9 2.8-3 .9-.1.9-2.4.8-4-.1-1.6-.6-3.1.1-4.2s0-2.1.9-2.1 2.2-1.3 3.5-2.7c1.4-1.4 2.2-1.5 3.7-1.6 1.4-.1.6-.6 1.6-.9.9-.2 1.6-1.1 2.2-1.7.6-.6 3.2.1 4.7.1s2.5.1 2.5-.8.7-1.7 1.6-1.7c.9 0 1.2-.2 1.2-1.5 0-1.2.4-2 1.1-2.5.7-.6.9-1.8 1.1-2.6.2-.8 1.1-.3 1.1-1.5s.4-2.5.4-3.4c0-.9 1-.8 1.4-1.5.4-.7-.4-1.6.3-3.5s0-3.7 0-5.5c0-1.7 0-3.5.6-4.1.6-.6.3-.9-.2-1.1-.5-.2.1-.9.5-.8.4.1.9 1.1 1.7.6.8-.5 1.6-2.6 2.2-4.4.7-1.7 1.8-1.7 2.7-2.1.9-.4 2.7-2.5 3.9-5.5 1.2-3-.1-6-.6-8.1-.4-2.3-1.1-1.9-2.4-1.8zM254.6 188.2c1.9.2 3.2-1.1 3.9-.3 0 0 .1.1.1.2.9 1.6-2.4 2.6-5.5 2.7-1 0-1.7.1-2.2.2-1.2.2-1.7.3-2-.6-.5-1.2 3.7-2.4 5.7-2.2zm-4.4 4.4c0 .1 0 .2 0 .3-.5 1-4.3 2.8-6.4 3.9-2.4 1.2-5.6.6-5.6-1.2 0-1.9 1.7-1.5 2.1-.6.1.3.6.1 1.1-.3.9-.7 2.3-1.9 3.5-1.8 1.9.1 2.4 1.2 3.6.4 1.2-1 1.5-1.4 1.7-.7zM236.7 181c0-.1.1-.3.3-.3.8-.3 2.9.1 4.3.6 1.7.6 4.4-.7 5.2 1.4.9 2.1 2.9 3.7 1 3.9-1.6.1-3.7-2.1-3.6-.9.1 1.2-.9.6-.9 2.5s-1.2 4.5-2 4.4c0 0 0 0-.1 0-.7-.3.4-3.1-1-3.6-1.5-.5-3.2 2.1-3 .5.2-1.6 2.5-3 1.1-5.1-1.4-2.1-3.9-2.1-4.4-.5-.5 1.6-2.2.9-2.9 2.1-.6 1.2-1.2 4-.7 6s-.1 3-2 4.1c-1.9 1.1-2.8-1.7-2.1-5.3.5-2.5 1.9-4.8.6-4.8-1.2 0 1.6-3 4.2-3.6 2.7-.9 6-.7 6-1.4zm-17-6c.5 0 1-.2 1.4-.6 1.4-1.1 2.4-3.4 3.7-3.4 1.6 0 5.7.4 6 2.5.2 2.1 2.7.1 3 2.1.2 1.7 1.9 3 1.6 3.9 0 .2-.2.3-.3.4-1 .7-.7-1.1-2.6-1.1-1.9 0-3.7 1.7-5.2 1s-.7-1.7-2.1-1.7c-1.4 0 1-2.6-1-1.5s-5 3.9-6.3 2.6c-1.4-1.2-2.6.4-3.6-.6-1.2-1 3.3-3.7 5.4-3.6zM142 100.2c-1.6 2-2.2 2.3-3.9 2-1.7-.3-2.7.5-1.9 1.1.8.6.9 1.1-.8 1.5-1.7.4-2.9 1.7-3.6 1.6-.7-.1 3-2.8 2-3.5-.9-.7-3.3 1.2-3.3 2s-1.6.9-2.5.8c-.9 0-2.2-.9-1.2-1 .9-.1.3-1.1 1.6-1.6s-.2-1.2.1-1.8c.4-.5 3 .5 3.1-.4 0-1-2.6-1.8-3.5-1.2-.9.6-3 2-5.4.9-.8-.3 6.2-1.1 7.4-2.2 1.2-1.1 6.5-2.3 6.9-1.3.4 1-2.9 1.6-1.3 2.5 1.6.9 4.2.3 4.8-.6.6-1 3.1-.9 1.5 1.2zm15.8 19.9c-1.9 1.7-1.8 1.2-3.5 1.5-1.7.3-.3 2-2.4 2.1-2 .1-6.9.3-7.6-.8-.2-.4 2.7-.1 2.9-.9.2-.8 1-2.2 2.2-2.2 1.2 0 1.1-1.6-.9-2.6s2.9-1.6 4.1-.1c1.1 1.6 3.2 2.7 4.3 1.6 1.1-1.1 7.6-4.3 7.6-2.8 0 1.6-4.8 2.6-6.7 4.2zm36.7 34c0-1.6 2.5-2.4 3.5-1.1 1 1.2 2.5 6.3 3.4 8 .9 1.6.9 4.2-.2 4.4-1.4.2.1-3.6-2.4-5-3-1.7-4.3-4.6-4.3-6.3zm23.3 116.7c.7 0 2.4.1 3.6 0-1.2 0-2.9 0-3.6 0zm42.4 51.5c0 .1.1.1.1.1s0 0 .1.1c-.1-.1-.2-.1-.2-.2zm14.4 11.2c.6-.1 1 .2 1.5.2-.4 0-.9-.3-1.5-.2zm1.2 19.5c.4-.1.9-.1 1.3-.1-.4 0-.9 0-1.3.1zm8.4 34.1c-.1.1-.1.1 0 0-.1.1 0 0 0 0zm35.8 8c.1-.6.3-1.3.4-2-.1.6-.3 1.4-.4 2zM817.5 346.4c1.5-.1 3.2-.5.9-.8-2.2-.3-3.7 1.3-6 .5-2.2-.8-5.6 0-5.2.7.3.7 2.3.7 4.6.8 2.2.1 4.2-1.1 5.7-1.2zM284.5 269.6c1.1 1.7 4.3.7 4.6 0 .5-1.2-5.8-1.7-4.6 0zM568.3 218.1c-.1-.5.5-1.4 1.5-1.8 1-.4.6-1.1 0-.5-.6.5-2.1 1.1-4 1.2-1.9.1-2.5 1.3-1.3 2 1.5.9 3.9-.4 3.8-.9zM506.9 148.2c-.7-.2-.3 1.1.7 1.2 1 .2 2.2-1.8 2-2.3-.1-.5 1.1-2.8.7-3-.3-.2-.6.6-1 .7-.4.1-.8-1.6-1-.7-.2.9-1-.4-1.8.8-.8 1.2.5 2.2 1.1 2.6.6.3 0 .9-.7.7zM527 136.5c-1.6 0-2.3 3.1-1.9 3.6.3.4 3.5-3.7 1.9-3.6zM484.1 203c-.2-1.4-3.1.4-2.4.8 1.2.9 2.6.6 2.4-.8zM547.3 217.1c0-.4-1.1.2-1.7-.1-.7-.4-3.7.2-4.4-.5-.8-.7-2.4.6-1.7.7 1 .2 2.5 1 4.1 1.1 1.5 0 3.7-.8 3.7-1.2zM497.7 199.3c-.5.8 1.4 2 1 3.6-.4 1.6.2 3.6 1.2 2.7 1-1 1.4-.5 2-1.2.5-.7.1-3.3.5-4.6.4-1.2-1.7-1.8-2.6-1-1 .8-1.8-.2-2.1.5zM500.7 197.1c1.2-.2 1-5.2.6-5.2-.5 0-.6.8-1.7 1.5-1.2.7-.1 3.9 1.1 3.7zM515.8 208.2c-1.7.4-2.4.5-3.4 0s-2.6.5-2.4 1.1c.2.5.8 1 2.9 1.6 2.1.5 2.3 1.9 3.2 2 .9 0 1-.8.7-1.9-.2-1.1 1-2.4 1.2-2.6.1-.3-.5-.6-2.2-.2zM253.8 249.3c-.6-1-1-.3-1 .8s.9 1.2 1 1.9c0 .6.9 1.5 1.1 1.1.3-.6-.7-1.2-.8-1.7-.1-.5.3-1.1-.3-2.1zM776.4 320.4c1.2 1.2.9 3 1.5 3.9.6.9 2.4 1.1 2.4 2.8 0 1.7 1.6 4.5 2.7 3.7 1.1-.7 1.9.3 2.2 1.1.3.7 2.9-.6 3.7-.4.8.2 3.4.7 3.6 1.7.2 1 2.5-.1 4.1-.7 1.6-.6.7-5.3 2.2-6.2 1.5-.9 1.8-2.7 1.7-4.3-.2-1.7 3.7-1.7 4.2-2.4.6-.7-.8-1.7-1.9-2.2-1.1-.5-.2-1.6-.9-2.2-.7-.7-2-2.4-.9-2.5 1.1-.1-.7-1.6.2-2.1.1-.1.3-.1.4-.2 1-.5 2.4-1.1 1.7-1.7-.7-.7 2.2-.1 2.6-1.1.3-1-1.2-1.8-1.9-1.7-.7.2-2.5.1-2.5-.7 0-.7-1.6-2.2-2.6-2.2s-2.2 2-2.2 2.8c-.1.8-1.7.7-1.5 1.9.1.5-.2.7-.6.8-.6.2-1.4.2-1.4.6 0 .7-1.3-.3-1.9-.3 0 0 0 0-.1 0-.7 0-2.2 2.3-2.5 3.9-.3 1.6-1.8 1.1-4.1 1.2-2.2.2-1.3 2.5-1.8 3.6-.5 1-2.9-.8-4.2-1-.1 0-.2 0-.3 0-1.1.1-2.9 2.9-1.9 3.9zM807.8 275.7c-.2.7.1 3.8.7 3.8.7 0 1.2.8.7 2.2-.4 1.3 1.2 1.5 2.8.9 1.6-.6 1 1.1 2.6.8 1.6-.3 3.7 1.7 3.4 2.5-.3.7.1 3.1.8 2.5.7-.7 1.9.2 1.2 1.2-.7 1.1 1.2 2.2 1.4 3.5.2 1.3 1.1.2.9-.7-.2-1 .2-.9 1.2-1.7 1.1-.7-.1-2-.7-3.4-.7-1.4-3.2-.9-3.2-2.2 0-1.3-1.8-1.7-1.9-2.5-.1-.7-2.5-1.5-3.9-.7s-.4-1.5-1.4-2.6c-1-1.1.7-2.7 1.9-4 1.2-1.3-.3-3.6-.2-4.6.2-1 .1-1.3-.5-1-.6.3-3-1-4.1-.3-1.1.7-.1 6.1-.6 6.6-.3.4-.9-.9-1.1-.3zM781.2 268.4c.1-1 1.7-2.6 1.5-3.3-.2-.6-2.4-.2-3.5-.2s-3.8 1.6-2.7 3.8c1.1 2.2 4.6.7 4.7-.3zM774.8 330.3c0-.7-2.1-.4-1.5.7.7 1.1 1.5.1 1.5-.7zM791.9 346.3c.6-.8 1.7 1.3 3.3.1 1.7-1.2-2.7-.7-2.8-1.7-.1-1-3.3-.1-4.9-.7-1.6-.7 1.7-1.2 2.8-1.9 1.1-.7-.7-.9-3.3-.1-2.7.8-5.7-1.8-5.8-.7-.1 1.2-4.8-.5-6-1.3-1.2-.8-5.6-1.9-6.6-.3-.9 1.6-1.7.2-1.3 1.7.2 1 1.3.4 2.1.4.7 0 .4 1.4 1.5 1.6 1.1.2 4.6 1.2 5 .4.3-.7 3.7 0 5.3 1.3 1.7 1.3 5.5 1.4 7 1.2 1.5-.4 3.1.9 3.7 0zM810.4 258.4c.8-.6 4.2-7.7 3.5-8.7-.7-1-4.1.6-5 3.9-1 3.3 1.2 5 1.5 4.8zM800.8 345.4c-.3.7-1.7.9-2.6.3-.8-.6-1.9.8-1.3 1.5.2.3 2 1.7 4.1.7 2.1-1 3.5-.1 4-1.2.5-1-3.9-2-4.2-1.3zM807.5 350.7c.6.5 2.7 1.6 2.7.2 0-1.4-5.7-2.2-5.1-1.4.4.7 1.8.7 2.4 1.2zM667.2 472.4c-.4-.8-3.4 2.1-1 3.2 1.1.5 1.6-.6 2.3 0 .7.6 2.2.4 2.4-1.1.3-1.5-3.4-1.3-3.7-2.1zM611 355.9c-.4-1.4-.7.5-1 .8-.3.3-.5 1.3-.4 2 .1.7-1 1.3-1.7 1.2-.7-.1-1.7.3-1.4 1.2.3.9-.5.7-.1 1.5.4.7-.9 1.7-2.1 1.7-1.2.1-2.7 2.2-3.9 2-1.2-.2-2.5.8-3.6.7-1.1-.2-.3 2.2-1.2 3.7-.8 1.5-.4 3.2.3 5.1.7 1.8 1.3 3.3-.7 5.7-2 2.4-1.8 5.1-1.1 6.7.7 1.7.7 4.1 1.8 5.3 1.1 1.2 4.1 2.2 5 1.2.9-.9 1.9.1 2.9-1.1 1-1.2 2.7-7.5 4.1-11.8 1.4-4.2 3.2-9.8 3.1-10.9-.2-1.2 1-1.9.5-3.2-.5-1.2.2-2.7.7-1.7.6 1 1.4 1 1.7-.3.2-1.3-1-3.4-1.1-5.3.1-1.8-1.5-3.6-1.8-4.5zM623.2 286.6c.9 1 2.8-.2 2.9-.5 0-.4-4-.6-2.9.5zM431.8 109c1.6-.1 1.6-1.9 2.2-1.8.7.1 1.7-1.2 2.2-2.1.4-.8-.5-2.3-1.5-2.3s-1.7-.8-1.5-1.4c.2-.6-.5-1.3-.5-1.7 0-.4-1.2 0-1.9.1-.7.2-2.1-1.6-2.7-1.3-.6.3-.2 1.2-.3 1.7-.2.5-1.7-.5-1.7.1s-.6.7-1.1 0c-.5-.6-1.7-.2-1.6.2 0 .5-.5.1-1.5-.5s-2 .7-1.9 1.3c.1.6-.3.8-1.1-.6s-1.7.1-1.3.9c.4.7.2 1.7-.4 1.3-.6-.4-1.5.2-1.8.8-.4.6-1.7-1.7-.7-2.2 1-.5-3-2.8-4.3-2.8-1.2 0-.4.9.4 1.6.8.7-.6.5-1-.1-.5-.6-1.3-.1-1.8.7-.5.8-1.3 1.3-1.4 1.9-.1.6 1.4 1.2 2.7.7 1.3-.5 2.7-.6 3.4 0 .7.6-1.2.9-.5 1.4.7.5.1.9-1.5.8-1.6-.1-3.5.3-3.2.9.3.5 4-.5 4.1.1 0 .5 0 1.5 1 1 1-.4.3.7.8 1 .5.2.4 1.2-1 1.3-1.3.1-2 .3-1.4.9.7.7 2.2.2 3.6-.1 1.4-.3 3.4 1.4 5.1 2 1.7.7 4.5-.2 4.9-1.1.3-.9 2.6-.5 3.5-1.2.8-.7 2-1.4 3.7-1.5zM412.2 80.8c-1.1.6-3.3.7-5 .2-1.7-.4-4.3-1.8-6.2-.7-1.9 1.1-.7-1.6.8-1.8 1.6-.2.9-1 .5-2.7-.4-1.7 2.7-.6 4 1.3 1.3 1.9 3.9 2.7 6.1 2.1 2.2-.7.1-2.5 1-3.7.9-1.2-6.9-5.1-7.3-6.5-.4-1.3 2-.4 4.2.5s2.7-1.7 2.7-2.9-4.6-1.2-6.7-.1c-2.1 1.2-4.1-1.5-1.2-1.8 2.8-.3.2-1.5 1.1-2.3.8-.8 4.4 2.4 6.2 1.8 1.8-.6 3.2.1 4.7-1.2 1.6-1.2-2.8-2.4-3.7-3.5-.9-1.1 4.6-.7 6.2-.6 1.7.1 2.1-2.4.7-1.9-1.3.5-6.1-1.7-5.1-3.1 1-1.5 2.8.2 4.9-.8 2.1-1.1.2-5.1-1.3-5.1s-5-.5-5-1.2-2.9-1.4-2.1-2.2c.8-.7 1.9.9 3.8-.5s5.9.3 7.6 0c1.7-.3-.7-3.6-1.7-3-1 .6-4.4.7-4.6-1-.2-1.7 3.2 0 3.8-.8.6-.8-4.8-3-5.6-1.2-.8 1.7-3.8 1.2-2.2.2 1.6-1 1.9-3.8 1.7-5.2-.2-1.4 5.6-1.5 5-3.8-.7-2.3 2.7-2.8 4.6-2.8 1.9 0-.1-2.5-1.9-2.2-1.8.2-3.7 2.3-4.6 1.5-.9-.8 2.2-2.3 3.8-2.3 1.7 0 5.6-.2 7.1-1 1.4-.8-2.5-1.6-5.1-1.2-2.7.3-2.7-.8 1.3-.9 4-.1 3.3-.9 6.1-1.2 2.8-.3 1.9-1.5 3.7-1.6 1.7-.1 6.3-2 6.3-2.9 0-.9-6.6-2.7-9.6-2.7-3.1 0-5.6.5-5.7 2.7-.2 2.2-4.1-.4-5.7.3-1.7.7-.8-1.7-2.5-.9-1.7.8-3.5 2.8-5.5 3.6-2 .8-3.5 2.9-4.7 3.1-1.2.2 2.7-3.8 4.6-5.8 2-2 .9-4.3-1.7-4.1-2.7.2-2.1 1.9-3.6 2.2-1.5.3-8.6 3.9-9 2.8-.3-1.1 5.9-2.9 5.8-3.6-.1-.7-7.9-.8-11.4-.3s-9.6 2.5-9.7 1.5c-.1-1 7.1-2.4 10.8-2.8 3.7-.4 10.4.2 13.2-.9 2.8-1.2 7.1-1.2 7.8-2.2.7-.9-3.2-2.2-5.2-2.1-2 .1-4-.2-3.8-1.2.2-1-3.1-1.2-3.4-2-.3-.7-6.6-.2-7.9-1-1.3-.8-5.2-1.2-8.5-1-3.3.2-10.1.2-11.7.3-1.6.2-2.6.7-4 .7-1.4-.1-3.6.4-2.7 1.3 1.5 1.7-2.2 2.3-2 1.1.2-1.2-3.2-1.8-4.3-.9-1.2 1-6.8-1.1-7.6 0-.8 1.1-7.4.7-9.3 1.1-1.9.3 3 1.7 2.8 2.6-.2.8-6.2 0-5 1.5 1.2 1.5 5.2 2.6 7.1 4.5 1.9 1.9-1.5.7-3.7-.7s-4.9-.9-6.2-2.3c-1.3-1.4-6.3-2.5-7.6-1.7-1.5 1 3.4 2.8 3.4 3.9s-3.3-.2-3.9.2c-.6.4-3.5-2.8-5.1-2.8-1.7 0-.2 1.5-.2 3.6s-3.2 3.3-2.3 1.9c.9-1.4.2-5.1-1.5-5.7-1.7-.7-6.2 1.4-8.5 1.3-2.3-.1-5.4.7-3.4 1.8 2 1.2-.1 1.8-1.8.6-1.7-1.2-7.5 0-6.3.8 1.2.8 1.6 3.2.8 4.2-.7 1-3.2-1-5.4-.8-2.2.2-13.4 5.5-12.7 6.9.7 1.4 5.4.2 6.9 1.1 1.5.8-.5 3.9-2.3 5.1-1.8 1.2-8.6.1-8.8 1.6-.2 1.5-10.7 1.7-10.7 4.1 0 .9.5 1.8 1.7 2.1 1.5.3 3.3-.2 4.6 1.3 1.3 1.5 5.1 1.6 7.6.6 2.6-1 4.5.2 4.4 1.7-.1 1.5-5.8-.6-7.6.5-1.7 1.1-7.1.2-6.9 1.3.2 1.2 2.9.9 5.1 1.3 2.2.4.2 1.3.1 2.2-.1.9 1.2.7 3.3 1.8 2.2 1.1 5.7 1.7 4.6.5-1.2-1.2 2.2-1.1 2.8-.3.6.7 2.2-1.1 3.7-.7 1.6.4 2.2-1.5 3.4-.7 1.2.8 7.1 1.3 9 2.4 2 1.1 4.7 1.3 4.5 2.9-.2 1.6 1.7 2.7 3.9 3.7s2.7 3.2 2.6 4.6c-.1 1.4 2.4 2.4 2 3.1-.4.7-.1 1.6 1.4 2.9 1.5 1.3-2.3 2.3-1.4 3.5.9 1.2-1.3 3.4 1.3 3.8 2.7.4 2.2-1.8 4.2-1.8s-.1 1.7 1 2.8c1.1 1.1 3.3.8 5.4 2.6 2.1 1.7.7 2.6-1.2 1.2-1.9-1.4-7.5-1.1-7.5-.6 0 .5 6.1 4 7.6 3.5 1.4-.5 3.3 2.1 2.5 2.9-.8.8-.4 2.9-.6 3.9-.2 1-2.2 0-3.6.2-1.3.2-2.2.6-2.2 2s-2.1 2.4-2.3 4.1c-.2 1.7 1.7 1.7 2.7 2.4 1.1.7-2 1.2-2.2 2.5-.2 1.2 2.8 3.5 3.9 4.1 1.1.6.1 3.4.5 4.8s1.8-.3 1.7 1.5c-.2 1.8 1.3 1.7 1.4 2.8.1 1.1 2.7.9 2.2 2.4s.7 2.6 1.3 3.4c.6.8 2.7 2.2 3.2 3.3.4 1.1 1.7 2.5 3.2 2.1 1.5-.4 1.6 1 2.7.8 1.2-.2 3 .5 3.3 1.4.3.9 3.9 1.7 4.9 1.9 1 .2 1.2-1.7 2.1-2.2.9-.5.6-4.1 1.4-4.4.8-.2.6-4.1-.2-4.4-.8-.3-.5-1.7 1.4-1.4 1.9.2 1.2-1.7 2.2-1.9.9-.2.5-2 1.2-2.2.7-.2.6-1.3.1-2s.1-1.2 1.1-1.3c1-.2.7-1.6-.6-2.1-1.3-.5-.9-2 .4-1.1 1.3.9 2.3.2 1.6-.7-.7-1 .9-1.5 2.7-1.7 1.7-.2 2.7-1.1 2.3-2.4-.3-1.3 2-1.2 1.4-.1-.6 1.2-.2 2.3.6 1.5.8-.8 2.4-.2 5.2-1.1 2.8-.8 5.6-3.1 6.2-5.4.7-2.2 3.9-2 3.5-3.5-.4-1.5.6-2.1 2.7-1.1s.4-.7 2.7-.7c2.3 0 1.9-.8 4.2-.9 2.2-.1 8-1.1 10-2.7 2-1.7 6.2-3.1 8-4.1 1.3-1.3 1.8-2.2.7-1.6zM768.4 334.5c-.1-1.2.4-2.3.4-2.9 0-.6.4-.8 1.2-.7.7.2.7-1.6.1-1.7-.6-.2-.9-2.2-2.3-2.2s-1.2 1.2-.3 1.2c.8.1 1.3.7 1.1 1.3-.2.6-.6-.6-1.7-.5-1.2.1-.4-1.4-1.7-1.5-1.3-.1-1.1-2.5-2.5-2.5s-1.5-1.2-.6-2-1.4-1.6-1.4-2.6-1.5-.4-1.5-1.2c0-.8-.7-.4-1.4-1.4-.7-1-1.1-.1-1.7-.8-.7-.7-1.6-1.2-2.2-.9-.6.3-1.9-1.1-2.4-2.4-.4-1.1-4.2-2.8-4.7-4.2-.5-1.4-1.8-2-4.1-1.9-2.2.1-3.1-2.2-3.7-1.1-.7 1.4 2.4 4.6 3.8 5.4 1.4.8 2.2 3.8 3.8 4 1.7.2 1.8 5.4 3.1 5.6 1.2.2 3.9 4.3 4.3 6.5.4 2.2 3.2 3.2 4.1 4.8.9 1.6 4.6 3.7 5.1 4.4.5.7 1 2.2 1.4 1.4.4-.7 2.2 0 3 .1.6 0 .8-3.1.8-4.2zM267.2 270c1.7-.6 2.9 0 3.9.5.1 0 .1.1.2.1 1 .5 1.2-.5 3.5-1.2 2.2-.7 5.9.6 5.9-1.1 0-1.7-6-3.6-7.5-3.1-.4.1-.9.1-1.5-.1-1.6-.4-3.5-1.4-4.4-.8-1.2.9 1.9 2.7 1.9 3.9s-5-.2-5.5 1c-.4.6 1.6 1.4 3.5.8zM747.7 325.3c-.2.4.7 2.1 1.3 1.6.6-.6-.8-2.9-1.3-1.6zM699.2 294.7c-.7.1-.6 1.6-1 2.7s-.3 2.2-.2 3.7c.2 1.6 0 3.2 1.4 4.1 1.6 1 4.2-1.7 4.3-4 .2-2.3-3.8-6.6-4.5-6.5z"/></g></svg>