<?xml version="1.0" standalone="no"?>
<!DOCTYPE svg PUBLIC "-//W3C//DTD SVG 1.1//EN" "http://www.w3.org/Graphics/SVG/1.1/DTD/svg11.dtd" >
<svg xmlns="http://www.w3.org/2000/svg">
  <metadata></metadata>
  <defs>
    <font id="futura_today_screenlight" horiz-adv-x="1278">
      <font-face units-per-em="2048" ascent="1674" descent="-374"/>
      <missing-glyph horiz-adv-x="434"/>
      <glyph horiz-adv-x="0"/>
      <glyph unicode="&#xd;" horiz-adv-x="434"/>
      <glyph unicode=" " horiz-adv-x="434"/>
      <glyph unicode="&#x09;" horiz-adv-x="434"/>
      <glyph unicode="&#xa0;" horiz-adv-x="434"/>
      <glyph unicode="!" horiz-adv-x="598"
             d="M207 80q0 41 25.5 66.5t66.5 25.5t66.5 -25.5t25.5 -66.5t-25.5 -66.5t-66.5 -25.5t-66.5 25.5t-25.5 66.5zM246 754v684h106v-684l-20 -404h-66z"/>
      <glyph unicode="&#x22;" horiz-adv-x="559" d="M104 1438h123l-24 -459h-74zM331 1438h123l-24 -459h-74z"/>
      <glyph unicode="#" horiz-adv-x="1368"
             d="M186 479v92h244l53 295h-215v92h234l88 480h102l-88 -480h250l88 480h102l-88 -480h226v-92h-244l-53 -295h215v-92h-234l-88 -479h-102l88 479h-250l-88 -479h-102l88 479h-226zM532 571h250l54 295h-250z"/>
      <glyph unicode="$" horiz-adv-x="1016"
             d="M43 274l88 56q25 -45 56.5 -90t74.5 -81t96.5 -59.5t120.5 -25.5v661q-67 27 -129.5 61.5t-111 81t-76 104.5t-27.5 134q0 72 25.5 133.5t71.5 107.5t108.5 73.5t138.5 33.5v219h90v-221q113 -14 196 -74.5t130 -146.5l-88 -61q-35 61 -93.5 112t-144.5 66v-549 q70 -29 137.5 -66.5t120 -88t84 -117t31.5 -154.5q0 -80 -27.5 -150.5t-77 -124t-118 -88t-150.5 -45.5v-221h-90v217q-80 4 -148.5 30t-123.5 68t-96 94t-68 111zM246 1120q0 -55 18.5 -97t50 -75t73.5 -57.5t91 -44.5v516q-104 -10 -168.5 -75.5t-64.5 -166.5zM569 78 q113 20 187.5 100t74.5 203q0 61 -20.5 109.5t-56 85t-82.5 66.5t-103 54v-618z"/>
      <glyph unicode="%" horiz-adv-x="1323"
             d="M74 1167q0 62 23.5 115t63.5 93t95 62.5t117 22.5q61 0 116.5 -22.5t95.5 -62.5t63.5 -93t23.5 -115q0 -61 -23.5 -114.5t-63.5 -93t-95.5 -62.5t-116.5 -23q-62 0 -117 23t-95 62.5t-63.5 93t-23.5 114.5zM172 1167q0 -86 57.5 -143t143.5 -57t143 57t57 143t-57 143.5 t-143 57.5t-143.5 -57.5t-57.5 -143.5zM205 0l807 1438h106l-807 -1438h-106zM651 270q0 62 23.5 115t63.5 93t95.5 62.5t116.5 22.5q62 0 117 -22.5t95 -62.5t63.5 -93t23.5 -115q0 -61 -23.5 -114.5t-63.5 -93t-95 -62.5t-117 -23q-61 0 -116.5 23t-95.5 62.5t-63.5 93 t-23.5 114.5zM750 270q0 -86 57 -143t143 -57t143.5 57t57.5 143t-57.5 143.5t-143.5 57.5t-143 -57.5t-57 -143.5z"/>
      <glyph unicode="&#x26;" horiz-adv-x="1309"
             d="M84 373q0 88 26.5 153.5t71.5 119.5t106.5 101.5t131.5 96.5q-31 37 -61.5 75.5t-55.5 79.5t-40 87.5t-15 97.5q0 61 22.5 111.5t61.5 86t92 54t115 18.5q63 0 116.5 -20.5t91 -57.5t59 -89t21.5 -113q0 -66 -21.5 -115t-58 -90t-83 -77t-95.5 -71l406 -481 q45 78 68.5 154.5t23.5 185.5h109q0 -135 -35 -230.5t-99 -187.5l224 -262h-136l-153 182q-86 -98 -206 -148t-255 -50q-100 0 -180 29.5t-136.5 81.5t-86 124t-29.5 154zM192 373q0 -129 90.5 -210t241.5 -81q129 0 226.5 49t162.5 127l-428 510q-63 -45 -116.5 -86 t-92 -86t-61.5 -99.5t-23 -123.5zM356 1184q0 -43 15.5 -84t37 -78t47 -68.5t48.5 -56.5q41 29 80 58.5t68.5 62.5t48 70.5t18.5 85.5q0 79 -51.5 129.5t-133.5 50.5q-77 0 -127.5 -46t-50.5 -124z"/>
      <glyph unicode="'" horiz-adv-x="332" d="M104 1438h123l-24 -459h-74z"/>
      <glyph unicode="(" horiz-adv-x="594"
             d="M166 567q0 523 282 891l72 -45q-72 -108 -119 -214.5t-75.5 -211t-41 -209t-12.5 -211.5q0 -213 52.5 -420.5t195.5 -425.5l-72 -45q-282 369 -282 891z"/>
      <glyph unicode=")" horiz-adv-x="594"
             d="M74 -279q143 218 195 425.5t52 420.5q0 107 -12 211.5t-40.5 209t-76 211t-118.5 214.5l71 45q283 -368 283 -891q0 -522 -283 -891z"/>
      <glyph unicode="*" horiz-adv-x="803"
             d="M94 989l225 123l-225 121l47 82l219 -133l-6 256h94l-6 -254l219 131l48 -82l-226 -121l226 -123l-48 -82l-219 131l6 -254h-94l6 254l-219 -131z"/>
      <glyph unicode="+" horiz-adv-x="1307" d="M166 442v93h436v440h102v-440h437v-93h-437v-442h-102v442h-436z"/>
      <glyph unicode="," horiz-adv-x="422"
             d="M82 -195q39 41 68.5 92.5t33.5 92.5q-26 6 -46.5 30.5t-20.5 61.5q0 39 26.5 64.5t65.5 25.5q37 0 65.5 -25.5t28.5 -80.5q0 -41 -14.5 -84t-39 -83t-56 -76t-64.5 -61z"/>
      <glyph unicode="-" horiz-adv-x="616" d="M84 616v111h448v-111h-448z"/>
      <glyph unicode="." horiz-adv-x="422"
             d="M119 80q0 41 25.5 66.5t66.5 25.5t66.5 -25.5t25.5 -66.5t-25.5 -66.5t-66.5 -25.5t-66.5 25.5t-25.5 66.5z"/>
      <glyph unicode="/" horiz-adv-x="872" d="M74 0l612 1438h113l-613 -1438h-112z"/>
      <glyph unicode="0" horiz-adv-x="1151"
             d="M113 719q0 139 23.5 272t78.5 237.5t143 169t217 64.5t217.5 -64.5t143.5 -169t78.5 -237.5t23.5 -272t-23.5 -272.5t-78.5 -238t-143.5 -169t-217.5 -64.5t-217 64.5t-143 169t-78.5 238t-23.5 272.5zM223 719q0 -121 17.5 -235.5t59.5 -205t109.5 -145.5t165.5 -55 q99 0 166.5 55t109.5 145.5t59.5 205t17.5 235.5q0 119 -17.5 234.5t-59.5 205.5t-109.5 145.5t-166.5 55.5q-98 0 -165.5 -55.5t-109.5 -145.5t-59.5 -205.5t-17.5 -234.5z"/>
      <glyph unicode="1" horiz-adv-x="553" d="M43 1335l43 103h281v-1438h-111v1335h-213z"/>
      <glyph unicode="2" horiz-adv-x="1008"
             d="M-4 0v2l596 653q84 95 145.5 194t61.5 214q0 139 -90.5 220t-233.5 81q-147 0 -235 -86t-88 -246v-2h-111q0 96 31.5 177t89 138.5t137.5 89t176 31.5q92 0 171 -27.5t137.5 -79.5t92 -127t33.5 -169q0 -125 -57 -236.5t-168 -228.5l-455 -496h723v-102h-956z"/>
      <glyph unicode="3" horiz-adv-x="1018"
             d="M41 379h111q2 -64 23.5 -119t61 -97t99 -65.5t141.5 -23.5q68 0 127.5 22.5t103.5 64.5t69.5 102.5t25.5 137.5q0 68 -21.5 127.5t-66.5 103.5t-114 69.5t-161 25.5h-47v100h80q59 0 113.5 17.5t95.5 50.5t65.5 82t24.5 115q0 125 -78 198.5t-207 73.5q-59 0 -111 -15.5 t-90 -48t-60.5 -82t-22.5 -116.5h-111q0 86 30 153.5t82 114.5t124.5 71.5t158.5 24.5t159 -26.5t125 -74.5t82 -117.5t30 -155.5q0 -131 -63.5 -205t-162.5 -109q117 -41 186.5 -143.5t69.5 -233.5q0 -96 -33.5 -176t-93 -136t-138.5 -87t-171 -31q-196 0 -313 108.5 t-123 299.5z"/>
      <glyph unicode="4" horiz-adv-x="1114"
             d="M55 352v21l760 1104h27v-1022h170v-103h-170v-352h-111v352h-676zM235 455h496v721z"/>
      <glyph unicode="5" horiz-adv-x="1042"
             d="M37 408h110q0 -160 88.5 -247t233.5 -87q82 0 149.5 29.5t114.5 81t72.5 122t25.5 150.5t-24.5 148.5t-72.5 119.5t-117.5 81t-159.5 30q-93 0 -169.5 -25t-109.5 -45l-18 14l143 658h598v-103h-512l-90 -424q25 11 69 18t97 7q108 0 196.5 -36t150.5 -99.5t96 -150.5 t34 -187q0 -98 -31.5 -187.5t-92 -157t-147.5 -107.5t-198 -40q-98 0 -179 32t-137.5 89.5t-88 138t-31.5 177.5z"/>
      <glyph unicode="6" horiz-adv-x="1053"
             d="M55 449q0 96 34 179t75 142l461 668h133l-404 -576q25 19 72 40.5t125 21.5q92 0 173 -38t141.5 -102.5t96 -150.5t35.5 -184q0 -91 -32.5 -177t-94 -152.5t-148.5 -107.5t-196 -41q-108 0 -195 41t-148.5 107.5t-94.5 152.5t-33 177zM166 449q0 -76 25.5 -144.5 t72.5 -120t113.5 -81t148.5 -29.5t148.5 29.5t114 81t73 120t25.5 144.5q0 75 -25.5 144t-73 120t-114 80.5t-148.5 29.5t-148.5 -29.5t-113.5 -80.5t-72.5 -120t-25.5 -144z"/>
      <glyph unicode="7" horiz-adv-x="1038" d="M47 0l793 1335h-770v103h954l-850 -1438h-127z"/>
      <glyph unicode="8" horiz-adv-x="1008"
             d="M68 406q0 135 70.5 233t189.5 141q-93 41 -145 122t-52 188q0 79 27.5 147t77 115t118 73.5t150.5 26.5t150.5 -26.5t117.5 -73.5t76.5 -115t27.5 -147q0 -107 -52 -188t-144 -122q119 -43 189.5 -141t70.5 -233q0 -93 -33 -169.5t-90 -133t-138 -88t-175 -31.5 q-96 0 -176 31.5t-137.5 88t-90 133t-32.5 169.5zM178 406q0 -74 24.5 -132.5t68.5 -100.5t103.5 -64.5t129.5 -22.5q69 0 128.5 22.5t103.5 64.5t68.5 100.5t24.5 132.5q0 73 -24.5 132.5t-68.5 101.5t-103.5 64.5t-128.5 22.5q-70 0 -129.5 -22.5t-103.5 -64.5 t-68.5 -101.5t-24.5 -132.5zM242 1090q0 -117 72.5 -190t189.5 -73q116 0 189 73t73 190q0 116 -73 188t-189 72q-117 0 -189.5 -72t-72.5 -188z"/>
      <glyph unicode="9" horiz-adv-x="1053"
             d="M55 989q0 90 33 176t94.5 152.5t148.5 107.5t195 41q109 0 196 -41t148.5 -107.5t94 -152.5t32.5 -176q0 -96 -33.5 -179t-74.5 -142l-461 -668h-133l403 575q-24 -18 -71 -39.5t-125 -21.5q-92 0 -173 38t-141.5 102.5t-96.5 150.5t-36 184zM166 989q0 -76 25.5 -144.5 t72.5 -119.5t113.5 -81t148.5 -30t148.5 30t114 81t73 119.5t25.5 144.5t-25.5 144.5t-73 120t-114 81t-148.5 29.5t-148.5 -29.5t-113.5 -81t-72.5 -120t-25.5 -144.5z"/>
      <glyph unicode=":" horiz-adv-x="422"
             d="M119 80q0 41 25.5 66.5t66.5 25.5t66.5 -25.5t25.5 -66.5t-25.5 -66.5t-66.5 -25.5t-66.5 25.5t-25.5 66.5zM119 932q0 41 25.5 66.5t66.5 25.5t66.5 -25.5t25.5 -66.5t-25.5 -66.5t-66.5 -25.5t-66.5 25.5t-25.5 66.5z"/>
      <glyph unicode=";" horiz-adv-x="422"
             d="M82 -195q39 41 68.5 92.5t33.5 92.5q-26 6 -46.5 30.5t-20.5 61.5q0 39 26.5 64.5t65.5 25.5q37 0 65.5 -25.5t28.5 -80.5q0 -41 -14.5 -84t-39 -83t-56 -76t-64.5 -61zM119 932q0 41 25.5 66.5t66.5 25.5t66.5 -25.5t25.5 -66.5t-25.5 -66.5t-66.5 -25.5t-66.5 25.5 t-25.5 66.5z"/>
      <glyph unicode="&#x3c;" horiz-adv-x="1307" d="M217 440v95l872 399v-103l-753 -344l753 -344v-102z"/>
      <glyph unicode="=" horiz-adv-x="1307" d="M197 279v92h913v-92h-913zM197 606v92h913v-92h-913z"/>
      <glyph unicode="&#x3e;" horiz-adv-x="1307" d="M217 43v102l754 344l-754 345v102l872 -399v-95z"/>
      <glyph unicode="?" horiz-adv-x="997"
             d="M53 1055q0 86 31 160.5t87 130t134 88t174 32.5q94 0 172 -32.5t134.5 -88t87 -130t30.5 -160.5q0 -88 -27.5 -163t-76.5 -131t-120 -92t-157 -48l-20 -271h-66l-22 352h37q88 0 153.5 29t108.5 78t63.5 112.5t20.5 133.5q0 67 -25 125.5t-68 101.5t-101 67.5t-124 24.5 q-67 0 -125.5 -24.5t-101.5 -67.5t-67.5 -101.5t-24.5 -125.5h-107zM385 80q0 41 25.5 66.5t66.5 25.5t66.5 -25.5t25.5 -66.5t-25.5 -66.5t-66.5 -25.5t-66.5 25.5t-25.5 66.5z"/>
      <glyph unicode="@" horiz-adv-x="1714"
             d="M104 494q0 192 67 336.5t177.5 241.5t251.5 145.5t291 48.5q137 0 267 -41t230.5 -124t161 -208t60.5 -293q0 -119 -31 -211t-82 -154.5t-119.5 -95.5t-142.5 -33q-57 0 -93 17.5t-57.5 42t-31 54.5t-11.5 54h-2q-10 -20 -32.5 -48.5t-57.5 -55.5t-84 -45.5t-110 -18.5 q-136 0 -208.5 91.5t-72.5 234.5q0 88 27.5 173t80 151.5t126 106.5t163.5 40q101 0 154 -47t78 -121h2l29 137h84l-76 -374q-2 -9 -6.5 -26t-8.5 -39.5t-7 -50.5t-3 -54q0 -60 24.5 -99t100.5 -39q68 0 119 33t86 88.5t52.5 129t17.5 155.5q0 143 -50.5 252.5t-135.5 183.5 t-198.5 112t-240.5 38q-141 0 -267 -46t-219.5 -133.5t-148.5 -215.5t-55 -293q0 -166 55 -291t149.5 -209t220.5 -126t269 -42q135 0 248.5 35t204.5 92l45 -64q-93 -69 -225 -108t-279 -39q-152 0 -293 45t-250.5 138t-176.5 234.5t-67 334.5zM573 436q0 -41 8.5 -84 t30 -78.5t59.5 -59.5t97 -24q70 0 125 34t93 87.5t57.5 122t19.5 139.5q0 39 -8.5 83t-30 80t-59 59.5t-97.5 23.5q-71 0 -125.5 -33.5t-92.5 -87t-57.5 -123t-19.5 -139.5z"/>
      <glyph unicode="A" horiz-adv-x="1294"
             d="M2 0l629 1466h33l628 -1466h-123l-192 453h-662l-192 -453h-121zM358 553h576l-287 680z"/>
      <glyph unicode="B" horiz-adv-x="1110"
             d="M176 0v1438h344q86 0 161 -21.5t129 -65.5t85 -112t31 -158q0 -123 -53.5 -192.5t-145.5 -102.5q141 -28 226 -118t85 -254q0 -105 -35.5 -181.5t-98 -129t-147.5 -78t-184 -25.5h-397zM287 100h274q180 0 274.5 83t94.5 231q0 149 -97.5 230t-271.5 81h-274v-625z M287 825h233q144 0 220.5 66.5t76.5 189.5t-76.5 189.5t-220.5 66.5h-233v-512z"/>
      <glyph unicode="C" horiz-adv-x="1399"
             d="M84 719q0 160 55.5 297t153.5 236.5t233 156.5t297 57q260 0 441 -131v-137q-82 80 -187.5 123t-253.5 43q-139 0 -253.5 -49t-198.5 -135t-130 -205t-46 -256q0 -139 46 -257t130 -204t198.5 -135t253.5 -49q148 0 262.5 47t196.5 133v-135q-92 -72 -208 -110t-251 -38 q-162 0 -297 57.5t-233 157t-153.5 236.5t-55.5 297z"/>
      <glyph unicode="D" horiz-adv-x="1358"
             d="M176 0v1438h354q164 0 300.5 -47.5t234.5 -139.5t153.5 -226t55.5 -306t-55.5 -306t-153.5 -226.5t-234.5 -139.5t-300.5 -47h-354zM287 102h233q137 0 255 38t204 115t135 192.5t49 271.5q0 155 -49 271t-135 193t-204 114.5t-255 37.5h-233v-1233z"/>
      <glyph unicode="E" horiz-adv-x="1034" d="M176 0v1438h744v-103h-633v-510h612v-102h-612v-621h643v-102h-754z"/>
      <glyph unicode="F" horiz-adv-x="887" d="M176 0v1438h657v-103h-546v-551h526v-102h-526v-682h-111z"/>
      <glyph unicode="G" horiz-adv-x="1616"
             d="M84 719q0 160 54 297t152.5 236.5t234.5 156.5t298 57q115 0 212 -27.5t177 -75.5t141.5 -111.5t106.5 -135.5l-90 -61q-37 63 -88 119.5t-118.5 98.5t-152.5 66.5t-188 24.5q-137 0 -252.5 -49t-198.5 -135t-130 -205t-47 -256q0 -139 46 -257t130 -204t198.5 -135 t253.5 -49q131 0 235.5 44t180.5 117.5t121 172t55 208.5h-549v103h666q0 -141 -46 -276.5t-135 -240t-222.5 -168t-305.5 -63.5q-162 0 -297 57.5t-233 157t-153.5 236.5t-55.5 297z"/>
      <glyph unicode="H" horiz-adv-x="1432" d="M176 0v1438h111v-613h858v613h110v-1438h-110v723h-858v-723h-111z"/>
      <glyph unicode="I" horiz-adv-x="463" d="M176 0v1438h111v-1438h-111z"/>
      <glyph unicode="J" horiz-adv-x="741"
             d="M12 133l84 62q29 -48 72 -85.5t117 -37.5q88 0 129 58t41 163v1145h110v-1159q0 -160 -77.5 -234t-202.5 -74q-111 0 -175.5 50.5t-97.5 111.5z"/>
      <glyph unicode="K" horiz-adv-x="1114"
             d="M176 0v1438h111v-672l659 672h148l-680 -680l708 -758h-143l-692 739v-739h-111z"/>
      <glyph unicode="L" horiz-adv-x="784" d="M176 0v1438h111v-1336h465v-102h-576z"/>
      <glyph unicode="M" horiz-adv-x="1790"
             d="M94 0l193 1489h32l576 -1317l575 1317h33l193 -1489h-115l-143 1149l-527 -1200h-32l-527 1200l-143 -1149h-115z"/>
      <glyph unicode="N" horiz-adv-x="1614" d="M176 0v1475h27l1124 -1258v1221h111v-1475h-27l-1124 1258v-1221h-111z"/>
      <glyph unicode="O" horiz-adv-x="1647"
             d="M84 719q0 160 55.5 297t153.5 236.5t233 156.5t297 57t297 -57t233.5 -156.5t154 -236.5t55.5 -297t-55.5 -297t-154 -236.5t-233.5 -157t-297 -57.5t-297 57.5t-233 157t-153.5 236.5t-55.5 297zM195 719q0 -139 46 -257t130 -204t198.5 -135t253.5 -49q137 0 253 49 t200 135t130 204t46 257q0 137 -46 256t-130 205t-200 135t-253 49q-139 0 -253.5 -49t-198.5 -135t-130 -205t-46 -256z"/>
      <glyph unicode="P" horiz-adv-x="1022"
             d="M176 0v1438h356q95 0 175.5 -28t139 -81t91.5 -130t33 -175t-34 -175t-92.5 -131t-139 -83t-173.5 -29h-245v-606h-111zM287 707h243q160 0 246 89t86 226t-86 226t-246 89h-243v-630z"/>
      <glyph unicode="Q" horiz-adv-x="1647"
             d="M84 719q0 160 55.5 297t153.5 236.5t233 156.5t297 57t297 -57t233.5 -156.5t154 -236.5t55.5 -297q0 -180 -68 -327.5t-188 -250.5l217 -241h-142l-159 180q-86 -53 -186.5 -81t-213.5 -28q-162 0 -297 57.5t-233 157t-153.5 236.5t-55.5 297zM195 719q0 -139 46 -257 t130 -204t198.5 -135t253.5 -49q92 0 174 22.5t154 63.5l-205 229h141l150 -168q100 88 157.5 216t57.5 282q0 137 -46 256t-130 205t-200 135t-253 49q-139 0 -253.5 -49t-198.5 -135t-130 -205t-46 -256z"/>
      <glyph unicode="R" horiz-adv-x="1071"
             d="M176 0v1438h336q94 0 175 -27t139.5 -77t91 -124.5t32.5 -173.5q0 -92 -30.5 -165.5t-84 -125t-127 -80t-159.5 -34.5l475 -631h-135l-467 631h-135v-631h-111zM287 731h223q160 0 246 83t86 220t-86 220t-246 83h-223v-606z"/>
      <glyph unicode="S" horiz-adv-x="1016"
             d="M43 274l88 56q25 -47 58.5 -93.5t78.5 -82t102.5 -58t129.5 -22.5q69 0 129.5 21.5t105.5 61.5t70.5 97t25.5 127q0 74 -28.5 128t-76.5 94t-110.5 71t-132.5 59q-69 27 -131.5 61.5t-111 81t-77 104.5t-28.5 136q0 76 28.5 140.5t79 110.5t119 72.5t150.5 26.5 q135 0 232.5 -64.5t150.5 -160.5l-88 -61q-21 37 -49.5 69.5t-65.5 58t-82 41t-98 15.5q-117 0 -191.5 -67.5t-74.5 -176.5q0 -61 23.5 -107t62.5 -81t91 -60.5t107 -46.5q76 -28 150 -66t132 -90.5t94 -122t36 -163.5q0 -88 -33 -164t-91 -131t-139 -86t-175 -31 q-86 0 -158 24.5t-130 66.5t-101 96.5t-72 115.5z"/>
      <glyph unicode="T" horiz-adv-x="1008" d="M14 1335v103h979v-103h-434v-1335h-111v1335h-434z"/>
      <glyph unicode="U" horiz-adv-x="1360"
             d="M166 483v955h110v-920q0 -217 105.5 -330.5t298.5 -113.5q192 0 297.5 113.5t105.5 330.5v920h111v-955q0 -110 -35 -204.5t-101.5 -163t-161.5 -106.5t-216 -38t-217 38t-162 106.5t-100.5 163t-34.5 204.5z"/>
      <glyph unicode="V" horiz-adv-x="1294" d="M2 1438h123l522 -1233l524 1233h121l-628 -1467h-33z"/>
      <glyph unicode="W" horiz-adv-x="2130"
             d="M12 1438h123l436 -1221l480 1270h30l480 -1270l436 1221h121l-541 -1475h-29l-483 1256l-483 -1256h-29z"/>
      <glyph unicode="X" horiz-adv-x="1090"
             d="M33 0l446 752l-411 686h124l357 -594l348 594h125l-414 -695l449 -743h-125l-391 651l-379 -651h-129z"/>
      <glyph unicode="Y" horiz-adv-x="1073" d="M12 1438h127l398 -709l399 709h125l-469 -820v-618h-111v618z"/>
      <glyph unicode="Z" horiz-adv-x="1085" d="M43 0l809 1335h-739v103h929l-809 -1336h803v-102h-993z"/>
      <glyph unicode="[" horiz-adv-x="653" d="M207 -303v1741h362v-92h-258v-1557h258v-92h-362z"/>
      <glyph unicode="\" horiz-adv-x="872" d="M74 1438h112l613 -1438h-113z"/>
      <glyph unicode="]" horiz-adv-x="653" d="M84 -211h258v1557h-258v92h362v-1741h-362v92z"/>
      <glyph unicode="^" horiz-adv-x="1198" d="M178 637l367 801h110l367 -801h-111l-311 682l-311 -682h-111z"/>
      <glyph unicode="_" horiz-adv-x="946" d="M43 0h860v-92h-860v92z"/>
      <glyph unicode="`" horiz-adv-x="530" d="M74 1403l96 70l205 -304l-70 -47z"/>
      <glyph unicode="a"
             d="M84 506q0 100 32.5 195.5t97 170t160 119.5t220.5 45q143 0 242.5 -63.5t156.5 -161.5h4v201h105v-1012h-105v201h-4q-57 -99 -156.5 -162.5t-242.5 -63.5q-125 0 -220.5 45.5t-160 120t-97 170t-32.5 195.5zM190 506q0 -94 30 -175t84 -139.5t128 -91t162 -32.5 t161.5 32.5t127 91t84 139.5t30.5 175t-30.5 175t-84 139.5t-127 91t-161.5 32.5t-162 -32.5t-128 -91t-84 -139.5t-30 -175z"/>
      <glyph unicode="b"
             d="M176 0v1438h107v-621h4q26 45 64 85t87 69.5t110.5 47t135.5 17.5q125 0 220 -45t159.5 -119.5t97.5 -170t33 -195.5t-33 -195.5t-97.5 -170t-159.5 -120t-220 -45.5q-143 0 -242.5 63.5t-156.5 162.5h-4v-201h-105zM281 506q0 -94 29.5 -175t83.5 -139.5t128 -91 t162 -32.5t162 32.5t127 91t83.5 139.5t30.5 175t-30.5 175t-83.5 139.5t-127 91t-162 32.5t-162 -32.5t-128 -91t-83.5 -139.5t-29.5 -175z"/>
      <glyph unicode="c" horiz-adv-x="956"
             d="M84 504q0 96 32.5 191.5t99.5 171t165 122.5t227 47q80 0 145.5 -17.5t106.5 -41.5v-111q-43 33 -106.5 55.5t-147.5 22.5q-90 0 -167 -33.5t-132 -92t-86 -138.5t-31 -174q0 -92 30 -172t85 -139.5t133 -93t172 -33.5q84 0 145.5 22.5t112.5 61.5v-111 q-47 -27 -112.5 -46.5t-149.5 -19.5q-129 0 -226 46.5t-162.5 121t-99.5 170t-34 191.5z"/>
      <glyph unicode="d"
             d="M84 506q0 100 32.5 195.5t97 170t160 119.5t220.5 45q74 0 135 -17.5t110.5 -47t87.5 -69.5t64 -85h4v621h107v-1438h-105v201h-4q-57 -99 -156.5 -162.5t-242.5 -63.5q-125 0 -220.5 45.5t-160 120t-97 170t-32.5 195.5zM190 506q0 -94 30 -175t84 -139.5t128 -91 t162 -32.5t161.5 32.5t127 91t84 139.5t30.5 175t-30.5 175t-84 139.5t-127 91t-161.5 32.5t-162 -32.5t-128 -91t-84 -139.5t-30 -175z"/>
      <glyph unicode="e" horiz-adv-x="1147"
             d="M84 508q0 92 29.5 186t90 170t154 124t222.5 48q124 0 215.5 -45t151 -119.5t88 -170t28.5 -195.5v-4h-875q0 -86 27 -164t76 -138.5t121.5 -96t169.5 -35.5q129 0 220 63.5t144 167.5l90 -49q-69 -135 -193 -205t-270 -70q-120 0 -211.5 47.5t-153 122t-93 170 t-31.5 193.5zM195 592h761q-10 80 -42.5 144.5t-82 111.5t-114 72.5t-140.5 25.5q-79 0 -144.5 -27.5t-115 -74.5t-80 -111.5t-42.5 -140.5z"/>
      <glyph unicode="f" horiz-adv-x="627"
             d="M63 915v97h150v125q0 155 78 240t213 85q35 0 67.5 -5t53.5 -13v-105q-50 27 -111 27q-92 0 -143.5 -56.5t-51.5 -183.5v-114h306v-97h-306v-915h-106v915h-150z"/>
      <glyph unicode="g"
             d="M84 506q0 100 32.5 195.5t97 170t160 119.5t220.5 45q143 0 242.5 -63.5t156.5 -161.5h4v201h105v-936q0 -228 -128 -355t-368 -127q-145 0 -266 50.5t-186 152.5l86 60q55 -86 152 -128t214 -42q78 0 148.5 20.5t124 65.5t85 116.5t31.5 176.5v129h-4q-26 -45 -64 -85 t-87.5 -70t-110.5 -47.5t-135 -17.5q-125 0 -220.5 45.5t-160 120t-97 170t-32.5 195.5zM190 506q0 -94 30 -175t84 -139.5t128 -91t162 -32.5t161.5 32.5t127 91t84 139.5t30.5 175t-30.5 175t-84 139.5t-127 91t-161.5 32.5t-162 -32.5t-128 -91t-84 -139.5t-30 -175z"/>
      <glyph unicode="h" horiz-adv-x="1151"
             d="M176 0v1438h107v-561h4q43 65 118.5 112t198.5 47q86 0 159 -25.5t124 -76.5t79.5 -126t28.5 -173v-635h-106v608q0 174 -78 255t-211 81q-139 0 -228 -86t-89 -258v-600h-107z"/>
      <glyph unicode="i" horiz-adv-x="459"
             d="M152 1266q0 34 21.5 55.5t55.5 21.5q35 0 56.5 -21.5t21.5 -55.5q0 -35 -21.5 -56.5t-56.5 -21.5q-34 0 -55.5 21.5t-21.5 56.5zM176 0v1012h107v-1012h-107z"/>
      <glyph unicode="j" horiz-adv-x="459"
             d="M-33 -291q45 -18 98 -18q62 0 86.5 43t24.5 112v1166h107v-1178q0 -110 -50.5 -175t-162.5 -65q-35 0 -58.5 4.5t-44.5 12.5v98zM152 1266q0 34 21.5 55.5t55.5 21.5q35 0 56.5 -21.5t21.5 -55.5q0 -35 -21.5 -56.5t-56.5 -21.5q-34 0 -55.5 21.5t-21.5 56.5z"/>
      <glyph unicode="k" horiz-adv-x="969"
             d="M176 0v1438h107v-858l501 432h140l-541 -461l580 -551h-144l-536 516v-516h-107z"/>
      <glyph unicode="l" horiz-adv-x="459" d="M176 0v1438h107v-1438h-107z"/>
      <glyph unicode="m" horiz-adv-x="1806"
             d="M176 0v1012h105v-135h4q43 65 114.5 112t190.5 47q121 0 208 -52t130 -155q47 93 128 150t218 57q172 0 274.5 -101t102.5 -300v-635h-107v608q0 174 -73.5 255t-200.5 81q-133 0 -218 -86t-85 -258v-600h-107v608q0 174 -73.5 255t-200.5 81q-133 0 -218 -86t-85 -258 v-600h-107z"/>
      <glyph unicode="n" horiz-adv-x="1151"
             d="M176 0v1012h105v-135h4q43 65 119.5 112t199.5 47q86 0 159 -25.5t124 -76.5t79.5 -126t28.5 -173v-635h-106v608q0 174 -78 255t-211 81q-139 0 -228 -86t-89 -258v-600h-107z"/>
      <glyph unicode="o" horiz-adv-x="1208"
             d="M84 506q0 98 34 192.5t100.5 170t162.5 121.5t223 46q125 0 222.5 -46t164 -121.5t100 -170t33.5 -192.5t-33.5 -192.5t-100 -170t-164 -122t-222.5 -46.5q-127 0 -223 46.5t-162.5 122t-100.5 170t-34 192.5zM190 506q0 -94 31 -175t86 -139.5t131 -91t166 -32.5 q88 0 164 32.5t131 91t87 139.5t32 175t-32 175t-87 139.5t-131 91t-164 32.5q-90 0 -166 -32.5t-131 -91t-86 -139.5t-31 -175z"/>
      <glyph unicode="p"
             d="M176 -381v1393h105v-201h4q57 98 156.5 161.5t242.5 63.5q125 0 220 -45t159.5 -119.5t97.5 -170t33 -195.5t-33 -195.5t-97.5 -170t-159.5 -120t-220 -45.5q-74 0 -135.5 17.5t-110.5 47.5t-87 70t-64 85h-4v-576h-107zM281 506q0 -94 29.5 -175t83.5 -139.5t128 -91 t162 -32.5t162 32.5t127 91t83.5 139.5t30.5 175t-30.5 175t-83.5 139.5t-127 91t-162 32.5t-162 -32.5t-128 -91t-83.5 -139.5t-29.5 -175z"/>
      <glyph unicode="q"
             d="M84 506q0 100 32.5 195.5t97 170t160 119.5t220.5 45q143 0 242.5 -63.5t156.5 -161.5h4v201h105v-1393h-107v576h-4q-26 -45 -64 -85t-87.5 -70t-110.5 -47.5t-135 -17.5q-125 0 -220.5 45.5t-160 120t-97 170t-32.5 195.5zM190 506q0 -94 30 -175t84 -139.5t128 -91 t162 -32.5t161.5 32.5t127 91t84 139.5t30.5 175t-30.5 175t-84 139.5t-127 91t-161.5 32.5t-162 -32.5t-128 -91t-84 -139.5t-30 -175z"/>
      <glyph unicode="r" horiz-adv-x="717"
             d="M176 0v1012h105v-142h4q43 86 108.5 126t161.5 40q63 0 119 -16v-109q-27 11 -62 18t-69 7q-133 0 -196.5 -100.5t-63.5 -274.5v-561h-107z"/>
      <glyph unicode="s" horiz-adv-x="868"
             d="M53 180l76 58q20 -31 47 -62t63.5 -55.5t82 -38.5t102.5 -14q53 0 99 14t81 39.5t54.5 62.5t19.5 84q0 51 -22.5 87t-60.5 62.5t-87 47t-103 39.5q-55 20 -105 43.5t-89 55.5t-62.5 75t-23.5 100q0 58 22.5 105t64.5 80.5t99.5 53t124.5 19.5q111 0 188.5 -44t122.5 -109 l-75 -64q-33 49 -90.5 87t-143.5 38q-92 0 -149.5 -46t-57.5 -118q0 -43 20.5 -73.5t52.5 -52t72 -37t79 -29.5q55 -21 114.5 -45.5t106.5 -60.5t77.5 -87t30.5 -123q0 -65 -26.5 -119.5t-73.5 -93.5t-112.5 -61.5t-143.5 -22.5q-141 0 -234.5 61.5t-140.5 143.5z"/>
      <glyph unicode="t" horiz-adv-x="614"
             d="M39 915v97h149v274h107v-274h264v-97h-264v-655q0 -90 28.5 -135t98.5 -45q43 0 70.5 6t50.5 16v-100q-23 -6 -53.5 -11t-77.5 -5q-224 0 -224 264v665h-149z"/>
      <glyph unicode="u" horiz-adv-x="1135"
             d="M156 377v635h106v-609q0 -174 74 -254.5t207 -80.5q139 0 224 85t85 259v600h106v-1012h-104v135h-4q-43 -65 -117 -112.5t-194 -47.5q-175 0 -279 101.5t-104 300.5z"/>
      <glyph unicode="v" horiz-adv-x="891" d="M-18 1012h112l350 -834h4l351 834h110l-448 -1041h-31z"/>
      <glyph unicode="w" horiz-adv-x="1495"
             d="M12 1012h109l293 -815h4l315 847h29l315 -847h4l293 815h109l-387 -1045h-31l-315 848h-5l-315 -848h-31z"/>
      <glyph unicode="x" horiz-adv-x="1061"
             d="M53 0l412 518l-391 494h129l327 -424l330 424h127l-391 -494l412 -518h-127l-353 449l-350 -449h-125z"/>
      <glyph unicode="y" horiz-adv-x="891"
             d="M-18 1012h112l350 -834h4l351 834h110l-510 -1182q-18 -45 -40.5 -87t-54.5 -75t-78 -53.5t-111 -20.5q-39 0 -70 6.5t-49 16.5v98q22 -10 52 -17t63 -7q67 0 109 36.5t81 125.5l90 206z"/>
      <glyph unicode="z" horiz-adv-x="991" d="M63 0v4l656 911h-627v97h815v-4l-655 -912h655v-96h-844z"/>
      <glyph unicode="{" horiz-adv-x="647"
             d="M27 522v92h73q66 0 102 46.5t36 162.5v387q0 121 58 174.5t161 53.5h106v-92h-80q-61 0 -101 -30t-40 -108v-395q0 -113 -38 -171t-95 -75q57 -16 95 -70.5t38 -164.5v-406q0 -78 40 -107.5t101 -29.5h80v-92h-106q-103 0 -161 54t-58 173v389q0 117 -36 163t-102 46h-73 z"/>
      <glyph unicode="|" horiz-adv-x="750" d="M332 -303v1741h86v-1741h-86z"/>
      <glyph unicode="}" horiz-adv-x="647"
             d="M84 -211h80q61 0 101 29.5t40 107.5v396q0 112 38 170.5t95 74.5q-57 17 -95 71t-38 165v405q0 78 -40 108t-101 30h-80v92h106q103 0 161.5 -54.5t58.5 -173.5v-389q0 -116 35.5 -162.5t101.5 -46.5h73v-92h-73q-66 0 -101.5 -46t-35.5 -163v-387q0 -121 -58.5 -174 t-161.5 -53h-106v92z"/>
      <glyph unicode="~" horiz-adv-x="1319"
             d="M197 387v21q0 59 20.5 99t52 64.5t71.5 34.5t77 10q63 0 124.5 -22.5t121 -48t118 -48t115.5 -22.5q133 0 133 133h92v-20q0 -62 -20.5 -102t-52 -63.5t-71.5 -33.5t-77 -10q-65 0 -126.5 22.5t-121 48t-117 48t-114.5 22.5q-133 0 -133 -133h-92z"/>
      <glyph unicode="&#xa1;" horiz-adv-x="475"
             d="M145 932q0 41 26 66.5t67 25.5q40 0 66 -25.5t26 -66.5t-26 -66.5t-66 -25.5q-41 0 -67 25.5t-26 66.5zM184 283l21 403h65l21 -403v-709h-107v709z"/>
      <glyph unicode="&#xa2;" horiz-adv-x="1014"
             d="M104 719q0 86 26 161.5t76 136t123.5 101.5t170.5 58v262h90v-252q110 0 179 -17.5t110 -42.5v-108q-48 35 -119.5 54.5t-169.5 19.5v-746q192 0 299 80v-109q-56 -30 -124.5 -47.5t-174.5 -17.5v-252h-90v260q-97 16 -169.5 57t-123.5 101.5t-77 137.5t-26 163zM213 719 q0 -150 75.5 -242t211.5 -121v725q-133 -28 -210 -120.5t-77 -241.5z"/>
      <glyph unicode="&#xa3;" horiz-adv-x="1192"
             d="M139 0v92h142q24 21 53.5 51.5t55.5 70.5t43.5 90t17.5 110q0 55 -14.5 101t-35.5 87h-200v92h147q-29 47 -58.5 93.5t-52 95.5t-37 102t-14.5 115q0 78 26 144.5t78 115.5t129 77.5t181 28.5q98 0 175 -26.5t128 -75.5q103 -100 103 -285h-111v6q0 127 -72.5 205 t-228.5 78q-152 0 -224.5 -74.5t-72.5 -191.5q0 -62 17.5 -114t43 -101t57 -96.5t60.5 -96.5h408v-92h-361q19 -43 29 -88t10 -94q0 -107 -44 -186.5t-103 -141.5h637v-92h-912z"/>
      <glyph unicode="&#xa5;" horiz-adv-x="1217"
             d="M84 1438h125l399 -713l402 713h122l-305 -533h226v-92h-279l-110 -195h389v-92h-389v-526h-111v526h-389v92h389l-113 195h-276v92h225z"/>
      <glyph unicode="&#xa6;" horiz-adv-x="520" d="M207 -303v706h106v-706h-106zM207 797v641h106v-641h-106z"/>
      <glyph unicode="&#xa7;" horiz-adv-x="1217"
             d="M115 594q0 104 57 182t145 117q-102 98 -102 240q0 71 27.5 132.5t78 105.5t120 69.5t153.5 25.5q143 0 243.5 -66.5t153.5 -158.5l-88 -61q-43 75 -121 129.5t-190 54.5q-119 0 -193.5 -63.5t-74.5 -165.5q0 -93 62 -157.5t173 -105.5l287 -104q131 -47 193.5 -121 t62.5 -186q0 -99 -49.5 -174.5t-126.5 -118.5q114 -90 114 -236q0 -73 -28.5 -135.5t-84 -106.5t-133 -70t-176.5 -26q-84 0 -158.5 17.5t-136 48.5t-108.5 72t-74 88l88 61q19 -33 53.5 -65.5t86 -59t114 -43t135.5 -16.5q76 0 134.5 18.5t98.5 51t60.5 74.5t20.5 91 q0 86 -68.5 148.5t-185.5 99.5l-287 90q-123 41 -199.5 124t-76.5 200zM223 596q0 -76 47 -134.5t146 -90.5l317 -105q57 -18 105 -43q71 35 113 98.5t42 135.5q0 153 -205 225l-280 100q-62 23 -109 49q-92 -30 -134 -98.5t-42 -136.5z"/>
      <glyph unicode="&#xa8;" horiz-adv-x="741"
             d="M131 1253q0 35 21.5 56.5t56.5 21.5t56.5 -21.5t21.5 -56.5q0 -34 -21.5 -55.5t-56.5 -21.5t-56.5 21.5t-21.5 55.5zM455 1253q0 35 21.5 56.5t55.5 21.5q35 0 56.5 -21.5t21.5 -56.5q0 -34 -21.5 -55.5t-56.5 -21.5q-34 0 -55.5 21.5t-21.5 55.5z"/>
      <glyph unicode="&#xa9;" horiz-adv-x="1647"
             d="M84 719q0 160 55.5 297t153.5 236.5t233 156.5t297 57t297 -57t233.5 -156.5t154 -236.5t55.5 -297t-55.5 -297t-154 -236.5t-233.5 -157t-297 -57.5t-297 57.5t-233 157t-153.5 236.5t-55.5 297zM182 719q0 -139 47 -259t132 -208t203 -137t259 -49q142 0 259.5 49 t202.5 137t132 208t47 259t-47 259t-132 207t-202.5 137t-259.5 50q-141 0 -259 -50t-203 -137t-132 -207t-47 -259zM403 719q0 92 33 170t92.5 134t141.5 89t180 33q151 0 256 -70v-102q-47 41 -107.5 63.5t-144.5 22.5q-78 0 -142.5 -25.5t-111.5 -70.5t-72.5 -107.5 t-25.5 -136.5t25.5 -136.5t72.5 -106.5t111.5 -69.5t142.5 -25.5q166 0 262 92v-102q-51 -37 -117.5 -57.5t-148.5 -20.5q-98 0 -180 32.5t-141.5 89t-92.5 134.5t-33 170z"/>
      <glyph unicode="&#xaa;" horiz-adv-x="1348"
             d="M229 1044q0 82 27 158t78 134.5t127 94t174 35.5q106 0 182 -45t115 -108h4v125h104v-789h-104v127h-4q-41 -63 -116 -109t-181 -46q-98 0 -174 35.5t-127 94t-78 135.5t-27 158zM238 279v92h802v-92h-802zM336 1044q0 -71 22.5 -131.5t63.5 -104.5t96 -68.5t121 -24.5 q68 0 122 24.5t94 68.5t61.5 104.5t21.5 131.5q0 70 -21.5 130.5t-61.5 105.5t-94 69.5t-122 24.5q-66 0 -121 -24.5t-96 -69.5t-63.5 -105.5t-22.5 -130.5z"/>
      <glyph unicode="&#xab;" horiz-adv-x="893"
             d="M115 592l295 340l51 -47l-203 -293l203 -293l-51 -47zM443 592l295 340l51 -47l-203 -293l203 -293l-51 -47z"/>
      <glyph unicode="&#xac;" horiz-adv-x="1307" d="M166 535v92h975v-535h-103v443h-872z"/>
      <glyph unicode="&#xad;" horiz-adv-x="616" d="M84 616v111h448v-111h-448z"/>
      <glyph unicode="&#xae;" horiz-adv-x="1040"
             d="M94 1036q0 90 33 169t89 137.5t134 91t170 32.5t170 -32.5t134.5 -91t89 -137.5t32.5 -169t-32.5 -169t-89 -137t-134.5 -91t-170 -33t-170 33t-134 91t-89 137t-33 169zM172 1036q0 -78 25.5 -143.5t71.5 -112.5t110.5 -74.5t140.5 -27.5t140.5 27.5t110.5 74.5 t71.5 112.5t25.5 143.5q0 76 -25.5 142.5t-71.5 113.5t-110.5 75t-140.5 28t-140.5 -28t-110.5 -75t-71.5 -113.5t-25.5 -142.5zM364 803v467h162q70 0 118 -35t48 -107q0 -106 -119 -133l146 -192h-88l-135 186h-58v-186h-74zM438 1049h82q96 0 96 79q0 80 -96 80h-82v-159 z"/>
      <glyph unicode="&#xaf;" horiz-adv-x="791" d="M135 1163v97h520v-97h-520z"/>
      <glyph unicode="&#xb0;" horiz-adv-x="932"
             d="M109 1098q0 67 24 131.5t69 117t111.5 84t152.5 31.5t153.5 -31.5t112.5 -84t68.5 -117t23.5 -131.5q0 -68 -23.5 -132.5t-68.5 -116.5t-112.5 -84t-153.5 -32t-152.5 32t-111.5 84t-69 116.5t-24 132.5zM216 1098q0 -60 18.5 -110t52 -87t80 -57.5t101.5 -20.5t101 20.5 t80 57.5t52.5 87t18.5 110q0 59 -18.5 109t-52.5 87t-80 57.5t-101 20.5t-101.5 -20.5t-80 -57.5t-52 -87t-18.5 -109z"/>
      <glyph unicode="&#xb1;" horiz-adv-x="1307"
             d="M166 0v92h975v-92h-975zM166 743v93h436v399h102v-399h437v-93h-437v-401h-102v401h-436z"/>
      <glyph unicode="&#xb2;" horiz-adv-x="776"
             d="M88 578v32l348 361q47 51 81 106.5t34 118.5q0 76 -50 120t-128 44q-82 0 -130 -46t-48 -134v-2h-101q0 122 79 197t200 75q57 0 107 -17.5t88 -50t60.5 -80t22.5 -106.5q0 -133 -123 -256l-270 -272h418v-90h-588z"/>
      <glyph unicode="&#xb3;" horiz-adv-x="801"
             d="M109 819h103q4 -71 46 -119.5t132 -48.5q76 0 127 47t51 133q0 70 -47 116t-151 46h-60v86h78q66 0 115 33t49 98q0 70 -42 110t-114 40q-65 0 -111 -35t-46 -108h-101q0 110 74 171.5t184 61.5q56 0 102 -16.5t80.5 -48t54 -75.5t19.5 -100q0 -71 -38 -111t-93 -61 q66 -22 107 -78.5t41 -128.5q0 -61 -21.5 -111t-59.5 -85t-89.5 -54.5t-108.5 -19.5q-123 0 -199.5 68.5t-81.5 189.5z"/>
      <glyph unicode="&#xb4;" horiz-adv-x="530" d="M156 1169l204 304l97 -70l-232 -281z"/>
      <glyph unicode="&#xb5;" horiz-adv-x="1151"
             d="M176 -381v1393h107v-609q0 -174 73.5 -254.5t206.5 -80.5q139 0 224 85t85 259v600h107v-1012h-105v135h-4q-43 -65 -116.5 -112.5t-194.5 -47.5q-86 0 -156.5 25t-119.5 76v-457h-107z"/>
      <glyph unicode="&#xb6;" horiz-adv-x="1311"
             d="M115 1024q0 98 32.5 175t91 130t139.5 81t175 28h643v-103h-135v-1716h-111v1716h-286v-1716h-111v987q-92 0 -173 29t-139.5 83t-92 131t-33.5 175z"/>
      <glyph unicode="&#xb7;" horiz-adv-x="516"
             d="M166 659q0 41 25.5 67t66.5 26t66.5 -26t25.5 -67t-25.5 -66.5t-66.5 -25.5t-66.5 25.5t-25.5 66.5z"/>
      <glyph unicode="&#xb8;" horiz-adv-x="489"
             d="M150 -354q58 47 80.5 103t22.5 134h123q0 -43 -13.5 -87t-36 -84t-53 -72.5t-67.5 -51.5z"/>
      <glyph unicode="&#xb9;" horiz-adv-x="500" d="M72 1343l39 95h223v-856h-103v761h-159z"/>
      <glyph unicode="&#xba;" horiz-adv-x="1348"
             d="M254 1036q0 80 27.5 157t81 137.5t131 98t180.5 37.5q102 0 181 -37.5t132 -98t81 -137.5t28 -157q0 -78 -28 -154.5t-81 -137t-132 -98.5t-181 -38q-103 0 -180.5 38t-131 98.5t-81 137t-27.5 154.5zM262 279v92h825v-92h-825zM360 1036q0 -71 25 -131.5t67 -105.5 t99 -71t123 -26q67 0 124.5 26t99.5 71t66.5 105.5t24.5 131.5q0 72 -24.5 133.5t-66.5 106.5t-99.5 70.5t-124.5 25.5q-66 0 -123 -25.5t-99 -70.5t-67 -106.5t-25 -133.5z"/>
      <glyph unicode="&#xbb;" horiz-adv-x="893"
             d="M104 299l203 293l-203 293l52 47l295 -340l-295 -340zM432 299l203 293l-203 293l52 47l295 -340l-295 -340z"/>
      <glyph unicode="&#xbc;" horiz-adv-x="1503"
             d="M72 1343l39 95h223v-856h-103v761h-159zM207 0l811 1438h102l-811 -1438h-102zM762 209v43l418 609h96v-564h95v-88h-95v-204h-100v204h-414zM897 297h279v408z"/>
      <glyph unicode="&#xbd;" horiz-adv-x="1565"
             d="M72 1343l39 95h223v-856h-103v761h-159zM207 0l811 1438h102l-811 -1438h-102zM876 1v32l348 361q47 51 81 106.5t34 118.5q0 76 -50 120t-128 44q-82 0 -130 -46t-48 -134v-2h-101q0 122 79 197t200 75q57 0 107 -17.5t88 -50t60.5 -80t22.5 -106.5q0 -133 -123 -256 l-270 -272h418v-90h-588z"/>
      <glyph unicode="&#xbe;" horiz-adv-x="1747"
             d="M109 819h103q4 -71 46 -119.5t132 -48.5q76 0 127 47t51 133q0 70 -47 116t-151 46h-60v86h78q66 0 115 33t49 98q0 70 -42 110t-114 40q-65 0 -111 -35t-46 -108h-101q0 110 74 171.5t184 61.5q56 0 102 -16.5t80.5 -48t54 -75.5t19.5 -100q0 -71 -38 -111t-93 -61 q66 -22 107 -78.5t41 -128.5q0 -61 -21.5 -111t-59.5 -85t-89.5 -54.5t-108.5 -19.5q-123 0 -199.5 68.5t-81.5 189.5zM451 0l811 1438h102l-811 -1438h-102zM1005 209v43l418 609h96v-564h95v-88h-95v-204h-100v204h-414zM1140 297h279v408z"/>
      <glyph unicode="&#xbf;" horiz-adv-x="834"
             d="M23 -43q0 88 28 163t77 131t119.5 92t156.5 48l21 271h65l23 -353h-37q-90 0 -154.5 -28.5t-107.5 -77.5t-63.5 -112.5t-20.5 -133.5q0 -68 24.5 -126t67.5 -101t101.5 -67.5t123.5 -24.5q68 0 126.5 24.5t101.5 67.5t67.5 101t24.5 126h106q0 -86 -30.5 -161t-87 -130 t-135 -88t-173.5 -33q-94 0 -171.5 33t-134 88t-87.5 130t-31 161zM357 932q0 41 26 66.5t66 25.5q41 0 67 -25.5t26 -66.5t-26 -66.5t-67 -25.5q-40 0 -66 25.5t-26 66.5z"/>
      <glyph unicode="&#xc0;" horiz-adv-x="1294"
             d="M2 0l629 1466h33l628 -1466h-123l-192 453h-662l-192 -453h-121zM358 553h576l-287 680zM457 1809l96 70l205 -304l-70 -47z"/>
      <glyph unicode="&#xc1;" horiz-adv-x="1294"
             d="M2 0l629 1466h33l628 -1466h-123l-192 453h-662l-192 -453h-121zM358 553h576l-287 680zM537 1575l204 304l97 -70l-232 -281z"/>
      <glyph unicode="&#xc2;" horiz-adv-x="1294"
             d="M2 0l629 1466h33l628 -1466h-123l-192 453h-662l-192 -453h-121zM358 553h576l-287 680zM373 1577l274 302l275 -302l-60 -53l-215 207l-215 -207z"/>
      <glyph unicode="&#xc3;" horiz-adv-x="1294"
             d="M2 0l629 1466h33l628 -1466h-123l-192 453h-662l-192 -453h-121zM358 553h576l-287 680zM367 1541v30q0 86 42 140.5t105 54.5q39 0 76 -19.5t69.5 -42t62.5 -42t58 -19.5q35 0 49.5 34t14.5 91h84v-31q0 -86 -42 -140t-106 -54q-41 0 -76.5 19.5t-68.5 42t-63.5 42 t-57.5 19.5q-35 0 -49 -34t-14 -91h-84z"/>
      <glyph unicode="&#xc4;" horiz-adv-x="1294"
             d="M2 0l629 1466h33l628 -1466h-123l-192 453h-662l-192 -453h-121zM358 553h576l-287 680zM407 1659q0 35 21.5 56.5t56.5 21.5t56.5 -21.5t21.5 -56.5q0 -34 -21.5 -55.5t-56.5 -21.5t-56.5 21.5t-21.5 55.5zM731 1659q0 35 21.5 56.5t55.5 21.5q35 0 56.5 -21.5 t21.5 -56.5q0 -34 -21.5 -55.5t-56.5 -21.5q-34 0 -55.5 21.5t-21.5 55.5z"/>
      <glyph unicode="&#xc5;" horiz-adv-x="1294"
             d="M2 0l573 1337q-61 21 -100 72t-39 121q0 88 61.5 145.5t149.5 57.5t149.5 -57.5t61.5 -145.5q0 -70 -40 -121t-99 -72l573 -1337h-123l-192 453h-662l-192 -453h-121zM358 553h576l-287 680zM524 1530q0 -53 35 -89t88 -36t88 36t35 89t-35 89t-88 36t-88 -36t-35 -89z "/>
      <glyph unicode="&#xc6;" horiz-adv-x="1782"
             d="M2 0l616 1438h1049v-103h-633v-510h613v-102h-613v-621h643v-102h-753v453h-609l-192 -453h-121zM358 553h566v782h-234z"/>
      <glyph unicode="&#xc7;" horiz-adv-x="1399"
             d="M84 719q0 160 55.5 297t153.5 236.5t233 156.5t297 57q260 0 441 -131v-137q-82 80 -187.5 123t-253.5 43q-139 0 -253.5 -49t-198.5 -135t-130 -205t-46 -256q0 -139 46 -257t130 -204t198.5 -135t253.5 -49q148 0 262.5 47t196.5 133v-135q-92 -72 -208 -110t-251 -38 q-162 0 -297 57.5t-233 157t-153.5 236.5t-55.5 297zM664 -354q58 47 80.5 103t22.5 134h123q0 -43 -13.5 -87t-36 -84t-53 -72.5t-67.5 -51.5z"/>
      <glyph unicode="&#xc8;" horiz-adv-x="1034"
             d="M176 0v1438h744v-103h-633v-510h612v-102h-612v-621h643v-102h-754zM357 1809l96 70l205 -304l-70 -47z"/>
      <glyph unicode="&#xc9;" horiz-adv-x="1034"
             d="M176 0v1438h744v-103h-633v-510h612v-102h-612v-621h643v-102h-754zM437 1575l204 304l97 -70l-232 -281z"/>
      <glyph unicode="&#xca;" horiz-adv-x="1034"
             d="M176 0v1438h744v-103h-633v-510h612v-102h-612v-621h643v-102h-754zM273 1577l274 302l275 -302l-60 -53l-215 207l-215 -207z"/>
      <glyph unicode="&#xcb;" horiz-adv-x="1034"
             d="M176 0v1438h744v-103h-633v-510h612v-102h-612v-621h643v-102h-754zM307 1659q0 35 21.5 56.5t56.5 21.5t56.5 -21.5t21.5 -56.5q0 -34 -21.5 -55.5t-56.5 -21.5t-56.5 21.5t-21.5 55.5zM631 1659q0 35 21.5 56.5t55.5 21.5q35 0 56.5 -21.5t21.5 -56.5 q0 -34 -21.5 -55.5t-56.5 -21.5q-34 0 -55.5 21.5t-21.5 55.5z"/>
      <glyph unicode="&#xcc;" horiz-adv-x="463" d="M42 1809l96 70l205 -304l-70 -47zM176 0v1438h111v-1438h-111z"/>
      <glyph unicode="&#xcd;" horiz-adv-x="463" d="M122 1575l204 304l97 -70l-232 -281zM176 0v1438h111v-1438h-111z"/>
      <glyph unicode="&#xce;" horiz-adv-x="463"
             d="M-42 1577l274 302l275 -302l-60 -53l-215 207l-215 -207zM176 0v1438h111v-1438h-111z"/>
      <glyph unicode="&#xcf;" horiz-adv-x="463"
             d="M-7 1659q0 35 21.5 56.5t56.5 21.5t56.5 -21.5t21.5 -56.5q0 -34 -21.5 -55.5t-56.5 -21.5t-56.5 21.5t-21.5 55.5zM176 0v1438h111v-1438h-111zM317 1659q0 35 21.5 56.5t55.5 21.5q35 0 56.5 -21.5t21.5 -56.5q0 -34 -21.5 -55.5t-56.5 -21.5q-34 0 -55.5 21.5 t-21.5 55.5z"/>
      <glyph unicode="&#xd0;" horiz-adv-x="1378"
             d="M2 723v102h195v613h354q164 0 300 -47.5t234.5 -139.5t153.5 -226t55 -306t-55 -306t-153.5 -226.5t-234.5 -139.5t-300 -47h-354v723h-195zM307 102h234q137 0 254.5 38t203.5 115t135.5 192.5t49.5 271.5q0 155 -49.5 271t-135.5 193t-203.5 114.5t-254.5 37.5h-234 v-510h389v-102h-389v-621z"/>
      <glyph unicode="&#xd1;" horiz-adv-x="1614"
             d="M176 0v1475h27l1124 -1258v1221h111v-1475h-27l-1124 1258v-1221h-111zM527 1541v30q0 86 42 140.5t105 54.5q39 0 76 -19.5t69.5 -42t62.5 -42t58 -19.5q35 0 49.5 34t14.5 91h84v-31q0 -86 -42 -140t-106 -54q-41 0 -76.5 19.5t-68.5 42t-63.5 42t-57.5 19.5 q-35 0 -49 -34t-14 -91h-84z"/>
      <glyph unicode="&#xd2;" horiz-adv-x="1647"
             d="M84 719q0 160 55.5 297t153.5 236.5t233 156.5t297 57t297 -57t233.5 -156.5t154 -236.5t55.5 -297t-55.5 -297t-154 -236.5t-233.5 -157t-297 -57.5t-297 57.5t-233 157t-153.5 236.5t-55.5 297zM195 719q0 -139 46 -257t130 -204t198.5 -135t253.5 -49q137 0 253 49 t200 135t130 204t46 257q0 137 -46 256t-130 205t-200 135t-253 49q-139 0 -253.5 -49t-198.5 -135t-130 -205t-46 -256zM633 1809l96 70l205 -304l-70 -47z"/>
      <glyph unicode="&#xd3;" horiz-adv-x="1647"
             d="M84 719q0 160 55.5 297t153.5 236.5t233 156.5t297 57t297 -57t233.5 -156.5t154 -236.5t55.5 -297t-55.5 -297t-154 -236.5t-233.5 -157t-297 -57.5t-297 57.5t-233 157t-153.5 236.5t-55.5 297zM195 719q0 -139 46 -257t130 -204t198.5 -135t253.5 -49q137 0 253 49 t200 135t130 204t46 257q0 137 -46 256t-130 205t-200 135t-253 49q-139 0 -253.5 -49t-198.5 -135t-130 -205t-46 -256zM713 1575l204 304l97 -70l-232 -281z"/>
      <glyph unicode="&#xd4;" horiz-adv-x="1647"
             d="M84 719q0 160 55.5 297t153.5 236.5t233 156.5t297 57t297 -57t233.5 -156.5t154 -236.5t55.5 -297t-55.5 -297t-154 -236.5t-233.5 -157t-297 -57.5t-297 57.5t-233 157t-153.5 236.5t-55.5 297zM195 719q0 -139 46 -257t130 -204t198.5 -135t253.5 -49q137 0 253 49 t200 135t130 204t46 257q0 137 -46 256t-130 205t-200 135t-253 49q-139 0 -253.5 -49t-198.5 -135t-130 -205t-46 -256zM549 1577l274 302l275 -302l-60 -53l-215 207l-215 -207z"/>
      <glyph unicode="&#xd5;" horiz-adv-x="1647"
             d="M84 719q0 160 55.5 297t153.5 236.5t233 156.5t297 57t297 -57t233.5 -156.5t154 -236.5t55.5 -297t-55.5 -297t-154 -236.5t-233.5 -157t-297 -57.5t-297 57.5t-233 157t-153.5 236.5t-55.5 297zM195 719q0 -139 46 -257t130 -204t198.5 -135t253.5 -49q137 0 253 49 t200 135t130 204t46 257q0 137 -46 256t-130 205t-200 135t-253 49q-139 0 -253.5 -49t-198.5 -135t-130 -205t-46 -256zM543 1541v30q0 86 42 140.5t105 54.5q39 0 76 -19.5t69.5 -42t62.5 -42t58 -19.5q35 0 49.5 34t14.5 91h84v-31q0 -86 -42 -140t-106 -54 q-41 0 -76.5 19.5t-68.5 42t-63.5 42t-57.5 19.5q-35 0 -49 -34t-14 -91h-84z"/>
      <glyph unicode="&#xd6;" horiz-adv-x="1647"
             d="M84 719q0 160 55.5 297t153.5 236.5t233 156.5t297 57t297 -57t233.5 -156.5t154 -236.5t55.5 -297t-55.5 -297t-154 -236.5t-233.5 -157t-297 -57.5t-297 57.5t-233 157t-153.5 236.5t-55.5 297zM195 719q0 -139 46 -257t130 -204t198.5 -135t253.5 -49q137 0 253 49 t200 135t130 204t46 257q0 137 -46 256t-130 205t-200 135t-253 49q-139 0 -253.5 -49t-198.5 -135t-130 -205t-46 -256zM584 1659q0 35 21.5 56.5t56.5 21.5t56.5 -21.5t21.5 -56.5q0 -34 -21.5 -55.5t-56.5 -21.5t-56.5 21.5t-21.5 55.5zM908 1659q0 35 21.5 56.5 t55.5 21.5q35 0 56.5 -21.5t21.5 -56.5q0 -34 -21.5 -55.5t-56.5 -21.5q-34 0 -55.5 21.5t-21.5 55.5z"/>
      <glyph unicode="&#xd7;" horiz-adv-x="1307"
             d="M260 166l324 323l-324 324l70 70l323 -324l324 324l69 -70l-323 -324l323 -323l-69 -70l-324 324l-323 -324z"/>
      <glyph unicode="&#xd8;" horiz-adv-x="1647"
             d="M33 0l223 223q-82 99 -127 223.5t-45 272.5q0 160 55.5 297t153.5 236.5t233 156.5t297 57q148 0 273 -47t221 -133l151 152h140l-222 -221q84 -99 130.5 -225t46.5 -273q0 -160 -55.5 -297t-154 -236.5t-233.5 -157t-297 -57.5q-149 0 -275 48.5t-222 134.5l-154 -154 h-139zM195 719q0 -123 36.5 -228.5t102.5 -189.5l907 909q-82 72 -187.5 113t-230.5 41q-139 0 -253.5 -49t-198.5 -135t-130 -205t-46 -256zM401 229q82 -73 188.5 -114t233.5 -41q137 0 253 49t200 135t130 204t46 257q0 123 -38 229.5t-103 190.5z"/>
      <glyph unicode="&#xd9;" horiz-adv-x="1360"
             d="M166 483v955h110v-920q0 -217 105.5 -330.5t298.5 -113.5q192 0 297.5 113.5t105.5 330.5v920h111v-955q0 -110 -35 -204.5t-101.5 -163t-161.5 -106.5t-216 -38t-217 38t-162 106.5t-100.5 163t-34.5 204.5zM490 1809l96 70l205 -304l-70 -47z"/>
      <glyph unicode="&#xda;" horiz-adv-x="1360"
             d="M166 483v955h110v-920q0 -217 105.5 -330.5t298.5 -113.5q192 0 297.5 113.5t105.5 330.5v920h111v-955q0 -110 -35 -204.5t-101.5 -163t-161.5 -106.5t-216 -38t-217 38t-162 106.5t-100.5 163t-34.5 204.5zM570 1575l204 304l97 -70l-232 -281z"/>
      <glyph unicode="&#xdb;" horiz-adv-x="1360"
             d="M166 483v955h110v-920q0 -217 105.5 -330.5t298.5 -113.5q192 0 297.5 113.5t105.5 330.5v920h111v-955q0 -110 -35 -204.5t-101.5 -163t-161.5 -106.5t-216 -38t-217 38t-162 106.5t-100.5 163t-34.5 204.5zM406 1577l274 302l275 -302l-60 -53l-215 207l-215 -207z"/>
      <glyph unicode="&#xdc;" horiz-adv-x="1360"
             d="M166 483v955h110v-920q0 -217 105.5 -330.5t298.5 -113.5q192 0 297.5 113.5t105.5 330.5v920h111v-955q0 -110 -35 -204.5t-101.5 -163t-161.5 -106.5t-216 -38t-217 38t-162 106.5t-100.5 163t-34.5 204.5zM440 1659q0 35 21.5 56.5t56.5 21.5t56.5 -21.5t21.5 -56.5 q0 -34 -21.5 -55.5t-56.5 -21.5t-56.5 21.5t-21.5 55.5zM764 1659q0 35 21.5 56.5t55.5 21.5q35 0 56.5 -21.5t21.5 -56.5q0 -34 -21.5 -55.5t-56.5 -21.5q-34 0 -55.5 21.5t-21.5 55.5z"/>
      <glyph unicode="&#xdd;" horiz-adv-x="1073"
             d="M12 1438h127l398 -709l399 709h125l-469 -820v-618h-111v618zM426 1575l204 304l97 -70l-232 -281z"/>
      <glyph unicode="&#xde;" horiz-adv-x="1022"
             d="M176 0v1438h111v-303h245q95 0 175.5 -28t139 -81t91.5 -130t33 -175t-34 -175t-92.5 -131.5t-139 -83t-173.5 -28.5h-245v-303h-111zM287 403h243q160 0 246 89.5t86 226.5t-86 226t-246 89h-243v-631z"/>
      <glyph unicode="&#xdf;" horiz-adv-x="1212"
             d="M63 915v97h150v71q0 72 22.5 140.5t71.5 123t126 87t185 32.5q89 0 161.5 -29.5t123.5 -79.5t79 -116.5t28 -140.5q0 -56 -16.5 -104t-42 -86t-59.5 -66.5t-69 -46.5v-4q51 -13 105.5 -44.5t98.5 -82t72.5 -116t28.5 -140.5q0 -101 -33.5 -179.5t-91 -134t-133 -84 t-159.5 -28.5q-68 0 -120 9t-85 23v99q31 -17 81 -28t115 -11q74 0 133.5 26.5t100.5 70.5t63.5 104.5t22.5 128.5q0 61 -24.5 119.5t-70.5 102.5t-109.5 70.5t-139.5 26.5h-70v90h29q55 0 103 22.5t85 61.5t57.5 89t20.5 104q0 125 -79 203.5t-206 78.5q-77 0 -133.5 -23.5 t-93.5 -63.5t-54.5 -94t-17.5 -116v-1077h-106v915h-150z"/>
      <glyph unicode="&#xe0;"
             d="M84 506q0 100 32.5 195.5t97 170t160 119.5t220.5 45q143 0 242.5 -63.5t156.5 -161.5h4v201h105v-1012h-105v201h-4q-57 -99 -156.5 -162.5t-242.5 -63.5q-125 0 -220.5 45.5t-160 120t-97 170t-32.5 195.5zM190 506q0 -94 30 -175t84 -139.5t128 -91t162 -32.5 t161.5 32.5t127 91t84 139.5t30.5 175t-30.5 175t-84 139.5t-127 91t-161.5 32.5t-162 -32.5t-128 -91t-84 -139.5t-30 -175zM404 1403l96 70l205 -304l-70 -47z"/>
      <glyph unicode="&#xe1;"
             d="M84 506q0 100 32.5 195.5t97 170t160 119.5t220.5 45q143 0 242.5 -63.5t156.5 -161.5h4v201h105v-1012h-105v201h-4q-57 -99 -156.5 -162.5t-242.5 -63.5q-125 0 -220.5 45.5t-160 120t-97 170t-32.5 195.5zM190 506q0 -94 30 -175t84 -139.5t128 -91t162 -32.5 t161.5 32.5t127 91t84 139.5t30.5 175t-30.5 175t-84 139.5t-127 91t-161.5 32.5t-162 -32.5t-128 -91t-84 -139.5t-30 -175zM484 1169l204 304l97 -70l-232 -281z"/>
      <glyph unicode="&#xe2;"
             d="M84 506q0 100 32.5 195.5t97 170t160 119.5t220.5 45q143 0 242.5 -63.5t156.5 -161.5h4v201h105v-1012h-105v201h-4q-57 -99 -156.5 -162.5t-242.5 -63.5q-125 0 -220.5 45.5t-160 120t-97 170t-32.5 195.5zM190 506q0 -94 30 -175t84 -139.5t128 -91t162 -32.5 t161.5 32.5t127 91t84 139.5t30.5 175t-30.5 175t-84 139.5t-127 91t-161.5 32.5t-162 -32.5t-128 -91t-84 -139.5t-30 -175zM320 1171l274 302l275 -302l-60 -53l-215 207l-215 -207z"/>
      <glyph unicode="&#xe3;"
             d="M84 506q0 100 32.5 195.5t97 170t160 119.5t220.5 45q143 0 242.5 -63.5t156.5 -161.5h4v201h105v-1012h-105v201h-4q-57 -99 -156.5 -162.5t-242.5 -63.5q-125 0 -220.5 45.5t-160 120t-97 170t-32.5 195.5zM190 506q0 -94 30 -175t84 -139.5t128 -91t162 -32.5 t161.5 32.5t127 91t84 139.5t30.5 175t-30.5 175t-84 139.5t-127 91t-161.5 32.5t-162 -32.5t-128 -91t-84 -139.5t-30 -175zM314 1135v30q0 86 42 140.5t105 54.5q39 0 76 -19.5t69.5 -42t62.5 -42t58 -19.5q35 0 49.5 34t14.5 91h84v-31q0 -86 -42 -140t-106 -54 q-41 0 -76.5 19.5t-68.5 42t-63.5 42t-57.5 19.5q-35 0 -49 -34t-14 -91h-84z"/>
      <glyph unicode="&#xe4;"
             d="M84 506q0 100 32.5 195.5t97 170t160 119.5t220.5 45q143 0 242.5 -63.5t156.5 -161.5h4v201h105v-1012h-105v201h-4q-57 -99 -156.5 -162.5t-242.5 -63.5q-125 0 -220.5 45.5t-160 120t-97 170t-32.5 195.5zM190 506q0 -94 30 -175t84 -139.5t128 -91t162 -32.5 t161.5 32.5t127 91t84 139.5t30.5 175t-30.5 175t-84 139.5t-127 91t-161.5 32.5t-162 -32.5t-128 -91t-84 -139.5t-30 -175zM354 1253q0 35 21.5 56.5t56.5 21.5t56.5 -21.5t21.5 -56.5q0 -34 -21.5 -55.5t-56.5 -21.5t-56.5 21.5t-21.5 55.5zM678 1253q0 35 21.5 56.5 t55.5 21.5q35 0 56.5 -21.5t21.5 -56.5q0 -34 -21.5 -55.5t-56.5 -21.5q-34 0 -55.5 21.5t-21.5 55.5z"/>
      <glyph unicode="&#xe5;"
             d="M84 506q0 100 32.5 195.5t97 170t160 119.5t220.5 45q143 0 242.5 -63.5t156.5 -161.5h4v201h105v-1012h-105v201h-4q-57 -99 -156.5 -162.5t-242.5 -63.5q-125 0 -220.5 45.5t-160 120t-97 170t-32.5 195.5zM190 506q0 -94 30 -175t84 -139.5t128 -91t162 -32.5 t161.5 32.5t127 91t84 139.5t30.5 175t-30.5 175t-84 139.5t-127 91t-161.5 32.5t-162 -32.5t-128 -91t-84 -139.5t-30 -175zM383 1329q0 88 61.5 145.5t149.5 57.5t149.5 -57.5t61.5 -145.5t-61.5 -145.5t-149.5 -57.5t-149.5 57.5t-61.5 145.5zM471 1329q0 -53 34.5 -89 t88.5 -36q53 0 87.5 36t34.5 89t-34.5 89t-87.5 36q-54 0 -88.5 -36t-34.5 -89z"/>
      <glyph unicode="&#xe6;" horiz-adv-x="1894"
             d="M59 281q0 145 107.5 228t324.5 83h340v43q0 160 -74.5 234.5t-222.5 74.5q-227 0 -327 -174l-86 49q67 117 170.5 167t245.5 50q149 0 243 -59t131 -174q58 100 160 166.5t256 66.5q125 0 216 -45t150.5 -119.5t88 -170t28.5 -195.5v-4h-874q0 -86 26.5 -164t75.5 -138.5 t122 -96t169 -35.5q129 0 220 63.5t145 167.5l90 -49q-70 -135 -194 -205t-269 -70q-82 0 -149.5 21.5t-122 59.5t-95.5 90.5t-67 111.5q-54 -123 -164.5 -203t-274.5 -80q-198 0 -293.5 83t-95.5 223zM166 285q0 -92 68.5 -154.5t213.5 -62.5q78 0 148 29.5t122 82.5 t82.5 130t30.5 171v21h-352q-151 0 -232 -53.5t-81 -163.5zM942 592h762q-10 80 -43 144.5t-82 111.5t-113.5 72.5t-140.5 25.5q-80 0 -145.5 -27.5t-114.5 -74.5t-80 -111.5t-43 -140.5z"/>
      <glyph unicode="&#xe7;" horiz-adv-x="956"
             d="M84 504q0 96 32.5 191.5t99.5 171t165 122.5t227 47q80 0 145.5 -17.5t106.5 -41.5v-111q-43 33 -106.5 55.5t-147.5 22.5q-90 0 -167 -33.5t-132 -92t-86 -138.5t-31 -174q0 -92 30 -172t85 -139.5t133 -93t172 -33.5q84 0 145.5 22.5t112.5 61.5v-111 q-47 -27 -112.5 -46.5t-149.5 -19.5q-129 0 -226 46.5t-162.5 121t-99.5 170t-34 191.5zM412 -354q58 47 80.5 103t22.5 134h123q0 -43 -13.5 -87t-36 -84t-53 -72.5t-67.5 -51.5z"/>
      <glyph unicode="&#xe8;" horiz-adv-x="1147"
             d="M84 508q0 92 29.5 186t90 170t154 124t222.5 48q124 0 215.5 -45t151 -119.5t88 -170t28.5 -195.5v-4h-875q0 -86 27 -164t76 -138.5t121.5 -96t169.5 -35.5q129 0 220 63.5t144 167.5l90 -49q-69 -135 -193 -205t-270 -70q-120 0 -211.5 47.5t-153 122t-93 170 t-31.5 193.5zM195 592h761q-10 80 -42.5 144.5t-82 111.5t-114 72.5t-140.5 25.5q-79 0 -144.5 -27.5t-115 -74.5t-80 -111.5t-42.5 -140.5zM389 1403l96 70l205 -304l-70 -47z"/>
      <glyph unicode="&#xe9;" horiz-adv-x="1147"
             d="M84 508q0 92 29.5 186t90 170t154 124t222.5 48q124 0 215.5 -45t151 -119.5t88 -170t28.5 -195.5v-4h-875q0 -86 27 -164t76 -138.5t121.5 -96t169.5 -35.5q129 0 220 63.5t144 167.5l90 -49q-69 -135 -193 -205t-270 -70q-120 0 -211.5 47.5t-153 122t-93 170 t-31.5 193.5zM195 592h761q-10 80 -42.5 144.5t-82 111.5t-114 72.5t-140.5 25.5q-79 0 -144.5 -27.5t-115 -74.5t-80 -111.5t-42.5 -140.5zM469 1169l204 304l97 -70l-232 -281z"/>
      <glyph unicode="&#xea;" horiz-adv-x="1147"
             d="M84 508q0 92 29.5 186t90 170t154 124t222.5 48q124 0 215.5 -45t151 -119.5t88 -170t28.5 -195.5v-4h-875q0 -86 27 -164t76 -138.5t121.5 -96t169.5 -35.5q129 0 220 63.5t144 167.5l90 -49q-69 -135 -193 -205t-270 -70q-120 0 -211.5 47.5t-153 122t-93 170 t-31.5 193.5zM195 592h761q-10 80 -42.5 144.5t-82 111.5t-114 72.5t-140.5 25.5q-79 0 -144.5 -27.5t-115 -74.5t-80 -111.5t-42.5 -140.5zM305 1171l274 302l275 -302l-60 -53l-215 207l-215 -207z"/>
      <glyph unicode="&#xeb;" horiz-adv-x="1147"
             d="M84 508q0 92 29.5 186t90 170t154 124t222.5 48q124 0 215.5 -45t151 -119.5t88 -170t28.5 -195.5v-4h-875q0 -86 27 -164t76 -138.5t121.5 -96t169.5 -35.5q129 0 220 63.5t144 167.5l90 -49q-69 -135 -193 -205t-270 -70q-120 0 -211.5 47.5t-153 122t-93 170 t-31.5 193.5zM195 592h761q-10 80 -42.5 144.5t-82 111.5t-114 72.5t-140.5 25.5q-79 0 -144.5 -27.5t-115 -74.5t-80 -111.5t-42.5 -140.5zM340 1253q0 35 21.5 56.5t56.5 21.5t56.5 -21.5t21.5 -56.5q0 -34 -21.5 -55.5t-56.5 -21.5t-56.5 21.5t-21.5 55.5zM664 1253 q0 35 21.5 56.5t55.5 21.5q35 0 56.5 -21.5t21.5 -56.5q0 -34 -21.5 -55.5t-56.5 -21.5q-34 0 -55.5 21.5t-21.5 55.5z"/>
      <glyph unicode="&#xec;" horiz-adv-x="459" d="M40 1403l96 70l205 -304l-70 -47zM176 0v1012h107v-1012h-107z"/>
      <glyph unicode="&#xed;" horiz-adv-x="459" d="M120 1169l204 304l97 -70l-232 -281zM176 0v1012h107v-1012h-107z"/>
      <glyph unicode="&#xee;" horiz-adv-x="459"
             d="M-44 1171l274 302l275 -302l-60 -53l-215 207l-215 -207zM176 0v1012h107v-1012h-107z"/>
      <glyph unicode="&#xef;" horiz-adv-x="459"
             d="M-9 1253q0 35 21.5 56.5t56.5 21.5t56.5 -21.5t21.5 -56.5q0 -34 -21.5 -55.5t-56.5 -21.5t-56.5 21.5t-21.5 55.5zM176 0v1012h107v-1012h-107zM315 1253q0 35 21.5 56.5t55.5 21.5q35 0 56.5 -21.5t21.5 -56.5q0 -34 -21.5 -55.5t-56.5 -21.5q-34 0 -55.5 21.5 t-21.5 55.5z"/>
      <glyph unicode="&#xf0;" horiz-adv-x="1208"
             d="M84 506q0 98 34 192.5t98.5 168t157.5 119.5t212 46q41 0 92 -12t86 -33l-187 225l-118 -100l-60 74l119 98l-96 117l80 65l94 -116l139 116l58 -71l-138 -117l342 -418q127 -155 127 -354q0 -98 -33.5 -192.5t-100 -170t-164 -122t-222.5 -46.5q-127 0 -223 46.5 t-162.5 122t-100.5 170t-34 192.5zM190 506q0 -94 31 -175t86 -139.5t131 -91t166 -32.5q88 0 164 32.5t131 91t87 139.5t32 175t-32 175t-87 139.5t-131 91t-164 32.5q-90 0 -166 -32.5t-131 -91t-86 -139.5t-31 -175z"/>
      <glyph unicode="&#xf1;" horiz-adv-x="1151"
             d="M176 0v1012h105v-135h4q43 65 119.5 112t199.5 47q86 0 159 -25.5t124 -76.5t79.5 -126t28.5 -173v-635h-106v608q0 174 -78 255t-211 81q-139 0 -228 -86t-89 -258v-600h-107zM305 1135v30q0 86 42 140.5t105 54.5q39 0 76 -19.5t69.5 -42t62.5 -42t58 -19.5 q35 0 49.5 34t14.5 91h84v-31q0 -86 -42 -140t-106 -54q-41 0 -76.5 19.5t-68.5 42t-63.5 42t-57.5 19.5q-35 0 -49 -34t-14 -91h-84z"/>
      <glyph unicode="&#xf2;" horiz-adv-x="1208"
             d="M84 506q0 98 34 192.5t100.5 170t162.5 121.5t223 46q125 0 222.5 -46t164 -121.5t100 -170t33.5 -192.5t-33.5 -192.5t-100 -170t-164 -122t-222.5 -46.5q-127 0 -223 46.5t-162.5 122t-100.5 170t-34 192.5zM190 506q0 -94 31 -175t86 -139.5t131 -91t166 -32.5 q88 0 164 32.5t131 91t87 139.5t32 175t-32 175t-87 139.5t-131 91t-164 32.5q-90 0 -166 -32.5t-131 -91t-86 -139.5t-31 -175zM414 1403l96 70l205 -304l-70 -47z"/>
      <glyph unicode="&#xf3;" horiz-adv-x="1208"
             d="M84 506q0 98 34 192.5t100.5 170t162.5 121.5t223 46q125 0 222.5 -46t164 -121.5t100 -170t33.5 -192.5t-33.5 -192.5t-100 -170t-164 -122t-222.5 -46.5q-127 0 -223 46.5t-162.5 122t-100.5 170t-34 192.5zM190 506q0 -94 31 -175t86 -139.5t131 -91t166 -32.5 q88 0 164 32.5t131 91t87 139.5t32 175t-32 175t-87 139.5t-131 91t-164 32.5q-90 0 -166 -32.5t-131 -91t-86 -139.5t-31 -175zM494 1169l204 304l97 -70l-232 -281z"/>
      <glyph unicode="&#xf4;" horiz-adv-x="1208"
             d="M84 506q0 98 34 192.5t100.5 170t162.5 121.5t223 46q125 0 222.5 -46t164 -121.5t100 -170t33.5 -192.5t-33.5 -192.5t-100 -170t-164 -122t-222.5 -46.5q-127 0 -223 46.5t-162.5 122t-100.5 170t-34 192.5zM190 506q0 -94 31 -175t86 -139.5t131 -91t166 -32.5 q88 0 164 32.5t131 91t87 139.5t32 175t-32 175t-87 139.5t-131 91t-164 32.5q-90 0 -166 -32.5t-131 -91t-86 -139.5t-31 -175zM330 1171l274 302l275 -302l-60 -53l-215 207l-215 -207z"/>
      <glyph unicode="&#xf5;" horiz-adv-x="1208"
             d="M84 506q0 98 34 192.5t100.5 170t162.5 121.5t223 46q125 0 222.5 -46t164 -121.5t100 -170t33.5 -192.5t-33.5 -192.5t-100 -170t-164 -122t-222.5 -46.5q-127 0 -223 46.5t-162.5 122t-100.5 170t-34 192.5zM190 506q0 -94 31 -175t86 -139.5t131 -91t166 -32.5 q88 0 164 32.5t131 91t87 139.5t32 175t-32 175t-87 139.5t-131 91t-164 32.5q-90 0 -166 -32.5t-131 -91t-86 -139.5t-31 -175zM324 1135v30q0 86 42 140.5t105 54.5q39 0 76 -19.5t69.5 -42t62.5 -42t58 -19.5q35 0 49.5 34t14.5 91h84v-31q0 -86 -42 -140t-106 -54 q-41 0 -76.5 19.5t-68.5 42t-63.5 42t-57.5 19.5q-35 0 -49 -34t-14 -91h-84z"/>
      <glyph unicode="&#xf6;" horiz-adv-x="1208"
             d="M84 506q0 98 34 192.5t100.5 170t162.5 121.5t223 46q125 0 222.5 -46t164 -121.5t100 -170t33.5 -192.5t-33.5 -192.5t-100 -170t-164 -122t-222.5 -46.5q-127 0 -223 46.5t-162.5 122t-100.5 170t-34 192.5zM190 506q0 -94 31 -175t86 -139.5t131 -91t166 -32.5 q88 0 164 32.5t131 91t87 139.5t32 175t-32 175t-87 139.5t-131 91t-164 32.5q-90 0 -166 -32.5t-131 -91t-86 -139.5t-31 -175zM364 1253q0 35 21.5 56.5t56.5 21.5t56.5 -21.5t21.5 -56.5q0 -34 -21.5 -55.5t-56.5 -21.5t-56.5 21.5t-21.5 55.5zM688 1253q0 35 21.5 56.5 t55.5 21.5q35 0 56.5 -21.5t21.5 -56.5q0 -34 -21.5 -55.5t-56.5 -21.5q-34 0 -55.5 21.5t-21.5 55.5z"/>
      <glyph unicode="&#xf7;" horiz-adv-x="1307"
             d="M166 442v93h975v-93h-975zM561 68q0 41 25.5 66.5t66.5 25.5t66.5 -25.5t25.5 -66.5t-25.5 -67t-66.5 -26t-66.5 26t-25.5 67zM561 909q0 41 25.5 66.5t66.5 25.5t66.5 -25.5t25.5 -66.5t-25.5 -66.5t-66.5 -25.5t-66.5 25.5t-25.5 66.5z"/>
      <glyph unicode="&#xf8;" horiz-adv-x="1208"
             d="M41 0l160 162q-60 71 -88.5 161.5t-28.5 182.5q0 98 34 192.5t100.5 170t162.5 121.5t223 46q107 0 192 -33.5t150 -89.5l98 99h121l-159 -162q59 -72 88.5 -162t29.5 -182q0 -98 -33.5 -192.5t-100 -170t-164 -122t-222.5 -46.5q-108 0 -194 34t-150 91l-100 -100h-119z M190 506q0 -78 21.5 -147.5t60.5 -125.5l604 609q-53 47 -122.5 74.5t-149.5 27.5q-90 0 -166 -32.5t-131 -91t-86 -139.5t-31 -175zM330 170q53 -49 122.5 -75.5t151.5 -26.5q88 0 164 32.5t131 91t87 139.5t32 175q0 78 -21.5 147.5t-62.5 124.5z"/>
      <glyph unicode="&#xf9;" horiz-adv-x="1135"
             d="M156 377v635h106v-609q0 -174 74 -254.5t207 -80.5q139 0 224 85t85 259v600h106v-1012h-104v135h-4q-43 -65 -117 -112.5t-194 -47.5q-175 0 -279 101.5t-104 300.5zM367 1403l96 70l205 -304l-70 -47z"/>
      <glyph unicode="&#xfa;" horiz-adv-x="1135"
             d="M156 377v635h106v-609q0 -174 74 -254.5t207 -80.5q139 0 224 85t85 259v600h106v-1012h-104v135h-4q-43 -65 -117 -112.5t-194 -47.5q-175 0 -279 101.5t-104 300.5zM447 1169l204 304l97 -70l-232 -281z"/>
      <glyph unicode="&#xfb;" horiz-adv-x="1135"
             d="M156 377v635h106v-609q0 -174 74 -254.5t207 -80.5q139 0 224 85t85 259v600h106v-1012h-104v135h-4q-43 -65 -117 -112.5t-194 -47.5q-175 0 -279 101.5t-104 300.5zM283 1171l274 302l275 -302l-60 -53l-215 207l-215 -207z"/>
      <glyph unicode="&#xfc;" horiz-adv-x="1135"
             d="M156 377v635h106v-609q0 -174 74 -254.5t207 -80.5q139 0 224 85t85 259v600h106v-1012h-104v135h-4q-43 -65 -117 -112.5t-194 -47.5q-175 0 -279 101.5t-104 300.5zM317 1253q0 35 21.5 56.5t56.5 21.5t56.5 -21.5t21.5 -56.5q0 -34 -21.5 -55.5t-56.5 -21.5 t-56.5 21.5t-21.5 55.5zM641 1253q0 35 21.5 56.5t55.5 21.5q35 0 56.5 -21.5t21.5 -56.5q0 -34 -21.5 -55.5t-56.5 -21.5q-34 0 -55.5 21.5t-21.5 55.5z"/>
      <glyph unicode="&#xfd;" horiz-adv-x="891"
             d="M-18 1012h112l350 -834h4l351 834h110l-510 -1182q-18 -45 -40.5 -87t-54.5 -75t-78 -53.5t-111 -20.5q-39 0 -70 6.5t-49 16.5v98q22 -10 52 -17t63 -7q67 0 109 36.5t81 125.5l90 206zM336 1169l204 304l97 -70l-232 -281z"/>
      <glyph unicode="&#xfe;"
             d="M176 -381v1774h107v-576h4q26 45 64 85t87 69.5t110.5 47t135.5 17.5q125 0 220 -45t159.5 -119.5t97.5 -170t33 -195.5t-33 -195.5t-97.5 -170t-159.5 -120t-220 -45.5q-74 0 -135.5 17.5t-110.5 47.5t-87 70t-64 85h-4v-576h-107zM281 506q0 -94 29.5 -175t83.5 -139.5 t128 -91t162 -32.5t162 32.5t127 91t83.5 139.5t30.5 175t-30.5 175t-83.5 139.5t-127 91t-162 32.5t-162 -32.5t-128 -91t-83.5 -139.5t-29.5 -175z"/>
      <glyph unicode="&#xff;" horiz-adv-x="891"
             d="M-18 1012h112l350 -834h4l351 834h110l-510 -1182q-18 -45 -40.5 -87t-54.5 -75t-78 -53.5t-111 -20.5q-39 0 -70 6.5t-49 16.5v98q22 -10 52 -17t63 -7q67 0 109 36.5t81 125.5l90 206zM207 1253q0 35 21.5 56.5t56.5 21.5t56.5 -21.5t21.5 -56.5q0 -34 -21.5 -55.5 t-56.5 -21.5t-56.5 21.5t-21.5 55.5zM531 1253q0 35 21.5 56.5t55.5 21.5q35 0 56.5 -21.5t21.5 -56.5q0 -34 -21.5 -55.5t-56.5 -21.5q-34 0 -55.5 21.5t-21.5 55.5z"/>
      <glyph unicode="&#x152;" horiz-adv-x="1917"
             d="M84 719q0 172 55.5 306t153.5 226t234.5 139.5t299.5 47.5h975v-103h-633v-510h613v-102h-613v-621h643v-102h-985q-163 0 -299.5 47t-234.5 139.5t-153.5 226.5t-55.5 306zM195 719q0 -156 48 -271.5t134 -192.5t203.5 -115t257.5 -38h221v1233h-221 q-140 0 -257.5 -37.5t-203.5 -114.5t-134 -193t-48 -271z"/>
      <glyph unicode="&#x153;" horiz-adv-x="2081"
             d="M84 506q0 98 34 192.5t100.5 170t162.5 121.5t223 46q86 0 159 -23.5t131 -63.5t102 -94t73 -116q25 62 63.5 116t94 94t127 63.5t159.5 23.5q125 0 216.5 -45t150.5 -119.5t88 -170t29 -195.5v-4h-875q0 -86 27 -164t76 -138.5t121.5 -96t168.5 -35.5q129 0 220.5 63.5 t144.5 167.5l90 -49q-70 -135 -193.5 -205t-269.5 -70q-84 0 -152.5 24t-123.5 63.5t-95 94t-67 115.5q-29 -61 -72 -115.5t-101 -94t-131 -63.5t-161 -24q-127 0 -223 46.5t-162.5 122t-100.5 170t-34 192.5zM190 506q0 -94 31 -175t86 -139.5t131 -91t166 -32.5 q88 0 164 32.5t131 91t87 139.5t32 175t-32 175t-87 139.5t-131 91t-164 32.5q-90 0 -166 -32.5t-131 -91t-86 -139.5t-31 -175zM1128 592h762q-10 80 -43 144.5t-82 111.5t-113.5 72.5t-140.5 25.5q-79 0 -145 -27.5t-115 -74.5t-79.5 -111.5t-43.5 -140.5z"/>
      <glyph unicode="&#x178;" horiz-adv-x="1073"
             d="M12 1438h127l398 -709l399 709h125l-469 -820v-618h-111v618zM297 1659q0 35 21.5 56.5t56.5 21.5t56.5 -21.5t21.5 -56.5q0 -34 -21.5 -55.5t-56.5 -21.5t-56.5 21.5t-21.5 55.5zM621 1659q0 35 21.5 56.5t55.5 21.5q35 0 56.5 -21.5t21.5 -56.5q0 -34 -21.5 -55.5 t-56.5 -21.5q-34 0 -55.5 21.5t-21.5 55.5z"/>
      <glyph unicode="&#x2c6;" horiz-adv-x="778" d="M115 1171l274 302l275 -302l-60 -53l-215 207l-215 -207z"/>
      <glyph unicode="&#x2dc;" horiz-adv-x="791"
             d="M115 1135v30q0 86 42 140.5t105 54.5q39 0 76 -19.5t69.5 -42t62.5 -42t58 -19.5q35 0 49.5 34t14.5 91h84v-31q0 -86 -42 -140t-106 -54q-41 0 -76.5 19.5t-68.5 42t-63.5 42t-57.5 19.5q-35 0 -49 -34t-14 -91h-84z"/>
      <glyph unicode="&#x2000;" horiz-adv-x="939"/>
      <glyph unicode="&#x2001;" horiz-adv-x="1879"/>
      <glyph unicode="&#x2002;" horiz-adv-x="939"/>
      <glyph unicode="&#x2003;" horiz-adv-x="1879"/>
      <glyph unicode="&#x2004;" horiz-adv-x="626"/>
      <glyph unicode="&#x2005;" horiz-adv-x="469"/>
      <glyph unicode="&#x2006;" horiz-adv-x="313"/>
      <glyph unicode="&#x2007;" horiz-adv-x="313"/>
      <glyph unicode="&#x2008;" horiz-adv-x="234"/>
      <glyph unicode="&#x2009;" horiz-adv-x="375"/>
      <glyph unicode="&#x200a;" horiz-adv-x="104"/>
      <glyph unicode="&#x2010;" horiz-adv-x="616" d="M84 616v111h448v-111h-448z"/>
      <glyph unicode="&#x2011;" horiz-adv-x="616" d="M84 616v111h448v-111h-448z"/>
      <glyph unicode="&#x2012;" horiz-adv-x="616" d="M84 616v111h448v-111h-448z"/>
      <glyph unicode="&#x2013;" horiz-adv-x="1028" d="M63 625v92h902v-92h-902z"/>
      <glyph unicode="&#x2014;" horiz-adv-x="1540" d="M63 625v92h1414v-92h-1414z"/>
      <glyph unicode="&#x2018;" horiz-adv-x="393"
             d="M88 1147q0 41 14.5 84t39 83t56 75.5t64.5 60.5l47 -43q-39 -41 -68.5 -92t-33.5 -92q26 -6 46.5 -31t20.5 -62q0 -38 -26.5 -64t-65.5 -26q-37 0 -65.5 26t-28.5 81z"/>
      <glyph unicode="&#x2019;" horiz-adv-x="393"
             d="M84 1083q39 41 68.5 92.5t33.5 92.5q-26 6 -46.5 30.5t-20.5 61.5q0 39 26.5 64.5t65.5 25.5q37 0 65.5 -25.5t28.5 -81.5q0 -40 -14.5 -83t-39 -83t-56 -76t-64.5 -61z"/>
      <glyph unicode="&#x201a;" horiz-adv-x="393"
             d="M84 -195q39 41 68.5 92.5t33.5 92.5q-26 6 -46.5 30.5t-20.5 61.5q0 39 26.5 64.5t65.5 25.5q37 0 65.5 -25.5t28.5 -80.5q0 -41 -14.5 -84t-39 -83t-56 -76t-64.5 -61z"/>
      <glyph unicode="&#x201c;" horiz-adv-x="659"
             d="M88 1147q0 41 14.5 84t39 83t56 75.5t64.5 60.5l47 -43q-39 -41 -68.5 -92t-33.5 -92q26 -6 46.5 -31t20.5 -62q0 -38 -26.5 -64t-65.5 -26q-37 0 -65.5 26t-28.5 81zM354 1147q0 41 14.5 84t39 83t56 75.5t64.5 60.5l47 -43q-39 -41 -68.5 -92t-33.5 -92q26 -6 46.5 -31 t20.5 -62q0 -38 -26.5 -64t-65.5 -26q-37 0 -65.5 26t-28.5 81z"/>
      <glyph unicode="&#x201d;" horiz-adv-x="659"
             d="M84 1083q39 41 68.5 92.5t33.5 92.5q-26 6 -46.5 30.5t-20.5 61.5q0 39 26.5 64.5t65.5 25.5q37 0 65.5 -25.5t28.5 -81.5q0 -40 -14.5 -83t-39 -83t-56 -76t-64.5 -61zM350 1083q39 41 68.5 92.5t33.5 92.5q-26 6 -46.5 30.5t-20.5 61.5q0 39 26.5 64.5t65.5 25.5 q37 0 65.5 -25.5t28.5 -81.5q0 -40 -14.5 -83t-39 -83t-56 -76t-64.5 -61z"/>
      <glyph unicode="&#x201e;" horiz-adv-x="659"
             d="M84 -195q39 41 68.5 92.5t33.5 92.5q-26 6 -46.5 30.5t-20.5 61.5q0 39 26.5 64.5t65.5 25.5q37 0 65.5 -25.5t28.5 -80.5q0 -41 -14.5 -84t-39 -83t-56 -76t-64.5 -61zM350 -195q39 41 68.5 92.5t33.5 92.5q-26 6 -46.5 30.5t-20.5 61.5q0 39 26.5 64.5t65.5 25.5 q37 0 65.5 -25.5t28.5 -80.5q0 -41 -14.5 -84t-39 -83t-56 -76t-64.5 -61z"/>
      <glyph unicode="&#x2022;" horiz-adv-x="705"
             d="M166 659q0 78 52 132.5t134 54.5t134.5 -54.5t52.5 -132.5q0 -77 -52.5 -131.5t-134.5 -54.5t-134 54.5t-52 131.5z"/>
      <glyph unicode="&#x2026;" horiz-adv-x="1257"
             d="M119 80q0 41 25.5 66.5t66.5 25.5t66.5 -25.5t25.5 -66.5t-25.5 -66.5t-66.5 -25.5t-66.5 25.5t-25.5 66.5zM537 80q0 41 25.5 66.5t66.5 25.5t66.5 -25.5t25.5 -66.5t-25.5 -66.5t-66.5 -25.5t-66.5 25.5t-25.5 66.5zM955 80q0 41 25.5 66.5t66.5 25.5t66.5 -25.5 t25.5 -66.5t-25.5 -66.5t-66.5 -25.5t-66.5 25.5t-25.5 66.5z"/>
      <glyph unicode="&#x202f;" horiz-adv-x="375"/>
      <glyph unicode="&#x2039;" horiz-adv-x="565" d="M115 592l295 340l51 -47l-203 -293l203 -293l-51 -47z"/>
      <glyph unicode="&#x203a;" horiz-adv-x="565" d="M104 299l203 293l-203 293l52 47l295 -340l-295 -340z"/>
      <glyph unicode="&#x205f;" horiz-adv-x="469"/>
      <glyph unicode="&#x20ac;" horiz-adv-x="1358"
             d="M113 719q0 160 52 297t144 236.5t219 156.5t279 57q239 0 409 -129v-143q-75 78 -174.5 121t-234.5 43q-105 0 -196 -33t-162.5 -91t-123 -139t-77.5 -180h823v-92h-842q-6 -53 -6 -104q0 -23 1 -45.5t3 -44.5h844v-92h-827q24 -103 75.5 -187t124 -144.5t164.5 -93 t199 -32.5q135 0 242.5 46t183.5 132v-141q-86 -70 -192.5 -108t-233.5 -38q-152 0 -279 57.5t-219 157t-144 236.5t-52 297z"/>
      <glyph unicode="&#x2122;" horiz-adv-x="1151"
             d="M18 1368v70h396v-70h-158v-467h-80v467h-158zM440 901l101 561h22l201 -438l201 438h22l100 -561h-75l-64 367l-174 -389h-20l-174 389l-64 -367h-76z"/>
      <glyph unicode="&#x25fc;" horiz-adv-x="1010" d="M0 0v1010h1010v-1010h-1010z"/>
      <glyph unicode="&#xfb01;" horiz-adv-x="1081"
             d="M63 915v97h150v125q0 155 78 240t213 85q35 0 67.5 -5t53.5 -13v-105q-50 27 -111 27q-92 0 -143.5 -56.5t-51.5 -183.5v-114h306v-97h-306v-915h-106v915h-150zM775 1266q0 34 21.5 55.5t55.5 21.5q35 0 56.5 -21.5t21.5 -55.5q0 -35 -21.5 -56.5t-56.5 -21.5 q-34 0 -55.5 21.5t-21.5 56.5zM799 0v1012h107v-1012h-107z"/>
      <glyph unicode="&#xfb02;" horiz-adv-x="1081"
             d="M63 915v97h150v125q0 155 78 240t213 85q35 0 67.5 -5t53.5 -13v-105q-50 27 -111 27q-92 0 -143.5 -56.5t-51.5 -183.5v-114h306v-97h-306v-915h-106v915h-150zM799 0v1438h107v-1438h-107z"/>
      </font>
</defs>
</svg>
